<?xml version="1.0" standalone="no"?>
<!DOCTYPE svg PUBLIC "-//W3C//DTD SVG 20010904//EN"
 "http://www.w3.org/TR/2001/REC-SVG-20010904/DTD/svg10.dtd">
<svg version="1.0" xmlns="http://www.w3.org/2000/svg"
 width="849.000000pt" height="849.000000pt" viewBox="0 0 849.000000 849.000000"
 preserveAspectRatio="xMidYMid meet">
<metadata>
Created by potrace 1.14, written by Peter Selinger 2001-2017
</metadata>
<g transform="translate(0.000000,849.000000) scale(0.100000,-0.100000)"
fill="#000000" stroke="none">
<path fill="#000000" stroke="none" d="M4416 7958 c1 -13 3 -26 3 -30 2 -15
28 -8 28 7 0 8 -4 15 -9 15 -4 0 -7 5 -5 11 1 6 -3 13 -9 16 -6 2 -10 -6 -8
-19z"/>
<path fill="#000000" stroke="none" d="M3934 7948 c-8 -13 37 -50 53 -44 8 3
21 6 29 6 24 0 16 17 -11 24 -14 4 -24 10 -21 14 2 4 -7 7 -21 7 -14 0 -27 -3
-29 -7z"/>
<path fill="#000000" stroke="none" d="M4149 7948 c-7 -8 -30 -12 -58 -10 -31
3 -43 1 -36 -6 17 -18 79 -18 95 -1 8 9 22 18 30 22 12 4 12 6 -2 6 -10 1 -22
-5 -29 -11z"/>
<path fill="#000000" stroke="none" d="M3421 7896 c-15 -18 -2 -26 37 -22 28
4 75 24 62 27 -25 5 -63 3 -67 -4 -3 -5 -9 -4 -13 2 -5 9 -10 8 -19 -3z"/>
<path fill="#000000" stroke="none" d="M3733 7877 c-23 -7 -48 -19 -55 -27
-11 -12 -11 -12 5 -1 11 9 21 10 30 4 6 -5 35 -9 62 -7 28 1 54 -1 59 -4 5 -3
21 -6 35 -8 14 -1 50 -5 80 -8 44 -6 53 -5 48 7 -7 17 11 37 33 37 13 0 13 -2
0 -11 -11 -8 -8 -9 13 -4 17 3 35 1 44 -6 33 -28 86 -23 61 6 -12 14 -27 24
-33 22 -5 -3 -32 -1 -58 3 -32 5 -53 3 -64 -5 -12 -9 -25 -10 -41 -4 -39 15
-174 18 -219 6z"/>
<path fill="#000000" stroke="none" d="M3395 7851 c-3 -6 -13 -11 -21 -11 -19
0 -128 -51 -132 -62 -2 -4 -10 -8 -17 -8 -7 0 -16 -7 -19 -16 -9 -24 -8 -26
12 -15 26 14 62 2 62 -20 0 -23 16 -25 24 -3 8 22 8 26 -4 19 -5 -3 -10 -2
-10 3 0 5 15 16 33 23 17 7 42 24 55 36 13 13 30 23 38 23 9 0 14 7 12 17 -4
20 -24 28 -33 14z"/>
<path fill="#000000" stroke="none" d="M3774 7808 c-16 -25 17 -46 39 -23 8 8
17 12 20 9 2 -3 7 1 10 9 5 14 -60 19 -69 5z"/>
<path fill="#000000" stroke="none" d="M3545 7795 c-30 -14 -30 -14 15 -9 25
3 53 6 63 7 9 1 17 5 17 9 0 13 -63 8 -95 -7z"/>
<path fill="#000000" stroke="none" d="M3116 7765 c-26 -24 -34 -45 -18 -45
12 0 42 34 42 47 0 6 6 14 13 16 7 3 7 6 1 6 -6 1 -23 -10 -38 -24z"/>
<path fill="#000000" stroke="none" d="M4794 7768 c-4 -7 -3 -8 5 -4 6 4 26
-2 45 -13 18 -12 40 -21 47 -21 8 0 56 -16 108 -36 51 -19 96 -33 99 -30 6 7
-76 42 -158 68 -36 11 -77 26 -92 34 -32 17 -45 18 -54 2z"/>
<path fill="#000000" stroke="none" d="M3593 7762 c-35 -5 -27 -22 10 -21 31
1 87 15 77 19 -10 4 -66 6 -87 2z"/>
<path fill="#000000" stroke="none" d="M4173 7759 c-43 -13 -51 -29 -10 -19
39 8 81 30 57 29 -8 -1 -29 -5 -47 -10z"/>
<path fill="#000000" stroke="none" d="M5233 7722 c26 -26 62 -56 80 -66 24
-14 16 -2 -34 48 -37 36 -73 66 -80 66 -7 0 8 -22 34 -48z"/>
<path fill="#000000" stroke="none" d="M4347 7735 c15 -7 31 -11 35 -8 6 3
180 -17 278 -32 63 -10 -23 23 -104 40 -89 18 -252 18 -209 0z"/>
<path fill="#000000" stroke="none" d="M5352 7730 c7 -11 21 -20 30 -20 22 0
68 -21 68 -31 0 -5 6 -6 13 -3 7 2 22 -5 34 -16 12 -11 30 -20 40 -20 33 1
-32 42 -139 89 -58 26 -61 26 -46 1z"/>
<path fill="#000000" stroke="none" d="M4017 7710 c-3 -13 0 -20 9 -20 23 0
90 32 77 37 -6 2 -26 -3 -44 -12 -29 -15 -31 -15 -26 -1 4 9 3 16 -2 16 -5 0
-11 -9 -14 -20z"/>
<path fill="#000000" stroke="none" d="M3220 7710 c-8 -5 -15 -15 -15 -22 0
-7 -12 -14 -27 -16 -16 -2 -28 -8 -28 -14 0 -6 -11 -8 -26 -5 -18 3 -24 1 -20
-9 3 -8 1 -14 -4 -14 -6 0 -10 7 -10 15 0 8 -7 15 -15 15 -8 0 -15 -4 -15 -10
0 -5 -7 -10 -16 -10 -47 0 -58 -57 -12 -62 17 -2 33 -9 36 -17 3 -10 -3 -11
-28 -6 -27 6 -32 5 -27 -8 5 -13 0 -15 -30 -10 -24 4 -38 2 -43 -7 -7 -11 -14
-11 -35 -2 -14 7 -23 17 -20 22 10 16 -11 12 -25 -5 -6 -8 -9 -19 -5 -25 3 -5
-1 -13 -9 -16 -9 -3 -13 -10 -10 -15 3 -5 12 -2 20 6 21 21 41 19 49 -5 3 -11
13 -20 21 -20 8 0 14 -6 14 -13 0 -18 -37 -19 -44 -1 -7 18 -84 16 -94 -2 -4
-7 -16 -12 -27 -11 -11 1 -20 -4 -20 -11 0 -16 -24 -32 -40 -26 -7 3 -15 -8
-19 -26 -3 -20 -10 -29 -17 -24 -8 4 -9 -1 -4 -16 6 -18 4 -22 -8 -17 -11 4
-17 -3 -21 -29 -5 -26 -13 -35 -34 -41 -40 -10 -92 -43 -92 -59 0 -7 -13 -20
-28 -28 -42 -22 -57 -43 -43 -60 9 -11 8 -17 -8 -28 -12 -8 -18 -18 -14 -21 8
-9 -34 -46 -66 -58 -17 -7 -22 -15 -18 -29 3 -11 2 -20 -2 -20 -9 0 -41 -66
-41 -85 0 -8 -16 -26 -35 -41 -19 -14 -35 -35 -35 -45 0 -27 -21 -69 -35 -69
-16 0 -28 -99 -14 -117 6 -7 8 -21 5 -30 -6 -14 -9 -14 -15 -4 -7 10 -10 9
-14 -3 -12 -30 40 -18 79 19 45 43 50 43 57 3 4 -26 0 -38 -19 -54 -13 -12
-24 -31 -24 -43 0 -12 -4 -19 -10 -16 -9 6 -14 -8 -11 -28 1 -4 -5 -18 -14
-30 -19 -28 -19 -41 1 -33 19 7 54 -32 47 -51 -10 -24 12 -13 32 17 11 16 27
30 36 30 18 0 34 34 44 93 5 33 8 37 21 26 16 -13 34 1 34 29 0 6 5 12 11 12
7 0 9 -9 5 -22 -4 -13 -9 -38 -13 -55 -5 -31 -16 -42 -26 -25 -2 4 -2 1 -1 -6
2 -7 -5 -21 -16 -32 -11 -11 -20 -33 -20 -49 0 -17 -4 -33 -10 -36 -5 -3 -10
-17 -10 -30 0 -13 -9 -51 -19 -84 -10 -34 -15 -63 -11 -66 4 -3 11 7 15 23 10
39 35 92 61 127 13 17 26 50 30 74 5 30 13 45 25 48 11 3 19 9 19 14 0 5 4 9
9 9 5 0 6 -29 4 -64 -3 -35 -2 -66 3 -69 5 -3 10 28 12 69 2 44 -1 74 -7 74
-17 0 -7 40 15 61 20 19 29 -49 13 -96 -5 -13 21 -75 31 -75 7 0 21 58 24 100
1 8 -7 25 -18 38 -12 13 -15 22 -7 22 8 0 9 6 3 18 -9 19 -8 59 1 69 16 15 37
-21 31 -53 -3 -18 -2 -39 2 -46 5 -7 9 -20 11 -28 1 -8 6 -16 11 -18 5 -1 6
-17 4 -35 -3 -22 -1 -29 6 -22 10 9 14 49 12 108 -1 11 -6 17 -15 14 -10 -4
-12 4 -8 36 7 56 22 83 23 40 0 -35 18 -83 32 -83 4 0 8 -9 8 -20 0 -57 17 -9
19 53 4 165 37 248 44 110 2 -46 17 -72 17 -29 0 16 4 25 10 21 6 -3 10 1 10
9 0 9 -3 16 -7 16 -5 0 -8 14 -9 30 -1 17 3 30 7 30 5 0 9 -8 9 -18 0 -10 7
-27 16 -38 15 -18 15 -18 9 11 -3 17 -6 38 -6 47 0 10 -6 15 -15 11 -8 -3 -14
1 -14 11 0 9 6 16 13 16 8 0 7 4 -3 10 -8 5 -12 10 -7 10 4 0 -2 18 -13 40
-11 22 -16 40 -11 40 15 0 41 -47 54 -97 16 -61 35 -95 50 -90 6 2 19 -6 29
-17 19 -23 18 -24 22 36 1 10 4 18 9 18 4 0 12 0 17 0 6 0 10 -15 11 -32 1
-70 19 -83 33 -24 21 85 40 79 51 -17 8 -68 13 -69 20 -4 5 41 2 52 -40 116
-24 39 -40 71 -35 71 6 0 13 -7 16 -15 4 -8 10 -15 15 -15 14 0 -5 31 -40 65
-35 34 -40 51 -11 35 11 -6 20 -7 20 -2 0 11 56 -36 120 -100 26 -27 52 -48
59 -48 6 0 11 -4 11 -10 0 -20 16 -10 17 11 1 11 -21 52 -49 90 -57 79 -59
101 -4 37 72 -82 77 -87 92 -81 19 7 18 17 -6 38 -11 10 -20 22 -20 27 0 14
22 9 34 -7 6 -9 27 -18 46 -20 33 -4 32 -3 -24 29 -32 19 -65 42 -75 51 -18
19 -18 19 54 -14 27 -12 64 -24 81 -25 17 -2 37 -6 44 -11 7 -4 16 -2 20 5 5
9 9 9 14 1 11 -17 25 -3 19 19 -5 21 11 28 22 10 10 -17 45 -12 39 5 -7 18 7
20 25 3 10 -11 15 -10 25 4 7 10 16 15 19 11 4 -3 9 2 13 11 5 13 9 14 20 5
11 -9 14 -8 14 3 0 8 6 15 13 15 6 0 18 2 26 4 9 3 19 -10 27 -36 12 -40 18
-39 15 1 -1 13 5 24 16 28 10 3 23 8 29 11 7 4 14 -8 18 -30 8 -40 29 -43 34
-6 3 21 5 21 27 7 18 -12 25 -12 28 -3 4 8 8 8 14 2 13 -16 51 -35 70 -35 21
0 -49 66 -81 76 -14 5 -15 8 -6 14 22 13 4 36 -39 48 -58 18 -65 36 -10 27 39
-7 42 -6 30 9 -17 20 -4 20 45 -1 22 -9 51 -15 66 -14 15 0 58 -14 95 -33 111
-57 133 -63 100 -30 -28 28 -34 44 -17 44 7 0 7 7 0 21 -23 42 27 27 82 -25
33 -32 44 -34 24 -4 -25 35 -18 76 8 51 4 -5 11 -8 14 -8 23 0 72 -48 62 -60
-12 -15 4 -51 27 -59 17 -7 16 15 -2 41 -18 26 5 42 25 17 13 -15 40 -19 40
-6 0 18 41 5 68 -21 15 -15 31 -27 35 -27 3 0 22 -16 42 -37 19 -20 35 -34 35
-32 -1 14 -59 117 -64 112 -10 -10 -46 41 -42 60 2 9 0 17 -4 17 -5 0 -35 25
-66 55 -55 52 -68 80 -16 33 22 -20 24 -20 19 -4 -9 23 -108 156 -117 156 -22
0 -15 -18 20 -52 40 -39 49 -58 30 -58 -5 0 -10 -10 -10 -22 0 -23 0 -23 -20
2 -17 22 -20 23 -20 6 0 -22 -25 5 -53 59 -26 49 -75 95 -94 88 -12 -5 -15 -2
-11 9 15 37 -98 114 -204 139 -76 18 -128 38 -100 39 6 0 14 -1 17 -2 2 -2 10
6 18 16 8 11 19 16 26 12 8 -6 9 -12 2 -20 -8 -10 3 -15 47 -23 107 -21 168
-50 227 -111 60 -62 76 -59 20 4 -19 21 -35 43 -35 48 0 12 29 -11 66 -53 20
-23 33 -31 38 -23 4 7 2 12 -3 12 -6 0 -11 5 -11 11 0 5 6 7 13 3 7 -4 9 -3 4
2 -5 5 -12 9 -15 9 -16 1 -61 55 -45 55 9 0 22 -8 30 -17 8 -10 12 -12 8 -5
-3 6 -2 12 3 12 11 0 46 -42 50 -61 6 -31 75 -119 91 -117 8 2 16 -4 16 -12 0
-10 10 -15 28 -14 34 0 35 -9 2 -26 -17 -9 -22 -17 -15 -24 5 -5 10 -17 10
-26 0 -33 135 -132 154 -113 3 4 1 12 -5 20 -9 10 -8 13 5 13 9 0 16 -5 16
-12 0 -6 3 -8 6 -5 4 3 25 -9 47 -28 22 -19 46 -35 53 -35 8 0 18 -9 24 -20 6
-11 20 -20 31 -20 47 0 109 -91 76 -112 -19 -12 -30 -9 -23 8 7 18 -22 66 -35
58 -5 -3 -7 -10 -4 -15 8 -12 1 -11 -30 3 -28 13 -35 34 -7 24 9 -3 -1 10 -23
29 -48 41 -65 45 -36 8 25 -31 21 -40 -8 -22 -26 17 -39 4 -19 -18 9 -10 19
-28 22 -40 4 -13 13 -23 20 -23 8 0 18 -12 24 -27 16 -46 36 -117 34 -126 -1
-4 5 -22 14 -40 29 -56 34 -3 7 65 -14 33 -23 71 -21 86 2 22 7 15 22 -33 10
-33 22 -64 27 -69 5 -6 9 -28 9 -50 0 -25 8 -51 20 -66 23 -29 28 -10 9 37 -7
15 -13 51 -15 78 -2 28 -5 63 -6 80 -2 21 2 30 15 33 9 2 17 -2 17 -8 0 -7 9
-19 20 -28 12 -10 24 -36 28 -62 4 -25 12 -43 17 -40 6 3 9 8 7 13 -1 4 5 7
14 7 9 0 12 5 8 12 -5 8 -2 9 10 5 10 -4 21 -7 26 -7 4 0 13 -13 19 -30 11
-34 36 -42 26 -9 -5 16 -4 19 5 14 9 -6 10 -1 5 16 -5 13 -9 33 -10 44 -1 11
-3 20 -4 20 -2 0 -4 8 -6 17 -4 22 -33 103 -51 143 -7 16 -11 31 -9 34 8 7 45
-43 50 -69 8 -32 37 -91 43 -86 2 3 -3 19 -12 37 -18 37 -14 48 10 28 16 -12
17 -12 12 6 -3 11 -7 27 -9 35 -2 8 -10 21 -16 28 -15 16 -17 62 -4 62 8 0 46
-51 134 -183 15 -23 41 -68 59 -100 37 -68 49 -69 19 -2 -24 55 -26 68 -6 41
23 -31 18 -11 -15 54 -32 64 -36 75 -20 65 5 -3 18 -26 29 -50 11 -25 24 -45
29 -45 6 0 13 -11 16 -24 3 -13 28 -70 55 -127 27 -57 49 -111 49 -119 1 -29
13 -93 18 -101 3 -5 1 -9 -4 -9 -5 0 -14 15 -19 33 -5 17 -15 31 -21 29 -15
-3 -16 15 -1 24 8 5 6 10 -5 16 -9 5 -14 13 -11 19 4 5 -1 9 -11 9 -13 0 -14
3 -4 15 10 12 9 15 -4 15 -10 0 -14 5 -11 10 7 11 -34 74 -43 66 -2 -3 1 -12
7 -20 7 -8 10 -19 7 -24 -3 -5 5 -26 19 -46 27 -40 32 -61 13 -50 -10 6 -10 4
0 -7 17 -18 15 -49 -3 -49 -8 0 -15 8 -15 18 0 22 -46 121 -67 144 -17 19 -38
25 -28 8 4 -6 8 -21 11 -34 7 -39 31 -90 58 -121 14 -16 26 -34 26 -39 0 -5 7
-3 15 4 10 9 15 9 16 1 1 -6 2 -15 3 -21 0 -5 5 -10 10 -9 9 0 24 -36 52 -123
14 -46 34 -65 34 -32 0 8 4 13 8 10 10 -6 8 111 -2 121 -11 11 -6 23 8 23 9 0
19 -20 27 -55 7 -30 16 -55 21 -55 5 0 7 -4 3 -9 -3 -5 -1 -12 5 -16 5 -3 10
-13 10 -21 0 -8 -4 -13 -9 -10 -5 3 -12 -10 -16 -30 -7 -38 1 -57 14 -35 5 7
11 9 14 4 8 -12 -3 -53 -13 -53 -4 0 -10 -11 -12 -25 -3 -14 -1 -25 3 -25 5 0
9 6 9 14 0 7 6 19 14 25 8 7 18 26 22 44 6 31 6 31 25 8 25 -31 71 26 61 77
-4 16 29 72 39 67 10 -7 21 63 19 125 -1 30 -1 60 0 65 1 6 3 35 5 65 2 30 4
57 4 60 6 40 32 -65 35 -140 1 -32 29 -54 32 -25 0 6 3 17 7 25 3 8 8 24 10
35 2 11 12 -17 22 -63 23 -101 40 -95 21 8 -8 41 -12 78 -10 82 31 50 -121
388 -174 388 -5 0 -16 19 -25 42 -9 23 -19 39 -23 36 -3 -3 -1 -14 4 -25 30
-54 52 -125 44 -138 -6 -12 -11 -6 -21 22 -19 52 -56 101 -46 60 10 -40 1 -33
-36 24 -18 29 -35 47 -37 40 -2 -7 3 -20 11 -29 8 -9 27 -42 43 -72 15 -30 30
-57 34 -60 10 -9 31 -56 29 -66 -5 -26 2 -43 15 -38 22 8 33 -23 39 -106 3
-41 7 -81 9 -89 1 -7 -3 -16 -9 -18 -7 -3 -13 3 -13 12 0 9 -9 35 -20 57 -11
23 -20 47 -20 54 0 6 -7 14 -15 18 -21 8 -19 -6 6 -48 12 -20 17 -36 11 -36
-5 0 -13 7 -16 16 -3 8 -10 13 -16 9 -5 -3 -16 8 -25 25 -8 16 -18 30 -21 30
-9 0 7 -64 23 -88 17 -28 21 -47 28 -132 5 -69 4 -66 -29 45 -15 50 -15 50
-10 -15 4 -45 2 -61 -5 -50 -5 8 -7 18 -4 22 2 5 0 14 -5 21 -6 7 -12 28 -15
47 -7 47 -57 230 -69 253 -21 40 -16 7 11 -79 16 -49 34 -116 41 -149 7 -33
16 -68 21 -77 7 -12 6 -18 -2 -18 -6 0 -13 10 -17 22 -5 19 -6 20 -12 4 -3
-10 -10 -18 -15 -18 -6 0 -16 -4 -22 -10 -10 -8 -13 -3 -12 23 0 19 3 28 6 22
2 -7 10 -13 16 -13 8 0 8 3 -1 12 -7 7 -8 17 -1 30 6 12 6 18 -1 18 -5 0 -10
-8 -10 -17 0 -14 -2 -15 -12 -4 -11 10 -10 15 4 25 17 12 8 91 -12 106 -3 3
-9 13 -13 22 -3 10 -12 15 -20 12 -10 -3 -19 13 -31 58 -20 74 -54 153 -62
146 -2 -3 4 -30 16 -59 27 -71 25 -109 -2 -46 -14 31 -26 46 -34 43 -9 -3 -14
2 -14 13 0 46 -117 245 -150 256 -26 8 -26 25 -1 25 11 0 28 -11 39 -25 28
-36 38 -31 12 6 -12 16 -20 33 -16 36 9 9 72 -66 108 -129 18 -31 39 -59 46
-62 14 -6 -2 28 -55 117 -39 64 -36 90 4 42 14 -16 22 -24 19 -17 -4 6 -3 12
3 12 5 0 11 -6 14 -12 3 -10 8 -9 22 2 10 9 20 11 22 5 9 -28 45 -76 61 -82 9
-3 25 -13 35 -21 29 -25 20 5 -12 39 -16 16 -40 45 -52 64 -22 31 -95 82 -111
78 -38 -12 -195 95 -166 113 6 4 15 -1 20 -10 5 -9 14 -16 20 -16 7 0 6 6 -2
15 -16 20 -5 32 14 16 12 -10 13 -9 9 6 -3 10 -19 29 -35 42 -31 25 -31 25
-19 2 15 -27 5 -43 -12 -20 -7 9 -22 19 -35 23 -12 4 -22 13 -22 20 0 14 -67
9 -76 -6 -3 -5 -12 -4 -20 3 -18 15 -20 -11 -1 -30 10 -11 9 -13 -2 -9 -8 2
-23 20 -33 39 -11 18 -24 43 -31 54 -6 11 -10 23 -9 27 1 5 -4 7 -11 5 -7 -1
-11 7 -9 23 1 17 -1 21 -6 12 -7 -10 -11 -10 -22 3 -10 12 -10 15 1 15 7 0 -3
17 -23 38 -19 20 -33 43 -31 50 4 9 -2 11 -21 6 -20 -5 -25 -3 -21 8 4 9 -5
20 -22 29 -15 8 -32 19 -38 26 -6 8 -53 14 -130 17 -66 2 -113 2 -103 0 17 -5
32 -33 23 -43 -3 -3 -15 1 -27 8 -12 7 -17 8 -13 1 4 -7 -4 -8 -27 -3 -51 11
-183 5 -258 -11 -8 -2 -34 -7 -58 -11 -23 -4 -45 -12 -48 -16 -7 -13 -48 -11
-61 2 -8 8 -19 6 -40 -4 -16 -9 -58 -25 -93 -36 -36 -12 -73 -26 -82 -31 -10
-6 -25 -10 -33 -10 -9 0 -35 -9 -58 -21 -41 -20 -127 -33 -127 -18 0 4 6 9 13
12 6 2 10 7 7 9 -18 20 -364 -99 -384 -131 -10 -15 -26 -14 -26 3 0 7 10 21
23 29 12 9 17 16 11 16 -6 1 -17 -6 -24 -14 -7 -8 -23 -15 -36 -15 -13 0 -24
-4 -24 -9 0 -11 -62 -51 -79 -51 -26 0 -4 34 27 42 17 5 32 15 32 23 0 7 17
19 38 25 20 6 43 14 51 16 8 2 12 7 9 10 -3 2 -17 0 -32 -6 -21 -7 -27 -7 -24
2 2 6 12 12 22 14 19 3 49 25 42 31 -2 3 -18 -3 -35 -11 -40 -21 -68 -22 -51
-1 7 8 18 15 24 15 6 0 24 7 39 15 16 8 44 13 63 10 19 -2 45 0 57 5 12 5 35
11 50 15 34 7 27 24 -8 17 -14 -2 -25 0 -25 6 0 6 -18 13 -40 17 -58 10 -49
25 14 25 52 0 80 -12 54 -23 -7 -3 2 -4 20 -2 23 2 32 -1 29 -10 -4 -9 14 -9
82 0 99 14 108 18 176 74 27 23 57 41 67 41 9 0 20 5 23 10 13 21 -43 9 -69
-15 -33 -31 -83 -58 -99 -52 -6 2 14 19 45 37 63 38 65 46 10 41 -37 -3 -37
-3 -18 18 11 12 17 21 15 21 -9 0 -156 -60 -197 -80 -24 -12 -51 -19 -59 -15
-21 7 -12 15 23 21 16 3 34 10 39 16 7 7 3 8 -11 4 -14 -4 -24 -2 -27 8 -4 9
-14 12 -25 9 -11 -2 -23 0 -26 6 -4 6 0 11 8 11 10 0 13 6 10 15 -7 17 -13 18
-34 5z"/>
<path fill="#ffffff" stroke="none" d="M4563 7590 c19 0 113 -88 104 -97 -4
-3 -19 4 -34 18 -27 24 -27 24 -10 -3 28 -45 6 -32 -58 32 -33 33 -65 60 -73
60 -7 0 -10 4 -7 10 4 6 17 4 35 -5 16 -8 35 -15 43 -15z"/>
<path fill="#ffffff" stroke="none" d="M4310 7510 c11 -5 25 -10 32 -10 7 0
25 -11 40 -25 15 -14 31 -25 35 -25 14 0 95 -90 82 -90 -14 0 36 -56 64 -71
30 -17 20 15 -11 33 -18 11 -31 31 -40 60 -11 39 -82 129 -100 127 -19 -3 -22
3 -7 17 17 17 19 16 73 -33 7 -7 16 -13 20 -13 4 -1 23 -25 42 -55 52 -81 67
-75 25 10 -13 27 -22 51 -20 54 10 9 33 -22 39 -53 4 -18 17 -43 31 -56 14
-13 25 -27 25 -32 0 -5 9 -30 21 -55 19 -42 19 -75 -1 -43 -5 8 -12 12 -15 9
-10 -10 5 -33 34 -54 44 -31 104 -86 99 -90 -6 -6 -86 53 -126 92 -39 39 -45
41 -37 11 6 -23 6 -23 -9 -3 -21 28 -29 35 -82 75 -72 55 -173 151 -179 170
-3 10 -26 28 -50 39 -25 12 -45 26 -45 31 0 7 7 7 20 0 11 -5 29 -14 40 -20z"/>
<path fill="#ffffff" stroke="none" d="M4700 7403 c0 -7 -4 -13 -10 -13 -5 0
-10 6 -10 13 0 8 -9 24 -20 37 -11 13 -20 28 -20 34 1 15 60 -55 60 -71z"/>
<path fill="#ffffff" stroke="none" d="M4758 7388 c41 -74 52 -115 20 -73 -18
22 -58 108 -58 123 0 11 13 -6 38 -50z"/>
<path fill="#ffffff" stroke="none" d="M2903 7421 c14 -2 7 -51 -8 -51 -8 0
-15 7 -15 15 0 9 -11 20 -25 25 -45 17 -25 22 48 11z"/>
<path fill="#ffffff" stroke="none" d="M4726 7372 c28 -44 28 -89 0 -57 -14
17 -25 40 -26 53 0 27 11 29 26 4z"/>
<path fill="#ffffff" stroke="none" d="M3833 7324 c16 -13 33 -24 39 -24 6 0
25 -13 43 -29 30 -26 43 -29 127 -35 126 -10 172 -30 133 -58 -16 -12 -27 -9
-19 4 5 8 2 9 -12 4 -10 -4 -31 -10 -46 -13 -16 -3 -28 -10 -28 -15 0 -5 -4
-7 -8 -4 -13 8 -161 -21 -198 -39 -19 -9 -49 -18 -66 -20 -18 -2 -37 -10 -43
-17 -7 -9 -44 -14 -115 -16 -57 -2 -112 -8 -122 -13 -24 -13 -65 -11 -101 5
-52 22 -157 35 -157 19 0 -10 -14 -12 -62 -8 -70 7 -90 15 -35 15 46 0 56 16
15 24 -40 8 -29 20 17 18 45 -2 38 12 -21 39 -24 12 -42 24 -39 28 4 8 -44 27
-87 35 -14 2 -36 10 -48 16 -20 11 -21 10 -15 -9 6 -19 4 -20 -17 -12 -13 5
-31 12 -42 15 -26 9 -5 32 36 40 24 5 40 1 60 -14 15 -11 37 -20 50 -20 13 0
32 -7 42 -15 11 -8 35 -15 53 -15 19 0 55 -11 81 -24 26 -13 68 -29 92 -36 25
-6 50 -18 56 -26 7 -8 34 -15 69 -17 50 -3 55 -2 40 10 -11 7 -24 13 -30 13
-6 0 -29 8 -51 19 -21 10 -65 24 -96 31 -69 14 -78 34 -14 29 24 -2 43 -2 41
1 -2 3 105 4 238 2 160 -2 237 1 227 7 -8 6 -11 13 -8 16 4 4 17 0 30 -9 12
-9 36 -16 53 -15 40 1 -20 30 -75 35 -19 2 -64 10 -100 18 -58 13 -127 24
-155 26 -5 0 -4 4 2 8 17 11 153 -3 228 -22 87 -23 95 -20 50 19 -22 19 -44
35 -50 35 -5 0 -19 8 -30 17 -19 15 -19 15 9 9 16 -4 43 -18 59 -32z"/>
<path fill="#ffffff" stroke="none" d="M4063 7300 c6 -32 -2 -42 -10 -12 -3
12 -9 22 -13 22 -11 0 -40 29 -40 40 0 20 59 -26 63 -50z"/>
<path fill="#ffffff" stroke="none" d="M3963 7344 c57 -10 46 -28 -13 -20 -72
10 -107 25 -60 25 19 1 52 -2 73 -5z"/>
<path fill="#ffffff" stroke="none" d="M4953 7285 c20 -20 40 -47 43 -60 4
-14 13 -25 23 -25 29 0 58 -27 44 -41 -13 -13 -111 11 -105 25 4 11 -44 46
-62 46 -9 0 -16 5 -16 11 0 7 12 10 30 7 17 -3 30 -3 30 -2 0 8 -52 54 -61 54
-6 0 -7 5 -4 10 12 19 42 10 78 -25z"/>
<path fill="#ffffff" stroke="none" d="M4463 7283 c27 -15 29 -18 12 -21 -10
-2 -21 1 -23 7 -2 6 -10 11 -18 11 -8 0 -14 5 -14 10 0 14 6 13 43 -7z"/>
<path fill="#ffffff" stroke="none" d="M2820 7233 c0 -6 -8 -9 -20 -6 -39 10
-21 -24 28 -52 17 -11 32 -23 32 -27 0 -15 -53 -8 -64 8 -9 12 -17 13 -39 5
-28 -11 -29 -31 -1 -31 8 0 14 -5 14 -11 0 -6 -10 -10 -22 -9 -39 4 -48 0 -42
-15 5 -12 -2 -15 -31 -15 -47 0 -48 38 0 53 17 6 34 16 38 23 4 8 17 14 27 14
30 0 34 19 10 45 -23 24 -23 24 3 34 14 5 28 15 32 21 8 12 34 -16 35 -37z"/>
<path fill="#ffffff" stroke="none" d="M4553 7140 c4 0 33 -18 64 -40 32 -22
66 -40 75 -40 9 0 33 -19 53 -42 20 -24 34 -35 31 -25 -3 9 -2 17 3 17 13 0
41 -79 30 -86 -5 -3 -9 -1 -9 4 0 6 -19 21 -43 35 -23 14 -50 34 -60 45 -11
12 -26 18 -38 15 -11 -3 -19 0 -19 7 0 13 -24 40 -37 40 -29 1 -114 79 -96 89
13 8 21 7 29 -4 6 -8 14 -15 17 -15z"/>
<path fill="#ffffff" stroke="none" d="M3007 7014 c78 -10 58 -29 -32 -29 -77
0 -86 4 -60 25 11 9 13 16 5 24 -21 21 -9 29 13 8 13 -12 42 -23 74 -28z"/>
<path fill="#ffffff" stroke="none" d="M2619 7001 c37 -34 37 -37 11 -37 -11
0 -20 6 -20 13 0 8 -7 16 -15 19 -8 4 -15 12 -15 20 0 19 4 18 39 -15z"/>
<path fill="#ffffff" stroke="none" d="M3160 7001 c-64 -17 -90 -17 -90 0 0 7
47 14 125 17 17 0 2 -7 -35 -17z"/>
<path fill="#ffffff" stroke="none" d="M3108 6944 c12 -8 22 -19 22 -25 0 -7
-9 -6 -23 4 -32 20 -97 34 -79 16 14 -15 16 -29 4 -29 -8 0 -32 43 -32 56 0 9
86 -9 108 -22z"/>
<path fill="#ffffff" stroke="none" d="M4830 6816 c0 -8 10 -22 22 -30 12 -9
18 -19 14 -23 -4 -5 -19 5 -32 20 -25 30 -31 47 -14 47 6 0 10 -6 10 -14z"/>
<path fill="#ffffff" stroke="none" d="M2535 6690 c14 -16 15 -23 6 -34 -11
-13 -15 -53 -11 -110 1 -18 -7 -33 -14 -25 -15 16 -14 129 2 138 9 6 12 11 6
11 -13 0 -27 40 -15 40 5 0 16 -9 26 -20z"/>
<path fill="#ffffff" stroke="none" d="M2310 6418 c0 -7 -23 -49 -38 -68 -5
-6 -32 31 -32 44 0 5 3 6 7 3 10 -11 32 13 27 28 -4 10 0 12 15 8 12 -3 21 -9
21 -15z"/>
<path fill="#000000" stroke="none" d="M3678 7175 c-2 -2 -26 -5 -53 -6 -119
-4 -133 -18 -45 -43 32 -9 62 -22 66 -27 9 -15 104 -2 124 16 9 8 38 18 64 21
25 4 49 11 52 15 3 5 15 9 27 10 22 0 22 0 1 11 -15 7 -48 6 -113 -4 -50 -8
-91 -11 -91 -7 0 8 -26 20 -32 14z"/>
<path fill="#000000" stroke="none" d="M3920 7709 c-19 -5 -42 -13 -50 -18 -9
-5 -30 -12 -48 -16 -18 -3 -32 -10 -32 -15 0 -4 -10 -6 -22 -2 -16 4 -19 2
-13 -8 6 -10 3 -12 -11 -8 -11 3 -28 -4 -39 -14 -20 -19 -20 -20 10 -12 27 7
29 6 16 -9 -7 -10 -24 -17 -36 -17 -12 0 -29 -7 -36 -17 -20 -24 34 -10 83 23
21 13 42 24 48 24 6 0 39 13 73 29 34 16 78 34 97 41 73 27 44 41 -40 19z"/>
<path fill="#000000" stroke="none" d="M4406 7691 c-5 -7 3 -11 21 -11 15 0
53 -3 83 -6 48 -6 68 6 22 12 -99 14 -120 15 -126 5z"/>
<path fill="#000000" stroke="none" d="M4173 7656 c-28 -6 -54 -14 -58 -17 -7
-8 67 -2 115 9 57 13 4 20 -57 8z"/>
<path fill="#000000" stroke="none" d="M5120 7640 c6 -12 19 -24 28 -27 9 -3
38 -21 65 -40 26 -18 51 -33 56 -33 5 0 14 -7 21 -15 7 -8 16 -15 21 -15 5 0
9 7 9 15 0 8 -5 15 -10 15 -12 0 -27 11 -76 57 -19 18 -34 30 -34 26 0 -3 -8
1 -17 9 -32 27 -76 33 -63 8z"/>
<path fill="#000000" stroke="none" d="M4920 7634 c0 -8 71 -36 77 -30 3 3 4
9 0 12 -6 7 -77 24 -77 18z"/>
<path fill="#000000" stroke="none" d="M4758 7608 c17 -17 15 -33 -3 -18 -33
28 -48 2 -17 -30 17 -16 33 -43 37 -60 4 -16 11 -30 16 -30 5 0 9 -7 9 -15 0
-8 9 -23 20 -32 11 -10 20 -21 20 -25 0 -8 37 -48 43 -48 6 0 1 63 -7 98 -4
17 -12 32 -17 32 -5 0 -9 5 -9 10 0 21 22 9 38 -22 22 -40 82 -100 96 -95 6 3
24 -7 40 -22 29 -26 29 -26 10 1 -10 15 -22 28 -26 28 -5 0 -8 6 -8 12 0 7
-19 29 -42 49 -45 39 -50 61 -7 31 13 -9 30 -18 38 -19 8 -1 23 -12 33 -25 10
-13 18 -20 18 -15 0 12 -24 51 -37 60 -13 8 -18 37 -7 37 3 0 20 -11 38 -25
18 -14 38 -25 44 -25 7 0 12 -4 12 -10 0 -5 9 -10 20 -10 11 0 20 5 20 10 0 6
7 10 15 10 8 0 15 5 15 10 0 14 -13 13 -28 -2 -15 -15 -21 -9 -24 23 -4 31
-32 56 -80 71 -21 6 -38 14 -38 17 0 11 -44 6 -65 -7 -16 -9 -17 -11 -4 -12
19 0 42 -25 45 -47 1 -8 -3 -12 -9 -10 -7 2 -12 10 -12 18 0 10 -10 13 -33 11
-17 -2 -32 1 -32 6 0 11 -105 82 -122 82 -9 0 -9 -3 0 -12z"/>
<path fill="#000000" stroke="none" d="M5290 7581 c0 -19 48 -42 54 -25 4 9
-3 18 -20 24 -31 12 -34 12 -34 1z"/>
<path fill="#000000" stroke="none" d="M5708 7538 c15 -15 16 -32 2 -23 -5 3
-10 2 -10 -2 0 -5 10 -14 23 -22 21 -13 21 -13 7 4 -14 17 -13 17 9 10 24 -7
24 -7 -4 19 -27 26 -51 38 -27 14z"/>
<path fill="#000000" stroke="none" d="M5603 7495 c15 -14 33 -25 40 -25 7 0
-1 12 -16 25 -15 14 -33 25 -40 25 -7 0 1 -12 16 -25z"/>
<path fill="#000000" stroke="none" d="M5336 7483 c-4 -4 11 -25 33 -47 71
-73 181 -201 181 -212 0 -5 20 -32 45 -60 45 -50 62 -82 25 -49 -29 26 -24 4
9 -41 39 -54 75 -86 65 -58 -7 17 -6 17 9 5 9 -7 17 -9 17 -3 0 5 -7 15 -15
22 -8 7 -15 18 -15 24 0 7 -8 21 -17 32 -17 19 -73 118 -73 130 0 15 23 -14
65 -82 44 -73 75 -114 75 -98 0 11 -60 113 -71 119 -5 4 -9 13 -9 21 0 9 5 12
11 8 6 -3 0 13 -13 36 -32 60 -179 205 -190 188 -4 -7 -8 -8 -9 -3 -4 24 -6
31 -14 47 -4 10 -11 16 -15 13 -5 -3 -11 -1 -15 5 -7 12 -25 13 -25 2 0 -4 10
-12 22 -17 12 -6 24 -16 26 -23 4 -14 -39 9 -66 35 -15 15 -25 16 -36 6z"/>
<path fill="#000000" stroke="none" d="M5690 7440 c0 -5 5 -10 10 -10 6 0 10
-6 10 -13 0 -14 131 -149 138 -142 7 7 -22 46 -77 102 -28 29 -51 57 -51 63 0
5 -7 10 -15 10 -8 0 -15 -4 -15 -10z"/>
<path fill="#000000" stroke="none" d="M5780 7430 c0 -6 7 -13 15 -16 8 -4 13
-10 10 -14 -6 -9 12 -23 32 -26 17 -3 2 25 -26 49 -24 20 -31 21 -31 7z"/>
<path fill="#000000" stroke="none" d="M5212 7399 c-14 -21 24 -79 51 -79 5 0
22 -9 37 -20 35 -25 65 -18 49 12 -13 23 -74 80 -85 78 -4 -1 -11 5 -16 14
-12 21 -21 20 -36 -5z"/>
<path fill="#000000" stroke="none" d="M2508 7277 c-35 -14 -36 -26 -1 -24 16
2 27 9 29 20 1 9 2 17 1 16 -1 -1 -14 -6 -29 -12z"/>
<path fill="#000000" stroke="none" d="M5150 7273 c0 -6 5 -15 10 -18 6 -3 10
-13 10 -22 0 -14 -2 -14 -19 1 -14 12 -24 14 -42 7 -13 -5 -18 -10 -11 -10 6
-1 12 -6 12 -12 0 -12 25 -39 35 -39 4 0 0 11 -9 25 -24 36 -19 42 12 13 33
-31 59 -41 65 -25 3 8 14 3 31 -12 26 -24 26 -24 26 -3 0 12 -7 27 -15 34 -9
7 -22 19 -30 26 -8 7 -21 12 -29 10 -8 -2 -22 6 -30 17 -9 11 -16 15 -16 8z"/>
<path fill="#000000" stroke="none" d="M5375 7250 c9 -16 22 -30 30 -30 20 0
19 5 -7 35 -30 34 -42 32 -23 -5z"/>
<path fill="#000000" stroke="none" d="M5300 7261 c0 -5 -9 -12 -19 -16 -22
-7 -18 -35 4 -35 7 0 15 -5 17 -11 5 -15 78 -40 78 -26 0 12 -27 34 -58 47
-17 8 -22 15 -17 30 3 11 4 20 1 20 -3 0 -6 -4 -6 -9z"/>
<path fill="#000000" stroke="none" d="M5500 7195 c17 -25 34 -45 38 -45 4 0
18 -18 32 -40 34 -55 38 -41 5 17 -31 52 -83 113 -97 113 -5 0 5 -20 22 -45z"/>
<path fill="#000000" stroke="none" d="M5450 7191 c0 -18 39 -69 99 -130 38
-38 47 -44 46 -28 -1 12 -26 42 -55 69 -29 26 -62 60 -72 75 -10 16 -18 22
-18 14z"/>
<path fill="#000000" stroke="none" d="M5330 7163 c0 -4 26 -33 57 -63 32 -30
52 -48 45 -39 -6 9 -9 18 -7 21 3 3 -17 24 -45 48 -27 23 -50 38 -50 33z"/>
<path fill="#000000" stroke="none" d="M5760 7047 c0 -19 71 -159 78 -152 3 2
-2 19 -11 37 -8 18 -18 44 -22 58 -9 35 -44 81 -45 57z"/>
<path fill="#000000" stroke="none" d="M4448 7044 c-10 -9 10 -44 25 -44 7 0
20 -8 29 -17 41 -43 58 -56 64 -50 10 10 -68 95 -88 96 -9 1 -18 6 -20 12 -2
5 -7 7 -10 3z"/>
<path fill="#000000" stroke="none" d="M5248 7044 c-4 -4 4 -29 19 -56 14 -26
28 -46 30 -44 3 2 -4 19 -14 38 -10 18 -20 41 -23 51 -3 10 -8 15 -12 11z"/>
<path fill="#000000" stroke="none" d="M5730 7028 c0 -13 30 -77 39 -83 14 -8
-8 56 -25 75 -8 8 -14 12 -14 8z"/>
<path fill="#000000" stroke="none" d="M3820 6980 c0 -5 9 -11 19 -15 11 -3
27 -17 36 -31 13 -21 54 -45 75 -45 3 0 13 -8 23 -16 16 -15 17 -15 17 1 0 10
5 14 11 10 7 -4 10 -1 7 7 -2 7 -24 18 -49 22 -48 10 -72 24 -63 38 3 5 -2 6
-10 3 -9 -3 -16 -2 -16 3 0 6 -11 15 -25 21 -14 6 -25 7 -25 2z"/>
<path fill="#000000" stroke="none" d="M5680 6955 c0 -3 8 -17 17 -31 12 -18
13 -28 5 -33 -8 -5 -7 -14 3 -35 8 -15 14 -32 12 -38 -1 -6 6 -12 16 -13 23
-4 22 17 -3 45 -12 13 -18 30 -15 38 2 7 -2 26 -10 43 -14 27 -25 37 -25 24z"/>
<path fill="#000000" stroke="none" d="M5390 6939 c0 -8 11 -30 25 -49 14 -19
25 -40 25 -47 0 -7 4 -13 10 -13 5 0 7 -6 4 -13 -2 -7 4 -22 16 -32 11 -10 20
-26 20 -36 0 -18 17 -35 26 -26 8 8 -51 129 -90 182 -20 27 -36 43 -36 34z"/>
<path fill="#000000" stroke="none" d="M5920 6859 c0 -8 11 -38 25 -67 14 -30
25 -73 26 -95 2 -70 17 -102 18 -37 0 30 -6 72 -14 93 -8 20 -21 53 -28 72
-15 40 -27 55 -27 34z"/>
<path fill="#000000" stroke="none" d="M4390 6812 c19 -15 48 -34 65 -43 16
-9 36 -28 43 -43 11 -22 16 -25 28 -16 17 15 -23 58 -93 102 -58 37 -90 38
-43 0z"/>
<path fill="#000000" stroke="none" d="M4510 6775 c6 -8 21 -17 32 -21 11 -3
17 -12 15 -19 -6 -14 11 -35 27 -35 6 0 5 5 -2 12 -7 7 -12 20 -12 29 0 17
-40 49 -61 49 -8 0 -8 -4 1 -15z"/>
<path fill="#000000" stroke="none" d="M5781 6683 c0 -12 -5 -24 -10 -27 -15
-9 -4 -104 13 -122 15 -14 16 -11 15 38 0 55 -16 150 -18 111z"/>
<path fill="#000000" stroke="none" d="M5064 6674 c3 -9 6 -18 6 -20 0 -3 5
-2 10 1 6 3 10 -3 10 -13 0 -26 25 -84 32 -76 6 5 -10 54 -34 102 -13 25 -33
31 -24 6z"/>
<path fill="#000000" stroke="none" d="M5880 6669 c0 -6 5 -20 12 -32 13 -24
14 -28 16 -221 3 -169 10 -157 18 27 5 129 4 153 -13 192 -17 42 -33 59 -33
34z"/>
<path fill="#000000" stroke="none" d="M6260 6598 c0 -9 -7 -18 -15 -22 -8 -3
-15 0 -15 6 0 6 -3 9 -6 5 -3 -3 -2 -11 2 -18 4 -7 9 -27 11 -44 1 -16 5 -45
8 -63 4 -23 3 -32 -4 -27 -6 3 -11 15 -11 25 0 10 -5 22 -11 26 -7 4 -9 0 -6
-12 18 -67 19 -98 1 -83 -17 13 -17 13 -1 -12 10 -14 14 -29 10 -34 -5 -4 -3
-5 4 -1 7 4 12 0 11 -11 0 -24 43 -166 55 -178 6 -6 7 10 4 45 -7 59 10 38 19
-25 6 -42 32 -196 37 -220 2 -11 10 -33 17 -50 7 -16 22 -50 33 -75 10 -25 26
-49 33 -53 8 -5 12 -12 9 -18 -4 -5 1 -9 9 -9 21 0 21 2 -18 62 -32 51 -66
147 -66 185 1 12 10 3 26 -24 25 -41 44 -55 44 -33 0 5 -9 24 -19 41 -21 34
-18 61 5 52 8 -3 14 1 14 9 0 9 -9 14 -22 14 -14 -1 -24 6 -26 18 -3 16 0 18
22 12 31 -8 33 -3 7 21 -24 22 -62 128 -55 151 4 13 3 14 -3 4 -7 -10 -17 -2
-37 28 -19 29 -32 40 -43 36 -12 -5 -14 -1 -10 14 3 11 1 23 -4 26 -14 8 -11
21 7 28 22 9 32 -3 14 -14 -10 -7 -11 -10 -2 -10 6 0 12 -6 12 -14 0 -14 29
-31 38 -21 3 2 -1 11 -7 19 -14 16 -6 40 10 31 5 -4 9 -14 9 -23 1 -31 43 -72
68 -66 21 6 32 34 13 34 -9 0 -21 26 -25 57 -1 8 -7 18 -12 21 -10 8 -15 23
-20 67 -6 46 -24 95 -35 95 -6 0 -7 -4 -4 -10 3 -5 2 -10 -4 -10 -5 0 -14 6
-18 13 -18 28 -53 51 -53 35z"/>
<path fill="#000000" stroke="none" d="M2771 6488 c-9 -31 -14 -89 -12 -147 2
-42 19 -10 29 54 5 33 10 65 12 70 13 51 -13 72 -29 23z"/>
<path fill="#000000" stroke="none" d="M6083 6485 c13 -47 19 -208 8 -201 -6
4 -11 14 -11 22 0 8 -4 13 -9 10 -11 -7 -23 67 -15 98 3 13 1 27 -5 30 -7 5
-12 -5 -13 -26 -1 -18 -3 -53 -6 -78 -10 -106 -6 -168 13 -204 20 -38 35 -46
35 -21 0 8 5 15 10 15 6 0 9 -3 8 -7 -6 -18 28 -109 64 -176 21 -39 37 -63 34
-52 -35 149 -21 183 32 71 13 -26 25 -46 28 -44 7 7 -39 128 -46 123 -8 -5
-26 72 -36 148 -10 68 -22 67 -30 -3 -8 -72 -24 -89 -25 -28 -6 275 -9 313
-30 332 -8 8 -10 6 -6 -9z"/>
<path fill="#000000" stroke="none" d="M5110 6420 c0 -18 38 -53 49 -45 6 3
11 -1 11 -9 0 -9 -5 -16 -11 -16 -5 0 -7 -5 -4 -10 4 -6 15 -8 26 -5 14 5 17
2 13 -8 -5 -15 7 -31 45 -57 11 -8 21 -20 21 -28 0 -9 7 -11 22 -7 16 6 20 4
15 -8 -8 -20 18 -43 29 -26 4 7 -10 27 -35 50 -38 35 -42 44 -18 40 5 -1 7 4
4 11 -2 7 -10 12 -16 11 -6 -2 -11 1 -11 5 0 16 -39 54 -48 48 -5 -3 -14 6
-20 19 -7 15 -20 25 -32 25 -11 0 -20 5 -20 10 0 6 -4 10 -10 10 -5 0 -10 -5
-10 -10z"/>
<path fill="#000000" stroke="none" d="M2821 6378 c1 -70 17 -93 18 -26 1 31
-3 60 -9 63 -6 4 -10 -11 -9 -37z"/>
<path fill="#000000" stroke="none" d="M5947 6403 c-18 -17 -4 -129 14 -117
11 7 12 54 1 54 -4 0 -6 16 -4 35 4 35 2 41 -11 28z"/>
<path fill="#000000" stroke="none" d="M2571 6309 c-14 -47 -8 -62 14 -33 18
24 19 34 3 34 -10 0 -10 2 -1 8 7 4 9 13 4 20 -5 8 -12 -2 -20 -29z"/>
<path fill="#000000" stroke="none" d="M2132 6250 c-22 -40 -28 -58 -17 -54 8
4 15 14 15 25 0 10 6 22 14 26 12 8 36 45 36 57 0 20 -19 -2 -48 -54z"/>
<path fill="#000000" stroke="none" d="M2266 6284 c-11 -28 -7 -44 9 -38 8 4
15 17 15 30 0 27 -15 32 -24 8z"/>
<path fill="#000000" stroke="none" d="M2720 6300 c-9 -30 -11 -52 -11 -88 0
-26 -3 -40 -9 -37 -9 6 -15 -30 -11 -65 0 -8 2 -39 2 -67 2 -56 5 -57 46 -19
25 23 30 61 11 69 -10 4 -10 6 0 6 6 1 12 11 12 23 0 46 -34 198 -40 178z"/>
<path fill="#000000" stroke="none" d="M2460 6269 c0 -6 -8 -21 -18 -34 -11
-14 -24 -57 -31 -102 -7 -43 -19 -100 -27 -128 -26 -84 -25 -82 -34 -60 -10
24 -36 -28 -41 -80 -4 -45 12 -175 22 -175 5 0 9 -10 9 -22 0 -49 38 39 45
104 6 56 5 66 -10 72 -21 8 -19 16 28 151 20 55 38 116 40 135 3 19 12 58 21
85 19 59 19 65 6 65 -5 0 -10 -5 -10 -11z"/>
<path fill="#000000" stroke="none" d="M1952 6248 c-15 -15 -16 -78 -1 -78 5
0 7 -6 3 -12 -4 -8 -2 -8 7 1 11 10 11 15 2 18 -16 6 -17 55 -1 71 7 7 10 12
7 12 -3 0 -10 -5 -17 -12z"/>
<path fill="#000000" stroke="none" d="M5065 6236 c-11 -9 -15 -16 -8 -16 6 0
9 -8 6 -19 -3 -10 -1 -21 4 -24 5 -3 9 4 9 16 -1 16 4 21 19 19 12 -2 16 0 9
5 -6 4 -13 14 -15 21 -3 10 -9 9 -24 -2z"/>
<path fill="#000000" stroke="none" d="M2596 6201 c-15 -24 -14 -112 1 -107 8
3 16 6 18 6 5 0 -4 103 -9 108 -2 2 -7 -1 -10 -7z"/>
<path fill="#000000" stroke="none" d="M5170 6201 c0 -5 6 -12 13 -14 9 -4 9
-6 0 -6 -12 -1 -43 -61 -43 -82 0 -23 18 -5 24 23 3 17 13 40 22 49 9 10 13
23 9 28 -8 13 -25 14 -25 2z"/>
<path fill="#000000" stroke="none" d="M6226 6141 c-8 -42 16 -121 37 -121 9
0 9 -2 -7 56 -8 27 -16 63 -18 79 -3 27 -4 26 -12 -14z"/>
<path fill="#000000" stroke="none" d="M6440 6170 c0 -6 7 -10 16 -10 12 0 15
-6 11 -21 -3 -12 0 -28 8 -35 17 -17 29 -18 19 -3 -4 7 -7 23 -8 37 -1 24 -46
55 -46 32z"/>
<path fill="#000000" stroke="none" d="M5729 6144 c-17 -21 -39 -123 -27 -130
9 -6 28 38 28 66 0 10 6 21 13 23 7 3 5 6 -5 6 -23 1 -23 10 -1 27 10 7 15 15
12 18 -3 4 -12 -1 -20 -10z"/>
<path fill="#000000" stroke="none" d="M2651 6078 c-1 -31 -21 -49 -21 -19 0
23 -7 26 -29 12 -9 -6 -10 -11 -2 -15 6 -4 11 -16 11 -28 0 -19 -1 -19 -20 3
-16 21 -20 21 -21 7 -3 -32 -4 -36 -11 -44 -5 -4 -8 -14 -8 -22 0 -33 -32 -83
-46 -71 -8 6 -14 10 -15 8 -17 -102 -3 -132 38 -78 24 32 52 61 63 64 10 3 22
15 25 26 4 11 17 27 31 35 25 17 31 69 14 124 -8 25 -8 25 -9 -2z"/>
<path fill="#000000" stroke="none" d="M5103 6055 c1 -22 6 -35 14 -35 17 0
17 38 -1 55 -12 12 -14 9 -13 -20z"/>
<path fill="#000000" stroke="none" d="M2121 6016 c-15 -18 -24 -86 -11 -86
13 0 30 35 35 70 4 32 -6 38 -24 16z"/>
<path fill="#000000" stroke="none" d="M2440 5923 c0 -5 -7 -41 -15 -81 -10
-49 -12 -79 -6 -90 13 -22 26 10 35 88 4 30 10 63 12 73 4 11 0 17 -10 17 -9
0 -16 -3 -16 -7z"/>
<path fill="#000000" stroke="none" d="M2526 5777 c-23 -35 -26 -49 -22 -84 3
-23 1 -45 -4 -48 -13 -8 -13 -25 -1 -25 14 0 34 64 21 68 -13 5 -13 39 0 47
11 7 42 76 37 81 -2 2 -15 -16 -31 -39z"/>
<path fill="#000000" stroke="none" d="M2206 5719 c-9 -27 -15 -53 -12 -58 3
-5 -1 -22 -9 -37 -17 -33 -20 -68 -5 -59 6 3 10 15 10 25 0 19 17 36 26 27 3
-3 0 -15 -6 -27 -12 -22 -27 -119 -16 -109 3 3 7 14 9 25 4 30 18 46 33 40 11
-4 14 3 13 27 0 17 2 47 4 65 3 19 1 32 -5 32 -6 0 -8 16 -4 44 10 65 -15 68
-38 5z"/>
<path fill="#000000" stroke="none" d="M6404 5735 c2 -19 5 -38 9 -41 3 -3 3
-12 0 -20 -4 -10 0 -12 11 -8 18 7 21 20 6 29 -6 4 -8 15 -5 24 6 20 -3 51
-15 51 -4 0 -7 -16 -6 -35z"/>
<path fill="#000000" stroke="none" d="M2590 5610 c-8 -5 -17 -7 -21 -4 -4 2
-14 -7 -23 -21 -15 -23 -48 -35 -45 -17 3 18 -2 32 -12 32 -6 0 -9 -7 -6 -15
4 -8 0 -27 -8 -42 -8 -15 -20 -53 -26 -83 -6 -30 -18 -60 -26 -67 -9 -7 -13
-19 -10 -28 5 -10 0 -15 -13 -15 -11 0 -20 -3 -20 -7 0 -21 -88 -102 -94 -87
-9 22 -8 26 5 18 7 -4 9 2 7 17 -2 14 7 33 26 53 15 17 23 32 17 34 -6 2 -11
13 -12 25 0 18 -3 16 -11 -8 -6 -16 -23 -44 -39 -60 -16 -17 -29 -36 -29 -43
0 -7 -7 -12 -15 -12 -14 0 -20 -17 -16 -47 1 -6 -3 -14 -9 -18 -5 -3 -10 -17
-10 -31 0 -13 -4 -24 -9 -24 -34 0 -32 -136 2 -161 5 -4 9 -23 10 -42 1 -31 5
-37 29 -42 21 -5 27 -12 25 -28 -1 -16 4 -22 18 -23 46 -2 47 -4 41 -29 -6
-24 7 -35 19 -15 3 6 15 10 25 10 11 0 17 5 15 13 -3 6 6 24 20 39 28 31 19
44 -29 39 -18 -2 -26 1 -22 8 4 6 3 11 -2 11 -6 0 -12 -7 -16 -15 -6 -18 -36
-20 -36 -3 0 6 3 9 6 5 15 -14 71 73 60 92 -4 6 -3 11 3 11 5 0 11 -6 14 -12
3 -10 7 -10 20 0 13 11 16 10 19 -10 4 -21 5 -22 13 -4 6 14 3 23 -10 32 -16
12 -17 16 -4 31 37 47 49 92 16 65 -15 -13 -42 22 -31 40 4 7 3 8 -4 4 -7 -4
-12 -14 -12 -22 0 -8 -4 -12 -10 -9 -15 9 -12 31 6 49 8 9 12 16 8 16 -5 0 7
13 25 28 31 26 33 30 20 50 -12 19 -11 24 3 39 21 20 36 10 18 -12 -7 -9 -10
-18 -6 -22 3 -3 7 -4 9 -2 1 2 16 19 32 38 27 30 27 32 7 21 -59 -30 -30 17
58 95 30 27 54 53 53 57 -2 4 3 8 11 8 8 0 17 7 20 16 10 25 7 28 -11 13 -16
-13 -26 -14 -56 -10 -4 0 4 17 18 36 28 36 31 61 5 45z"/>
<path fill="#000000" stroke="none" d="M6283 5585 c18 -34 16 -88 -6 -137 -13
-29 -24 -73 -25 -97 -1 -24 -4 -47 -7 -49 -3 -3 0 -11 6 -19 7 -7 12 -40 13
-73 1 -50 4 -61 23 -71 12 -7 20 -16 17 -21 -3 -4 -10 -6 -15 -2 -12 7 -2 -60
13 -88 5 -10 5 -18 1 -18 -22 0 -12 -73 12 -92 28 -22 33 -41 9 -31 -14 5 -16
2 -10 -23 4 -16 8 -36 9 -44 1 -8 6 -18 10 -21 11 -8 18 -69 7 -69 -4 0 -6 -9
-3 -20 3 -11 9 -18 13 -15 12 7 25 -16 14 -24 -14 -9 -14 -61 0 -61 14 0 40
-40 31 -48 -3 -4 -9 -1 -14 6 -20 32 -40 -11 -30 -63 5 -27 7 -61 4 -75 -4
-17 -3 -21 4 -11 5 7 14 11 19 7 13 -8 26 54 18 82 -4 11 -2 23 3 26 13 9 25
-57 15 -86 -4 -12 -8 -30 -8 -38 -1 -10 -9 -14 -24 -12 -18 1 -23 -2 -20 -15
2 -10 11 -17 21 -17 9 1 17 -5 17 -13 0 -11 3 -11 14 -1 8 8 11 19 6 27 -4 7
-3 30 2 50 5 20 9 44 9 54 0 10 5 15 11 11 7 -4 8 5 3 27 -4 19 -10 35 -14 37
-9 3 -1 85 10 98 6 7 6 21 0 36 -5 14 -8 37 -7 51 2 15 0 24 -4 22 -11 -7 -17
25 -16 77 1 26 -2 44 -6 42 -4 -2 -9 0 -12 5 -4 5 7 12 24 16 34 7 38 24 14
60 -8 13 -14 36 -12 52 4 28 4 28 20 -6 18 -40 33 -26 16 16 -6 15 -10 32 -9
36 1 5 -3 6 -8 3 -5 -4 -12 -2 -16 4 -3 5 1 10 9 10 20 0 20 7 0 27 -9 10 -14
26 -11 41 3 14 1 39 -4 56 -5 17 -11 65 -14 106 -9 157 -63 348 -65 233 -1
-14 -8 -10 -32 17 -17 19 -28 31 -25 25z"/>
<path fill="#000000" stroke="none" d="M2370 5540 c-12 -36 -9 -62 6 -48 5 6
15 88 10 88 -1 0 -9 -18 -16 -40z"/>
<path fill="#000000" stroke="none" d="M2100 5540 c0 -11 -9 -28 -20 -37 -11
-10 -20 -24 -20 -31 0 -8 13 -1 30 16 31 31 38 56 20 67 -5 3 -10 -3 -10 -15z"/>
<path fill="#000000" stroke="none" d="M2230 5511 c0 -11 -4 -23 -10 -26 -5
-3 -10 -13 -10 -21 0 -9 -6 -22 -14 -30 -17 -16 -30 -19 -21 -4 10 15 0 12
-24 -9 -16 -14 -19 -21 -10 -27 7 -4 15 -2 17 4 2 7 8 12 14 12 6 0 7 -7 4
-16 -5 -13 -4 -14 7 -6 8 7 16 9 20 6 3 -3 14 7 24 22 18 29 28 114 12 114 -5
0 -9 -9 -9 -19z"/>
<path fill="#000000" stroke="none" d="M2285 5493 c-3 -8 -5 -22 -5 -31 0 -8
-7 -23 -16 -33 -12 -13 -14 -27 -9 -46 7 -28 7 -28 22 2 9 17 23 38 31 48 14
16 14 19 2 27 -12 7 -12 12 -2 22 16 16 15 25 -3 25 -8 0 -17 -7 -20 -14z"/>
<path fill="#000000" stroke="none" d="M2106 5339 c-16 -34 -16 -43 -5 -50 10
-6 11 -11 3 -16 -30 -21 -41 -65 -21 -85 7 -7 18 -22 24 -32 12 -21 56 53 56
93 0 9 8 22 19 29 18 13 25 42 10 42 -5 0 -14 10 -20 23 -7 15 -11 17 -11 6
-1 -19 -45 -62 -54 -52 -4 3 -1 16 6 27 19 29 28 56 19 56 -4 0 -15 -19 -26
-41z"/>
<path fill="#000000" stroke="none" d="M6481 5030 c0 -8 9 -33 19 -55 13 -28
18 -32 14 -14 -3 15 -1 30 5 33 6 4 11 12 11 17 0 6 -5 7 -11 4 -6 -4 -17 1
-24 11 -11 15 -14 16 -14 4z"/>
<path fill="#000000" stroke="none" d="M3700 5010 c-9 -16 -19 -18 -70 -15
-50 3 -62 1 -70 -14 -10 -20 -50 -35 -50 -20 0 5 -7 9 -15 9 -13 0 -14 -4 -5
-20 6 -11 8 -25 5 -30 -3 -6 -1 -10 4 -10 6 0 11 3 11 8 0 4 35 6 77 5 43 -1
78 -3 78 -3 0 -3 37 -8 95 -15 66 -8 90 -14 200 -54 46 -17 91 -29 100 -26 24
7 120 -11 180 -34 80 -31 148 -12 88 25 -6 4 -8 3 -5 -2 3 -6 -3 -15 -14 -22
-10 -7 -19 -8 -19 -3 0 6 5 13 10 16 19 11 10 23 -21 30 -19 4 -33 15 -36 26
-4 15 -9 17 -18 9 -26 -22 -135 35 -111 57 5 4 11 2 13 -4 3 -10 10 -10 24 -2
15 8 18 14 10 23 -6 7 -7 17 -3 21 4 5 -1 6 -10 2 -9 -3 -19 0 -22 9 -3 8 -10
14 -17 14 -6 0 -9 -7 -5 -15 3 -9 0 -15 -8 -15 -8 0 -17 6 -19 13 -3 7 -6 5
-6 -5 -1 -22 -7 -22 -62 -2 -24 8 -64 17 -89 18 -56 3 -169 25 -192 37 -13 6
-20 4 -28 -11z"/>
<path fill="#000000" stroke="none" d="M5513 4974 c7 -7 -6 -16 -70 -50 -18
-10 -30 -21 -27 -25 2 -4 -5 -13 -17 -19 -15 -9 -18 -15 -10 -23 8 -8 3 -14
-19 -23 -36 -15 -37 -24 -6 -46 25 -18 143 -32 151 -17 7 10 96 39 138 45 16
2 33 7 38 10 18 11 73 17 152 18 42 0 77 4 77 9 0 5 7 4 14 -3 10 -8 21 -8 32
-2 12 7 13 11 5 17 -9 5 -9 10 0 21 6 8 10 14 8 15 -2 0 -13 3 -24 6 -43 12
-127 15 -138 4 -7 -7 -19 -5 -41 6 -17 10 -39 16 -50 14 -10 -1 -15 2 -12 7 3
6 -13 11 -39 14 -25 2 -45 -1 -45 -6 0 -5 -6 -4 -12 1 -7 5 -28 8 -45 7 -18
-1 -33 1 -33 6 0 4 -8 11 -17 14 -10 4 -14 4 -10 0z"/>
<path fill="#000000" stroke="none" d="M6462 4910 c3 -34 4 -35 24 -16 7 8 19
17 26 19 10 4 10 8 -2 16 -10 7 -17 6 -22 -2 -6 -9 -8 -9 -8 1 0 6 -5 12 -10
12 -6 0 -9 -13 -8 -30z"/>
<path fill="#000000" stroke="none" d="M5326 4915 c-5 -11 -10 -26 -10 -34 -1
-22 -24 -25 -29 -4 -3 12 -5 8 -6 -9 -1 -19 4 -28 14 -28 9 0 12 -6 9 -17 -5
-17 -5 -17 9 0 8 9 19 17 26 17 6 0 16 12 21 26 13 33 13 34 -4 34 -8 0 -16 8
-18 18 -3 15 -5 15 -12 -3z"/>
<path fill="#000000" stroke="none" d="M2333 4782 c-22 -14 -20 -64 2 -56 8 4
13 10 10 15 -3 4 4 13 15 19 11 6 20 15 20 20 0 12 -30 13 -47 2z"/>
<path fill="#000000" stroke="none" d="M3570 4734 c-112 -21 -154 -36 -198
-73 -50 -42 -42 -49 51 -47 31 0 57 -2 57 -6 0 -5 -4 -8 -10 -8 -5 0 -10 -3
-10 -7 0 -10 63 -9 78 1 6 4 20 2 30 -3 11 -6 46 -15 78 -21 33 -6 79 -15 104
-20 118 -23 189 -9 195 40 5 40 57 48 86 14 6 -8 18 -14 25 -14 8 0 14 -4 14
-9 0 -5 10 -11 22 -13 32 -5 32 -22 1 -35 -25 -10 -26 -11 -6 -12 12 -1 25 -5
28 -11 8 -13 42 -13 47 0 4 11 87 -1 135 -21 18 -7 36 -10 39 -6 10 10 -58 67
-73 62 -7 -2 -19 6 -28 18 -8 12 -15 16 -15 10 0 -19 -28 -4 -35 18 -4 11 -10
17 -14 15 -7 -5 -77 16 -109 33 -113 60 -330 78 -445 37 -54 -19 -167 -31
-167 -17 0 5 10 12 23 16 12 4 24 8 27 10 3 1 13 5 23 8 9 4 25 10 35 14 9 4
37 12 62 18 67 16 26 24 -50 9z"/>
<path fill="#000000" stroke="none" d="M3901 4736 c3 -3 40 -12 84 -21 115
-24 176 -46 203 -73 13 -13 26 -21 29 -18 3 2 13 -3 24 -12 30 -26 67 -26 40
-1 -11 11 -25 19 -31 19 -6 0 -9 4 -5 9 3 5 0 13 -6 17 -6 3 -15 0 -20 -7 -7
-12 -9 -11 -9 1 0 36 -155 90 -257 90 -31 0 -54 -2 -52 -4z"/>
<path fill="#000000" stroke="none" d="M5465 4709 c-38 -5 -74 -14 -79 -19 -6
-6 -20 -10 -33 -10 -13 0 -23 -4 -23 -10 0 -5 -15 -17 -32 -26 -61 -30 -103
-87 -51 -67 14 6 14 2 -3 -20 -10 -15 -26 -29 -35 -32 -34 -12 -59 -60 -38
-73 15 -10 19 -9 19 0 0 21 60 78 81 78 12 0 32 9 46 20 31 24 63 6 63 -36 0
-55 252 -75 300 -24 29 31 43 84 29 111 -23 44 114 2 140 -42 9 -16 21 -29 26
-30 28 -2 52 -7 70 -14 29 -11 -16 31 -80 75 -27 19 -59 42 -69 52 -10 9 -22
16 -25 14 -3 -2 -35 2 -71 10 -36 7 -82 14 -103 14 -21 0 -36 4 -32 9 3 5 17
8 30 5 14 -2 25 0 25 6 0 5 -10 10 -22 10 -13 0 -32 2 -43 4 -11 2 -51 0 -90
-5z"/>
<path fill="#ffffff" stroke="none" d="M5613 4621 c34 -5 0 -30 -40 -30 -65 0
-104 9 -97 20 3 6 12 8 20 5 7 -3 16 -1 19 4 5 8 44 8 98 1z"/>
<path fill="#000000" stroke="none" d="M5633 4706 c2 -5 19 -11 38 -11 19 -1
36 -3 39 -4 3 -1 36 -4 73 -6 75 -5 127 -27 134 -56 3 -10 12 -19 21 -19 12 0
13 -3 4 -12 -16 -16 -15 -35 1 -35 7 0 24 -3 39 -6 55 -14 62 70 8 98 -16 8
-30 19 -32 25 -2 6 -30 13 -63 15 -33 3 -68 8 -79 11 -35 11 -187 11 -183 0z"/>
<path fill="#000000" stroke="none" d="M2369 4609 c-30 -57 6 -316 41 -294 4
2 7 -15 8 -38 2 -94 9 -153 19 -177 8 -18 7 -27 -1 -32 -8 -6 -8 -8 0 -8 7 0
10 -13 8 -30 -4 -33 1 -37 21 -16 14 14 16 67 2 77 -11 8 -16 89 -6 89 16 0 9
31 -8 37 -27 10 -31 21 -24 61 8 41 6 97 -3 155 -4 23 -1 45 7 58 10 18 9 23
-12 40 -13 11 -21 25 -17 34 3 10 -1 15 -12 16 -10 0 -12 3 -4 6 14 6 17 43 2
43 -5 0 -14 -10 -21 -21z"/>
<path fill="#000000" stroke="none" d="M3345 4590 c-4 -6 -12 -10 -18 -9 -34
4 -87 -2 -87 -10 0 -5 22 -12 49 -16 55 -7 94 6 85 30 -7 17 -20 19 -29 5z"/>
<path fill="#000000" stroke="none" d="M1945 4495 c0 -13 3 -21 8 -18 7 4 11
-11 8 -34 -1 -6 4 -15 10 -19 9 -5 10 2 6 26 -4 18 -7 38 -7 45 0 7 -6 15 -12
18 -8 3 -13 -4 -13 -18z"/>
<path fill="#000000" stroke="none" d="M2302 4459 c17 -30 24 -37 26 -24 5 23
-18 65 -35 65 -11 0 -8 -10 9 -41z"/>
<path fill="#000000" stroke="none" d="M5413 4284 c11 -12 96 -33 132 -33 44
0 11 15 -50 23 -27 4 -59 10 -70 13 -11 3 -16 2 -12 -3z"/>
<path fill="#000000" stroke="none" d="M6401 3990 c0 -36 4 -74 8 -85 5 -11 6
12 4 55 -6 98 -11 112 -12 30z"/>
<path fill="#000000" stroke="none" d="M2522 3914 c-6 -22 -7 -44 -2 -57 8
-19 9 -18 9 11 1 18 6 42 11 52 6 10 6 21 2 24 -5 3 -14 -11 -20 -30z"/>
<path fill="#000000" stroke="none" d="M4250 3783 c0 -13 -3 -14 -11 -6 -12
12 -57 -4 -109 -38 -14 -9 -36 -20 -49 -24 -23 -7 -34 -14 -66 -42 -7 -7 -18
-13 -23 -13 -5 0 -12 -9 -15 -20 -3 -11 -9 -20 -14 -19 -18 3 -33 -1 -33 -10
0 -6 -13 -24 -30 -42 -16 -18 -27 -36 -24 -40 2 -4 -4 -13 -15 -19 -12 -6 -32
-22 -45 -35 -14 -14 -31 -25 -38 -25 -7 0 -32 -18 -56 -40 -35 -33 -46 -39
-62 -30 -24 13 -47 4 -53 -21 -5 -17 -9 -19 -26 -9 -16 8 -21 8 -21 -2 0 -19
-37 -41 -46 -26 -4 7 -12 1 -21 -16 -7 -14 -19 -26 -26 -26 -22 0 -77 -58 -77
-80 0 -12 -6 -28 -14 -36 -16 -16 -15 -56 1 -76 6 -7 12 -17 13 -23 8 -34 13
-35 48 -15 25 15 37 18 42 9 6 -8 11 -6 18 6 9 17 10 17 22 -4 11 -21 12 -21
24 -5 7 9 18 14 24 10 6 -3 13 -2 17 4 10 17 21 12 61 -30 129 -133 490 -313
502 -250 6 35 -21 53 -53 36 -50 -26 -72 -21 -85 20 -11 32 -15 35 -40 29 -42
-9 -72 27 -64 74 8 46 22 73 34 66 5 -3 11 -1 15 5 11 19 24 10 36 -25 7 -19
16 -35 19 -35 4 0 14 16 23 35 21 45 85 25 88 -27 0 -7 4 -2 10 10 5 13 7 27
5 31 -3 3 9 14 25 23 16 10 29 13 29 7 0 -5 21 -10 48 -10 94 -1 137 -4 150
-12 7 -5 52 -12 100 -17 48 -5 95 -11 105 -15 10 -5 17 -3 17 5 0 7 8 2 18
-10 18 -23 91 -31 157 -17 17 3 73 9 125 12 117 8 153 11 196 20 21 3 34 2 34
-5 0 -5 7 -10 15 -10 17 0 20 -16 5 -25 -26 -16 -4 -23 58 -20 59 4 65 3 48
-10 -10 -8 -19 -27 -20 -44 -1 -16 -11 -40 -24 -53 -20 -22 -29 -48 -17 -48
10 0 90 42 105 55 8 8 26 16 40 18 43 8 90 31 90 44 0 7 7 13 17 13 9 0 40 23
69 50 33 32 62 50 77 50 13 0 35 11 49 23 25 23 26 23 49 6 13 -10 30 -19 37
-19 6 0 12 -6 12 -14 0 -47 54 -25 95 37 14 21 20 25 31 16 11 -9 14 -7 14 12
1 22 2 23 14 7 17 -22 26 -23 26 -2 0 12 7 15 25 12 22 -5 24 -2 19 19 -5 17
-1 28 12 38 18 14 18 14 -4 15 -15 0 -26 9 -32 25 -8 21 -14 24 -38 19 -28 -6
-29 -4 -25 20 4 19 1 26 -11 26 -9 0 -16 4 -16 8 0 17 -66 82 -83 82 -10 0
-17 8 -17 19 0 24 -16 36 -23 19 -3 -8 -6 -6 -6 5 -1 9 -6 17 -12 17 -8 0 -8
5 1 15 10 12 10 15 -2 15 -9 0 -26 16 -39 35 -13 19 -29 35 -34 35 -13 0 -35
26 -61 68 -10 18 -23 31 -29 29 -6 -1 -12 3 -14 8 -1 6 -7 16 -13 23 -6 6 -7
12 -2 12 5 0 -10 9 -33 21 -24 12 -43 27 -43 35 0 8 -8 14 -19 14 -10 0 -24 7
-31 15 -7 8 -23 15 -36 15 -12 0 -26 5 -29 10 -3 6 -15 10 -26 10 -10 0 -19 4
-19 9 0 5 -9 11 -20 14 -18 5 -18 4 2 -24 12 -15 25 -26 29 -23 5 3 14 -4 21
-16 7 -11 18 -20 25 -20 7 0 13 -4 13 -10 0 -5 -4 -10 -10 -10 -5 0 -10 -3
-10 -8 0 -9 61 -37 76 -34 6 1 26 -19 44 -45 19 -27 38 -51 43 -54 14 -10 78
-141 74 -153 -2 -6 1 -20 7 -31 20 -37 15 -65 -11 -59 -18 5 -22 3 -17 -10 3
-9 10 -13 15 -10 5 3 12 -2 15 -10 10 -27 21 -18 22 20 2 49 7 52 39 19 28
-28 28 -28 3 -21 -21 6 -23 5 -9 -6 23 -20 31 -48 13 -48 -11 0 -12 -4 -4 -19
17 -33 11 -45 -10 -18 -31 39 -81 35 -73 -5 5 -24 3 -27 -12 -21 -11 4 -16 2
-12 -4 11 -18 -28 -40 -62 -35 -21 3 -38 -1 -50 -12 -14 -12 -49 -17 -166 -21
-81 -3 -166 -10 -188 -15 -23 -5 -45 -6 -49 -4 -5 3 -15 0 -23 -6 -8 -7 -15
-10 -15 -7 0 3 -26 0 -57 -7 -32 -7 -78 -14 -102 -15 -25 -1 -48 -4 -52 -7 -4
-2 -19 0 -33 6 -17 6 -26 6 -26 0 0 -6 5 -10 12 -10 9 0 9 -3 0 -12 -9 -9 -18
-6 -40 15 -27 26 -28 26 -29 6 -3 -30 -10 -34 -27 -16 -9 8 -27 13 -45 11 -17
-2 -31 1 -31 6 0 6 8 10 17 10 13 0 14 3 6 11 -7 7 -37 11 -67 11 -31 0 -54 3
-52 6 2 4 -28 7 -67 7 -40 0 -90 3 -112 7 -78 15 -121 20 -220 23 -122 4 -185
14 -191 29 -5 13 -74 9 -74 -3 0 -4 -10 -7 -22 -6 -13 2 -22 7 -21 12 3 15
-72 6 -101 -12 -22 -15 -26 -15 -26 -2 0 8 13 20 29 27 16 6 32 19 35 27 6 14
3 14 -16 -1 -41 -29 -58 -37 -58 -27 0 5 6 11 14 14 9 4 12 14 9 26 -3 13 -1
21 7 21 7 0 10 7 6 15 -3 8 -1 15 5 15 13 0 85 70 73 70 -13 1 89 49 104 49 8
1 12 6 10 13 -3 7 5 22 16 34 12 11 35 38 51 58 17 20 42 52 58 70 15 19 27
36 27 40 0 10 68 76 78 76 5 0 20 8 33 19 13 10 35 20 49 23 14 3 34 9 45 13
19 8 19 8 3 -11 -18 -20 -15 -64 4 -64 5 0 7 9 3 19 -3 11 -1 22 5 26 7 4 9
17 6 29 -4 15 1 28 14 39 18 15 28 47 15 47 -3 0 -5 -8 -5 -17z"/>
<path fill="#ffffff" stroke="none" d="M3575 3195 c0 -13 -6 -30 -13 -37 -10
-10 -12 24 -3 60 4 14 17 -4 16 -23z"/>
<path fill="#ffffff" stroke="none" d="M5657 3150 c7 -14 10 -26 8 -29 -5 -5
-44 41 -45 52 0 17 25 0 37 -23z"/>
<path fill="#000000" stroke="none" d="M6367 3568 c-3 -18 -9 -60 -12 -93 -3
-33 -10 -85 -15 -115 -14 -81 -19 -164 -9 -148 5 7 9 36 9 63 0 28 4 66 10 84
11 39 32 232 26 238 -2 2 -6 -11 -9 -29z"/>
<path fill="#000000" stroke="none" d="M4420 3523 c-8 -2 -22 -7 -30 -10 -25
-9 -52 -10 -86 -3 -28 6 -31 5 -26 -12 6 -25 74 -68 118 -75 19 -3 34 -10 34
-14 0 -5 11 -7 25 -3 20 5 24 3 19 -10 -3 -9 -1 -16 5 -16 6 0 10 5 9 11 -2 6
3 14 10 16 7 3 10 -1 6 -10 -3 -8 -1 -18 5 -22 8 -4 6 -12 -5 -22 -13 -14 -17
-14 -24 -2 -12 19 -20 8 -13 -19 7 -29 16 -28 49 5 21 21 29 24 33 13 8 -20
32 -24 42 -8 6 9 9 6 9 -9 0 -12 -4 -25 -10 -28 -5 -3 -10 -11 -10 -16 0 -6 5
-7 10 -4 6 3 10 1 10 -4 0 -6 -10 -11 -22 -11 -17 0 -19 -3 -10 -12 10 -10 17
-10 31 -1 15 9 20 9 24 0 6 -15 67 -22 67 -8 0 11 34 24 68 26 16 1 21 -2 18
-12 -6 -14 28 -55 38 -46 3 3 12 0 20 -6 12 -10 13 -8 9 10 -4 15 -2 20 5 15
10 -6 49 10 62 25 12 14 52 17 46 4 -3 -8 0 -17 6 -21 7 -4 8 -3 4 5 -6 8 0
10 18 5 16 -4 26 -2 26 4 0 6 16 14 35 18 21 4 32 10 28 17 -4 6 0 8 10 4 11
-4 17 -1 17 8 0 20 36 39 46 24 4 -7 13 2 22 22 9 18 29 39 45 48 84 46 91 61
42 90 -19 11 -35 16 -35 11 0 -6 -6 -10 -14 -10 -7 0 -19 -7 -26 -15 -7 -8
-16 -13 -20 -10 -4 3 -14 -2 -21 -11 -20 -24 -63 -43 -103 -46 -20 -1 -36 -6
-36 -11 0 -5 -9 -7 -20 -4 -11 3 -20 0 -20 -5 0 -6 -11 1 -24 17 -13 15 -26
23 -30 17 -3 -6 -15 -8 -26 -5 -11 3 -18 9 -15 13 2 4 -8 5 -23 3 -15 -2 -51
-6 -80 -10 -29 -3 -48 -9 -42 -13 7 -4 8 -10 3 -13 -13 -8 -64 20 -93 52 -49
53 -158 92 -210 74z"/>
<path fill="#000000" stroke="none" d="M6123 2937 c2 -20 6 -39 10 -43 14 -14
11 55 -3 70 -5 5 -8 -6 -7 -27z"/>
<path fill="#000000" stroke="none" d="M6040 2857 c0 -17 27 -54 34 -47 3 3 3
15 0 27 -7 24 -34 40 -34 20z"/>
<path fill="#000000" stroke="none" d="M4220 2795 c-44 -23 -44 -23 -10 -44
42 -25 44 -25 60 -6 17 20 32 19 63 -5 14 -11 32 -17 41 -14 8 3 46 -3 83 -15
84 -25 375 -42 388 -22 5 9 -2 11 -28 6 -20 -4 -52 -2 -73 5 -20 7 -87 13
-148 14 -115 1 -150 12 -162 48 -4 13 -17 16 -65 15 -52 -2 -63 1 -79 21 -10
12 -20 21 -22 21 -1 -1 -23 -12 -48 -24z"/>
<path fill="#000000" stroke="none" d="M6012 2798 c-4 -52 -4 -76 2 -96 10
-30 28 -28 20 3 -4 15 -1 32 6 40 11 13 10 20 0 40 -15 27 -26 32 -28 13z"/>
<path fill="#000000" stroke="none" d="M5017 2752 c-15 -14 -97 -19 -117 -7
-7 5 -40 -37 -40 -51 0 -3 8 -3 18 1 17 6 29 8 142 20 67 6 77 15 41 36 -26
15 -30 15 -44 1z"/>
<path fill="#000000" stroke="none" d="M6110 2748 c0 -9 -3 -23 -6 -32 -4 -10
-1 -16 9 -16 9 0 17 -11 19 -26 3 -27 3 -27 14 4 10 25 9 30 -2 25 -9 -3 -14
2 -14 13 0 11 -5 26 -10 34 -8 13 -10 13 -10 -2z"/>
<path fill="#000000" stroke="none" d="M5964 2723 c1 -16 4 -33 8 -38 3 -6 6
-26 5 -46 -1 -24 6 -43 21 -59 12 -13 22 -29 22 -36 0 -19 28 -36 48 -30 20 7
21 70 2 107 -7 11 -5 21 4 28 17 15 29 0 19 -24 -4 -13 -2 -16 8 -13 8 3 13
11 12 17 -2 6 -4 17 -5 24 -2 6 -11 18 -20 25 -10 7 -18 24 -18 38 0 13 -4 24
-9 24 -4 0 -7 -38 -6 -85 3 -80 -9 -114 -22 -64 -3 12 -11 18 -19 15 -9 -4
-14 2 -14 17 0 31 -23 127 -31 127 -3 0 -6 -12 -5 -27z"/>
<path fill="#000000" stroke="none" d="M3265 2676 c-24 -10 -26 -13 -12 -19
24 -9 32 -8 32 3 0 6 7 15 15 20 21 14 0 11 -35 -4z"/>
<path fill="#000000" stroke="none" d="M5930 2645 c0 -10 10 -33 21 -52 18
-29 20 -37 8 -44 -11 -8 -10 -13 9 -26 12 -8 22 -21 22 -27 0 -6 9 -12 20 -12
19 0 19 1 -2 36 -12 19 -35 59 -50 89 -15 30 -28 46 -28 36z"/>
<path fill="#000000" stroke="none" d="M3160 2635 c0 -8 -9 -15 -19 -15 -24 0
-32 -11 -22 -29 15 -24 44 -8 47 27 2 17 2 32 -1 32 -3 0 -5 -7 -5 -15z"/>
<path fill="#000000" stroke="none" d="M5832 2550 c5 -15 -25 -50 -42 -50 -5
0 -10 -7 -10 -15 0 -8 -5 -15 -11 -15 -6 0 -8 -9 -4 -20 7 -24 -2 -25 -29 -5
-23 17 -40 20 -31 5 4 -6 1 -17 -5 -25 -10 -12 -10 -15 1 -15 23 -1 63 -36 50
-44 -6 -4 -11 -2 -11 3 0 6 -4 11 -9 11 -5 0 -7 -9 -4 -20 3 -12 10 -19 15
-18 12 4 78 -59 78 -74 0 -6 -19 6 -42 26 -76 65 -91 76 -100 76 -17 0 -7 -16
27 -43 37 -29 45 -47 21 -47 -9 0 -12 -7 -9 -20 7 -26 0 -25 -33 5 -37 34 -44
22 -9 -15 16 -17 24 -30 17 -30 -6 0 -14 5 -17 10 -11 17 -25 11 -25 -11 0
-12 16 -37 35 -56 19 -19 35 -37 35 -39 0 -12 -20 0 -54 31 -38 35 -38 35 -34
2 4 -34 -33 -69 -48 -46 -15 24 -30 7 -27 -31 3 -39 2 -40 -22 -34 -32 8 -32
-6 -1 -39 31 -34 -33 -55 -72 -24 -7 5 -15 7 -19 3 -4 -3 -17 4 -30 16 -23 22
-23 22 -8 -10 9 -18 26 -38 37 -46 13 -10 18 -21 14 -32 -6 -15 -8 -16 -24 0
-10 9 -27 16 -38 16 -10 0 -15 -4 -9 -8 16 -11 18 -44 4 -53 -8 -4 -19 -3 -26
3 -19 16 -16 -5 5 -33 33 -43 27 -73 -9 -47 -33 25 -46 20 -28 -11 7 -11 10
-24 5 -28 -4 -4 -11 -1 -16 7 -38 66 -50 31 -14 -39 13 -25 4 -61 -17 -61 -6
0 -7 4 -4 10 5 9 -24 64 -31 58 -2 -2 1 -20 6 -41 5 -24 4 -46 -4 -62 -13 -30
-36 -33 -36 -5 0 11 5 20 10 20 19 0 10 29 -16 49 -17 13 -27 31 -27 48 0 16
-2 22 -4 16 -8 -22 -36 -14 -66 20 -29 32 -29 32 -11 2 9 -16 23 -34 31 -38
17 -10 17 -27 0 -27 -6 0 -26 -16 -44 -35 -29 -31 -32 -33 -38 -15 -8 26 -20
25 -40 -2 -17 -25 -45 -6 -45 30 0 7 -5 10 -11 6 -6 -3 -8 -15 -6 -26 7 -26
-2 -50 -17 -41 -6 4 -6 0 2 -9 8 -10 9 -19 3 -22 -5 -3 -12 0 -14 6 -4 10 -8
10 -16 -2 -5 -8 -7 -18 -5 -22 8 -13 -11 -9 -25 5 -11 10 -13 10 -7 0 5 -9 0
-13 -13 -13 -12 0 -21 -7 -21 -15 0 -8 -7 -15 -15 -15 -10 0 -15 10 -15 30 0
17 5 30 13 30 8 0 7 4 -3 10 -25 16 -33 11 -26 -16 6 -23 4 -25 -16 -20 -13 3
-17 3 -10 0 9 -4 5 -10 -13 -20 -29 -15 -55 -9 -55 13 0 10 6 13 16 9 12 -5
15 -2 10 10 -3 8 -6 20 -6 25 0 5 -10 7 -23 4 -19 -5 -24 -1 -32 25 -15 48
-30 32 -30 -30 0 -30 -4 -55 -10 -55 -5 0 -16 -4 -23 -9 -16 -10 -23 -4 -25
23 -1 21 -17 30 -17 10 0 -6 -7 -9 -15 -5 -8 3 -15 1 -15 -3 0 -5 -10 -7 -21
-4 -18 5 -20 3 -15 -14 4 -11 2 -31 -3 -44 -8 -22 -10 -21 -16 19 -10 54 -20
54 -24 0 -3 -52 -6 -56 -21 -28 -8 15 -9 30 -1 52 10 27 4 55 -15 77 -6 7 -34
-28 -34 -44 0 -9 -5 -13 -10 -10 -6 4 -8 16 -4 28 5 18 4 20 -7 10 -19 -19
-28 -16 -24 6 2 13 -1 18 -9 15 -8 -3 -12 5 -10 26 1 20 -3 30 -12 30 -9 0
-14 -12 -15 -32 -1 -33 -1 -33 -15 0 -23 51 -34 39 -27 -32 4 -42 2 -66 -6
-70 -7 -5 -11 3 -11 23 0 16 -5 33 -10 36 -6 4 -8 11 -4 16 3 5 0 16 -6 24 -6
8 -9 19 -6 24 18 29 -21 17 -50 -15 -34 -39 -34 -39 -35 6 -1 35 -3 39 -8 20
-7 -24 -7 -24 -20 8 -7 18 -18 32 -23 32 -5 0 -6 -5 -3 -10 4 -6 -3 -9 -17 -7
-22 4 -40 37 -20 37 6 0 12 6 15 13 8 21 -41 13 -64 -11 -11 -13 -25 -19 -31
-16 -7 4 -8 2 -4 -4 4 -7 3 -12 -3 -12 -5 0 -11 -10 -13 -22 -2 -12 -9 -23
-17 -26 -22 -7 -3 59 25 86 40 38 12 41 -53 6 -43 -23 -53 -15 -30 23 5 7 4
20 -1 29 -9 16 -52 -15 -52 -38 0 -4 -7 -8 -16 -8 -11 0 -15 6 -11 20 3 10 0
21 -7 24 -7 3 -6 5 3 5 12 1 61 46 61 57 0 9 -17 3 -36 -13 -37 -34 -103 -73
-109 -64 -3 5 13 24 35 41 50 40 46 51 -6 16 -40 -27 -56 -27 -34 -1 12 14 10
15 -15 9 -22 -5 -26 -4 -20 6 5 9 4 11 -3 6 -23 -14 -12 9 15 32 27 23 27 23
5 29 -13 3 -22 13 -22 25 0 14 -5 18 -15 14 -31 -11 -57 15 -37 38 13 15 14
18 2 14 -8 -3 -24 -10 -35 -14 -19 -7 -20 -7 -2 13 10 12 17 29 15 40 -2 10 2
17 9 16 7 -2 10 4 6 13 -4 10 -13 14 -29 10 -12 -3 -25 -2 -28 3 -7 11 22 23
35 16 5 -4 6 1 3 10 -6 14 -3 14 20 4 20 -10 29 -10 38 -1 7 7 20 12 30 12 10
0 18 5 18 10 0 12 2 12 -38 0 -75 -21 -114 11 -49 40 28 13 30 15 10 18 -12 2
-33 -4 -46 -13 -22 -14 -25 -14 -30 0 -5 12 -12 13 -32 5 -44 -17 -48 -11 -15
20 18 17 38 30 46 30 8 0 14 7 14 16 0 13 -6 12 -36 -6 -19 -12 -38 -19 -42
-15 -4 3 1 11 10 16 48 27 63 63 22 53 -19 -5 -25 -4 -20 5 9 13 9 13 -29 2
-33 -9 -75 2 -75 19 0 7 6 8 18 2 20 -11 52 -1 71 22 7 9 22 16 33 16 18 0 19
2 7 16 -9 11 -23 14 -45 11 -34 -6 -44 4 -44 44 0 13 5 17 16 12 12 -4 15 -2
12 8 -5 16 -37 20 -55 7 -6 -5 -14 -4 -18 2 -4 7 2 14 13 17 19 5 38 31 28 40
-4 4 -10 2 -74 -30 -19 -9 -40 -17 -48 -17 -8 0 -29 -7 -46 -16 -55 -29 -102
-28 -62 0 13 10 14 14 2 23 -10 9 -19 7 -38 -8 -24 -20 -24 -20 -3 -14 17 5
22 3 17 -8 -3 -8 -14 -12 -27 -10 -16 3 -27 -3 -40 -25 -17 -29 -16 -30 2 -25
16 4 19 1 14 -16 -3 -13 -1 -21 7 -21 8 0 10 -8 7 -22 -7 -28 36 -77 49 -56 5
8 9 6 14 -7 6 -16 0 -22 -29 -33 -62 -24 -91 -26 -91 -8 0 9 8 16 17 16 12 0
14 3 6 11 -7 7 -17 8 -25 3 -15 -9 -19 -10 -65 -12 -40 -2 -44 -22 -5 -22 26
-1 26 -1 8 -15 -19 -14 -18 -15 12 -15 18 0 32 -4 32 -10 0 -5 7 -10 15 -10
19 0 19 -9 -1 -32 -14 -14 -14 -20 -4 -33 10 -12 9 -16 -4 -21 -24 -9 9 -33
47 -34 15 0 27 -4 27 -10 0 -5 -13 -7 -31 -3 -41 8 -36 -13 9 -44 21 -13 28
-23 20 -26 -10 -4 -10 -6 0 -6 6 -1 12 -7 12 -15 0 -8 13 -23 30 -33 30 -17
39 -33 20 -33 -5 0 -10 -4 -10 -9 0 -5 10 -7 22 -3 14 3 19 2 14 -6 -4 -7 -2
-12 3 -12 6 0 11 -7 11 -15 0 -9 6 -12 18 -9 11 4 9 -1 -8 -16 -25 -22 -25
-22 2 -16 17 4 41 -2 68 -17 28 -14 37 -23 26 -25 -22 -5 -20 -19 4 -25 23 -6
27 -27 5 -27 -18 0 -20 -14 -2 -27 20 -16 67 -25 67 -13 0 6 -4 9 -9 5 -5 -3
-12 -1 -16 5 -8 14 28 13 60 -2 33 -15 32 -33 -2 -53 -24 -14 -25 -16 -5 -12
12 3 22 1 22 -4 0 -5 -5 -9 -11 -9 -5 0 -7 -5 -4 -10 4 -6 21 -8 41 -4 27 5
34 3 34 -10 0 -9 7 -16 15 -16 8 0 15 5 15 11 0 22 45 4 46 -19 2 -27 -15 -40
-27 -21 -6 10 -9 6 -9 -13 0 -28 35 -37 51 -14 4 5 15 6 25 2 17 -7 17 -9 -6
-21 -14 -7 -29 -11 -34 -8 -5 4 -6 1 -2 -5 12 -21 63 -14 69 8 3 11 10 20 17
20 6 0 8 -4 5 -10 -3 -5 3 -10 14 -10 13 0 19 5 15 14 -7 18 59 30 101 18 34
-10 -58 -69 -97 -63 -10 1 -18 -2 -18 -7 0 -18 29 -21 74 -8 26 8 50 10 57 5
10 -6 6 -9 -12 -9 -40 0 -71 -28 -41 -36 12 -3 22 -11 22 -16 0 -5 -9 -6 -20
-3 -14 4 -20 2 -20 -9 0 -9 15 -19 39 -26 22 -6 41 -14 44 -18 2 -4 3 -2 1 4
-1 6 3 17 9 23 8 8 5 11 -12 11 -20 0 -21 2 -11 15 7 8 18 14 24 13 6 -1 31 2
56 6 91 16 100 16 100 7 0 -19 -39 -28 -124 -30 -11 -1 -16 -4 -13 -8 4 -3 39
-5 79 -4 64 2 70 0 58 -13 -7 -9 -19 -16 -26 -16 -8 0 -14 -5 -14 -10 0 -7 6
-7 19 0 26 14 38 13 23 -2 -21 -21 -13 -29 26 -23 20 4 54 9 74 12 25 3 35 9
32 18 -3 7 -1 16 4 19 5 3 12 -2 14 -12 4 -13 15 -17 46 -17 23 0 42 -3 42 -7
0 -5 -4 -8 -10 -8 -5 0 -25 -14 -45 -31 -37 -33 -99 -47 -122 -28 -9 8 -19 4
-36 -15 -25 -26 -47 -34 -47 -16 0 6 7 10 15 10 19 0 19 7 0 26 -9 9 -15 11
-15 4 0 -6 -5 -8 -10 -5 -6 4 -9 1 -8 -7 2 -7 -3 -13 -9 -12 -7 1 -22 2 -34 3
-12 0 -23 10 -26 21 -3 11 -9 20 -13 20 -10 0 -1 -40 13 -58 5 -7 7 -16 3 -19
-4 -4 -11 -2 -15 5 -4 7 -12 12 -17 11 -20 -3 -34 2 -32 12 2 6 -3 14 -9 16
-8 3 -13 -3 -13 -15 0 -18 19 -30 60 -37 8 -2 27 -7 41 -13 15 -6 30 -8 35 -4
4 4 4 -1 1 -10 -4 -10 -2 -18 3 -18 6 0 5 -9 -2 -21 -10 -17 -10 -23 0 -26 6
-3 12 -11 12 -19 0 -8 6 -11 15 -7 9 3 22 -2 30 -13 8 -11 14 -14 15 -6 0 23
30 13 30 -11 0 -20 52 -76 65 -69 8 3 45 -37 45 -49 0 -7 7 -8 18 -4 34 14 60
17 34 4 -33 -18 -21 -34 22 -31 25 2 36 -1 31 -7 -3 -6 -13 -11 -21 -11 -8 0
-14 -4 -14 -10 0 -5 11 -10 24 -10 14 0 28 5 31 10 8 13 62 13 70 0 4 -6 12
-7 23 -1 9 5 26 5 39 0 15 -5 23 -5 23 2 0 5 -7 12 -15 15 -8 4 -15 15 -15 26
0 19 1 19 25 4 36 -23 52 -20 71 15 17 35 20 34 -33 12 -7 -3 -13 2 -13 11 0
9 3 15 8 14 4 0 15 2 25 7 10 4 26 1 42 -9 18 -12 31 -13 49 -6 17 6 26 5 28
-2 2 -6 20 -3 48 11 24 11 50 21 57 21 7 0 13 7 13 15 0 8 7 15 15 15 22 0 10
44 -12 45 -20 2 -53 17 -53 26 0 15 -28 10 -38 -7 -8 -14 -10 -14 -21 0 -11
13 -9 20 11 45 24 28 26 28 39 10 13 -18 14 -18 55 6 24 14 52 25 63 25 12 0
21 5 21 10 0 16 37 12 44 -5 3 -8 0 -15 -7 -15 -7 0 -6 -4 4 -10 17 -10 37 -9
57 3 15 10 35 -1 27 -14 -4 -5 -1 -9 5 -9 6 0 8 10 4 24 -6 25 10 44 21 26 4
-6 11 -8 16 -4 5 3 7 9 4 14 -3 5 6 17 20 28 14 11 25 24 25 29 0 14 35 44 43
37 3 -3 11 3 18 15 10 15 16 17 26 9 13 -10 17 3 14 42 -1 11 9 15 35 16 35 1
58 19 47 38 -4 5 1 7 11 3 9 -4 15 -3 12 1 -8 13 31 42 64 49 16 3 27 9 25 13
-3 5 2 15 10 23 8 9 15 21 15 27 0 6 5 8 10 5 6 -3 10 -1 10 6 0 7 11 10 32 7
27 -4 29 -3 14 8 -19 14 -14 34 9 34 8 0 12 6 9 14 -3 8 0 17 6 21 8 5 8 11
-1 21 -9 11 -8 14 5 14 9 0 16 -7 16 -16 0 -14 3 -14 16 -3 9 8 14 22 11 37
-3 14 1 26 10 29 8 3 11 13 8 24 -4 11 -2 19 4 19 6 0 11 -7 11 -16 0 -8 5
-12 10 -9 6 4 8 10 5 14 -2 5 4 19 15 31 11 13 20 32 20 42 0 11 5 16 11 13
13 -9 38 25 32 42 -3 7 0 13 6 13 6 0 11 5 11 11 0 6 6 17 14 25 13 12 15 10
14 -16 -1 -17 2 -33 5 -37 4 -3 7 6 7 20 0 24 29 145 37 156 1 2 10 -2 18 -9
17 -14 49 15 38 33 -3 5 -11 1 -17 -9 -12 -16 -13 -16 -19 0 -7 18 13 46 32
46 6 0 11 -8 11 -17 1 -12 6 -8 16 12 9 17 23 36 32 43 12 9 13 15 4 24 -16
16 -15 38 2 38 8 0 20 14 28 30 7 17 16 30 20 30 14 0 38 64 28 74 -7 7 -10 5
-10 -4 0 -9 -10 -3 -25 15 -21 26 -24 27 -25 10 0 -16 -4 -14 -21 13 -12 18
-18 36 -15 40 4 3 11 0 16 -8 6 -8 10 -11 10 -6 0 5 11 -1 25 -14 29 -27 31
-21 9 23 -12 21 -13 32 -5 35 6 2 11 10 11 18 0 9 5 12 10 9 16 -10 11 31 -5
45 -8 7 -15 18 -15 26 0 7 -5 16 -11 20 -7 4 -10 1 -7 -6z"/>
<path fill="#ffffff" stroke="none" d="M5850 2505 c10 -12 10 -18 0 -30 -16
-19 -30 -19 -30 1 0 8 5 12 10 9 6 -3 10 -1 10 4 0 6 -4 11 -10 11 -5 0 -10 5
-10 10 0 15 16 12 30 -5z"/>
<path fill="#ffffff" stroke="none" d="M3328 2480 c11 -1 8 -6 -10 -16 -16 -8
-28 -19 -28 -24 0 -6 12 -10 28 -10 27 0 27 0 -3 -26 -53 -44 -127 -69 -98
-32 6 8 7 22 2 33 -11 28 -11 37 2 30 14 -9 59 3 59 15 0 6 -7 10 -15 10 -8 0
-15 4 -15 9 0 11 30 20 48 15 8 -2 21 -4 30 -4z"/>
<path fill="#ffffff" stroke="none" d="M3315 2309 c8 -8 -33 -15 -59 -10 -5 1
-22 -3 -37 -8 -23 -8 -29 -7 -29 5 0 7 7 14 15 14 8 0 15 4 15 9 0 11 81 2 95
-10z"/>
<path fill="#ffffff" stroke="none" d="M3106 2215 c-4 -11 1 -15 19 -15 14 0
25 6 25 14 0 8 11 13 30 12 33 -1 35 -19 3 -24 -13 -2 -24 -13 -27 -27 -5 -18
-11 -23 -23 -18 -11 4 -13 8 -5 11 26 8 10 22 -25 22 -28 0 -34 3 -23 10 13 8
12 10 -3 10 -10 0 -15 5 -12 10 10 17 48 12 41 -5z"/>
<path fill="#ffffff" stroke="none" d="M3240 2186 c0 -15 -53 -37 -61 -25 -5
9 -2 16 9 21 19 7 52 10 52 4z"/>
<path fill="#ffffff" stroke="none" d="M3283 2133 c12 -11 -15 -33 -40 -33
-13 0 -33 -5 -45 -11 -11 -6 -22 -8 -25 -6 -8 9 38 49 51 44 7 -3 19 -1 27 4
17 11 24 11 32 2z"/>
<path fill="#ffffff" stroke="none" d="M3154 2121 c3 -5 -9 -11 -27 -14 -37
-5 -48 0 -27 13 19 12 47 13 54 1z"/>
<path fill="#ffffff" stroke="none" d="M3353 2031 c-5 -21 -36 -34 -50 -21 -4
5 -17 10 -28 13 -11 3 -4 5 17 6 20 0 40 6 43 11 11 17 23 11 18 -9z"/>
<path fill="#ffffff" stroke="none" d="M5670 1995 c-6 -8 -9 -19 -5 -25 10
-15 -11 -12 -25 5 -15 18 -5 35 22 35 17 0 18 -3 8 -15z"/>
<path fill="#ffffff" stroke="none" d="M3290 1920 c0 -11 -59 -24 -68 -15 -11
11 27 33 48 28 11 -3 20 -9 20 -13z"/>
<path fill="#ffffff" stroke="none" d="M5500 1895 c17 -20 11 -24 -23 -18 -22
4 -25 8 -16 19 15 18 24 18 39 -1z"/>
<path fill="#ffffff" stroke="none" d="M3590 1885 c0 -7 -81 -47 -86 -42 -6 6
58 47 74 47 6 0 12 -2 12 -5z"/>
<path fill="#ffffff" stroke="none" d="M3570 1822 c0 -12 -50 -33 -61 -26 -5
3 -7 10 -3 15 3 5 9 7 13 5 4 -3 13 -1 21 5 19 11 30 11 30 1z"/>
<path fill="#ffffff" stroke="none" d="M3430 1800 c0 -5 12 -10 28 -10 24 -1
25 -2 8 -11 -13 -8 -25 -8 -42 0 -27 12 -32 31 -9 31 8 0 15 -4 15 -10z"/>
<path fill="#ffffff" stroke="none" d="M4151 1537 c-13 -13 -15 31 -3 60 5 14
8 10 10 -16 2 -18 -1 -38 -7 -44z"/>
<path fill="#ffffff" stroke="none" d="M4239 1289 c-7 -4 -17 -5 -23 -2 -5 4
-7 -1 -3 -11 5 -12 -1 -19 -19 -26 -44 -17 -48 -11 -14 24 22 22 39 32 52 28
15 -3 16 -7 7 -13z"/>
<path fill="#000000" stroke="none" d="M5895 2515 c3 -16 8 -38 11 -47 4 -12
0 -18 -12 -18 -16 0 -16 -1 -1 -18 10 -10 17 -24 17 -30 0 -7 5 -12 10 -12 6
0 10 -7 10 -15 0 -9 -6 -12 -16 -8 -14 5 -15 3 -5 -15 14 -27 30 -28 37 -4 3
9 10 25 15 35 7 13 5 17 -11 17 -11 0 -20 7 -20 15 0 17 12 19 26 5 7 -7 17
-4 32 8 24 21 31 42 7 22 -12 -10 -17 -7 -26 14 -7 14 -18 26 -25 26 -7 0 -22
12 -34 28 -21 27 -21 27 -15 -3z"/>
<path fill="#000000" stroke="none" d="M6071 2491 c-12 -12 -21 -26 -21 -33 0
-7 -12 -24 -26 -39 -14 -15 -24 -33 -22 -40 2 -7 18 10 35 37 17 27 39 57 48
67 24 26 11 33 -14 8z"/>
<path fill="#000000" stroke="none" d="M2897 2433 c-33 -4 -35 -6 -22 -19 11
-11 19 -12 34 -4 40 21 70 13 36 -10 -16 -11 -23 -20 -15 -20 39 1 67 38 37
49 -16 6 -29 10 -30 9 -1 -1 -19 -3 -40 -5z"/>
<path fill="#000000" stroke="none" d="M3015 2361 c-11 -5 -32 -7 -47 -5 -35
3 -39 -26 -5 -42 28 -13 48 -7 41 11 -4 9 3 16 20 21 14 3 26 10 26 15 0 11
-8 11 -35 0z"/>
<path fill="#000000" stroke="none" d="M5944 2319 c-16 -23 -37 -50 -46 -60
-10 -10 -18 -22 -18 -26 0 -4 -12 -20 -27 -35 -15 -15 -22 -28 -17 -28 13 0
42 31 82 90 17 25 41 57 53 73 11 15 17 27 12 27 -5 0 -22 -18 -39 -41z"/>
<path fill="#000000" stroke="none" d="M2637 2231 c-26 -17 -47 -29 -47 -26 0
2 -10 -6 -22 -18 -13 -12 -34 -31 -48 -42 -29 -24 -137 -146 -169 -192 -12
-18 -25 -32 -29 -30 -4 1 -7 -1 -7 -5 0 -12 -68 -77 -76 -73 -4 3 -9 -1 -12
-9 -3 -8 -34 -38 -69 -66 -35 -29 -97 -83 -138 -120 -169 -152 -244 -209 -257
-196 -3 3 -12 -2 -20 -10 -9 -8 -22 -13 -29 -10 -8 3 -14 2 -14 -3 0 -9 -106
-56 -125 -56 -5 0 -12 -3 -15 -7 -7 -9 -203 -101 -252 -119 -50 -17 -52 -14
60 -119 315 -299 733 -576 1147 -760 176 -79 169 -76 157 -53 -9 18 -50 193
-72 308 -12 60 -25 113 -99 410 -67 269 -85 521 -47 665 22 88 102 254 117
244 7 -4 9 -3 6 3 -10 16 15 86 26 71 6 -9 7 -8 3 4 -5 18 5 47 55 157 38 81
35 88 -24 52z"/>
<path fill="#000000" stroke="none" d="M5664 1759 c3 -24 8 -80 11 -124 4 -44
15 -139 25 -211 28 -195 42 -509 38 -855 -3 -346 -25 -318 180 -233 408 169
1053 582 956 613 -24 8 -55 24 -69 36 -13 13 -26 21 -29 18 -9 -9 -66 18 -60
28 3 5 0 10 -5 10 -6 1 -16 2 -21 3 -6 0 -14 6 -18 12 -4 6 -21 17 -39 25 -22
9 -28 16 -20 22 7 5 2 6 -12 2 -17 -5 -22 -4 -16 5 5 8 4 11 -2 7 -6 -4 -26 0
-44 8 -29 12 -26 21 4 16 5 -1 6 3 2 8 -3 6 -12 8 -20 4 -9 -3 -23 1 -32 8
-12 10 -15 10 -9 2 10 -18 -10 -16 -28 3 -9 8 -16 13 -16 10 0 -4 -62 25 -137
64 -134 68 -227 134 -201 142 9 3 9 6 0 12 -7 4 -12 2 -12 -5 0 -7 -11 -2 -25
11 -13 12 -22 26 -20 30 3 4 -3 14 -12 21 -12 10 -14 10 -9 2 11 -20 -5 -15
-30 8 -12 12 -21 26 -20 33 2 6 1 8 -1 4 -6 -9 -33 2 -33 14 0 5 5 6 12 2 7
-4 8 -3 4 5 -4 6 -12 9 -17 5 -11 -6 -70 40 -63 50 2 3 1 4 -2 1 -11 -8 -95
68 -90 81 3 8 -1 20 -9 28 -8 7 -11 17 -7 22 4 5 0 3 -9 -4 -13 -10 -18 -7
-29 14 -9 15 -10 28 -5 32 6 4 12 14 13 22 2 8 0 12 -4 8 -4 -4 -14 -2 -23 5
-14 10 -14 10 -4 -3 7 -9 8 -21 4 -29 -7 -11 -10 -9 -15 7 -15 48 -38 49 -32
1z"/>
<path fill="#000000" stroke="none" d="M4574 1715 c18 -28 6 -34 -18 -9 -20
20 -20 11 -1 -26 18 -35 19 -35 39 -15 16 16 -6 75 -28 75 -4 0 -1 -11 8 -25z"/>
<path fill="#000000" stroke="none" d="M5571 1623 c-12 -32 -31 -75 -42 -96
-10 -22 -19 -45 -19 -53 0 -8 -4 -14 -10 -14 -5 0 -10 -5 -10 -11 0 -22 21 4
45 57 14 30 25 58 25 61 0 4 9 26 21 50 11 23 19 48 17 54 -2 6 -14 -16 -27
-48z"/>
<path fill="#000000" stroke="none" d="M3325 1224 c116 -115 286 -262 380
-328 40 -28 40 -28 -2 13 -23 23 -37 41 -31 41 7 0 6 5 -2 15 -7 8 -20 15 -29
15 -24 0 -70 31 -121 82 -25 25 -72 67 -105 95 -33 28 -76 66 -95 84 -19 19
-44 40 -55 48 -11 8 16 -22 60 -65z"/>
<path fill="#000000" stroke="none" d="M5315 1184 c-79 -88 -274 -264 -293
-264 -6 0 -12 -4 -14 -9 -1 -5 -34 -34 -73 -65 -108 -85 -122 -96 -133 -96 -5
0 -17 -10 -28 -21 -10 -12 -32 -28 -49 -36 -42 -19 -126 -72 -150 -93 -29 -26
-81 -50 -107 -50 -15 0 -19 -3 -11 -11 22 -22 52 -10 158 65 61 43 128 87 150
98 42 22 90 58 270 201 148 119 359 328 328 326 -4 0 -26 -20 -48 -45z"/>
<path fill="#000000" stroke="none" d="M3847 1183 c-9 -8 32 -43 50 -43 7 0
13 2 13 4 0 10 -58 45 -63 39z"/>
<path fill="#000000" stroke="none" d="M4915 1030 c-3 -5 -3 -10 2 -11 4 0 -3
-4 -15 -10 -26 -10 -25 -32 1 -37 12 -2 15 1 11 11 -3 10 2 18 15 22 12 4 18
12 14 21 -6 16 -19 18 -28 4z"/>
<path fill="#000000" stroke="none" d="M3754 862 c6 -10 155 -119 186 -136 27
-15 -64 65 -105 94 -52 35 -89 55 -81 42z"/>
<path fill="#000000" stroke="none" d="M3990 689 c49 -43 180 -119 205 -118
15 0 13 3 -10 11 -16 6 -74 40 -130 75 -60 38 -86 51 -65 32z"/>
<path fill="#000000" stroke="none" d="M4550 453 c-8 -3 -22 -11 -30 -18 -8
-7 -37 -18 -65 -24 -84 -20 -114 -43 -45 -35 30 3 57 10 60 14 11 15 49 29 98
36 52 7 65 17 36 28 -18 7 -33 7 -54 -1z"/>
</g>
</svg>
