<?xml version="1.0" standalone="yes"?>

<svg version="1.1" viewBox="0.0 0.0 1074.3963254593175 676.6167979002624" fill="none" stroke="none" stroke-linecap="square" stroke-miterlimit="10" xmlns="http://www.w3.org/2000/svg" xmlns:xlink="http://www.w3.org/1999/xlink"><clipPath id="p.0"><path d="m0 0l1074.3964 0l0 676.6168l-1074.3964 0l0 -676.6168z" clip-rule="nonzero"></path></clipPath><g clip-path="url(#p.0)"><path fill="#000000" fill-opacity="0.0" d="m0 0l1074.3964 0l0 676.6168l-1074.3964 0z" fill-rule="evenodd"></path><path fill="#000000" fill-opacity="0.0" d="m1060.308 499.51886l0 0c0 89.565796 -72.60748 162.17322 -162.17328 162.17322l0 0c-43.010986 0 -84.26044 -17.08606 -114.67377 -47.49939c-30.413391 -30.413391 -47.49945 -71.66278 -47.49945 -114.67383l0 0c0 -89.565796 72.60742 -162.17322 162.17322 -162.17322l0 0c89.565796 0 162.17328 72.60742 162.17328 162.17322z" fill-rule="evenodd"></path><path stroke="#c9daf8" stroke-width="24.0" stroke-linejoin="round" stroke-linecap="butt" d="m1060.308 499.51886l0 0c0 89.565796 -72.60748 162.17322 -162.17328 162.17322l0 0c-43.010986 0 -84.26044 -17.08606 -114.67377 -47.49939c-30.413391 -30.413391 -47.49945 -71.66278 -47.49945 -114.67383l0 0c0 -89.565796 72.60742 -162.17322 162.17322 -162.17322l0 0c89.565796 0 162.17328 72.60742 162.17328 162.17322z" fill-rule="evenodd"></path><path fill="#000000" fill-opacity="0.0" d="m1060.3081 499.51794l0 0c0 75.82355 -52.53894 141.5263 -126.50592 158.20245c-73.96698 16.676086 -149.61609 -20.126282 -182.15167 -88.61456c-32.535583 -68.48825 -13.272095 -150.37912 46.383606 -197.18091l100.10077 127.59302z" fill-rule="evenodd"></path><path fill="#000000" fill-opacity="0.0" d="m1060.3081 499.51794l0 0c0 75.82355 -52.53894 141.5263 -126.50592 158.20245c-73.96698 16.676086 -149.61609 -20.126282 -182.15167 -88.61456c-32.535583 -68.48825 -13.272095 -150.37912 46.383606 -197.18091" fill-rule="evenodd"></path><path stroke="#6d9eeb" stroke-width="24.0" stroke-linejoin="round" stroke-linecap="butt" d="m1060.3081 499.51794l0 0c0 75.82355 -52.53894 141.5263 -126.50592 158.20245c-73.96698 16.676086 -149.61609 -20.126282 -182.15167 -88.61456c-32.535583 -68.48825 -13.272095 -150.37912 46.383606 -197.18091" fill-rule="evenodd"></path><path fill="#000000" fill-opacity="0.0" d="m654.72784 384.84494l0 0c63.33197 63.33197 63.33197 166.0134 0 229.34537l0 0c-30.413147 30.413086 -71.66211 47.498962 -114.67273 47.498962c-43.01059 0 -84.25958 -17.085876 -114.67267 -47.498962l0 0c-63.332 -63.33197 -63.332 -166.0134 0 -229.34537l0 0c63.33197 -63.332 166.01337 -63.332 229.3454 0z" fill-rule="evenodd"></path><path stroke="#fff2cc" stroke-width="24.0" stroke-linejoin="round" stroke-linecap="butt" d="m654.72784 384.84494l0 0c63.33197 63.33197 63.33197 166.0134 0 229.34537l0 0c-30.413147 30.413086 -71.66211 47.498962 -114.67273 47.498962c-43.01059 0 -84.25958 -17.085876 -114.67267 -47.498962l0 0c-63.332 -63.33197 -63.332 -166.0134 0 -229.34537l0 0c63.33197 -63.332 166.01337 -63.332 229.3454 0z" fill-rule="evenodd"></path><path fill="#000000" fill-opacity="0.0" d="m702.2274 500.1477l0 0c-0.25665283 66.05017 -40.54724 125.34485 -101.86127 149.90668c-61.313965 24.56189 -131.39822 9.482422 -177.18448 -38.123352c-45.786255 -47.605774 -58.12451 -118.22418 -31.193115 -178.53494c26.931396 -60.31079 87.7504 -98.26129 153.76047 -95.94513l-5.6866455 162.06656z" fill-rule="evenodd"></path><path fill="#000000" fill-opacity="0.0" d="m702.2274 500.1477l0 0c-0.25665283 66.05017 -40.54724 125.34485 -101.86127 149.90668c-61.313965 24.56189 -131.39822 9.482422 -177.18448 -38.123352c-45.786255 -47.605774 -58.12451 -118.22418 -31.193115 -178.53494c26.931396 -60.31079 87.7504 -98.26129 153.76047 -95.94513" fill-rule="evenodd"></path><path stroke="#ffd966" stroke-width="24.0" stroke-linejoin="round" stroke-linecap="butt" d="m702.2274 500.1477l0 0c-0.25665283 66.05017 -40.54724 125.34485 -101.86127 149.90668c-61.313965 24.56189 -131.39822 9.482422 -177.18448 -38.123352c-45.786255 -47.605774 -58.12451 -118.22418 -31.193115 -178.53494c26.931396 -60.31079 87.7504 -98.26129 153.76047 -95.94513" fill-rule="evenodd"></path><path fill="#000000" fill-opacity="0.0" d="m339.17407 499.51886l0 0c0 89.565796 -72.60742 162.17322 -162.17322 162.17322l0 0c-43.011017 0 -84.260414 -17.08606 -114.6738 -47.49939c-30.413378 -30.413391 -47.499435 -71.66278 -47.499435 -114.67383l0 0c0 -89.565796 72.60742 -162.17322 162.17323 -162.17322l0 0c89.565796 0 162.17322 72.60742 162.17322 162.17322z" fill-rule="evenodd"></path><path stroke="#d9d2e9" stroke-width="24.0" stroke-linejoin="round" stroke-linecap="butt" d="m339.17407 499.51886l0 0c0 89.565796 -72.60742 162.17322 -162.17322 162.17322l0 0c-43.011017 0 -84.260414 -17.08606 -114.6738 -47.49939c-30.413378 -30.413391 -47.499435 -71.66278 -47.499435 -114.67383l0 0c0 -89.565796 72.60742 -162.17322 162.17323 -162.17322l0 0c89.565796 0 162.17322 72.60742 162.17322 162.17322z" fill-rule="evenodd"></path><path fill="#000000" fill-opacity="0.0" d="m339.17682 500.14658l0 0c-0.32492065 85.444 -66.88953 155.97891 -152.17154 161.24796c-85.282036 5.268982 -160.02303 -56.535583 -170.86337 -141.28973c-10.840343 -84.75421 45.939053 -163.38068 129.80185 -179.74585l31.060974 159.17093z" fill-rule="evenodd"></path><path fill="#000000" fill-opacity="0.0" d="m339.17682 500.14658l0 0c-0.32492065 85.444 -66.88953 155.97891 -152.17154 161.24796c-85.282036 5.268982 -160.02303 -56.535583 -170.86337 -141.28973c-10.840343 -84.75421 45.939053 -163.38068 129.80185 -179.74585" fill-rule="evenodd"></path><path stroke="#8e7cc3" stroke-width="24.0" stroke-linejoin="round" stroke-linecap="butt" d="m339.17682 500.14658l0 0c-0.32492065 85.444 -66.88953 155.97891 -152.17154 161.24796c-85.282036 5.268982 -160.02303 -56.535583 -170.86337 -141.28973c-10.840343 -84.75421 45.939053 -163.38068 129.80185 -179.74585" fill-rule="evenodd"></path><path fill="#000000" fill-opacity="0.0" d="m719.09326 12.998834l0 0c89.565796 0 162.17322 72.60743 162.17322 162.17322l0 0c0 43.011017 -17.08606 84.26041 -47.49939 114.6738c-30.413391 30.413391 -71.66278 47.49942 -114.67383 47.49942l0 0c-89.565796 0 -162.17322 -72.60742 -162.17322 -162.17322l0 0c0 -89.565796 72.60742 -162.17322 162.17322 -162.17322z" fill-rule="evenodd"></path><path stroke="#d9ead3" stroke-width="24.0" stroke-linejoin="round" stroke-linecap="butt" d="m719.09326 12.998834l0 0c89.565796 0 162.17322 72.60743 162.17322 162.17322l0 0c0 43.011017 -17.08606 84.26041 -47.49939 114.6738c-30.413391 30.413391 -71.66278 47.49942 -114.67383 47.49942l0 0c-89.565796 0 -162.17322 -72.60742 -162.17322 -162.17322l0 0c0 -89.565796 72.60742 -162.17322 162.17322 -162.17322z" fill-rule="evenodd"></path><path fill="#000000" fill-opacity="0.0" d="m881.2285 171.7034l0 0c1.4921265 69.75116 -41.793396 132.63974 -107.47864 156.15347c-65.6853 23.513733 -139.04791 2.3822937 -182.16064 -52.469696c-43.112732 -54.85202 -46.3125 -131.13025 -7.9450684 -189.40022c38.367493 -58.269978 109.702576 -85.47125 177.12634 -67.54125l-41.67816 156.72615z" fill-rule="evenodd"></path><path fill="#000000" fill-opacity="0.0" d="m881.2285 171.7034l0 0c1.4921265 69.75116 -41.793396 132.63974 -107.47864 156.15347c-65.6853 23.513733 -139.04791 2.3822937 -182.16064 -52.469696c-43.112732 -54.85202 -46.3125 -131.13025 -7.9450684 -189.40022c38.367493 -58.269978 109.702576 -85.47125 177.12634 -67.54125" fill-rule="evenodd"></path><path stroke="#93c47d" stroke-width="24.0" stroke-linejoin="round" stroke-linecap="butt" d="m881.2285 171.7034l0 0c1.4921265 69.75116 -41.793396 132.63974 -107.47864 156.15347c-65.6853 23.513733 -139.04791 2.3822937 -182.16064 -52.469696c-43.112732 -54.85202 -46.3125 -131.13025 -7.9450684 -189.40022c38.367493 -58.269978 109.702576 -85.47125 177.12634 -67.54125" fill-rule="evenodd"></path><path fill="#000000" fill-opacity="0.0" d="m359.68756 12.998834l0 0c89.565796 0 162.17322 72.60743 162.17322 162.17322l0 0c0 43.011017 -17.08606 84.26041 -47.49945 114.6738c-30.41336 30.413391 -71.66278 47.49942 -114.67377 47.49942l0 0c-89.56583 0 -162.17325 -72.60742 -162.17325 -162.17322l0 0c0 -89.565796 72.60742 -162.17322 162.17325 -162.17322z" fill-rule="evenodd"></path><path stroke="#f4cccc" stroke-width="24.0" stroke-linejoin="round" stroke-linecap="butt" d="m359.68756 12.998834l0 0c89.565796 0 162.17322 72.60743 162.17322 162.17322l0 0c0 43.011017 -17.08606 84.26041 -47.49945 114.6738c-30.41336 30.413391 -71.66278 47.49942 -114.67377 47.49942l0 0c-89.56583 0 -162.17325 -72.60742 -162.17325 -162.17322l0 0c0 -89.565796 72.60742 -162.17322 162.17325 -162.17322z" fill-rule="evenodd"></path><path fill="#000000" fill-opacity="0.0" d="m521.85986 175.23299l0 0c-0.028137207 74.54558 -50.871735 139.47087 -123.23688 157.36858c-72.36517 17.897736 -147.61124 -15.842377 -182.38454 -81.7807c-34.773315 -65.93831 -20.116562 -147.08969 35.52562 -196.69807c55.64218 -49.608376 137.93689 -54.895077 199.4693 -12.814129l-91.54672 133.86319z" fill-rule="evenodd"></path><path fill="#000000" fill-opacity="0.0" d="m521.85986 175.23299l0 0c-0.028137207 74.54558 -50.871735 139.47087 -123.23688 157.36858c-72.36517 17.897736 -147.61124 -15.842377 -182.38454 -81.7807c-34.773315 -65.93831 -20.116562 -147.08969 35.52562 -196.69807c55.64218 -49.608376 137.93689 -54.895077 199.4693 -12.814129" fill-rule="evenodd"></path><path stroke="#e06666" stroke-width="24.0" stroke-linejoin="round" stroke-linecap="butt" d="m521.85986 175.23299l0 0c-0.028137207 74.54558 -50.871735 139.47087 -123.23688 157.36858c-72.36517 17.897736 -147.61124 -15.842377 -182.38454 -81.7807c-34.773315 -65.93831 -20.116562 -147.08969 35.52562 -196.69807c55.64218 -49.608376 137.93689 -54.895077 199.4693 -12.814129" fill-rule="evenodd"></path><path fill="#000000" fill-opacity="0.0" d="m184.99374 113.45595l349.38583 0l0 123.433075l-349.38583 0z" fill-rule="evenodd"></path><path fill="#000000" d="m234.61272 148.58783l4.734375 0q3.3125 0 5.0625 -1.359375q1.765625 -1.359375 1.765625 -4.109375q0 -2.796875 -1.765625 -3.90625q-1.75 -1.125 -5.0625 -1.125l-4.734375 0l0 10.5zm11.90625 14.828125l-6.78125 -11.90625l-5.125 0l0 11.90625l-3.5625 0l0 -28.203125l8.8125 0q2.140625 0 3.96875 0.40625q1.828125 0.40625 3.140625 1.359375q1.3125 0.9375 2.046875 2.453125q0.734375 1.5 0.734375 3.6875q0 3.3125 -1.71875 5.296875q-1.71875 1.96875 -4.609375 2.703125l7.140625 12.296875l-4.046875 0zm7.423874 -10.40625q0 -2.578125 0.78125 -4.625q0.796875 -2.046875 2.109375 -3.453125q1.3125 -1.421875 2.984375 -2.171875q1.6875 -0.75 3.5 -0.75q1.96875 0 3.53125 0.6875q1.578125 0.6875 2.625 1.984375q1.0625 1.28125 1.609375 3.09375q0.5625 1.796875 0.5625 4.03125q0 1.15625 -0.125 1.9375l-14.09375 0q0.203125 3.390625 2.078125 5.375q1.875 1.96875 4.875 1.96875q1.515625 0 2.78125 -0.4375q1.265625 -0.453125 2.421875 -1.1875l1.25 2.3125q-1.375 0.859375 -3.0625 1.515625q-1.671875 0.640625 -3.8125 0.640625q-2.109375 0 -3.9375 -0.75q-1.828125 -0.75 -3.1875 -2.140625q-1.34375 -1.40625 -2.125 -3.421875q-0.765625 -2.03125 -0.765625 -4.609375zm14.609375 -1.59375q0 -3.21875 -1.359375 -4.921875q-1.34375 -1.703125 -3.796875 -1.703125q-1.125 0 -2.140625 0.453125q-1.0 0.453125 -1.8125 1.296875q-0.8125 0.84375 -1.359375 2.0625q-0.53125 1.21875 -0.703125 2.8125l11.171875 0zm9.891846 -13.203125q-1.03125 0 -1.75 -0.640625q-0.703125 -0.640625 -0.703125 -1.640625q0 -1.03125 0.703125 -1.640625q0.71875 -0.625 1.75 -0.625q1.03125 0 1.734375 0.625q0.71875 0.609375 0.71875 1.640625q0 1.0 -0.71875 1.640625q-0.703125 0.640625 -1.734375 0.640625zm-1.796875 4.3125l3.515625 0l0 20.890625l-3.515625 0l0 -20.890625zm10.493439 0l2.921875 0l0.296875 3.0l0.125 0q1.515625 -1.5 3.171875 -2.5q1.65625 -1.015625 3.84375 -1.015625q3.3125 0 4.828125 2.0625q1.53125 2.0625 1.53125 6.09375l0 13.25l-3.515625 0l0 -12.765625q0 -2.96875 -0.953125 -4.28125q-0.953125 -1.3125 -3.015625 -1.3125q-1.625 0 -2.875 0.8125q-1.25 0.8125 -2.84375 2.40625l0 15.140625l-3.515625 0l0 -20.890625zm32.739166 -6.84375q-1.15625 -0.515625 -2.359375 -0.515625q-2.921875 0 -2.921875 4.046875l0 3.3125l4.421875 0l0 2.875l-4.421875 0l0 18.015625l-3.53125 0l0 -18.015625l-2.828125 0l0 -2.671875l2.828125 -0.203125l0 -3.3125q0 -3.234375 1.484375 -5.078125q1.484375 -1.84375 4.625 -1.84375q0.984375 0 1.859375 0.1875q0.890625 0.1875 1.625 0.5l-0.78125 2.703125zm1.5025024 17.328125q0 -2.625 0.78125 -4.65625q0.796875 -2.046875 2.125 -3.46875q1.34375 -1.421875 3.078125 -2.140625q1.75 -0.734375 3.6875 -0.734375q1.9375 0 3.671875 0.734375q1.75 0.71875 3.078125 2.140625q1.328125 1.421875 2.125 3.46875q0.796875 2.03125 0.796875 4.65625q0 2.578125 -0.796875 4.625q-0.796875 2.046875 -2.125 3.4375q-1.328125 1.390625 -3.078125 2.125q-1.734375 0.734375 -3.671875 0.734375q-1.9375 0 -3.6875 -0.734375q-1.734375 -0.734375 -3.078125 -2.125q-1.328125 -1.390625 -2.125 -3.4375q-0.78125 -2.046875 -0.78125 -4.625zm3.65625 0q0 1.8125 0.421875 3.28125q0.4375 1.453125 1.21875 2.515625q0.796875 1.046875 1.90625 1.625q1.125 0.578125 2.46875 0.578125q1.328125 0 2.4375 -0.578125q1.125 -0.578125 1.921875 -1.625q0.796875 -1.0625 1.21875 -2.515625q0.4375 -1.46875 0.4375 -3.28125q0 -1.8125 -0.4375 -3.28125q-0.421875 -1.484375 -1.21875 -2.5625q-0.796875 -1.078125 -1.921875 -1.65625q-1.109375 -0.578125 -2.4375 -0.578125q-1.34375 0 -2.46875 0.578125q-1.109375 0.578125 -1.90625 1.65625q-0.78125 1.078125 -1.21875 2.5625q-0.421875 1.46875 -0.421875 3.28125zm21.010254 -10.484375l2.921875 0l0.296875 3.78125l0.125 0q1.078125 -1.984375 2.609375 -3.140625q1.53125 -1.15625 3.328125 -1.15625q1.25 0 2.234375 0.421875l-0.6875 3.09375q-0.515625 -0.171875 -0.953125 -0.25q-0.421875 -0.09375 -1.0625 -0.09375q-1.328125 0 -2.78125 1.078125q-1.4375 1.078125 -2.515625 3.734375l0 13.421875l-3.515625 0l0 -20.890625zm13.254822 10.484375q0 -2.625 0.8125 -4.65625q0.8125 -2.046875 2.1875 -3.46875q1.375 -1.421875 3.203125 -2.140625q1.828125 -0.734375 3.859375 -0.734375q2.0625 0 3.546875 0.75q1.484375 0.75 2.546875 1.734375l-1.75 2.28125q-0.953125 -0.8125 -1.96875 -1.328125q-1.0 -0.515625 -2.25 -0.515625q-1.421875 0 -2.625 0.578125q-1.203125 0.578125 -2.0625 1.65625q-0.859375 1.078125 -1.359375 2.5625q-0.484375 1.46875 -0.484375 3.28125q0 1.8125 0.46875 3.28125q0.46875 1.453125 1.296875 2.515625q0.84375 1.046875 2.046875 1.625q1.203125 0.578125 2.625 0.578125q1.515625 0 2.734375 -0.625q1.21875 -0.625 2.171875 -1.484375l1.59375 2.328125q-1.421875 1.234375 -3.171875 1.96875q-1.734375 0.734375 -3.625 0.734375q-2.0625 0 -3.875 -0.734375q-1.796875 -0.734375 -3.109375 -2.125q-1.3125 -1.390625 -2.0625 -3.4375q-0.75 -2.046875 -0.75 -4.625zm19.451233 0q0 -2.578125 0.78125 -4.625q0.796875 -2.046875 2.109375 -3.453125q1.3125 -1.421875 2.984375 -2.171875q1.6875 -0.75 3.5 -0.75q1.96875 0 3.53125 0.6875q1.578125 0.6875 2.625 1.984375q1.0625 1.28125 1.609375 3.09375q0.5625 1.796875 0.5625 4.03125q0 1.15625 -0.125 1.9375l-14.09375 0q0.203125 3.390625 2.078125 5.375q1.875 1.96875 4.875 1.96875q1.515625 0 2.78125 -0.4375q1.265625 -0.453125 2.421875 -1.1875l1.25 2.3125q-1.375 0.859375 -3.0625 1.515625q-1.671875 0.640625 -3.8125 0.640625q-2.109375 0 -3.9375 -0.75q-1.828125 -0.75 -3.1875 -2.140625q-1.34375 -1.40625 -2.125 -3.421875q-0.765625 -2.03125 -0.765625 -4.609375zm14.609375 -1.59375q0 -3.21875 -1.359375 -4.921875q-1.34375 -1.703125 -3.796875 -1.703125q-1.125 0 -2.140625 0.453125q-1.0 0.453125 -1.8125 1.296875q-0.8125 0.84375 -1.359375 2.0625q-0.53125 1.21875 -0.703125 2.8125l11.171875 0zm8.094971 -8.890625l2.921875 0l0.296875 3.0l0.125 0q1.375 -1.5 2.984375 -2.5q1.625 -1.015625 3.515625 -1.015625q2.40625 0 3.75 1.046875q1.359375 1.046875 2.015625 2.9375q1.625 -1.796875 3.28125 -2.890625q1.65625 -1.09375 3.59375 -1.09375q3.21875 0 4.78125 2.0625q1.578125 2.0625 1.578125 6.09375l0 13.25l-3.515625 0l0 -12.765625q0 -2.96875 -0.953125 -4.28125q-0.9375 -1.3125 -2.921875 -1.3125q-2.359375 0 -5.25 3.21875l0 15.140625l-3.515625 0l0 -12.765625q0 -2.96875 -0.953125 -4.28125q-0.953125 -1.3125 -2.96875 -1.3125q-2.359375 0 -5.25 3.21875l0 15.140625l-3.515625 0l0 -20.890625zm33.815094 10.484375q0 -2.578125 0.78125 -4.625q0.796875 -2.046875 2.109375 -3.453125q1.3125 -1.421875 2.9843445 -2.171875q1.6875 -0.75 3.5 -0.75q1.96875 0 3.53125 0.6875q1.578125 0.6875 2.625 1.984375q1.0625 1.28125 1.609375 3.09375q0.5625 1.796875 0.5625 4.03125q0 1.15625 -0.125 1.9375l-14.0937195 0q0.203125 3.390625 2.078125 5.375q1.8749695 1.96875 4.8749695 1.96875q1.515625 0 2.78125 -0.4375q1.265625 -0.453125 2.421875 -1.1875l1.25 2.3125q-1.375 0.859375 -3.0625 1.515625q-1.671875 0.640625 -3.8125 0.640625q-2.109375 0 -3.9375 -0.75q-1.8280945 -0.75 -3.1874695 -2.140625q-1.34375 -1.40625 -2.125 -3.421875q-0.765625 -2.03125 -0.765625 -4.609375zm14.6093445 -1.59375q0 -3.21875 -1.359375 -4.921875q-1.34375 -1.703125 -3.796875 -1.703125q-1.125 0 -2.140625 0.453125q-1.0 0.453125 -1.8124695 1.296875q-0.8125 0.84375 -1.359375 2.0625q-0.53125 1.21875 -0.703125 2.8125l11.1718445 0zm8.094971 -8.890625l2.921875 0l0.296875 3.0l0.125 0q1.515625 -1.5 3.171875 -2.5q1.65625 -1.015625 3.84375 -1.015625q3.3125 0 4.828125 2.0625q1.53125 2.0625 1.53125 6.09375l0 13.25l-3.515625 0l0 -12.765625q0 -2.96875 -0.953125 -4.28125q-0.953125 -1.3125 -3.015625 -1.3125q-1.625 0 -2.875 0.8125q-1.25 0.8125 -2.84375 2.40625l0 15.140625l-3.515625 0l0 -20.890625zm23.926697 2.875l-3.09375 0l0 -2.671875l3.265625 -0.203125l0.4375 -5.859375l2.96875 0l0 5.859375l5.625 0l0 2.875l-5.625 0l0 11.609375q0 1.9375 0.703125 3.0q0.703125 1.046875 2.515625 1.046875q0.5625 0 1.203125 -0.171875q0.640625 -0.171875 1.15625 -0.390625l0.6875 2.65625q-0.859375 0.3125 -1.875 0.546875q-1.0 0.234375 -1.984375 0.234375q-1.6875 0 -2.828125 -0.515625q-1.125 -0.515625 -1.84375 -1.421875q-0.703125 -0.90625 -1.015625 -2.1875q-0.296875 -1.296875 -0.296875 -2.84375l0 -11.5625z" fill-rule="nonzero"></path><path fill="#000000" d="m284.96765 186.21283l3.5625 0l0 25.15625l12.34375 0l0 3.046875l-15.90625 0l0 -28.203125zm18.840271 17.796875q0 -2.578125 0.78125 -4.625q0.796875 -2.046875 2.109375 -3.453125q1.3125 -1.421875 2.984375 -2.171875q1.6875 -0.75 3.5 -0.75q1.96875 0 3.53125 0.6875q1.578125 0.6875 2.625 1.984375q1.0625 1.28125 1.609375 3.09375q0.5625 1.796875 0.5625 4.03125q0 1.15625 -0.125 1.9375l-14.09375 0q0.203125 3.390625 2.078125 5.375q1.875 1.96875 4.875 1.96875q1.515625 0 2.78125 -0.4375q1.265625 -0.453125 2.421875 -1.1875l1.25 2.3125q-1.375 0.859375 -3.0625 1.515625q-1.671875 0.640625 -3.8125 0.640625q-2.109375 0 -3.9375 -0.75q-1.828125 -0.75 -3.1875 -2.140625q-1.34375 -1.40625 -2.125 -3.421875q-0.765625 -2.03125 -0.765625 -4.609375zm14.609375 -1.59375q0 -3.21875 -1.359375 -4.921875q-1.34375 -1.703125 -3.796875 -1.703125q-1.125 0 -2.140625 0.453125q-1.0 0.453125 -1.8125 1.296875q-0.8125 0.84375 -1.359375 2.0625q-0.53125 1.21875 -0.703125 2.8125l11.171875 0zm7.0637207 6.578125q0 -3.4375 3.0625 -5.265625q3.078125 -1.828125 9.78125 -2.5625q0 -0.984375 -0.1875 -1.921875q-0.1875 -0.953125 -0.6875 -1.6875q-0.5 -0.734375 -1.3125 -1.171875q-0.8125 -0.453125 -2.109375 -0.453125q-1.84375 0 -3.421875 0.6875q-1.5625 0.6875 -2.8125 1.546875l-1.421875 -2.453125q1.46875 -0.953125 3.578125 -1.828125q2.109375 -0.875 4.640625 -0.875q3.828125 0 5.546875 2.34375q1.71875 2.328125 1.71875 6.25l0 12.8125l-2.921875 0l-0.296875 -2.5l-0.09375 0q-1.5 1.25 -3.25 2.140625q-1.734375 0.875 -3.671875 0.875q-2.65625 0 -4.40625 -1.546875q-1.734375 -1.546875 -1.734375 -4.390625zm3.484375 -0.25q0 1.796875 1.046875 2.578125q1.046875 0.765625 2.59375 0.765625q1.515625 0 2.859375 -0.703125q1.359375 -0.703125 2.859375 -2.078125l0 -5.8125q-2.609375 0.34375 -4.421875 0.828125q-1.8125 0.46875 -2.90625 1.109375q-1.09375 0.640625 -1.5625 1.484375q-0.46875 0.828125 -0.46875 1.828125zm19.38684 -15.21875l2.921875 0l0.296875 3.78125l0.125 0q1.078125 -1.984375 2.609375 -3.140625q1.53125 -1.15625 3.328125 -1.15625q1.25 0 2.234375 0.421875l-0.6875 3.09375q-0.515625 -0.171875 -0.953125 -0.25q-0.421875 -0.09375 -1.0625 -0.09375q-1.328125 0 -2.78125 1.078125q-1.4375 1.078125 -2.515625 3.734375l0 13.421875l-3.515625 0l0 -20.890625zm14.801697 0l2.921875 0l0.296875 3.0l0.125 0q1.515625 -1.5 3.171875 -2.5q1.65625 -1.015625 3.84375 -1.015625q3.3125 0 4.828125 2.0625q1.53125 2.0625 1.53125 6.09375l0 13.25l-3.515625 0l0 -12.765625q0 -2.96875 -0.953125 -4.28125q-0.953125 -1.3125 -3.015625 -1.3125q-1.625 0 -2.875 0.8125q-1.25 0.8125 -2.84375 2.40625l0 15.140625l-3.515625 0l0 -20.890625zm25.129822 -4.3125q-1.03125 0 -1.75 -0.640625q-0.703125 -0.640625 -0.703125 -1.640625q0 -1.03125 0.703125 -1.640625q0.71875 -0.625 1.75 -0.625q1.03125 0 1.734375 0.625q0.71875 0.609375 0.71875 1.640625q0 1.0 -0.71875 1.640625q-0.703125 0.640625 -1.734375 0.640625zm-1.796875 4.3125l3.515625 0l0 20.890625l-3.515625 0l0 -20.890625zm10.493408 0l2.921875 0l0.296875 3.0l0.125 0q1.515625 -1.5 3.171875 -2.5q1.65625 -1.015625 3.84375 -1.015625q3.3125 0 4.828125 2.0625q1.53125 2.0625 1.53125 6.09375l0 13.25l-3.515625 0l0 -12.765625q0 -2.96875 -0.953125 -4.28125q-0.953125 -1.3125 -3.015625 -1.3125q-1.625 0 -2.875 0.8125q-1.25 0.8125 -2.84375 2.40625l0 15.140625l-3.515625 0l0 -20.890625zm24.832947 24.421875q0 1.671875 1.609375 2.65625q1.609375 1.0 4.453125 1.0q1.5 0 2.71875 -0.375q1.234375 -0.359375 2.09375 -0.953125q0.859375 -0.578125 1.328125 -1.359375q0.484375 -0.765625 0.484375 -1.578125q0 -1.453125 -1.078125 -2.015625q-1.078125 -0.5625 -3.140625 -0.5625l-3.609375 0q-0.609375 0 -1.3125 -0.0625q-0.703125 -0.0625 -1.390625 -0.28125q-1.125 0.8125 -1.640625 1.71875q-0.515625 0.90625 -0.515625 1.8125zm-3.09375 0.46875q0 -1.328125 0.8125 -2.53125q0.8125 -1.203125 2.234375 -2.203125l0 -0.171875q-0.765625 -0.46875 -1.3125 -1.296875q-0.53125 -0.84375 -0.53125 -2.09375q0 -1.34375 0.71875 -2.328125q0.734375 -0.984375 1.5625 -1.546875l0 -0.171875q-1.03125 -0.859375 -1.875 -2.296875q-0.84375 -1.4375 -0.84375 -3.328125q0 -1.71875 0.625 -3.09375q0.625 -1.390625 1.703125 -2.34375q1.078125 -0.96875 2.515625 -1.484375q1.4375 -0.515625 3.03125 -0.515625q0.859375 0 1.609375 0.15625q0.75 0.140625 1.359375 0.359375l7.265625 0l0 2.703125l-4.296875 0q0.734375 0.734375 1.21875 1.859375q0.5 1.109375 0.5 2.4375q0 1.671875 -0.609375 3.03125q-0.59375 1.359375 -1.625 2.28125q-1.03125 0.921875 -2.4375 1.4375q-1.390625 0.515625 -2.984375 0.515625q-0.78125 0 -1.59375 -0.1875q-0.8125 -0.203125 -1.546875 -0.546875q-0.5625 0.484375 -0.953125 1.0625q-0.375 0.578125 -0.375 1.4375q0 0.984375 0.765625 1.640625q0.78125 0.640625 2.921875 0.640625l4.046875 0q3.65625 0 5.484375 1.1875q1.828125 1.171875 1.828125 3.796875q0 1.46875 -0.734375 2.78125q-0.734375 1.3125 -2.109375 2.296875q-1.375 0.984375 -3.328125 1.5625q-1.953125 0.578125 -4.40625 0.578125q-1.9375 0 -3.53125 -0.359375q-1.578125 -0.359375 -2.71875 -1.09375q-1.140625 -0.734375 -1.765625 -1.765625q-0.625 -1.03125 -0.625 -2.40625zm8.640625 -12.984375q0.90625 0 1.703125 -0.34375q0.796875 -0.34375 1.40625 -0.984375q0.625 -0.65625 0.96875 -1.578125q0.34375 -0.921875 0.34375 -2.078125q0 -2.328125 -1.296875 -3.59375q-1.28125 -1.265625 -3.125 -1.265625q-1.84375 0 -3.140625 1.265625q-1.28125 1.265625 -1.28125 3.59375q0 1.15625 0.34375 2.078125q0.34375 0.921875 0.953125 1.578125q0.625 0.640625 1.421875 0.984375q0.796875 0.34375 1.703125 0.34375z" fill-rule="nonzero"></path><path fill="#000000" fill-opacity="0.0" d="m365.35837 437.8024l349.38583 0l0 123.433075l-349.38583 0z" fill-rule="evenodd"></path><path fill="#000000" d="m444.98526 459.5593l8.640625 0q2.3125 0 4.25 0.4375q1.9375 0.421875 3.28125 1.390625q1.359375 0.96875 2.109375 2.5625q0.765625 1.578125 0.765625 3.90625q0 2.234375 -0.765625 3.875q-0.75 1.625 -2.125 2.703125q-1.375 1.078125 -3.296875 1.609375q-1.90625 0.53125 -4.21875 0.53125l-5.078125 0l0 11.1875l-3.5625 0l0 -28.203125zm8.203125 14.09375q3.703125 0 5.484375 -1.390625q1.78125 -1.40625 1.78125 -4.40625q0 -3.0625 -1.8125 -4.234375q-1.796875 -1.1875 -5.453125 -1.1875l-4.640625 0l0 11.21875l4.640625 0zm16.023102 -6.78125l2.921875 0l0.296875 3.78125l0.125 0q1.078125 -1.984375 2.609375 -3.140625q1.53125 -1.15625 3.328125 -1.15625q1.25 0 2.234375 0.421875l-0.6875 3.09375q-0.515625 -0.171875 -0.953125 -0.25q-0.421875 -0.09375 -1.0625 -0.09375q-1.328125 0 -2.78125 1.078125q-1.4375 1.078125 -2.515625 3.734375l0 13.421875l-3.515625 0l0 -20.890625zm13.254822 10.484375q0 -2.625 0.78125 -4.65625q0.796875 -2.046875 2.125 -3.46875q1.34375 -1.421875 3.078125 -2.140625q1.75 -0.734375 3.6875 -0.734375q1.9375 0 3.671875 0.734375q1.75 0.71875 3.078125 2.140625q1.328125 1.421875 2.125 3.46875q0.796875 2.03125 0.796875 4.65625q0 2.578125 -0.796875 4.625q-0.796875 2.046875 -2.125 3.4375q-1.328125 1.390625 -3.078125 2.125q-1.734375 0.734375 -3.671875 0.734375q-1.9375 0 -3.6875 -0.734375q-1.734375 -0.734375 -3.078125 -2.125q-1.328125 -1.390625 -2.125 -3.4375q-0.78125 -2.046875 -0.78125 -4.625zm3.65625 0q0 1.8125 0.421875 3.28125q0.4375 1.453125 1.21875 2.515625q0.796875 1.046875 1.90625 1.625q1.125 0.578125 2.46875 0.578125q1.328125 0 2.4375 -0.578125q1.125 -0.578125 1.921875 -1.625q0.796875 -1.0625 1.21875 -2.515625q0.4375 -1.46875 0.4375 -3.28125q0 -1.8125 -0.4375 -3.28125q-0.421875 -1.484375 -1.21875 -2.5625q-0.796875 -1.078125 -1.921875 -1.65625q-1.109375 -0.578125 -2.4375 -0.578125q-1.34375 0 -2.46875 0.578125q-1.109375 0.578125 -1.90625 1.65625q-0.78125 1.078125 -1.21875 2.5625q-0.421875 1.46875 -0.421875 3.28125zm21.010254 -20.203125l3.515625 0l0 8.328125l-0.078125 3.796875q1.421875 -1.25 3.09375 -2.078125q1.671875 -0.84375 3.4375 -0.84375q2.015625 0 3.5625 0.75q1.5625 0.75 2.609375 2.15625q1.046875 1.390625 1.578125 3.34375q0.546875 1.953125 0.546875 4.359375q0 2.671875 -0.734375 4.78125q-0.71875 2.109375 -1.96875 3.578125q-1.25 1.453125 -2.890625 2.203125q-1.625 0.75 -3.4375 0.75q-1.453125 0 -3.03125 -0.65625q-1.5625 -0.671875 -2.9375 -1.921875l-0.125 0l-0.3125 2.0625l-2.828125 0l0 -30.609375zm3.515625 25.96875q1.375 1.203125 2.734375 1.703125q1.359375 0.484375 2.390625 0.484375q1.28125 0 2.375 -0.578125q1.109375 -0.578125 1.90625 -1.625q0.796875 -1.0625 1.234375 -2.609375q0.453125 -1.546875 0.453125 -3.484375q0 -1.71875 -0.296875 -3.140625q-0.296875 -1.421875 -0.96875 -2.421875q-0.65625 -1.015625 -1.71875 -1.578125q-1.046875 -0.5625 -2.515625 -0.5625q-2.53125 0 -5.59375 2.84375l0 10.96875zm19.12732 -0.78125q0 -3.4375 3.0625 -5.265625q3.078125 -1.828125 9.78125 -2.5625q0 -0.984375 -0.1875 -1.921875q-0.1875 -0.953125 -0.6875 -1.6875q-0.5 -0.734375 -1.3125 -1.171875q-0.8125 -0.453125 -2.109375 -0.453125q-1.84375 0 -3.421875 0.6875q-1.5625 0.6875 -2.8125 1.546875l-1.421875 -2.453125q1.46875 -0.953125 3.578125 -1.828125q2.109375 -0.875 4.640625 -0.875q3.828125 0 5.546875 2.34375q1.71875 2.328125 1.71875 6.25l0 12.8125l-2.921875 0l-0.296875 -2.5l-0.09375 0q-1.5 1.25 -3.25 2.140625q-1.734375 0.875 -3.671875 0.875q-2.65625 0 -4.40625 -1.546875q-1.734375 -1.546875 -1.734375 -4.390625zm3.484375 -0.25q0 1.796875 1.046875 2.578125q1.046875 0.765625 2.59375 0.765625q1.515625 0 2.859375 -0.703125q1.359375 -0.703125 2.859375 -2.078125l0 -5.8125q-2.609375 0.34375 -4.421875 0.828125q-1.8125 0.46875 -2.90625 1.109375q-1.09375 0.640625 -1.5625 1.484375q-0.46875 0.828125 -0.46875 1.828125zm19.38684 -24.9375l3.515625 0l0 8.328125l-0.078125 3.796875q1.421875 -1.25 3.09375 -2.078125q1.671875 -0.84375 3.4375 -0.84375q2.015625 0 3.5625 0.75q1.5625 0.75 2.609375 2.15625q1.046875 1.390625 1.578125 3.34375q0.546875 1.953125 0.546875 4.359375q0 2.671875 -0.734375 4.78125q-0.71875 2.109375 -1.96875 3.578125q-1.25 1.453125 -2.890625 2.203125q-1.625 0.75 -3.4375 0.75q-1.453125 0 -3.03125 -0.65625q-1.5625 -0.671875 -2.9375 -1.921875l-0.125 0l-0.3125 2.0625l-2.828125 0l0 -30.609375zm3.515625 25.96875q1.375 1.203125 2.734375 1.703125q1.359375 0.484375 2.390625 0.484375q1.28125 0 2.375 -0.578125q1.109375 -0.578125 1.90625 -1.625q0.796875 -1.0625 1.234375 -2.609375q0.453125 -1.546875 0.453125 -3.484375q0 -1.71875 -0.296875 -3.140625q-0.296875 -1.421875 -0.96875 -2.421875q-0.65625 -1.015625 -1.71875 -1.578125q-1.046875 -0.5625 -2.515625 -0.5625q-2.53125 0 -5.59375 2.84375l0 10.96875zm21.955444 -20.5625q-1.03125 0 -1.75 -0.640625q-0.703125 -0.640625 -0.703125 -1.640625q0 -1.03125 0.703125 -1.640625q0.71875 -0.625 1.75 -0.625q1.03125 0 1.734375 0.625q0.71875 0.609375 0.71875 1.640625q0 1.0 -0.71875 1.640625q-0.703125 0.640625 -1.734375 0.640625zm-1.796875 4.3125l3.515625 0l0 20.890625l-3.515625 0l0 -20.890625zm10.493408 -9.71875l3.515625 0l0 26.65625q0 0.859375 0.296875 1.203125q0.3125 0.34375 0.703125 0.34375q0.171875 0 0.3125 0q0.15625 0 0.453125 -0.09375l0.46875 2.671875q-0.34375 0.171875 -0.8125 0.25q-0.46875 0.09375 -1.203125 0.09375q-2.015625 0 -2.875 -1.203125q-0.859375 -1.203125 -0.859375 -3.53125l0 -26.390625zm12.674194 5.40625q-1.03125 0 -1.75 -0.640625q-0.703125 -0.640625 -0.703125 -1.640625q0 -1.03125 0.703125 -1.640625q0.71875 -0.625 1.75 -0.625q1.03125 0 1.734375 0.625q0.71875 0.609375 0.71875 1.640625q0 1.0 -0.71875 1.640625q-0.703125 0.640625 -1.734375 0.640625zm-1.796875 4.3125l3.515625 0l0 20.890625l-3.515625 0l0 -20.890625zm11.087158 2.875l-3.09375 0l0 -2.671875l3.265625 -0.203125l0.4375 -5.859375l2.96875 0l0 5.859375l5.625 0l0 2.875l-5.625 0l0 11.609375q0 1.9375 0.703125 3.0q0.703125 1.046875 2.515625 1.046875q0.5625 0 1.203125 -0.171875q0.640625 -0.171875 1.15625 -0.390625l0.6875 2.65625q-0.859375 0.3125 -1.875 0.546875q-1.0 0.234375 -1.984375 0.234375q-1.6875 0 -2.828125 -0.515625q-1.125 -0.515625 -1.84375 -1.421875q-0.703125 -0.90625 -1.015625 -2.1875q-0.296875 -1.296875 -0.296875 -2.84375l0 -11.5625zm12.402161 23.78125q0.34375 0.078125 0.765625 0.1875q0.4375 0.109375 0.828125 0.109375q1.796875 0 2.9375 -1.265625q1.140625 -1.265625 1.78125 -3.203125l0.484375 -1.546875l-8.390625 -20.9375l3.65625 0l4.25 11.5625q0.484375 1.375 1.015625 2.90625q0.53125 1.515625 1.015625 2.984375l0.171875 0q0.46875 -1.421875 0.890625 -2.96875q0.4375 -1.546875 0.875 -2.921875l3.734375 -11.5625l3.4375 0l-7.859375 22.609375q-0.5625 1.546875 -1.25 2.875q-0.6875 1.34375 -1.640625 2.3125q-0.9375 0.96875 -2.140625 1.515625q-1.203125 0.5625 -2.796875 0.5625q-0.734375 0 -1.34375 -0.109375q-0.59375 -0.109375 -1.109375 -0.3125l0.6875 -2.796875l0 0z" fill-rule="nonzero"></path><path fill="#000000" d="m445.53888 531.23114q0 1.171875 0.421875 2.140625q0.4375 0.96875 1.1875 1.65625q0.765625 0.6875 1.765625 1.046875q1.015625 0.359375 2.171875 0.359375q1.46875 0 2.796875 -0.59375q1.328125 -0.609375 2.578125 -1.671875q-2.0625 -1.8125 -3.984375 -3.953125q-1.90625 -2.15625 -3.40625 -4.4375q-1.5 1.203125 -2.515625 2.515625q-1.015625 1.3125 -1.015625 2.9375zm3.3125 -14.578125q0 1.171875 0.359375 2.421875q0.375 1.234375 0.96875 2.53125q0.953125 -0.640625 1.828125 -1.3125q0.890625 -0.671875 1.546875 -1.375q0.671875 -0.703125 1.0625 -1.5q0.390625 -0.796875 0.390625 -1.75q0 -1.25 -0.625 -2.171875q-0.625 -0.921875 -2.046875 -0.921875q-1.59375 0 -2.546875 1.171875q-0.9375 1.15625 -0.9375 2.90625zm16.46875 22.625q-1.5 -0.421875 -3.140625 -1.21875q-1.625 -0.796875 -3.34375 -2.0q-1.640625 1.453125 -3.640625 2.34375q-2.0 0.875 -4.5 0.875q-1.921875 0 -3.5 -0.578125q-1.5625 -0.578125 -2.703125 -1.609375q-1.140625 -1.03125 -1.765625 -2.46875q-0.625 -1.453125 -0.625 -3.171875q0 -1.421875 0.453125 -2.578125q0.453125 -1.15625 1.21875 -2.140625q0.78125 -1.0 1.78125 -1.828125q1.015625 -0.84375 2.09375 -1.578125q-0.859375 -1.765625 -1.359375 -3.421875q-0.484375 -1.65625 -0.484375 -3.203125q0 -1.421875 0.46875 -2.625q0.46875 -1.203125 1.328125 -2.0937195q0.859375 -0.90625 2.0625 -1.421875q1.203125 -0.515625 2.671875 -0.515625q2.625 0 4.078125 1.546875q1.46875 1.5468445 1.46875 4.0312195q0 1.375 -0.5625 2.546875q-0.5625 1.15625 -1.46875 2.171875q-0.890625 1.0 -2.03125 1.890625q-1.140625 0.875 -2.296875 1.734375q1.375 2.203125 3.234375 4.21875q1.875 2.015625 3.90625 3.703125q1.28125 -1.765625 2.28125 -3.828125q1.015625 -2.0625 1.671875 -4.515625l3.3125 0q-0.859375 2.796875 -2.0625 5.328125q-1.203125 2.53125 -2.890625 4.78125q1.46875 0.984375 2.796875 1.671875q1.328125 0.6875 2.5 1.03125l-0.953125 2.921875zm13.953522 -6.671875q1.515625 1.59375 3.546875 2.5625q2.046875 0.96875 4.234375 0.96875q2.796875 0 4.34375 -1.265625q1.546875 -1.265625 1.546875 -3.328125q0 -1.078125 -0.359375 -1.828125q-0.359375 -0.75 -0.984375 -1.28125q-0.625 -0.546875 -1.484375 -0.96875q-0.859375 -0.4375 -1.859375 -0.921875l-4.03125 -1.75q-1.0 -0.4375 -2.03125 -1.03125q-1.03125 -0.609375 -1.84375 -1.46875q-0.8125 -0.859375 -1.328125 -2.03125q-0.515625 -1.1875 -0.515625 -2.734375q0 -1.59375 0.65625 -2.96875q0.671875 -1.375 1.84375 -2.390625q1.1875 -1.0155945 2.796875 -1.5624695q1.625 -0.5625 3.5625 -0.5625q2.53125 0 4.671875 0.96875q2.15625 0.96875 3.65625 2.5155945l-1.921875 2.3125q-1.296875 -1.25 -2.875 -1.953125q-1.5625 -0.703125 -3.53125 -0.703125q-2.375 0 -3.8125 1.09375q-1.4375 1.09375 -1.4375 3.03125q0 1.03125 0.40625 1.75q0.40625 0.703125 1.09375 1.234375q0.6875 0.53125 1.5 0.953125q0.828125 0.40625 1.6875 0.75l4.0 1.71875q1.203125 0.515625 2.265625 1.1875q1.078125 0.65625 1.84375 1.546875q0.78125 0.875 1.234375 2.0625q0.453125 1.171875 0.453125 2.71875q0 1.6875 -0.671875 3.15625q-0.65625 1.453125 -1.90625 2.546875q-1.25 1.09375 -3.015625 1.71875q-1.75 0.625 -3.984375 0.625q-2.96875 0 -5.515625 -1.109375q-2.53125 -1.125 -4.375 -3.0625l2.140625 -2.5zm22.950287 -11.859375l-3.09375 0l0 -2.671875l3.265625 -0.203125l0.4375 -5.859375l2.96875 0l0 5.859375l5.625 0l0 2.875l-5.625 0l0 11.609375q0 1.9375 0.703125 3.0q0.703125 1.046875 2.515625 1.046875q0.5625 0 1.203125 -0.171875q0.640625 -0.171875 1.15625 -0.390625l0.6875 2.65625q-0.859375 0.3125 -1.875 0.546875q-1.0 0.234375 -1.984375 0.234375q-1.6875 0 -2.828125 -0.515625q-1.125 -0.515625 -1.84375 -1.421875q-0.703125 -0.90625 -1.015625 -2.1875q-0.296875 -1.296875 -0.296875 -2.84375l0 -11.5625zm12.792786 12.59375q0 -3.4375 3.0625 -5.265625q3.078125 -1.828125 9.78125 -2.5625q0 -0.984375 -0.1875 -1.921875q-0.1875 -0.953125 -0.6875 -1.6875q-0.5 -0.734375 -1.3125 -1.171875q-0.8125 -0.453125 -2.109375 -0.453125q-1.84375 0 -3.421875 0.6875q-1.5625 0.6875 -2.8125 1.546875l-1.421875 -2.453125q1.46875 -0.953125 3.578125 -1.828125q2.109375 -0.875 4.640625 -0.875q3.828125 0 5.546875 2.34375q1.71875 2.328125 1.71875 6.25l0 12.8125l-2.921875 0l-0.296875 -2.5l-0.09375 0q-1.5 1.25 -3.25 2.140625q-1.734375 0.875 -3.671875 0.875q-2.65625 0 -4.40625 -1.546875q-1.734375 -1.546875 -1.734375 -4.390625zm3.484375 -0.25q0 1.796875 1.046875 2.578125q1.046875 0.765625 2.59375 0.765625q1.515625 0 2.859375 -0.703125q1.359375 -0.703125 2.859375 -2.078125l0 -5.8125q-2.609375 0.34375 -4.421875 0.828125q-1.8125 0.46875 -2.90625 1.109375q-1.09375 0.640625 -1.5625 1.484375q-0.46875 0.828125 -0.46875 1.828125zm19.98059 -12.34375l-3.09375 0l0 -2.671875l3.265625 -0.203125l0.4375 -5.859375l2.96875 0l0 5.859375l5.625 0l0 2.875l-5.625 0l0 11.609375q0 1.9375 0.703125 3.0q0.703125 1.046875 2.515625 1.046875q0.5625 0 1.203125 -0.171875q0.640625 -0.171875 1.15625 -0.390625l0.6875 2.65625q-0.859375 0.3125 -1.875 0.546875q-1.0 0.234375 -1.984375 0.234375q-1.6875 0 -2.828125 -0.515625q-1.125 -0.515625 -1.84375 -1.421875q-0.703125 -0.90625 -1.015625 -2.1875q-0.296875 -1.296875 -0.296875 -2.84375l0 -11.5625zm15.620911 -7.1875q-1.03125 0 -1.75 -0.640625q-0.703125 -0.640625 -0.703125 -1.6405945q0 -1.03125 0.703125 -1.640625q0.71875 -0.625 1.75 -0.625q1.03125 0 1.734375 0.625q0.71875 0.609375 0.71875 1.640625q0 0.9999695 -0.71875 1.6405945q-0.703125 0.640625 -1.734375 0.640625zm-1.796875 4.3125l3.515625 0l0 20.890625l-3.515625 0l0 -20.890625zm9.930908 16.15625q1.375 1.125 2.8125 1.8125q1.4375 0.6875 3.328125 0.6875q2.078125 0 3.109375 -0.9375q1.03125 -0.953125 1.03125 -2.328125q0 -0.828125 -0.4375 -1.421875q-0.421875 -0.609375 -1.09375 -1.046875q-0.671875 -0.453125 -1.53125 -0.796875q-0.859375 -0.34375 -1.71875 -0.6875q-1.109375 -0.390625 -2.234375 -0.890625q-1.125 -0.5 -2.0 -1.203125q-0.875 -0.703125 -1.4375 -1.640625q-0.5625 -0.953125 -0.5625 -2.296875q0 -1.25 0.484375 -2.34375q0.5 -1.09375 1.421875 -1.890625q0.9375 -0.796875 2.265625 -1.234375q1.328125 -0.453125 3.015625 -0.453125q1.96875 0 3.625 0.6875q1.65625 0.6875 2.859375 1.671875l-1.671875 2.234375q-1.078125 -0.8125 -2.234375 -1.328125q-1.15625 -0.515625 -2.546875 -0.515625q-1.96875 0 -2.890625 0.90625q-0.921875 0.890625 -0.921875 2.09375q0 0.734375 0.375 1.28125q0.390625 0.53125 1.03125 0.9375q0.65625 0.40625 1.484375 0.734375q0.84375 0.3125 1.75 0.65625q1.109375 0.4375 2.25 0.921875q1.140625 0.46875 2.046875 1.171875q0.90625 0.703125 1.484375 1.734375q0.578125 1.03125 0.578125 2.5q0 1.296875 -0.5 2.421875q-0.484375 1.109375 -1.453125 1.96875q-0.96875 0.859375 -2.40625 1.34375q-1.4375 0.5 -3.296875 0.5q-2.234375 0 -4.265625 -0.8125q-2.015625 -0.828125 -3.515625 -2.0625l1.765625 -2.375zm19.029175 -13.28125l-3.09375 0l0 -2.671875l3.265625 -0.203125l0.4375 -5.859375l2.96875 0l0 5.859375l5.625 0l0 2.875l-5.625 0l0 11.609375q0 1.9375 0.703125 3.0q0.703125 1.046875 2.515625 1.046875q0.5625 0 1.203125 -0.171875q0.640625 -0.171875 1.15625 -0.390625l0.6875 2.65625q-0.859375 0.3125 -1.875 0.546875q-1.0 0.234375 -1.984375 0.234375q-1.6875 0 -2.828125 -0.515625q-1.125 -0.515625 -1.84375 -1.421875q-0.703125 -0.90625 -1.015625 -2.1875q-0.296875 -1.296875 -0.296875 -2.84375l0 -11.5625zm15.620911 -7.1875q-1.03125 0 -1.75 -0.640625q-0.703125 -0.640625 -0.703125 -1.6405945q0 -1.03125 0.703125 -1.640625q0.71875 -0.625 1.75 -0.625q1.03125 0 1.734375 0.625q0.71875 0.609375 0.71875 1.640625q0 0.9999695 -0.71875 1.6405945q-0.703125 0.640625 -1.734375 0.640625zm-1.796875 4.3125l3.515625 0l0 20.890625l-3.515625 0l0 -20.890625zm8.946533 10.484375q0 -2.625 0.8125 -4.65625q0.8125 -2.046875 2.1875 -3.46875q1.375 -1.421875 3.203125 -2.140625q1.828125 -0.734375 3.859375 -0.734375q2.0625 0 3.546875 0.75q1.484375 0.75 2.546875 1.734375l-1.75 2.28125q-0.953125 -0.8125 -1.96875 -1.328125q-1.0 -0.515625 -2.25 -0.515625q-1.421875 0 -2.625 0.578125q-1.203125 0.578125 -2.0625 1.65625q-0.859375 1.078125 -1.359375 2.5625q-0.484375 1.46875 -0.484375 3.28125q0 1.8125 0.46875 3.28125q0.46875 1.453125 1.296875 2.515625q0.84375 1.046875 2.046875 1.625q1.203125 0.578125 2.625 0.578125q1.515625 0 2.734375 -0.625q1.21875 -0.625 2.171875 -1.484375l1.59375 2.328125q-1.421875 1.234375 -3.171875 1.96875q-1.734375 0.734375 -3.625 0.734375q-2.0625 0 -3.875 -0.734375q-1.796875 -0.734375 -3.109375 -2.125q-1.3125 -1.390625 -2.0625 -3.4375q-0.75 -2.046875 -0.75 -4.625zm20.435608 5.671875q1.375 1.125 2.8125 1.8125q1.4375 0.6875 3.328125 0.6875q2.078125 0 3.109375 -0.9375q1.03125 -0.953125 1.03125 -2.328125q0 -0.828125 -0.4375 -1.421875q-0.421875 -0.609375 -1.09375 -1.046875q-0.671875 -0.453125 -1.53125 -0.796875q-0.859375 -0.34375 -1.71875 -0.6875q-1.109375 -0.390625 -2.234375 -0.890625q-1.125 -0.5 -2.0 -1.203125q-0.875 -0.703125 -1.4375 -1.640625q-0.5625 -0.953125 -0.5625 -2.296875q0 -1.25 0.484375 -2.34375q0.5 -1.09375 1.421875 -1.890625q0.9375 -0.796875 2.265625 -1.234375q1.328125 -0.453125 3.015625 -0.453125q1.96875 0 3.625 0.6875q1.65625 0.6875 2.859375 1.671875l-1.671875 2.234375q-1.078125 -0.8125 -2.234375 -1.328125q-1.15625 -0.515625 -2.546875 -0.515625q-1.96875 0 -2.890625 0.90625q-0.921875 0.890625 -0.921875 2.09375q0 0.734375 0.375 1.28125q0.390625 0.53125 1.03125 0.9375q0.65625 0.40625 1.484375 0.734375q0.84375 0.3125 1.75 0.65625q1.109375 0.4375 2.25 0.921875q1.140625 0.46875 2.046875 1.171875q0.90625 0.703125 1.484375 1.734375q0.578125 1.03125 0.578125 2.5q0 1.296875 -0.5 2.421875q-0.484375 1.109375 -1.453125 1.96875q-0.96875 0.859375 -2.40625 1.34375q-1.4375 0.5 -3.296875 0.5q-2.234375 0 -4.265625 -0.8125q-2.015625 -0.828125 -3.515625 -2.0625l1.765625 -2.375z" fill-rule="nonzero"></path><path fill="#000000" fill-opacity="0.0" d="m723.44257 437.8024l349.3858 0l0 123.433075l-349.3858 0z" fill-rule="evenodd"></path><path fill="#000000" d="m823.41644 459.5593l3.5625 0l0 25.15625l12.34375 0l0 3.046875l-15.90625 0l0 -28.203125zm18.840271 17.796875q0 -2.578125 0.78125 -4.625q0.796875 -2.046875 2.109375 -3.453125q1.3125 -1.421875 2.984375 -2.171875q1.6875 -0.75 3.5 -0.75q1.96875 0 3.53125 0.6875q1.578125 0.6875 2.625 1.984375q1.0625 1.28125 1.609375 3.09375q0.5625 1.796875 0.5625 4.03125q0 1.15625 -0.125 1.9375l-14.09375 0q0.203125 3.390625 2.078125 5.375q1.875 1.96875 4.875 1.96875q1.515625 0 2.78125 -0.4375q1.265625 -0.453125 2.421875 -1.1875l1.25 2.3125q-1.375 0.859375 -3.0625 1.515625q-1.671875 0.640625 -3.8125 0.640625q-2.109375 0 -3.9375 -0.75q-1.828125 -0.75 -3.1875 -2.140625q-1.34375 -1.40625 -2.125 -3.421875q-0.765625 -2.03125 -0.765625 -4.609375zm14.609375 -1.59375q0 -3.21875 -1.359375 -4.921875q-1.34375 -1.703125 -3.796875 -1.703125q-1.125 0 -2.140625 0.453125q-1.0 0.453125 -1.8125 1.296875q-0.8125 0.84375 -1.359375 2.0625q-0.53125 1.21875 -0.703125 2.8125l11.171875 0zm7.0637207 6.578125q0 -3.4375 3.0625 -5.265625q3.078125 -1.828125 9.78125 -2.5625q0 -0.984375 -0.1875 -1.921875q-0.1875 -0.953125 -0.6875 -1.6875q-0.5 -0.734375 -1.3125 -1.171875q-0.8125 -0.453125 -2.109375 -0.453125q-1.84375 0 -3.421875 0.6875q-1.5625 0.6875 -2.8125 1.546875l-1.421875 -2.453125q1.46875 -0.953125 3.578125 -1.828125q2.109375 -0.875 4.640625 -0.875q3.828125 0 5.546875 2.34375q1.71875 2.328125 1.71875 6.25l0 12.8125l-2.921875 0l-0.296875 -2.5l-0.09375 0q-1.5 1.25 -3.25 2.140625q-1.734375 0.875 -3.671875 0.875q-2.65625 0 -4.40625 -1.546875q-1.734375 -1.546875 -1.734375 -4.390625zm3.484375 -0.25q0 1.796875 1.046875 2.578125q1.046875 0.765625 2.59375 0.765625q1.515625 0 2.859375 -0.703125q1.359375 -0.703125 2.859375 -2.078125l0 -5.8125q-2.609375 0.34375 -4.421875 0.828125q-1.8125 0.46875 -2.90625 1.109375q-1.09375 0.640625 -1.5625 1.484375q-0.46875 0.828125 -0.46875 1.828125zm19.38684 -15.21875l2.921875 0l0.296875 3.78125l0.125 0q1.078125 -1.984375 2.609375 -3.140625q1.53125 -1.15625 3.328125 -1.15625q1.25 0 2.234375 0.421875l-0.6875 3.09375q-0.515625 -0.171875 -0.953125 -0.25q-0.421875 -0.09375 -1.0625 -0.09375q-1.328125 0 -2.78125 1.078125q-1.4375 1.078125 -2.515625 3.734375l0 13.421875l-3.515625 0l0 -20.890625zm14.801697 0l2.921875 0l0.296875 3.0l0.125 0q1.515625 -1.5 3.171875 -2.5q1.65625 -1.015625 3.84375 -1.015625q3.3125 0 4.828125 2.0625q1.53125 2.0625 1.53125 6.09375l0 13.25l-3.515625 0l0 -12.765625q0 -2.96875 -0.953125 -4.28125q-0.953125 -1.3125 -3.015625 -1.3125q-1.625 0 -2.875 0.8125q-1.25 0.8125 -2.84375 2.40625l0 15.140625l-3.515625 0l0 -20.890625zm25.129822 -4.3125q-1.03125 0 -1.75 -0.640625q-0.703125 -0.640625 -0.703125 -1.640625q0 -1.03125 0.703125 -1.640625q0.71875 -0.625 1.75 -0.625q1.03125 0 1.734375 0.625q0.71875 0.609375 0.71875 1.640625q0 1.0 -0.71875 1.640625q-0.703125 0.640625 -1.734375 0.640625zm-1.796875 4.3125l3.515625 0l0 20.890625l-3.515625 0l0 -20.890625zm10.493408 0l2.921875 0l0.296875 3.0l0.125 0q1.515625 -1.5 3.171875 -2.5q1.65625 -1.015625 3.84375 -1.015625q3.3125 0 4.828125 2.0625q1.53125 2.0625 1.53125 6.09375l0 13.25l-3.515625 0l0 -12.765625q0 -2.96875 -0.953125 -4.28125q-0.953125 -1.3125 -3.015625 -1.3125q-1.625 0 -2.875 0.8125q-1.25 0.8125 -2.84375 2.40625l0 15.140625l-3.515625 0l0 -20.890625zm24.832947 24.421875q0 1.671875 1.609375 2.65625q1.609375 1.0 4.453125 1.0q1.5 0 2.71875 -0.375q1.234375 -0.359375 2.09375 -0.953125q0.859375 -0.578125 1.328125 -1.359375q0.484375 -0.765625 0.484375 -1.578125q0 -1.453125 -1.078125 -2.015625q-1.078125 -0.5625 -3.140625 -0.5625l-3.609375 0q-0.609375 0 -1.3125 -0.0625q-0.703125 -0.0625 -1.390625 -0.28125q-1.125 0.8125 -1.640625 1.71875q-0.515625 0.90625 -0.515625 1.8125zm-3.09375 0.46875q0 -1.328125 0.8125 -2.53125q0.8125 -1.203125 2.234375 -2.203125l0 -0.171875q-0.765625 -0.46875 -1.3125 -1.296875q-0.53125 -0.84375 -0.53125 -2.09375q0 -1.34375 0.71875 -2.328125q0.734375 -0.984375 1.5625 -1.546875l0 -0.171875q-1.03125 -0.859375 -1.875 -2.296875q-0.84375 -1.4375 -0.84375 -3.328125q0 -1.71875 0.625 -3.09375q0.625 -1.390625 1.703125 -2.34375q1.078125 -0.96875 2.515625 -1.484375q1.4375 -0.515625 3.03125 -0.515625q0.859375 0 1.609375 0.15625q0.75 0.140625 1.359375 0.359375l7.265625 0l0 2.703125l-4.296875 0q0.734375 0.734375 1.21875 1.859375q0.5 1.109375 0.5 2.4375q0 1.671875 -0.609375 3.03125q-0.59375 1.359375 -1.625 2.28125q-1.03125 0.921875 -2.4375 1.4375q-1.390625 0.515625 -2.984375 0.515625q-0.78125 0 -1.59375 -0.1875q-0.8125 -0.203125 -1.546875 -0.546875q-0.5625 0.484375 -0.953125 1.0625q-0.375 0.578125 -0.375 1.4375q0 0.984375 0.765625 1.640625q0.78125 0.640625 2.921875 0.640625l4.046875 0q3.65625 0 5.484375 1.1875q1.828125 1.171875 1.828125 3.796875q0 1.46875 -0.734375 2.78125q-0.734375 1.3125 -2.109375 2.296875q-1.375 0.984375 -3.328125 1.5625q-1.953125 0.578125 -4.40625 0.578125q-1.9375 0 -3.53125 -0.359375q-1.578125 -0.359375 -2.71875 -1.09375q-1.140625 -0.734375 -1.765625 -1.765625q-0.625 -1.03125 -0.625 -2.40625zm8.640625 -12.984375q0.90625 0 1.703125 -0.34375q0.796875 -0.34375 1.40625 -0.984375q0.625 -0.65625 0.96875 -1.578125q0.34375 -0.921875 0.34375 -2.078125q0 -2.328125 -1.296875 -3.59375q-1.28125 -1.265625 -3.125 -1.265625q-1.84375 0 -3.140625 1.265625q-1.28125 1.265625 -1.28125 3.59375q0 1.15625 0.34375 2.078125q0.34375 0.921875 0.953125 1.578125q0.625 0.640625 1.421875 0.984375q0.796875 0.34375 1.703125 0.34375z" fill-rule="nonzero"></path><path fill="#000000" d="m845.32025 513.55927l-8.515625 0l0 -2.9999695l20.640625 0l0 2.9999695l-8.515625 0l0 25.203125l-3.609375 0l0 -25.203125zm16.676208 -5.4062195l3.515625 0l0 8.3280945l-0.125 4.3125q1.5 -1.421875 3.140625 -2.421875q1.640625 -1.015625 3.828125 -1.015625q3.3125 0 4.828125 2.0625q1.53125 2.0625 1.53125 6.09375l0 13.25l-3.515625 0l0 -12.765625q0 -2.96875 -0.953125 -4.28125q-0.953125 -1.3125 -3.015625 -1.3125q-1.625 0 -2.875 0.8125q-1.25 0.8125 -2.84375 2.40625l0 15.140625l-3.515625 0l0 -30.609344zm21.658081 20.203094q0 -2.578125 0.78125 -4.625q0.796875 -2.046875 2.109375 -3.453125q1.3125 -1.421875 2.984375 -2.171875q1.6875 -0.75 3.5 -0.75q1.96875 0 3.53125 0.6875q1.578125 0.6875 2.625 1.984375q1.0625 1.28125 1.609375 3.09375q0.5625 1.796875 0.5625 4.03125q0 1.15625 -0.125 1.9375l-14.09375 0q0.203125 3.390625 2.078125 5.375q1.875 1.96875 4.875 1.96875q1.515625 0 2.78125 -0.4375q1.265625 -0.453125 2.421875 -1.1875l1.25 2.3125q-1.375 0.859375 -3.0625 1.515625q-1.671875 0.640625 -3.8125 0.640625q-2.109375 0 -3.9375 -0.75q-1.828125 -0.75 -3.1875 -2.140625q-1.34375 -1.40625 -2.125 -3.421875q-0.765625 -2.03125 -0.765625 -4.609375zm14.609375 -1.59375q0 -3.21875 -1.359375 -4.921875q-1.34375 -1.703125 -3.796875 -1.703125q-1.125 0 -2.140625 0.453125q-1.0 0.453125 -1.8125 1.296875q-0.8125 0.84375 -1.359375 2.0625q-0.53125 1.21875 -0.703125 2.8125l11.171875 0zm6.5480957 1.59375q0 -2.625 0.78125 -4.65625q0.796875 -2.046875 2.125 -3.46875q1.34375 -1.421875 3.078125 -2.140625q1.75 -0.734375 3.6875 -0.734375q1.9375 0 3.671875 0.734375q1.75 0.71875 3.078125 2.140625q1.328125 1.421875 2.125 3.46875q0.796875 2.03125 0.796875 4.65625q0 2.578125 -0.796875 4.625q-0.796875 2.046875 -2.125 3.4375q-1.328125 1.390625 -3.078125 2.125q-1.734375 0.734375 -3.671875 0.734375q-1.9375 0 -3.6875 -0.734375q-1.734375 -0.734375 -3.078125 -2.125q-1.328125 -1.390625 -2.125 -3.4375q-0.78125 -2.046875 -0.78125 -4.625zm3.65625 0q0 1.8125 0.421875 3.28125q0.4375 1.453125 1.21875 2.515625q0.796875 1.046875 1.90625 1.625q1.125 0.578125 2.46875 0.578125q1.328125 0 2.4375 -0.578125q1.125 -0.578125 1.921875 -1.625q0.796875 -1.0625 1.21875 -2.515625q0.4375 -1.46875 0.4375 -3.28125q0 -1.8125 -0.4375 -3.28125q-0.421875 -1.484375 -1.21875 -2.5625q-0.796875 -1.078125 -1.921875 -1.65625q-1.109375 -0.578125 -2.4375 -0.578125q-1.34375 0 -2.46875 0.578125q-1.109375 0.578125 -1.90625 1.65625q-0.78125 1.078125 -1.21875 2.5625q-0.421875 1.46875 -0.421875 3.28125zm21.010315 -10.484375l2.921875 0l0.296875 3.78125l0.125 0q1.078125 -1.984375 2.609375 -3.140625q1.53125 -1.15625 3.328125 -1.15625q1.25 0 2.234375 0.421875l-0.6875 3.09375q-0.515625 -0.171875 -0.953125 -0.25q-0.421875 -0.09375 -1.0625 -0.09375q-1.328125 0 -2.78125 1.078125q-1.4375 1.078125 -2.515625 3.734375l0 13.421875l-3.515625 0l0 -20.890625zm13.379822 26.65625q0.34375 0.078125 0.765625 0.1875q0.4375 0.109375 0.828125 0.109375q1.796875 0 2.9375 -1.265625q1.140625 -1.265625 1.78125 -3.203125l0.484375 -1.546875l-8.390625 -20.9375l3.65625 0l4.25 11.5625q0.484375 1.375 1.015625 2.90625q0.53125 1.515625 1.015625 2.984375l0.171875 0q0.46875 -1.421875 0.890625 -2.96875q0.4375 -1.546875 0.875 -2.921875l3.734375 -11.5625l3.4375 0l-7.859375 22.609375q-0.5625 1.546875 -1.25 2.875q-0.6875 1.34375 -1.640625 2.3125q-0.9375 0.96875 -2.140625 1.515625q-1.203125 0.5625 -2.796875 0.5625q-0.734375 0 -1.34375 -0.109375q-0.59375 -0.109375 -1.109375 -0.3125l0.6875 -2.796875l0 0z" fill-rule="nonzero"></path><path fill="#000000" fill-opacity="0.0" d="m543.2363 135.88115l349.3858 0l0 78.58267l-349.3858 0z" fill-rule="evenodd"></path><path fill="#000000" d="m615.1619 186.35677q-2.671875 0 -4.890625 -1.03125q-2.203125 -1.03125 -3.796875 -2.9375q-1.59375 -1.921875 -2.484375 -4.65625q-0.875 -2.734375 -0.875 -6.125q0 -3.390625 0.875 -6.078125q0.890625 -2.6875 2.484375 -4.5625q1.59375 -1.875 3.796875 -2.859375q2.21875 -0.984375 4.890625 -0.984375q2.65625 0 4.875 1.015625q2.21875 1.0 3.828125 2.875q1.609375 1.859375 2.484375 4.546875q0.890625 2.6875 0.890625 6.046875q0 3.390625 -0.890625 6.125q-0.875 2.734375 -2.484375 4.65625q-1.609375 1.90625 -3.828125 2.9375q-2.21875 1.03125 -4.875 1.03125zm0 -3.140625q1.890625 0 3.40625 -0.8125q1.53125 -0.8125 2.625 -2.34375q1.09375 -1.53125 1.703125 -3.65625q0.609375 -2.125 0.609375 -4.796875q0 -2.625 -0.609375 -4.71875q-0.609375 -2.109375 -1.703125 -3.578125q-1.09375 -1.46875 -2.625 -2.25q-1.515625 -0.796875 -3.40625 -0.796875q-1.890625 0 -3.421875 0.796875q-1.53125 0.78125 -2.625 2.25q-1.09375 1.46875 -1.703125 3.578125q-0.59375 2.09375 -0.59375 4.71875q0 2.671875 0.59375 4.796875q0.609375 2.125 1.703125 3.65625q1.09375 1.53125 2.625 2.34375q1.53125 0.8125 3.421875 0.8125zm21.089355 4.390625l0 7.046875l-3.515625 0l0 -29.703125l2.921875 0l0.296875 2.40625l0.125 0q1.421875 -1.203125 3.125 -2.0625q1.703125 -0.859375 3.546875 -0.859375q2.015625 0 3.5625 0.75q1.546875 0.75 2.578125 2.15625q1.03125 1.390625 1.5625 3.34375q0.546875 1.953125 0.546875 4.40625q0 2.671875 -0.734375 4.765625q-0.71875 2.078125 -1.96875 3.546875q-1.25 1.453125 -2.890625 2.203125q-1.625 0.75 -3.4375 0.75q-1.453125 0 -2.90625 -0.640625q-1.4375 -0.65625 -2.890625 -1.765625l0.078125 3.65625zm0 -6.40625q1.421875 1.203125 2.75 1.703125q1.34375 0.484375 2.375 0.484375q1.28125 0 2.375 -0.578125q1.109375 -0.578125 1.90625 -1.625q0.796875 -1.0625 1.234375 -2.609375q0.453125 -1.546875 0.453125 -3.484375q0 -1.71875 -0.296875 -3.140625q-0.296875 -1.421875 -0.96875 -2.421875q-0.65625 -1.015625 -1.71875 -1.578125q-1.046875 -0.5625 -2.515625 -0.5625q-1.328125 0 -2.6875 0.734375q-1.359375 0.734375 -2.90625 2.109375l0 10.96875zm20.752258 -13.375l-3.09375 0l0 -2.671875l3.265625 -0.203125l0.4375 -5.859375l2.96875 0l0 5.859375l5.625 0l0 2.875l-5.625 0l0 11.609375q0 1.9375 0.703125 3.0q0.703125 1.046875 2.515625 1.046875q0.5625 0 1.203125 -0.171875q0.640625 -0.171875 1.15625 -0.390625l0.6875 2.65625q-0.859375 0.3125 -1.875 0.546875q-1.0 0.234375 -1.984375 0.234375q-1.6875 0 -2.828125 -0.515625q-1.125 -0.515625 -1.84375 -1.421875q-0.703125 -0.90625 -1.015625 -2.1875q-0.296875 -1.296875 -0.296875 -2.84375l0 -11.5625zm15.620911 -7.1875q-1.03125 0 -1.75 -0.640625q-0.703125 -0.640625 -0.703125 -1.640625q0 -1.03125 0.703125 -1.640625q0.71875 -0.625 1.75 -0.625q1.03125 0 1.734375 0.625q0.71875 0.609375 0.71875 1.640625q0 1.0 -0.71875 1.640625q-0.703125 0.640625 -1.734375 0.640625zm-1.796875 4.3125l3.515625 0l0 20.890625l-3.515625 0l0 -20.890625zm10.493469 0l2.921875 0l0.296875 3.0l0.125 0q1.375 -1.5 2.984375 -2.5q1.625 -1.015625 3.515625 -1.015625q2.40625 0 3.75 1.046875q1.359375 1.046875 2.015625 2.9375q1.625 -1.796875 3.28125 -2.890625q1.65625 -1.09375 3.59375 -1.09375q3.21875 0 4.78125 2.0625q1.578125 2.0625 1.578125 6.09375l0 13.25l-3.515625 0l0 -12.765625q0 -2.96875 -0.953125 -4.28125q-0.9375 -1.3125 -2.921875 -1.3125q-2.359375 0 -5.25 3.21875l0 15.140625l-3.515625 0l0 -12.765625q0 -2.96875 -0.953125 -4.28125q-0.953125 -1.3125 -2.96875 -1.3125q-2.359375 0 -5.25 3.21875l0 15.140625l-3.515625 0l0 -20.890625zm37.158813 -4.3125q-1.03125 0 -1.75 -0.640625q-0.703125 -0.640625 -0.703125 -1.640625q0 -1.03125 0.703125 -1.640625q0.71875 -0.625 1.75 -0.625q1.03125 0 1.734375 0.625q0.71875 0.609375 0.71875 1.640625q0 1.0 -0.71875 1.640625q-0.703125 0.640625 -1.734375 0.640625zm-1.796875 4.3125l3.515625 0l0 20.890625l-3.515625 0l0 -20.890625zm8.290283 19.0l11.015625 -16.125l-9.8125 0l0 -2.875l14.28125 0l0 1.890625l-11.0 16.125l11.34375 0l0 2.875l-15.828125 0l0 -1.890625zm19.300781 -3.53125q0 -3.4375 3.0625 -5.265625q3.078125 -1.828125 9.78125 -2.5625q0 -0.984375 -0.1875 -1.921875q-0.1875 -0.953125 -0.6875 -1.6875q-0.5 -0.734375 -1.3125 -1.171875q-0.8125 -0.453125 -2.109375 -0.453125q-1.84375 0 -3.421875 0.6875q-1.5625 0.6875 -2.8125 1.546875l-1.421875 -2.453125q1.46875 -0.953125 3.578125 -1.828125q2.109375 -0.875 4.640625 -0.875q3.828125 0 5.546875 2.34375q1.71875 2.328125 1.71875 6.25l0 12.8125l-2.921875 0l-0.296875 -2.5l-0.09375 0q-1.5 1.25 -3.25 2.140625q-1.734375 0.875 -3.671875 0.875q-2.65625 0 -4.40625 -1.546875q-1.734375 -1.546875 -1.734375 -4.390625zm3.484375 -0.25q0 1.796875 1.046875 2.578125q1.046875 0.765625 2.59375 0.765625q1.515625 0 2.859375 -0.703125q1.359375 -0.703125 2.859375 -2.078125l0 -5.8125q-2.609375 0.34375 -4.421875 0.828125q-1.8125 0.46875 -2.90625 1.109375q-1.09375 0.640625 -1.5625 1.484375q-0.46875 0.828125 -0.46875 1.828125zm19.98059 -12.34375l-3.09375 0l0 -2.671875l3.265625 -0.203125l0.4375 -5.859375l2.96875 0l0 5.859375l5.625 0l0 2.875l-5.625 0l0 11.609375q0 1.9375 0.703125 3.0q0.703125 1.046875 2.515625 1.046875q0.5625 0 1.203125 -0.171875q0.640625 -0.171875 1.15625 -0.390625l0.6875 2.65625q-0.859375 0.3125 -1.875 0.546875q-1.0 0.234375 -1.984375 0.234375q-1.6875 0 -2.828125 -0.515625q-1.125 -0.515625 -1.84375 -1.421875q-0.703125 -0.90625 -1.015625 -2.1875q-0.296875 -1.296875 -0.296875 -2.84375l0 -11.5625zm15.620911 -7.1875q-1.03125 0 -1.75 -0.640625q-0.703125 -0.640625 -0.703125 -1.640625q0 -1.03125 0.703125 -1.640625q0.71875 -0.625 1.75 -0.625q1.03125 0 1.734375 0.625q0.71875 0.609375 0.71875 1.640625q0 1.0 -0.71875 1.640625q-0.703125 0.640625 -1.734375 0.640625zm-1.796875 4.3125l3.515625 0l0 20.890625l-3.515625 0l0 -20.890625zm8.946533 10.484375q0 -2.625 0.78125 -4.65625q0.796875 -2.046875 2.125 -3.46875q1.34375 -1.421875 3.078125 -2.140625q1.75 -0.734375 3.6875 -0.734375q1.9375 0 3.671875 0.734375q1.75 0.71875 3.078125 2.140625q1.328125 1.421875 2.125 3.46875q0.796875 2.03125 0.796875 4.65625q0 2.578125 -0.796875 4.625q-0.796875 2.046875 -2.125 3.4375q-1.328125 1.390625 -3.078125 2.125q-1.734375 0.734375 -3.671875 0.734375q-1.9375 0 -3.6875 -0.734375q-1.734375 -0.734375 -3.078125 -2.125q-1.328125 -1.390625 -2.125 -3.4375q-0.78125 -2.046875 -0.78125 -4.625zm3.65625 0q0 1.8125 0.421875 3.28125q0.4375 1.453125 1.21875 2.515625q0.796875 1.046875 1.90625 1.625q1.125 0.578125 2.46875 0.578125q1.328125 0 2.4375 -0.578125q1.125 -0.578125 1.921875 -1.625q0.796875 -1.0625 1.21875 -2.515625q0.4375 -1.46875 0.4375 -3.28125q0 -1.8125 -0.4375 -3.28125q-0.421875 -1.484375 -1.21875 -2.5625q-0.796875 -1.078125 -1.921875 -1.65625q-1.109375 -0.578125 -2.4375 -0.578125q-1.34375 0 -2.46875 0.578125q-1.109375 0.578125 -1.90625 1.65625q-0.78125 1.078125 -1.21875 2.5625q-0.421875 1.46875 -0.421875 3.28125zm21.010254 -10.484375l2.921875 0l0.296875 3.0l0.125 0q1.515625 -1.5 3.171875 -2.5q1.65625 -1.015625 3.84375 -1.015625q3.3125 0 4.828125 2.0625q1.53125 2.0625 1.53125 6.09375l0 13.25l-3.515625 0l0 -12.765625q0 -2.96875 -0.953125 -4.28125q-0.953125 -1.3125 -3.015625 -1.3125q-1.625 0 -2.875 0.8125q-1.25 0.8125 -2.84375 2.40625l0 15.140625l-3.515625 0l0 -20.890625z" fill-rule="nonzero"></path><path fill="#000000" fill-opacity="0.0" d="m2.3084936 437.8037l349.3858 0l0 123.433105l-349.3858 0z" fill-rule="evenodd"></path><path fill="#000000" d="m134.76506 459.5606l7.046875 0q6.53125 0 9.921875 3.609375q3.40625 3.609375 3.40625 10.359375q0 3.359375 -0.859375 6.0q-0.859375 2.640625 -2.546875 4.46875q-1.671875 1.828125 -4.125 2.796875q-2.4375 0.96875 -5.625 0.96875l-7.21875 0l0 -28.203125zm6.78125 25.28125q4.953125 0 7.421875 -2.96875q2.46875 -2.96875 2.46875 -8.34375q0 -5.375 -2.46875 -8.203125q-2.46875 -2.84375 -7.421875 -2.84375l-3.21875 0l0 22.359375l3.21875 0zm17.561676 -7.484375q0 -2.578125 0.78125 -4.625q0.796875 -2.046875 2.109375 -3.453125q1.3125 -1.421875 2.984375 -2.171875q1.6875 -0.75 3.5 -0.75q1.96875 0 3.53125 0.6875q1.578125 0.6875 2.625 1.984375q1.0625 1.28125 1.609375 3.09375q0.5625 1.796875 0.5625 4.03125q0 1.15625 -0.125 1.9375l-14.09375 0q0.203125 3.390625 2.078125 5.375q1.875 1.96875 4.875 1.96875q1.515625 0 2.78125 -0.4375q1.265625 -0.453125 2.421875 -1.1875l1.25 2.3125q-1.375 0.859375 -3.0625 1.515625q-1.671875 0.640625 -3.8125 0.640625q-2.109375 0 -3.9375 -0.75q-1.828125 -0.75 -3.1875 -2.140625q-1.34375 -1.40625 -2.125 -3.421875q-0.765625 -2.03125 -0.765625 -4.609375zm14.609375 -1.59375q0 -3.21875 -1.359375 -4.921875q-1.34375 -1.703125 -3.796875 -1.703125q-1.125 0 -2.140625 0.453125q-1.0 0.453125 -1.8125 1.296875q-0.8125 0.84375 -1.359375 2.0625q-0.53125 1.21875 -0.703125 2.8125l11.171875 0zm6.5480957 1.59375q0 -2.578125 0.78125 -4.625q0.796875 -2.046875 2.109375 -3.453125q1.3125 -1.421875 2.984375 -2.171875q1.6875 -0.75 3.5 -0.75q1.96875 0 3.53125 0.6875q1.578125 0.6875 2.625 1.984375q1.0625 1.28125 1.609375 3.09375q0.5625 1.796875 0.5625 4.03125q0 1.15625 -0.125 1.9375l-14.09375 0q0.203125 3.390625 2.078125 5.375q1.875 1.96875 4.875 1.96875q1.515625 0 2.78125 -0.4375q1.265625 -0.453125 2.421875 -1.1875l1.25 2.3125q-1.375 0.859375 -3.0625 1.515625q-1.671875 0.640625 -3.8125 0.640625q-2.109375 0 -3.9375 -0.75q-1.828125 -0.75 -3.1875 -2.140625q-1.34375 -1.40625 -2.125 -3.421875q-0.765625 -2.03125 -0.765625 -4.609375zm14.609375 -1.59375q0 -3.21875 -1.359375 -4.921875q-1.34375 -1.703125 -3.796875 -1.703125q-1.125 0 -2.140625 0.453125q-1.0 0.453125 -1.8125 1.296875q-0.8125 0.84375 -1.359375 2.0625q-0.53125 1.21875 -0.703125 2.8125l11.171875 0zm11.610596 13.765625l0 7.046875l-3.515625 0l0 -29.703125l2.921875 0l0.296875 2.40625l0.125 0q1.421875 -1.203125 3.125 -2.0625q1.703125 -0.859375 3.546875 -0.859375q2.015625 0 3.5625 0.75q1.546875 0.75 2.578125 2.15625q1.03125 1.390625 1.5625 3.34375q0.546875 1.953125 0.546875 4.40625q0 2.671875 -0.734375 4.765625q-0.71875 2.078125 -1.96875 3.546875q-1.25 1.453125 -2.890625 2.203125q-1.625 0.75 -3.4375 0.75q-1.453125 0 -2.90625 -0.640625q-1.4375 -0.65625 -2.890625 -1.765625l0.078125 3.65625zm0 -6.40625q1.421875 1.203125 2.75 1.703125q1.34375 0.484375 2.375 0.484375q1.28125 0 2.375 -0.578125q1.109375 -0.578125 1.90625 -1.625q0.796875 -1.0625 1.234375 -2.609375q0.453125 -1.546875 0.453125 -3.484375q0 -1.71875 -0.296875 -3.140625q-0.296875 -1.421875 -0.96875 -2.421875q-0.65625 -1.015625 -1.71875 -1.578125q-1.046875 -0.5625 -2.515625 -0.5625q-1.328125 0 -2.6875 0.734375q-1.359375 0.734375 -2.90625 2.109375l0 10.96875z" fill-rule="nonzero"></path><path fill="#000000" d="m102.28239 510.5606l3.5625 0l0 25.15625l12.34375 0l0 3.046875l-15.90625 0l0 -28.203125zm18.840286 17.796875q0 -2.578125 0.78125 -4.625q0.796875 -2.046875 2.109375 -3.453125q1.3125 -1.421875 2.984375 -2.171875q1.6874924 -0.75 3.4999924 -0.75q1.96875 0 3.53125 0.6875q1.578125 0.6875 2.625 1.984375q1.0625 1.28125 1.609375 3.09375q0.5625 1.796875 0.5625 4.03125q0 1.15625 -0.125 1.9375l-14.093742 0q0.203125 3.390625 2.078125 5.375q1.8749924 1.96875 4.8749924 1.96875q1.515625 0 2.78125 -0.4375q1.265625 -0.453125 2.421875 -1.1875l1.25 2.3125q-1.375 0.859375 -3.0625 1.515625q-1.671875 0.640625 -3.8125 0.640625q-2.109375 0 -3.9374924 -0.75q-1.828125 -0.75 -3.1875 -2.140625q-1.34375 -1.40625 -2.125 -3.421875q-0.765625 -2.03125 -0.765625 -4.609375zm14.609367 -1.59375q0 -3.21875 -1.359375 -4.921875q-1.34375 -1.703125 -3.796875 -1.703125q-1.125 0 -2.140625 0.453125q-0.9999924 0.453125 -1.8124924 1.296875q-0.8125 0.84375 -1.359375 2.0625q-0.53125 1.21875 -0.703125 2.8125l11.171867 0zm7.0637207 6.578125q0 -3.4375 3.0625 -5.265625q3.078125 -1.828125 9.78125 -2.5625q0 -0.984375 -0.1875 -1.921875q-0.1875 -0.953125 -0.6875 -1.6875q-0.5 -0.734375 -1.3125 -1.171875q-0.8125 -0.453125 -2.109375 -0.453125q-1.84375 0 -3.421875 0.6875q-1.5625 0.6875 -2.8125 1.546875l-1.421875 -2.453125q1.46875 -0.953125 3.578125 -1.828125q2.109375 -0.875 4.640625 -0.875q3.828125 0 5.546875 2.34375q1.71875 2.328125 1.71875 6.25l0 12.8125l-2.921875 0l-0.296875 -2.5l-0.09375 0q-1.5 1.25 -3.25 2.140625q-1.734375 0.875 -3.671875 0.875q-2.65625 0 -4.40625 -1.546875q-1.734375 -1.546875 -1.734375 -4.390625zm3.484375 -0.25q0 1.796875 1.046875 2.578125q1.046875 0.765625 2.59375 0.765625q1.515625 0 2.859375 -0.703125q1.359375 -0.703125 2.859375 -2.078125l0 -5.8125q-2.609375 0.34375 -4.421875 0.828125q-1.8125 0.46875 -2.90625 1.109375q-1.09375 0.640625 -1.5625 1.484375q-0.46875 0.828125 -0.46875 1.828125zm19.38684 -15.21875l2.921875 0l0.296875 3.78125l0.125 0q1.078125 -1.984375 2.609375 -3.140625q1.53125 -1.15625 3.328125 -1.15625q1.25 0 2.234375 0.421875l-0.6875 3.09375q-0.515625 -0.171875 -0.953125 -0.25q-0.421875 -0.09375 -1.0625 -0.09375q-1.328125 0 -2.78125 1.078125q-1.4375 1.078125 -2.515625 3.734375l0 13.421875l-3.515625 0l0 -20.890625zm14.801697 0l2.921875 0l0.296875 3.0l0.125 0q1.515625 -1.5 3.171875 -2.5q1.65625 -1.015625 3.84375 -1.015625q3.3125 0 4.828125 2.0625q1.53125 2.0625 1.53125 6.09375l0 13.25l-3.515625 0l0 -12.765625q0 -2.96875 -0.953125 -4.28125q-0.953125 -1.3125 -3.015625 -1.3125q-1.625 0 -2.875 0.8125q-1.25 0.8125 -2.84375 2.40625l0 15.140625l-3.515625 0l0 -20.890625zm25.129807 -4.3125q-1.03125 0 -1.75 -0.640625q-0.703125 -0.640625 -0.703125 -1.640625q0 -1.03125 0.703125 -1.640625q0.71875 -0.625 1.75 -0.625q1.03125 0 1.734375 0.625q0.71875 0.609375 0.71875 1.640625q0 1.0 -0.71875 1.640625q-0.703125 0.640625 -1.734375 0.640625zm-1.796875 4.3125l3.515625 0l0 20.890625l-3.515625 0l0 -20.890625zm10.493423 0l2.921875 0l0.296875 3.0l0.125 0q1.515625 -1.5 3.171875 -2.5q1.65625 -1.015625 3.84375 -1.015625q3.3125 0 4.828125 2.0625q1.53125 2.0625 1.53125 6.09375l0 13.25l-3.515625 0l0 -12.765625q0 -2.96875 -0.953125 -4.28125q-0.953125 -1.3125 -3.015625 -1.3125q-1.625 0 -2.875 0.8125q-1.25 0.8125 -2.84375 2.40625l0 15.140625l-3.515625 0l0 -20.890625zm24.832932 24.421875q0 1.671875 1.609375 2.65625q1.609375 1.0 4.453125 1.0q1.5 0 2.71875 -0.375q1.234375 -0.359375 2.09375 -0.953125q0.859375 -0.578125 1.328125 -1.359375q0.484375 -0.765625 0.484375 -1.578125q0 -1.453125 -1.078125 -2.015625q-1.078125 -0.5625 -3.140625 -0.5625l-3.609375 0q-0.609375 0 -1.3125 -0.0625q-0.703125 -0.0625 -1.390625 -0.28125q-1.125 0.8125 -1.640625 1.71875q-0.515625 0.90625 -0.515625 1.8125zm-3.09375 0.46875q0 -1.328125 0.8125 -2.53125q0.8125 -1.203125 2.234375 -2.203125l0 -0.171875q-0.765625 -0.46875 -1.3125 -1.296875q-0.53125 -0.84375 -0.53125 -2.09375q0 -1.34375 0.71875 -2.328125q0.734375 -0.984375 1.5625 -1.546875l0 -0.171875q-1.03125 -0.859375 -1.875 -2.296875q-0.84375 -1.4375 -0.84375 -3.328125q0 -1.71875 0.625 -3.09375q0.625 -1.390625 1.703125 -2.34375q1.078125 -0.96875 2.515625 -1.484375q1.4375 -0.515625 3.03125 -0.515625q0.859375 0 1.609375 0.15625q0.75 0.140625 1.359375 0.359375l7.265625 0l0 2.703125l-4.296875 0q0.734375 0.734375 1.21875 1.859375q0.5 1.109375 0.5 2.4375q0 1.671875 -0.609375 3.03125q-0.59375 1.359375 -1.625 2.28125q-1.03125 0.921875 -2.4375 1.4375q-1.390625 0.515625 -2.984375 0.515625q-0.78125 0 -1.59375 -0.1875q-0.8125 -0.203125 -1.546875 -0.546875q-0.5625 0.484375 -0.953125 1.0625q-0.375 0.578125 -0.375 1.4375q0 0.984375 0.765625 1.640625q0.78125 0.640625 2.921875 0.640625l4.046875 0q3.65625 0 5.484375 1.1875q1.828125 1.171875 1.828125 3.796875q0 1.46875 -0.734375 2.78125q-0.734375 1.3125 -2.109375 2.296875q-1.375 0.984375 -3.328125 1.5625q-1.953125 0.578125 -4.40625 0.578125q-1.9375 0 -3.53125 -0.359375q-1.578125 -0.359375 -2.71875 -1.09375q-1.140625 -0.734375 -1.765625 -1.765625q-0.625 -1.03125 -0.625 -2.40625zm8.640625 -12.984375q0.90625 0 1.703125 -0.34375q0.796875 -0.34375 1.40625 -0.984375q0.625 -0.65625 0.96875 -1.578125q0.34375 -0.921875 0.34375 -2.078125q0 -2.328125 -1.296875 -3.59375q-1.28125 -1.265625 -3.125 -1.265625q-1.84375 0 -3.140625 1.265625q-1.28125 1.265625 -1.28125 3.59375q0 1.15625 0.34375 2.078125q0.34375 0.921875 0.953125 1.578125q0.625 0.640625 1.421875 0.984375q0.796875 0.34375 1.703125 0.34375z" fill-rule="nonzero"></path></g></svg>

