<?xml version="1.0" standalone="yes"?>

<svg version="1.1" viewBox="0.0 0.0 576.0971128608924 557.6535433070866" fill="none" stroke="none" stroke-linecap="square" stroke-miterlimit="10" xmlns="http://www.w3.org/2000/svg" xmlns:xlink="http://www.w3.org/1999/xlink"><clipPath id="p.0"><path d="m0 0l576.0971 0l0 557.65356l-576.0971 0l0 -557.65356z" clip-rule="nonzero"></path></clipPath><g clip-path="url(#p.0)"><path fill="#000000" fill-opacity="0.0" d="m0 0l576.0971 0l0 557.65356l-576.0971 0z" fill-rule="evenodd"></path><path fill="#fff2cc" d="m239.44847 373.25116l0 0c-0.00869751 -67.578766 54.767685 -122.36925 122.34645 -122.377945l0 0c32.452484 -0.004180908 63.577454 12.88353 86.52777 35.827927c22.950317 22.944427 35.84601 54.06607 35.85019 86.518524l0 0c0.00869751 67.5788 -54.76767 122.36926 -122.346466 122.37796l0 0c-67.578766 0.00869751 -122.36925 -54.76767 -122.377945 -122.346466z" fill-rule="evenodd"></path><path stroke="#000000" stroke-width="1.0" stroke-linejoin="round" stroke-linecap="butt" d="m239.44847 373.25116l0 0c-0.00869751 -67.578766 54.767685 -122.36925 122.34645 -122.377945l0 0c32.452484 -0.004180908 63.577454 12.88353 86.52777 35.827927c22.950317 22.944427 35.84601 54.06607 35.85019 86.518524l0 0c0.00869751 67.5788 -54.76767 122.36926 -122.346466 122.37796l0 0c-67.578766 0.00869751 -122.36925 -54.76767 -122.377945 -122.346466z" fill-rule="evenodd"></path><path fill="#ffe599" d="m294.5853 324.02945l0 0c0 -39.58185 32.087433 -71.66928 71.66931 -71.66928l0 0c19.007874 0 37.237244 7.5508423 50.677826 20.991455c13.440613 13.440582 20.991455 31.669952 20.991455 50.677826l0 0c0 39.58188 -32.087433 71.66931 -71.66928 71.66931l0 0c-39.58188 0 -71.66931 -32.087433 -71.66931 -71.66931z" fill-rule="evenodd"></path><path stroke="#000000" stroke-width="1.0" stroke-linejoin="round" stroke-linecap="butt" d="m294.5853 324.02945l0 0c0 -39.58185 32.087433 -71.66928 71.66931 -71.66928l0 0c19.007874 0 37.237244 7.5508423 50.677826 20.991455c13.440613 13.440582 20.991455 31.669952 20.991455 50.677826l0 0c0 39.58188 -32.087433 71.66931 -71.66928 71.66931l0 0c-39.58188 0 -71.66931 -32.087433 -71.66931 -71.66931z" fill-rule="evenodd"></path><path fill="#ffe599" d="m280.43042 439.64886l0 0c0 -26.370483 21.377502 -47.748016 47.748016 -47.748016l0 0c12.663574 0 24.808472 5.0305786 33.76297 13.985077c8.954498 8.954498 13.985077 21.099396 13.985077 33.76294l0 0c0 26.370514 -21.377533 47.748047 -47.748047 47.748047l0 0c-26.370514 0 -47.748016 -21.377533 -47.748016 -47.748047z" fill-rule="evenodd"></path><path stroke="#000000" stroke-width="1.0" stroke-linejoin="round" stroke-linecap="butt" d="m280.43042 439.64886l0 0c0 -26.370483 21.377502 -47.748016 47.748016 -47.748016l0 0c12.663574 0 24.808472 5.0305786 33.76297 13.985077c8.954498 8.954498 13.985077 21.099396 13.985077 33.76294l0 0c0 26.370514 -21.377533 47.748047 -47.748047 47.748047l0 0c-26.370514 0 -47.748016 -21.377533 -47.748016 -47.748047z" fill-rule="evenodd"></path><path fill="#ffe599" d="m376.77692 427.46515l0 0c0 -23.265533 18.959137 -42.125977 42.346436 -42.125977l0 0c11.230988 0 22.001984 4.438263 29.943481 12.338409c7.941498 7.9001465 12.402985 18.615051 12.402985 29.787567l0 0c0 23.265533 -18.959167 42.125977 -42.346466 42.125977l0 0c-23.387299 0 -42.346436 -18.860443 -42.346436 -42.125977z" fill-rule="evenodd"></path><path stroke="#000000" stroke-width="1.0" stroke-linejoin="round" stroke-linecap="butt" d="m376.77692 427.46515l0 0c0 -23.265533 18.959137 -42.125977 42.346436 -42.125977l0 0c11.230988 0 22.001984 4.438263 29.943481 12.338409c7.941498 7.9001465 12.402985 18.615051 12.402985 29.787567l0 0c0 23.265533 -18.959167 42.125977 -42.346466 42.125977l0 0c-23.387299 0 -42.346436 -18.860443 -42.346436 -42.125977z" fill-rule="evenodd"></path><path fill="#000000" fill-opacity="0.0" d="m333.92258 302.1541l64.66141 0l0 43.748047l-64.66141 0z" fill-rule="evenodd"></path><path fill="#000000" d="m365.82556 331.95975q-0.859375 1.234375 -2.421875 1.859375q-1.546875 0.609375 -3.609375 0.609375q-2.09375 0 -3.71875 -0.96875q-1.609375 -0.984375 -2.5 -2.78125q-0.875 -1.8125 -0.890625 -4.203125l0 -1.484375q0 -3.859375 1.796875 -5.96875q1.796875 -2.125 5.046875 -2.125q2.671875 0 4.296875 1.375q1.640625 1.359375 2.0 3.859375l-2.25 0q-0.625 -3.390625 -4.03125 -3.390625q-2.265625 0 -3.4375 1.59375q-1.15625 1.59375 -1.171875 4.59375l0 1.40625q0 2.859375 1.3125 4.5625q1.3125 1.6875 3.5625 1.6875q1.265625 0 2.203125 -0.28125q0.953125 -0.28125 1.578125 -0.953125l0 -3.828125l-3.953125 0l0 -1.828125l6.1875 0l0 6.265625zm5.7695312 2.234375l-2.171875 0l0 -12.6875l2.171875 0l0 12.6875zm-2.34375 -16.046875q0 -0.53125 0.3125 -0.890625q0.328125 -0.359375 0.953125 -0.359375q0.640625 0 0.96875 0.359375q0.328125 0.359375 0.328125 0.890625q0 0.53125 -0.328125 0.890625q-0.328125 0.34375 -0.96875 0.34375q-0.625 0 -0.953125 -0.34375q-0.3125 -0.359375 -0.3125 -0.890625zm8.746094 0.296875l0 3.0625l2.375 0l0 1.6875l-2.375 0l0 7.859375q0 0.765625 0.3125 1.140625q0.328125 0.375 1.09375 0.375q0.375 0 1.03125 -0.140625l0 1.765625q-0.859375 0.234375 -1.671875 0.234375q-1.453125 0 -2.1875 -0.875q-0.734375 -0.890625 -0.734375 -2.5l0 -7.859375l-2.3125 0l0 -1.6875l2.3125 0l0 -3.0625l2.15625 0z" fill-rule="nonzero"></path><path fill="#000000" fill-opacity="0.0" d="m384.39896 403.51633l69.44882 0l0 43.748047l-69.44882 0z" fill-rule="evenodd"></path><path fill="#000000" d="m404.3128 427.94696q-2.90625 -0.828125 -4.21875 -2.03125q-1.3125 -1.21875 -1.3125 -3.0q0 -2.015625 1.609375 -3.328125q1.609375 -1.328125 4.1875 -1.328125q1.75 0 3.125 0.6875q1.390625 0.671875 2.140625 1.875q0.75 1.1875 0.75 2.609375l-2.25 0q0 -1.546875 -0.984375 -2.4375q-0.984375 -0.890625 -2.78125 -0.890625q-1.671875 0 -2.609375 0.734375q-0.921875 0.734375 -0.921875 2.03125q0 1.046875 0.875 1.765625q0.890625 0.71875 3.015625 1.328125q2.140625 0.59375 3.328125 1.3125q1.203125 0.71875 1.78125 1.6875q0.59375 0.953125 0.59375 2.25q0 2.078125 -1.625 3.328125q-1.609375 1.25 -4.328125 1.25q-1.75 0 -3.28125 -0.671875q-1.515625 -0.671875 -2.34375 -1.84375q-0.828125 -1.171875 -0.828125 -2.671875l2.265625 0q0 1.546875 1.140625 2.453125q1.140625 0.890625 3.046875 0.890625q1.78125 0 2.734375 -0.71875q0.953125 -0.734375 0.953125 -1.984375q0 -1.25 -0.890625 -1.9375q-0.875 -0.6875 -3.171875 -1.359375zm22.238281 -0.375q0 2.46875 -0.796875 4.265625q-0.78125 1.78125 -2.1875 2.796875l3.046875 2.390625l-1.546875 1.421875l-3.59375 -2.859375q-0.84375 0.203125 -1.78125 0.203125q-2.015625 0 -3.578125 -0.984375q-1.546875 -1.0 -2.421875 -2.828125q-0.859375 -1.84375 -0.875 -4.25l0 -1.234375q0 -2.453125 0.84375 -4.34375q0.859375 -1.890625 2.421875 -2.890625q1.578125 -1.0 3.59375 -1.0q2.0625 0 3.625 1.0q1.5625 0.984375 2.40625 2.859375q0.84375 1.875 0.84375 4.359375l0 1.09375zm-2.25 -1.09375q0 -3.015625 -1.203125 -4.640625q-1.203125 -1.640625 -3.421875 -1.640625q-2.125 0 -3.359375 1.625q-1.21875 1.609375 -1.25 4.5l0 1.25q0 2.9375 1.21875 4.625q1.234375 1.6875 3.40625 1.6875q2.1875 0 3.375 -1.59375q1.203125 -1.59375 1.234375 -4.546875l0 -1.265625zm7.984375 7.234375l8.078125 0l0 1.84375l-10.34375 0l0 -17.0625l2.265625 0l0 15.21875z" fill-rule="nonzero"></path><path fill="#000000" fill-opacity="0.0" d="m279.18637 417.39856l97.98425 0l0 37.700775l-97.98425 0z" fill-rule="evenodd"></path><path fill="#000000" d="m306.04764 449.43857l-2.265625 0l-8.578125 -13.15625l0 13.15625l-2.265625 0l0 -17.0625l2.265625 0l8.609375 13.203125l0 -13.203125l2.234375 0l0 17.0625zm3.078125 -6.453125q0 -1.875 0.734375 -3.359375q0.734375 -1.484375 2.03125 -2.296875q1.3125 -0.8125 3.0 -0.8125q2.578125 0 4.171875 1.796875q1.609375 1.796875 1.609375 4.765625l0 0.15625q0 1.859375 -0.71875 3.328125q-0.703125 1.46875 -2.015625 2.296875q-1.3125 0.8125 -3.03125 0.8125q-2.578125 0 -4.1875 -1.796875q-1.59375 -1.796875 -1.59375 -4.75l0 -0.140625zm2.1875 0.25q0 2.109375 0.96875 3.390625q0.984375 1.28125 2.625 1.28125q1.65625 0 2.625 -1.296875q0.96875 -1.296875 0.96875 -3.625q0 -2.09375 -0.984375 -3.390625q-0.984375 -1.296875 -2.625 -1.296875q-1.609375 0 -2.59375 1.28125q-0.984375 1.28125 -0.984375 3.65625zm17.453125 -1.40625q-2.90625 -0.828125 -4.21875 -2.03125q-1.3125 -1.21875 -1.3125 -3.0q0 -2.015625 1.609375 -3.328125q1.609375 -1.328125 4.1875 -1.328125q1.75 0 3.125 0.6875q1.390625 0.671875 2.140625 1.875q0.75 1.1875 0.75 2.609375l-2.25 0q0 -1.546875 -0.984375 -2.4375q-0.984375 -0.890625 -2.78125 -0.890625q-1.671875 0 -2.609375 0.734375q-0.921875 0.734375 -0.921875 2.03125q0 1.046875 0.875 1.765625q0.890625 0.71875 3.015625 1.328125q2.140625 0.59375 3.328125 1.3125q1.203125 0.71875 1.78125 1.6875q0.59375 0.953125 0.59375 2.25q0 2.078125 -1.625 3.328125q-1.609375 1.25 -4.328125 1.25q-1.75 0 -3.28125 -0.671875q-1.515625 -0.671875 -2.34375 -1.84375q-0.828125 -1.171875 -0.828125 -2.671875l2.265625 0q0 1.546875 1.140625 2.453125q1.140625 0.890625 3.046875 0.890625q1.78125 0 2.734375 -0.71875q0.953125 -0.734375 0.953125 -1.984375q0 -1.25 -0.890625 -1.9375q-0.875 -0.6875 -3.171875 -1.359375zm22.238281 -0.375q0 2.46875 -0.796875 4.265625q-0.78125 1.78125 -2.1875 2.796875l3.046875 2.390625l-1.546875 1.421875l-3.59375 -2.859375q-0.84375 0.203125 -1.78125 0.203125q-2.015625 0 -3.578125 -0.984375q-1.546875 -1.0 -2.421875 -2.828125q-0.859375 -1.84375 -0.875 -4.25l0 -1.234375q0 -2.453125 0.84375 -4.34375q0.859375 -1.890625 2.421875 -2.890625q1.578125 -1.0 3.59375 -1.0q2.0625 0 3.625 1.0q1.5625 0.984375 2.40625 2.859375q0.84375 1.875 0.84375 4.359375l0 1.09375zm-2.25 -1.09375q0 -3.015625 -1.203125 -4.640625q-1.203125 -1.640625 -3.421875 -1.640625q-2.125 0 -3.359375 1.625q-1.21875 1.609375 -1.25 4.5l0 1.25q0 2.9375 1.21875 4.625q1.234375 1.6875 3.40625 1.6875q2.1875 0 3.375 -1.59375q1.203125 -1.59375 1.234375 -4.546875l0 -1.265625zm7.984375 7.234375l8.078125 0l0 1.84375l-10.34375 0l0 -17.0625l2.265625 0l0 15.21875z" fill-rule="nonzero"></path><path fill="#000000" fill-opacity="0.0" d="m301.22726 337.00793l131.81104 0l0 73.66928l-131.81104 0z" fill-rule="evenodd"></path><path fill="#000000" d="m330.96872 379.5938q0 -1.328125 -0.9375 -2.03125q-0.9375 -0.71875 -3.375 -1.5q-2.4375 -0.796875 -3.859375 -1.5625q-3.875 -2.09375 -3.875 -5.640625q0 -1.84375 1.03125 -3.28125q1.046875 -1.453125 2.984375 -2.265625q1.953125 -0.8125 4.375 -0.8125q2.4375 0 4.34375 0.890625q1.90625 0.875 2.953125 2.484375q1.0625 1.609375 1.0625 3.65625l-4.6875 0q0 -1.5625 -0.984375 -2.421875q-0.984375 -0.875 -2.765625 -0.875q-1.71875 0 -2.671875 0.734375q-0.953125 0.71875 -0.953125 1.90625q0 1.109375 1.109375 1.859375q1.125 0.75 3.296875 1.40625q4.0 1.203125 5.828125 2.984375q1.828125 1.78125 1.828125 4.4375q0 2.953125 -2.234375 4.640625q-2.234375 1.671875 -6.015625 1.671875q-2.625 0 -4.78125 -0.953125q-2.15625 -0.96875 -3.296875 -2.640625q-1.125 -1.671875 -1.125 -3.875l4.703125 0q0 3.765625 4.5 3.765625q1.671875 0 2.609375 -0.671875q0.9375 -0.6875 0.9375 -1.90625zm25.0 -12.984375l-6.96875 0l0 18.953125l-4.6875 0l0 -18.953125l-6.875 0l0 -3.796875l18.53125 0l0 3.796875zm21.359375 8.09375q0 3.359375 -1.1875 5.890625q-1.1875 2.53125 -3.40625 3.90625q-2.203125 1.375 -5.0625 1.375q-2.828125 0 -5.046875 -1.359375q-2.21875 -1.359375 -3.4375 -3.875q-1.21875 -2.53125 -1.234375 -5.8125l0 -1.125q0 -3.359375 1.203125 -5.90625q1.21875 -2.5625 3.421875 -3.921875q2.21875 -1.375 5.0625 -1.375q2.84375 0 5.046875 1.375q2.21875 1.359375 3.421875 3.921875q1.21875 2.546875 1.21875 5.890625l0 1.015625zm-4.75 -1.03125q0 -3.578125 -1.28125 -5.4375q-1.28125 -1.859375 -3.65625 -1.859375q-2.359375 0 -3.640625 1.84375q-1.28125 1.828125 -1.296875 5.375l0 1.109375q0 3.484375 1.28125 5.40625q1.28125 1.921875 3.6875 1.921875q2.359375 0 3.625 -1.84375q1.265625 -1.859375 1.28125 -5.40625l0 -1.109375zm16.578125 3.5625l-3.734375 0l0 8.328125l-4.6875 0l0 -22.75l8.453125 0q4.03125 0 6.21875 1.796875q2.1875 1.796875 2.1875 5.078125q0 2.328125 -1.015625 3.890625q-1.0 1.546875 -3.046875 2.46875l4.921875 9.296875l0 0.21875l-5.03125 0l-4.265625 -8.328125zm-3.734375 -3.796875l3.78125 0q1.765625 0 2.734375 -0.890625q0.96875 -0.90625 0.96875 -2.484375q0 -1.609375 -0.921875 -2.53125q-0.90625 -0.921875 -2.796875 -0.921875l-3.765625 0l0 6.828125zm29.421875 2.265625l-9.0 0l0 6.09375l10.5625 0l0 3.765625l-15.25 0l0 -22.75l15.21875 0l0 3.796875l-10.53125 0l0 5.421875l9.0 0l0 3.671875z" fill-rule="nonzero"></path><path fill="#000000" fill-opacity="0.0" d="m301.22726 336.17868l131.81104 0l0 73.66928l-131.81104 0z" fill-rule="evenodd"></path><path fill="#ffffff" d="m330.96872 378.76456q0 -1.328125 -0.9375 -2.03125q-0.9375 -0.71875 -3.375 -1.5q-2.4375 -0.796875 -3.859375 -1.5625q-3.875 -2.09375 -3.875 -5.640625q0 -1.84375 1.03125 -3.28125q1.046875 -1.453125 2.984375 -2.265625q1.953125 -0.8125 4.375 -0.8125q2.4375 0 4.34375 0.890625q1.90625 0.875 2.953125 2.484375q1.0625 1.609375 1.0625 3.65625l-4.6875 0q0 -1.5625 -0.984375 -2.421875q-0.984375 -0.875 -2.765625 -0.875q-1.71875 0 -2.671875 0.734375q-0.953125 0.71875 -0.953125 1.90625q0 1.109375 1.109375 1.859375q1.125 0.75 3.296875 1.40625q4.0 1.203125 5.828125 2.984375q1.828125 1.78125 1.828125 4.4375q0 2.953125 -2.234375 4.640625q-2.234375 1.671875 -6.015625 1.671875q-2.625 0 -4.78125 -0.953125q-2.15625 -0.96875 -3.296875 -2.640625q-1.125 -1.671875 -1.125 -3.875l4.703125 0q0 3.765625 4.5 3.765625q1.671875 0 2.609375 -0.671875q0.9375 -0.6875 0.9375 -1.90625zm25.0 -12.984375l-6.96875 0l0 18.953125l-4.6875 0l0 -18.953125l-6.875 0l0 -3.796875l18.53125 0l0 3.796875zm21.359375 8.09375q0 3.359375 -1.1875 5.890625q-1.1875 2.53125 -3.40625 3.90625q-2.203125 1.375 -5.0625 1.375q-2.828125 0 -5.046875 -1.359375q-2.21875 -1.359375 -3.4375 -3.875q-1.21875 -2.53125 -1.234375 -5.8125l0 -1.125q0 -3.359375 1.203125 -5.90625q1.21875 -2.5625 3.421875 -3.921875q2.21875 -1.375 5.0625 -1.375q2.84375 0 5.046875 1.375q2.21875 1.359375 3.421875 3.921875q1.21875 2.546875 1.21875 5.890625l0 1.015625zm-4.75 -1.03125q0 -3.578125 -1.28125 -5.4375q-1.28125 -1.859375 -3.65625 -1.859375q-2.359375 0 -3.640625 1.84375q-1.28125 1.828125 -1.296875 5.375l0 1.109375q0 3.484375 1.28125 5.40625q1.28125 1.921875 3.6875 1.921875q2.359375 0 3.625 -1.84375q1.265625 -1.859375 1.28125 -5.40625l0 -1.109375zm16.578125 3.5625l-3.734375 0l0 8.328125l-4.6875 0l0 -22.75l8.453125 0q4.03125 0 6.21875 1.796875q2.1875 1.796875 2.1875 5.078125q0 2.328125 -1.015625 3.890625q-1.0 1.546875 -3.046875 2.46875l4.921875 9.296875l0 0.21875l-5.03125 0l-4.265625 -8.328125zm-3.734375 -3.796875l3.78125 0q1.765625 0 2.734375 -0.890625q0.96875 -0.90625 0.96875 -2.484375q0 -1.609375 -0.921875 -2.53125q-0.90625 -0.921875 -2.796875 -0.921875l-3.765625 0l0 6.828125zm29.421875 2.265625l-9.0 0l0 6.09375l10.5625 0l0 3.765625l-15.25 0l0 -22.75l15.21875 0l0 3.796875l-10.53125 0l0 5.421875l9.0 0l0 3.671875z" fill-rule="nonzero"></path><path fill="#d9ead3" d="m1.025662 157.43701l0 0c0 -86.260796 69.928185 -156.18898 156.18898 -156.18898l0 0c41.42389 0 81.15117 16.455578 110.442276 45.746693c29.291107 29.291111 45.746704 69.01839 45.746704 110.44229l0 0c0 86.26079 -69.92819 156.18896 -156.18898 156.18896l0 0c-86.260796 0 -156.18898 -69.92818 -156.18898 -156.18896z" fill-rule="evenodd"></path><path stroke="#000000" stroke-width="1.0" stroke-linejoin="round" stroke-linecap="butt" d="m1.025662 157.43701l0 0c0 -86.260796 69.928185 -156.18898 156.18898 -156.18898l0 0c41.42389 0 81.15117 16.455578 110.442276 45.746693c29.291107 29.291111 45.746704 69.01839 45.746704 110.44229l0 0c0 86.26079 -69.92819 156.18896 -156.18898 156.18896l0 0c-86.260796 0 -156.18898 -69.92818 -156.18898 -156.18896z" fill-rule="evenodd"></path><path fill="#b6d7a8" d="m30.020412 217.95932l0 0c0 -39.581863 32.087437 -71.6693 71.6693 -71.6693l0 0c19.007874 0 37.237236 7.5508575 50.677834 20.991455c13.440613 13.440598 20.991455 31.669968 20.991455 50.67784l0 0c0 39.58185 -32.087433 71.66928 -71.66929 71.66928l0 0c-39.581856 0 -71.6693 -32.087433 -71.6693 -71.66928z" fill-rule="evenodd"></path><path stroke="#000000" stroke-width="1.0" stroke-linejoin="round" stroke-linecap="butt" d="m30.020412 217.95932l0 0c0 -39.581863 32.087437 -71.6693 71.6693 -71.6693l0 0c19.007874 0 37.237236 7.5508575 50.677834 20.991455c13.440613 13.440598 20.991455 31.669968 20.991455 50.67784l0 0c0 39.58185 -32.087433 71.66928 -71.66929 71.66928l0 0c-39.581856 0 -71.6693 -32.087433 -71.6693 -71.66928z" fill-rule="evenodd"></path><path fill="#b6d7a8" d="m35.555847 84.14829l0 0c0 -33.95464 27.525673 -61.480316 61.480316 -61.480316l0 0c16.305588 0 31.943344 6.477373 43.473145 18.00717c11.5298 11.529793 18.007172 27.16755 18.007172 43.473145l0 0c0 33.954643 -27.52568 61.480324 -61.480316 61.480324l0 0c-33.954643 0 -61.480316 -27.52568 -61.480316 -61.480324z" fill-rule="evenodd"></path><path stroke="#000000" stroke-width="1.0" stroke-linejoin="round" stroke-linecap="butt" d="m35.555847 84.14829l0 0c0 -33.95464 27.525673 -61.480316 61.480316 -61.480316l0 0c16.305588 0 31.943344 6.477373 43.473145 18.00717c11.5298 11.529793 18.007172 27.16755 18.007172 43.473145l0 0c0 33.954643 -27.52568 61.480324 -61.480316 61.480324l0 0c-33.954643 0 -61.480316 -27.52568 -61.480316 -61.480324z" fill-rule="evenodd"></path><path fill="#b6d7a8" d="m159.62408 83.04068l0 0c0 -32.119488 26.037994 -58.15748 58.157486 -58.15748l0 0c15.424316 0 30.216904 6.127289 41.12355 17.033932c10.906647 10.906643 17.033936 25.699223 17.033936 41.123547l0 0c0 32.11949 -26.037994 58.157486 -58.157486 58.157486l0 0c-32.11949 0 -58.157486 -26.037994 -58.157486 -58.157486z" fill-rule="evenodd"></path><path stroke="#000000" stroke-width="1.0" stroke-linejoin="round" stroke-linecap="butt" d="m159.62408 83.04068l0 0c0 -32.119488 26.037994 -58.15748 58.157486 -58.15748l0 0c15.424316 0 30.216904 6.127289 41.12355 17.033932c10.906647 10.906643 17.033936 25.699223 17.033936 41.123547l0 0c0 32.11949 -26.037994 58.157486 -58.157486 58.157486l0 0c-32.11949 0 -58.157486 -26.037994 -58.157486 -58.157486z" fill-rule="evenodd"></path><path fill="#b6d7a8" d="m174.00467 202.6942l0 0c0 -33.96335 27.532715 -61.496063 61.496063 -61.496063l0 0c16.309769 0 31.951538 6.479019 43.484283 18.01178c11.532745 11.532745 18.01178 27.1745 18.01178 43.484283l0 0c0 33.963333 -27.532745 61.496048 -61.496063 61.496048l0 0c-33.96335 0 -61.496063 -27.532715 -61.496063 -61.496048z" fill-rule="evenodd"></path><path stroke="#000000" stroke-width="1.0" stroke-linejoin="round" stroke-linecap="butt" d="m174.00467 202.6942l0 0c0 -33.96335 27.532715 -61.496063 61.496063 -61.496063l0 0c16.309769 0 31.951538 6.479019 43.484283 18.01178c11.532745 11.532745 18.01178 27.1745 18.01178 43.484283l0 0c0 33.963333 -27.532745 61.496048 -61.496063 61.496048l0 0c-33.96335 0 -61.496063 -27.532715 -61.496063 -61.496048z" fill-rule="evenodd"></path><path fill="#b6d7a8" d="m153.7737 278.3714l0 0c0 -16.47287 13.353912 -29.826782 29.826782 -29.826782l0 0c7.910553 0 15.497101 3.142456 21.090714 8.736053c5.5935974 5.593628 8.736053 13.180176 8.736053 21.090729l0 0c0 16.47287 -13.353897 29.826752 -29.826767 29.826752l0 0c-16.47287 0 -29.826782 -13.353882 -29.826782 -29.826752z" fill-rule="evenodd"></path><path stroke="#000000" stroke-width="1.0" stroke-linejoin="round" stroke-linecap="butt" d="m153.7737 278.3714l0 0c0 -16.47287 13.353912 -29.826782 29.826782 -29.826782l0 0c7.910553 0 15.497101 3.142456 21.090714 8.736053c5.5935974 5.593628 8.736053 13.180176 8.736053 21.090729l0 0c0 16.47287 -13.353897 29.826752 -29.826767 29.826752l0 0c-16.47287 0 -29.826782 -13.353882 -29.826782 -29.826752z" fill-rule="evenodd"></path><path fill="#000000" fill-opacity="0.0" d="m48.044033 46.290028l97.98425 0l0 84.69292l-97.98425 0z" fill-rule="evenodd"></path><path fill="#000000" d="m74.825226 70.72065q-2.90625 -0.828125 -4.21875 -2.03125q-1.3125 -1.21875 -1.3125 -3.0q0 -2.0156212 1.609375 -3.3281212q1.609375 -1.328125 4.1875 -1.328125q1.75 0 3.125 0.6875q1.390625 0.671875 2.140625 1.875q0.75 1.1874962 0.75 2.6093712l-2.25 0q0 -1.546875 -0.984375 -2.4374962q-0.984375 -0.890625 -2.78125 -0.890625q-1.671875 0 -2.609375 0.734375q-0.921875 0.7343712 -0.921875 2.0312462q0 1.046875 0.875 1.765625q0.890625 0.71875 3.015625 1.328125q2.140625 0.59375 3.328125 1.3125q1.203125 0.71875 1.78125 1.6875q0.59375 0.953125 0.59375 2.25q0 2.078125 -1.625 3.328125q-1.609375 1.25 -4.328125 1.25q-1.75 0 -3.28125 -0.671875q-1.515625 -0.671875 -2.34375 -1.84375q-0.828125 -1.171875 -0.828125 -2.671875l2.265625 0q0 1.546875 1.140625 2.453125q1.140625 0.890625 3.046875 0.890625q1.78125 0 2.734375 -0.71875q0.953125 -0.734375 0.953125 -1.984375q0 -1.25 -0.890625 -1.9375q-0.875 -0.6875 -3.171875 -1.359375zm13.957031 6.078125q1.15625 0 2.015625 -0.703125q0.875 -0.703125 0.96875 -1.765625l2.046875 0q-0.0625 1.09375 -0.75 2.078125q-0.6875 0.984375 -1.84375 1.578125q-1.15625 0.578125 -2.4375 0.578125q-2.59375 0 -4.125 -1.71875q-1.53125 -1.734375 -1.53125 -4.734375l0 -0.375q0 -1.84375 0.671875 -3.28125q0.6875 -1.453125 1.953125 -2.25q1.28125 -0.796875 3.015625 -0.796875q2.125 0 3.53125 1.28125q1.421875 1.28125 1.515625 3.3125l-2.046875 0q-0.09375 -1.21875 -0.9375 -2.015625q-0.828125 -0.796875 -2.0625 -0.796875q-1.65625 0 -2.5625 1.203125q-0.90625 1.1875 -0.90625 3.4375l0 0.40625q0 2.1875 0.890625 3.375q0.90625 1.1875 2.59375 1.1875zm9.828125 1.53125l-2.171875 0l0 -12.6875l2.171875 0l0 12.6875zm-2.34375 -16.046871q0 -0.53125 0.3125 -0.890625q0.328125 -0.359375 0.953125 -0.359375q0.640625 0 0.96875 0.359375q0.328125 0.359375 0.328125 0.890625q0 0.53125 -0.328125 0.890625q-0.328125 0.34375 -0.96875 0.34375q-0.625 0 -0.953125 -0.34375q-0.3125 -0.359375 -0.3125 -0.890625zm9.355469 10.171871l-1.359375 1.421875l0 4.453125l-2.171875 0l0 -17.999996l2.171875 0l0 10.890621l1.15625 -1.40625l3.953125 -4.171875l2.625 0l-4.921875 5.296875l5.5 7.390625l-2.546875 0l-4.40625 -5.875zm10.9765625 5.875l-2.171875 0l0 -12.6875l2.171875 0l0 12.6875zm-2.34375 -16.046871q0 -0.53125 0.3125 -0.890625q0.328125 -0.359375 0.953125 -0.359375q0.640625 0 0.96875 0.359375q0.328125 0.359375 0.328125 0.890625q0 0.53125 -0.328125 0.890625q-0.328125 0.34375 -0.96875 0.34375q-0.625 0 -0.953125 -0.34375q-0.3125 -0.359375 -0.3125 -0.890625zm8.746094 0.296875l0 3.0624962l2.375 0l0 1.6875l-2.375 0l0 7.859375q0 0.765625 0.3125 1.140625q0.328125 0.375 1.09375 0.375q0.375 0 1.03125 -0.140625l0 1.765625q-0.859375 0.234375 -1.671875 0.234375q-1.453125 0 -2.1875 -0.875q-0.734375 -0.890625 -0.734375 -2.5l0 -7.859375l-2.3125 0l0 -1.6875l2.3125 0l0 -3.0624962l2.15625 0z" fill-rule="nonzero"></path><path fill="#000000" d="m71.262726 105.486275l8.078125 0l0 1.84375l-10.34375 0l0 -17.0625l2.265625 0l0 15.21875zm15.5703125 2.078125q-2.578125 0 -4.203125 -1.6875q-1.609375 -1.703125 -1.609375 -4.53125l0 -0.40625q0 -1.890625 0.71875 -3.359375q0.71875 -1.484375 2.015625 -2.328125q1.296875 -0.84375 2.8125 -0.84375q2.46875 0 3.828125 1.640625q1.375 1.625 1.375 4.65625l0 0.90625l-8.578125 0q0.046875 1.875 1.09375 3.03125q1.046875 1.15625 2.65625 1.15625q1.15625 0 1.953125 -0.46875q0.796875 -0.46875 1.390625 -1.25l1.328125 1.03125q-1.59375 2.453125 -4.78125 2.453125zm-0.265625 -11.375q-1.3125 0 -2.203125 0.96875q-0.890625 0.953125 -1.109375 2.671875l6.359375 0l0 -0.171875q-0.09375 -1.640625 -0.890625 -2.546875q-0.796875 -0.921875 -2.15625 -0.921875zm15.542969 11.140625q-0.1875 -0.375 -0.296875 -1.34375q-1.515625 1.578125 -3.609375 1.578125q-1.875 0 -3.078125 -1.0625q-1.203125 -1.0625 -1.203125 -2.6875q0 -1.984375 1.5 -3.078125q1.515625 -1.09375 4.234375 -1.09375l2.109375 0l0 -1.0q0 -1.140625 -0.6875 -1.8125q-0.671875 -0.671875 -1.984375 -0.671875q-1.171875 0 -1.953125 0.59375q-0.78125 0.578125 -0.78125 1.40625l-2.1875 0q0 -0.9375 0.671875 -1.828125q0.6875 -0.890625 1.828125 -1.40625q1.15625 -0.515625 2.546875 -0.515625q2.1875 0 3.421875 1.109375q1.25 1.09375 1.296875 3.015625l0 5.828125q0 1.75 0.453125 2.78125l0 0.1875l-2.28125 0zm-3.59375 -1.65625q1.015625 0 1.921875 -0.515625q0.921875 -0.53125 1.328125 -1.375l0 -2.609375l-1.6875 0q-3.984375 0 -3.984375 2.328125q0 1.03125 0.671875 1.609375q0.6875 0.5625 1.75 0.5625zm14.9453125 -9.078125q-0.484375 -0.078125 -1.0625 -0.078125q-2.125 0 -2.890625 1.8125l0 9.0l-2.171875 0l0 -12.6875l2.109375 0l0.03125 1.46875q1.078125 -1.703125 3.03125 -1.703125q0.625 0 0.953125 0.171875l0 2.015625zm4.0429688 -1.953125l0.078125 1.59375q1.453125 -1.828125 3.796875 -1.828125q4.015625 0 4.046875 4.546875l0 8.375l-2.15625 0l0 -8.390625q-0.015625 -1.375 -0.640625 -2.03125q-0.609375 -0.65625 -1.90625 -0.65625q-1.0625 0 -1.859375 0.5625q-0.796875 0.5625 -1.234375 1.484375l0 9.03125l-2.171875 0l0 -12.6875l2.046875 0z" fill-rule="nonzero"></path><path fill="#000000" fill-opacity="0.0" d="m161.87605 59.906826l111.81102 0l0 43.748028l-111.81102 0z" fill-rule="evenodd"></path><path fill="#000000" d="m191.42805 76.72807l-5.484375 0l0 15.21875l-2.234375 0l0 -15.21875l-5.46875 0l0 -1.84375l13.1875 0l0 1.84375zm4.3671875 4.078125q1.4375 -1.78125 3.75 -1.78125q4.015625 0 4.046875 4.546875l0 8.375l-2.15625 0l0 -8.390625q-0.015625 -1.375 -0.640625 -2.03125q-0.609375 -0.65625 -1.90625 -0.65625q-1.0625 0 -1.859375 0.5625q-0.796875 0.5625 -1.234375 1.484375l0 9.03125l-2.171875 0l0 -18.0l2.171875 0l0 6.859375zm16.3125 11.375q-2.578125 0 -4.203125 -1.6875q-1.609375 -1.703125 -1.609375 -4.53125l0 -0.40625q0 -1.890625 0.71875 -3.359375q0.71875 -1.484375 2.015625 -2.328125q1.296875 -0.84375 2.8125 -0.84375q2.46875 0 3.828125 1.640625q1.375 1.625 1.375 4.65625l0 0.90625l-8.578125 0q0.046875 1.875 1.09375 3.03125q1.046875 1.15625 2.65625 1.15625q1.15625 0 1.953125 -0.46875q0.796875 -0.46875 1.390625 -1.25l1.328125 1.03125q-1.59375 2.453125 -4.78125 2.453125zm-0.265625 -11.375q-1.3125 0 -2.203125 0.96875q-0.890625 0.953125 -1.109375 2.671875l6.359375 0l0 -0.171875q-0.09375 -1.640625 -0.890625 -2.546875q-0.796875 -0.921875 -2.15625 -0.921875zm15.542969 11.140625q-0.1875 -0.375 -0.296875 -1.34375q-1.515625 1.578125 -3.609375 1.578125q-1.875 0 -3.078125 -1.0625q-1.203125 -1.0625 -1.203125 -2.6875q0 -1.984375 1.5 -3.078125q1.515625 -1.09375 4.234375 -1.09375l2.109375 0l0 -1.0q0 -1.140625 -0.6875 -1.8125q-0.671875 -0.671875 -1.984375 -0.671875q-1.171875 0 -1.953125 0.59375q-0.78125 0.578125 -0.78125 1.40625l-2.1875 0q0 -0.9375 0.671875 -1.828125q0.6875 -0.890625 1.828125 -1.40625q1.15625 -0.515625 2.546875 -0.515625q2.1875 0 3.421875 1.109375q1.25 1.09375 1.296875 3.015625l0 5.828125q0 1.75 0.453125 2.78125l0 0.1875l-2.28125 0zm-3.59375 -1.65625q1.015625 0 1.921875 -0.515625q0.921875 -0.53125 1.328125 -1.375l0 -2.609375l-1.6875 0q-3.984375 0 -3.984375 2.328125q0 1.03125 0.671875 1.609375q0.6875 0.5625 1.75 0.5625zm10.8671875 -11.03125l0.078125 1.59375q1.453125 -1.828125 3.796875 -1.828125q4.015625 0 4.046875 4.546875l0 8.375l-2.15625 0l0 -8.390625q-0.015625 -1.375 -0.640625 -2.03125q-0.609375 -0.65625 -1.90625 -0.65625q-1.0625 0 -1.859375 0.5625q-0.796875 0.5625 -1.234375 1.484375l0 9.03125l-2.171875 0l0 -12.6875l2.046875 0zm10.6171875 6.234375q0 -1.875 0.734375 -3.359375q0.734375 -1.484375 2.03125 -2.296875q1.3125 -0.8125 3.0 -0.8125q2.578125 0 4.171875 1.796875q1.6093597 1.796875 1.6093597 4.765625l0 0.15625q0 1.859375 -0.71875 3.328125q-0.70310974 1.46875 -2.0156097 2.296875q-1.3125 0.8125 -3.03125 0.8125q-2.578125 0 -4.1875 -1.796875q-1.59375 -1.796875 -1.59375 -4.75l0 -0.140625zm2.1875 0.25q0 2.109375 0.96875 3.390625q0.984375 1.28125 2.625 1.28125q1.65625 0 2.625 -1.296875q0.96875 -1.296875 0.96875 -3.625q0 -2.09375 -0.984375 -3.390625q-0.984375 -1.296875 -2.625 -1.296875q-1.609375 0 -2.59375 1.28125q-0.984375 1.28125 -0.984375 3.65625z" fill-rule="nonzero"></path><path fill="#000000" fill-opacity="0.0" d="m44.49023 183.46538l111.81102 0l0 84.69292l-111.81102 0z" fill-rule="evenodd"></path><path fill="#000000" d="m76.55394 215.50539l-2.265625 0l-8.578125 -13.15625l0 13.15625l-2.2656212 0l0 -17.0625l2.2656212 0l8.609375 13.203125l0 -13.203125l2.234375 0l0 17.0625zm11.484375 -1.25q-1.265625 1.484375 -3.71875 1.484375q-2.015625 0 -3.078125 -1.171875q-1.0625 -1.1875 -1.078125 -3.5l0 -8.25l2.171875 0l0 8.203125q0 2.875 2.34375 2.875q2.484375 0 3.296875 -1.84375l0 -9.234375l2.171875 0l0 12.6875l-2.0625 0l-0.046875 -1.25zm7.4492188 -11.4375l0.046875 1.40625q1.40625 -1.640625 3.765625 -1.640625q2.65625 0 3.625 2.046875q0.625 -0.921875 1.640625 -1.484375q1.015625 -0.5625 2.40625 -0.5625q4.171875 0 4.234375 4.421875l0 8.5l-2.171875 0l0 -8.375q0 -1.359375 -0.625 -2.03125q-0.609375 -0.671875 -2.078125 -0.671875q-1.203125 0 -2.0 0.71875q-0.796875 0.71875 -0.921875 1.9375l0 8.421875l-2.1875 0l0 -8.3125q0 -2.765625 -2.703125 -2.765625q-2.140625 0 -2.921875 1.8125l0 9.265625l-2.171875 0l0 -12.6875l2.0625 0zm21.582031 6.0l0 6.6875l-2.25 0l0 -17.0625l6.296875 0q2.796875 0 4.375 1.4375q1.59375 1.421875 1.59375 3.78125q0 2.484375 -1.5625 3.828125q-1.546875 1.328125 -4.4375 1.328125l-4.015625 0zm0 -1.828125l4.046875 0q1.796875 0 2.75 -0.84375q0.96875 -0.859375 0.96875 -2.46875q0 -1.515625 -0.96875 -2.421875q-0.953125 -0.921875 -2.625 -0.96875l-4.171875 0l0 6.703125zm16.703125 5.34375l2.953125 -9.515625l2.3125 0l-5.09375 14.640625q-1.1875 3.171875 -3.765625 3.171875l-0.40625 -0.03125l-0.8125 -0.15625l0 -1.765625l0.59375 0.046875q1.09375 0 1.703125 -0.453125q0.625 -0.4375 1.015625 -1.609375l0.484375 -1.296875l-4.515625 -12.546875l2.359375 0l3.171875 9.515625z" fill-rule="nonzero"></path><path fill="#000000" d="m61.593006 239.92726q0 -1.234375 0.6875 -2.265625q0.6875 -1.03125 2.6093712 -2.40625q-1.1249962 -1.375 -1.5156212 -2.21875q-0.390625 -0.84375 -0.390625 -1.6875q0 -1.9375 1.1406212 -3.03125q1.15625 -1.109375 3.125 -1.109375q1.765625 0 2.90625 1.03125q1.15625 1.015625 1.15625 2.578125q0 1.03125 -0.53125 1.90625q-0.515625 0.875 -1.8125 1.828125l-1.265625 0.921875l3.796875 4.546875q0.796875 -1.53125 0.796875 -3.390625l1.96875 0q0 2.984375 -1.453125 4.953125l2.4375 2.921875l-2.59375 0l-1.140625 -1.34375q-0.859375 0.765625 -2.03125 1.171875q-1.171875 0.40625 -2.375 0.40625q-2.5 0 -4.015621 -1.328125q-1.5 -1.328125 -1.5 -3.484375zm5.515621 3.046875q1.71875 0 3.15625 -1.3125l-4.15625 -4.984375l-0.390625 0.28125q-1.9531212 1.4375 -1.9531212 2.96875q0 1.375 0.8906212 2.21875q0.890625 0.828125 2.453125 0.828125zm-1.953125 -11.6875q0 1.125 1.375 2.8125l1.390625 -0.96875q0.796875 -0.5625 1.078125 -1.078125q0.296875 -0.515625 0.296875 -1.234375q0 -0.78125 -0.59375 -1.296875q-0.578125 -0.53125 -1.46875 -0.53125q-0.953125 0 -1.515625 0.65625q-0.5625 0.640625 -0.5625 1.640625zm23.125 5.609375q-2.90625 -0.828125 -4.21875 -2.03125q-1.3125 -1.21875 -1.3125 -3.0q0 -2.015625 1.609375 -3.328125q1.609375 -1.328125 4.1875 -1.328125q1.75 0 3.125 0.6875q1.390625 0.671875 2.140625 1.875q0.75 1.1875 0.75 2.609375l-2.25 0q0 -1.546875 -0.984375 -2.4375q-0.984375 -0.890625 -2.78125 -0.890625q-1.671875 0 -2.609375 0.734375q-0.921875 0.734375 -0.921875 2.03125q0 1.046875 0.875 1.765625q0.890625 0.71875 3.015625 1.328125q2.140625 0.59375 3.328125 1.3125q1.203125 0.71875 1.78125 1.6875q0.59375 0.953125 0.59375 2.25q0 2.078125 -1.625 3.328125q-1.609375 1.25 -4.328125 1.25q-1.75 0 -3.28125 -0.671875q-1.515625 -0.671875 -2.34375 -1.84375q-0.828125 -1.171875 -0.828125 -2.671875l2.265625 0q0 1.546875 1.140625 2.453125q1.140625 0.890625 3.046875 0.890625q1.78125 0 2.734375 -0.71875q0.953125 -0.734375 0.953125 -1.984375q0 -1.25 -0.890625 -1.9375q-0.875 -0.6875 -3.171875 -1.359375zm13.957031 6.078125q1.15625 0 2.015625 -0.703125q0.875 -0.703125 0.96875 -1.765625l2.046875 0q-0.0625 1.09375 -0.75 2.078125q-0.6875 0.984375 -1.84375 1.578125q-1.15625 0.578125 -2.4375 0.578125q-2.59375 0 -4.125 -1.71875q-1.53125 -1.734375 -1.53125 -4.734375l0 -0.375q0 -1.84375 0.671875 -3.28125q0.6875 -1.453125 1.953125 -2.25q1.28125 -0.796875 3.015625 -0.796875q2.125 0 3.53125 1.28125q1.421875 1.28125 1.515625 3.3125l-2.046875 0q-0.09375 -1.21875 -0.9375 -2.015625q-0.828125 -0.796875 -2.0625 -0.796875q-1.65625 0 -2.5625 1.203125q-0.90625 1.1875 -0.90625 3.4375l0 0.40625q0 2.1875 0.890625 3.375q0.90625 1.1875 2.59375 1.1875zm9.828125 1.53125l-2.171875 0l0 -12.6875l2.171875 0l0 12.6875zm-2.34375 -16.046875q0 -0.53125 0.3125 -0.890625q0.328125 -0.359375 0.953125 -0.359375q0.640625 0 0.96875 0.359375q0.328125 0.359375 0.328125 0.890625q0 0.53125 -0.328125 0.890625q-0.328125 0.34375 -0.96875 0.34375q-0.625 0 -0.953125 -0.34375q-0.3125 -0.359375 -0.3125 -0.890625zm8.402344 9.359375l0 6.6875l-2.25 0l0 -17.0625l6.296875 0q2.796875 0 4.375 1.4375q1.59375 1.421875 1.59375 3.78125q0 2.484375 -1.5625 3.828125q-1.546875 1.328125 -4.4375 1.328125l-4.015625 0zm0 -1.828125l4.046875 0q1.796875 0 2.75 -0.84375q0.96875 -0.859375 0.96875 -2.46875q0 -1.515625 -0.96875 -2.421875q-0.953125 -0.921875 -2.625 -0.96875l-4.171875 0l0 6.703125zm16.703125 5.34375l2.953125 -9.515625l2.3125 0l-5.09375 14.640625q-1.1875 3.171875 -3.765625 3.171875l-0.40625 -0.03125l-0.8125 -0.15625l0 -1.765625l0.59375 0.046875q1.09375 0 1.703125 -0.453125q0.625 -0.4375 1.015625 -1.609375l0.484375 -1.296875l-4.515625 -12.546875l2.359375 0l3.171875 9.515625z" fill-rule="nonzero"></path><path fill="#000000" fill-opacity="0.0" d="m140.90654 255.58792l85.38583 0l0 41.259857l-85.38583 0z" fill-rule="evenodd"></path><path fill="#000000" d="m169.41196 283.1748l-7.15625 0l-1.59375 4.453125l-2.328125 0l6.515625 -17.0625l1.96875 0l6.53125 17.0625l-2.3125 0l-1.625 -4.453125zm-6.46875 -1.859375l5.796875 0l-2.90625 -7.96875l-2.890625 7.96875zm16.375 0.9375l0.328125 2.25l0.484375 -2.03125l3.375 -11.90625l1.90625 0l3.28125 11.90625l0.46875 2.0625l0.375 -2.296875l2.640625 -11.671875l2.265625 0l-4.140625 17.0625l-2.046875 0l-3.515625 -12.4375l-0.265625 -1.296875l-0.28125 1.296875l-3.640625 12.4375l-2.046875 0l-4.125 -17.0625l2.25 0l2.6875 11.6875zm22.652344 -2.234375q-2.90625 -0.828125 -4.21875 -2.03125q-1.3125 -1.21875 -1.3125 -3.0q0 -2.015625 1.609375 -3.328125q1.609375 -1.328125 4.1875 -1.328125q1.75 0 3.125 0.6875q1.390625 0.671875 2.140625 1.875q0.75 1.1875 0.75 2.609375l-2.25 0q0 -1.546875 -0.984375 -2.4375q-0.984375 -0.890625 -2.78125 -0.890625q-1.671875 0 -2.609375 0.734375q-0.921875 0.734375 -0.921875 2.03125q0 1.046875 0.875 1.765625q0.890625 0.71875 3.015625 1.328125q2.140625 0.59375 3.328125 1.3125q1.203125 0.71875 1.78125 1.6875q0.59375 0.953125 0.59375 2.25q0 2.078125 -1.625 3.328125q-1.609375 1.25 -4.328125 1.25q-1.75 0 -3.28125 -0.671875q-1.515625 -0.671875 -2.34375 -1.84375q-0.828125 -1.171875 -0.828125 -2.671875l2.265625 0q0 1.546875 1.140625 2.453125q1.140625 0.890625 3.046875 0.890625q1.78125 0 2.734375 -0.71875q0.953125 -0.734375 0.953125 -1.984375q0 -1.25 -0.890625 -1.9375q-0.875 -0.6875 -3.171875 -1.359375z" fill-rule="nonzero"></path><path fill="#000000" fill-opacity="0.0" d="m181.87868 180.34251l107.244095 0l0 43.74803l-107.244095 0z" fill-rule="evenodd"></path><path fill="#000000" d="m199.53394 205.69502l0 6.6875l-2.25 0l0 -17.0625l6.296875 0q2.796875 0 4.375 1.4375q1.59375 1.421875 1.59375 3.78125q0 2.484375 -1.5625 3.828125q-1.546875 1.328125 -4.4375 1.328125l-4.015625 0zm0 -1.828125l4.046875 0q1.796875 0 2.75 -0.84375q0.96875 -0.859375 0.96875 -2.46875q0 -1.515625 -0.96875 -2.421875q-0.953125 -0.921875 -2.625 -0.96875l-4.171875 0l0 6.703125zm20.375 8.515625q-0.1875 -0.375 -0.296875 -1.34375q-1.515625 1.578125 -3.609375 1.578125q-1.875 0 -3.078125 -1.0625q-1.203125 -1.0625 -1.203125 -2.6875q0 -1.984375 1.5 -3.078125q1.515625 -1.09375 4.234375 -1.09375l2.109375 0l0 -1.0q0 -1.140625 -0.6875 -1.8125q-0.671875 -0.671875 -1.984375 -0.671875q-1.171875 0 -1.953125 0.59375q-0.78125 0.578125 -0.78125 1.40625l-2.1875 0q0 -0.9375 0.671875 -1.828125q0.6875 -0.890625 1.828125 -1.40625q1.15625 -0.515625 2.546875 -0.515625q2.1875 0 3.421875 1.109375q1.25 1.09375 1.296875 3.015625l0 5.828125q0 1.75 0.453125 2.78125l0 0.1875l-2.28125 0zm-3.59375 -1.65625q1.015625 0 1.921875 -0.515625q0.921875 -0.53125 1.328125 -1.375l0 -2.609375l-1.6875 0q-3.984375 0 -3.984375 2.328125q0 1.03125 0.671875 1.609375q0.6875 0.5625 1.75 0.5625zm10.8671875 -11.03125l0.078125 1.59375q1.453125 -1.828125 3.796875 -1.828125q4.015625 0 4.046875 4.546875l0 8.375l-2.15625 0l0 -8.390625q-0.015625 -1.375 -0.640625 -2.03125q-0.609375 -0.65625 -1.90625 -0.65625q-1.0625 0 -1.859375 0.5625q-0.796875 0.5625 -1.234375 1.484375l0 9.03125l-2.171875 0l0 -12.6875l2.046875 0zm10.6640625 6.234375q0 -2.90625 1.375 -4.6875q1.390625 -1.78125 3.640625 -1.78125q2.21875 0 3.515625 1.53125l0 -6.609375l2.171875 0l0 18.0l-1.984375 0l-0.109375 -1.359375q-1.296875 1.59375 -3.625 1.59375q-2.203125 0 -3.59375 -1.796875q-1.390625 -1.8125 -1.390625 -4.71875l0 -0.171875zm2.171875 0.25q0 2.15625 0.890625 3.375q0.890625 1.21875 2.46875 1.21875q2.0625 0 3.0 -1.84375l0 -5.828125q-0.96875 -1.796875 -2.984375 -1.796875q-1.59375 0 -2.484375 1.234375q-0.890625 1.234375 -0.890625 3.640625zm19.722656 6.203125q-0.1875 -0.375 -0.296875 -1.34375q-1.515625 1.578125 -3.609375 1.578125q-1.875 0 -3.078125 -1.0625q-1.203125 -1.0625 -1.203125 -2.6875q0 -1.984375 1.5 -3.078125q1.515625 -1.09375 4.234375 -1.09375l2.109375 0l0 -1.0q0 -1.140625 -0.6875 -1.8125q-0.671875 -0.671875 -1.984375 -0.671875q-1.171875 0 -1.953125 0.59375q-0.78125 0.578125 -0.78125 1.40625l-2.1875 0q0 -0.9375 0.671875 -1.828125q0.6875 -0.890625 1.828125 -1.40625q1.15625 -0.515625 2.546875 -0.515625q2.1875 0 3.421875 1.109375q1.25 1.09375 1.296875 3.015625l0 5.828125q0 1.75 0.453125 2.78125l0 0.1875l-2.28125 0zm-3.59375 -1.65625q1.015625 0 1.921875 -0.515625q0.921875 -0.53125 1.328125 -1.375l0 -2.609375l-1.6875 0q-3.984375 0 -3.984375 2.328125q0 1.03125 0.671875 1.609375q0.6875 0.5625 1.75 0.5625zm16.210938 -1.703125q0 -0.890625 -0.671875 -1.375q-0.65625 -0.484375 -2.3125 -0.828125q-1.640625 -0.359375 -2.609375 -0.84375q-0.96875 -0.5 -1.4375 -1.171875q-0.453125 -0.6875 -0.453125 -1.625q0 -1.5625 1.3125 -2.640625q1.328125 -1.078125 3.375 -1.078125q2.15625 0 3.5 1.125q1.34375 1.109375 1.34375 2.84375l-2.1875 0q0 -0.890625 -0.75 -1.53125q-0.75 -0.65625 -1.90625 -0.65625q-1.1875 0 -1.859375 0.515625q-0.65625 0.515625 -0.65625 1.359375q0 0.78125 0.609375 1.1875q0.625 0.390625 2.25 0.75q1.625 0.359375 2.625 0.875q1.015625 0.5 1.5 1.21875q0.484375 0.703125 0.484375 1.71875q0 1.703125 -1.359375 2.734375q-1.359375 1.015625 -3.515625 1.015625q-1.53125 0 -2.703125 -0.53125q-1.171875 -0.546875 -1.84375 -1.515625q-0.65625 -0.96875 -0.65625 -2.09375l2.171875 0q0.0625 1.09375 0.875 1.734375q0.8125 0.640625 2.15625 0.640625q1.21875 0 1.96875 -0.5q0.75 -0.5 0.75 -1.328125z" fill-rule="nonzero"></path><path fill="#000000" fill-opacity="0.0" d="m61.08496 130.67664l194.01575 0l0 56.15747l-194.01575 0z" fill-rule="evenodd"></path><path fill="#000000" d="m102.749084 165.70914l-8.21875 0l-1.5625 4.6875l-4.984375 0l8.46875 -22.75l4.34375 0l8.515625 22.75l-4.984375 0l-1.578125 -4.6875zm-6.953125 -3.796875l5.6875 0l-2.859375 -8.515625l-2.828125 8.515625zm34.140625 8.484375l-4.6875 0l-9.125 -14.96875l0 14.96875l-4.6875 0l0 -22.75l4.6875 0l9.140625 15.0l0 -15.0l4.671875 0l0 22.75zm16.9375 -4.6875l-8.21875 0l-1.5625 4.6875l-4.984375 0l8.46875 -22.75l4.34375 0l8.515625 22.75l-4.984375 0l-1.578125 -4.6875zm-6.953125 -3.796875l5.6875 0l-2.859375 -8.515625l-2.828125 8.515625zm20.328125 4.71875l9.953125 0l0 3.765625l-14.640625 0l0 -22.75l4.6875 0l0 18.984375zm20.484375 -8.734375l4.734375 -10.25l5.125 0l-7.46875 14.5l0 8.25l-4.765625 0l0 -8.25l-7.46875 -14.5l5.140625 0l4.703125 10.25zm23.734375 6.53125q0 -1.328125 -0.9375 -2.03125q-0.9375 -0.71875 -3.375 -1.5q-2.4375 -0.796875 -3.859375 -1.5625q-3.875 -2.09375 -3.875 -5.640625q0 -1.84375 1.03125 -3.28125q1.046875 -1.453125 2.984375 -2.265625q1.953125 -0.8125 4.375 -0.8125q2.4375 0 4.34375 0.890625q1.90625 0.875 2.953125 2.484375q1.0625 1.609375 1.0625 3.65625l-4.6875 0q0 -1.5625 -0.984375 -2.421875q-0.984375 -0.875 -2.765625 -0.875q-1.71875 0 -2.671875 0.734375q-0.953125 0.71875 -0.953125 1.90625q0 1.109375 1.109375 1.859375q1.125 0.75 3.296875 1.40625q4.0 1.203125 5.828125 2.984375q1.828125 1.78125 1.828125 4.4375q0 2.953125 -2.234375 4.640625q-2.234375 1.671875 -6.015625 1.671875q-2.625 0 -4.78125 -0.953125q-2.15625 -0.96875 -3.296875 -2.640625q-1.125 -1.671875 -1.125 -3.875l4.703125 0q0 3.765625 4.5 3.765625q1.671875 0 2.609375 -0.671875q0.9375 -0.6875 0.9375 -1.90625zm21.5625 -3.890625l-9.0 0l0 6.09375l10.5625 0l0 3.765625l-15.25 0l0 -22.75l15.21875 0l0 3.796875l-10.53125 0l0 5.421875l9.0 0l0 3.671875z" fill-rule="nonzero"></path><path fill="#000000" fill-opacity="0.0" d="m60.166325 129.79736l194.01575 0l0 56.157486l-194.01575 0z" fill-rule="evenodd"></path><path fill="#ffffff" d="m101.830444 164.82986l-8.21875 0l-1.5625 4.6875l-4.984375 0l8.46875 -22.75l4.34375 0l8.515625 22.75l-4.984375 0l-1.578125 -4.6875zm-6.953125 -3.796875l5.6875 0l-2.859375 -8.515625l-2.828125 8.515625zm34.140625 8.484375l-4.6875 0l-9.125 -14.96875l0 14.96875l-4.6875 0l0 -22.75l4.6875 0l9.140625 15.0l0 -15.0l4.671875 0l0 22.75zm16.9375 -4.6875l-8.21875 0l-1.5625 4.6875l-4.984375 0l8.46875 -22.75l4.34375 0l8.515625 22.75l-4.984375 0l-1.578125 -4.6875zm-6.953125 -3.796875l5.6875 0l-2.859375 -8.515625l-2.828125 8.515625zm20.328125 4.71875l9.953125 0l0 3.765625l-14.640625 0l0 -22.75l4.6875 0l0 18.984375zm20.484375 -8.734375l4.734375 -10.25l5.125 0l-7.46875 14.5l0 8.25l-4.765625 0l0 -8.25l-7.46875 -14.5l5.140625 0l4.703125 10.25zm23.734375 6.53125q0 -1.328125 -0.9375 -2.03125q-0.9375 -0.71875 -3.375 -1.5q-2.4375 -0.796875 -3.859375 -1.5625q-3.875 -2.09375 -3.875 -5.640625q0 -1.84375 1.03125 -3.28125q1.046875 -1.453125 2.984375 -2.265625q1.953125 -0.8125 4.375 -0.8125q2.4375 0 4.34375 0.890625q1.90625 0.875 2.953125 2.484375q1.0625 1.609375 1.0625 3.65625l-4.6875 0q0 -1.5625 -0.984375 -2.421875q-0.984375 -0.875 -2.765625 -0.875q-1.71875 0 -2.671875 0.734375q-0.953125 0.71875 -0.953125 1.90625q0 1.109375 1.109375 1.859375q1.125 0.75 3.296875 1.40625q4.0 1.203125 5.828125 2.984375q1.828125 1.78125 1.828125 4.4375q0 2.953125 -2.234375 4.640625q-2.234375 1.671875 -6.015625 1.671875q-2.625 0 -4.78125 -0.953125q-2.15625 -0.96875 -3.296875 -2.640625q-1.125 -1.671875 -1.125 -3.875l4.703125 0q0 3.765625 4.5 3.765625q1.671875 0 2.609375 -0.671875q0.9375 -0.6875 0.9375 -1.90625zm21.5625 -3.890625l-9.0 0l0 6.09375l10.5625 0l0 3.765625l-15.25 0l0 -22.75l15.21875 0l0 3.796875l-10.53125 0l0 5.421875l9.0 0l0 3.671875z" fill-rule="nonzero"></path><path fill="#cfe2f3" d="m313.4042 132.40445l0 0c0 -72.64067 58.8869 -131.52757 131.52756 -131.52757l0 0c34.88327 0 68.33783 13.857328 93.00403 38.52353c24.666199 24.666199 38.5235 58.12075 38.5235 93.004036l0 0c0 72.640656 -58.88684 131.52756 -131.52753 131.52756l0 0c-72.640656 0 -131.52756 -58.8869 -131.52756 -131.52756z" fill-rule="evenodd"></path><path stroke="#000000" stroke-width="1.0" stroke-linejoin="round" stroke-linecap="butt" d="m313.4042 132.40445l0 0c0 -72.64067 58.8869 -131.52757 131.52756 -131.52757l0 0c34.88327 0 68.33783 13.857328 93.00403 38.52353c24.666199 24.666199 38.5235 58.12075 38.5235 93.004036l0 0c0 72.640656 -58.88684 131.52756 -131.52753 131.52756l0 0c-72.640656 0 -131.52756 -58.8869 -131.52756 -131.52756z" fill-rule="evenodd"></path><path fill="#9fc5e8" d="m363.48282 76.46744l0 0c0 -39.58186 32.087463 -71.6693 71.66931 -71.6693l0 0c19.007874 0 37.237244 7.5508504 50.677826 20.99145c13.440613 13.440598 20.991455 31.669964 20.991455 50.677845l0 0c0 39.581856 -32.087433 71.66928 -71.66928 71.66928l0 0c-39.58185 0 -71.66931 -32.087425 -71.66931 -71.66928z" fill-rule="evenodd"></path><path stroke="#000000" stroke-width="1.0" stroke-linejoin="round" stroke-linecap="butt" d="m363.48282 76.46744l0 0c0 -39.58186 32.087463 -71.6693 71.66931 -71.6693l0 0c19.007874 0 37.237244 7.5508504 50.677826 20.99145c13.440613 13.440598 20.991455 31.669964 20.991455 50.677845l0 0c0 39.581856 -32.087433 71.66928 -71.66928 71.66928l0 0c-39.58185 0 -71.66931 -32.087425 -71.66931 -71.66928z" fill-rule="evenodd"></path><path fill="#9fc5e8" d="m422.23096 198.43857l0 0c0 -30.875763 25.029755 -55.905518 55.905518 -55.905518l0 0c14.827057 0 29.046844 5.89003 39.53119 16.374344c10.484314 10.484314 16.374329 24.704102 16.374329 39.531174l0 0c0 30.875763 -25.029755 55.905502 -55.905518 55.905502l0 0c-30.875763 0 -55.905518 -25.02974 -55.905518 -55.905502z" fill-rule="evenodd"></path><path stroke="#000000" stroke-width="1.0" stroke-linejoin="round" stroke-linecap="butt" d="m422.23096 198.43857l0 0c0 -30.875763 25.029755 -55.905518 55.905518 -55.905518l0 0c14.827057 0 29.046844 5.89003 39.53119 16.374344c10.484314 10.484314 16.374329 24.704102 16.374329 39.531174l0 0c0 30.875763 -25.029755 55.905502 -55.905518 55.905502l0 0c-30.875763 0 -55.905518 -25.02974 -55.905518 -55.905502z" fill-rule="evenodd"></path><path fill="#9fc5e8" d="m334.62854 185.07104l0 0c0 -23.578644 19.114258 -42.692917 42.6929 -42.692917l0 0c11.322876 0 22.181976 4.497986 30.188477 12.504471c8.00647 8.00647 12.504456 18.865585 12.504456 30.188446l0 0c0 23.578644 -19.114288 42.692917 -42.692932 42.692917l0 0c-23.578644 0 -42.6929 -19.114273 -42.6929 -42.692917z" fill-rule="evenodd"></path><path stroke="#000000" stroke-width="1.0" stroke-linejoin="round" stroke-linecap="butt" d="m334.62854 185.07104l0 0c0 -23.578644 19.114258 -42.692917 42.6929 -42.692917l0 0c11.322876 0 22.181976 4.497986 30.188477 12.504471c8.00647 8.00647 12.504456 18.865585 12.504456 30.188446l0 0c0 23.578644 -19.114288 42.692917 -42.692932 42.692917l0 0c-23.578644 0 -42.6929 -19.114273 -42.6929 -42.692917z" fill-rule="evenodd"></path><path fill="#000000" fill-opacity="0.0" d="m379.2467 49.430687l111.811035 0l0 43.74803l-111.811035 0z" fill-rule="evenodd"></path><path fill="#000000" d="m402.1444 74.78319l0 6.6875l-2.25 0l0 -17.0625l6.296875 0q2.796875 0 4.375 1.4375q1.59375 1.421875 1.59375 3.78125q0 2.484375 -1.5625 3.828125q-1.546875 1.328125 -4.4375 1.328125l-4.015625 0zm0 -1.828125l4.046875 0q1.796875 0 2.75 -0.84375q0.96875 -0.859375 0.96875 -2.46875q0 -1.515625 -0.96875 -2.421875q-0.953125 -0.921875 -2.625 -0.96875l-4.171875 0l0 6.703125zm16.703125 5.34375l2.953125 -9.515625l2.3125 0l-5.09375 14.640625q-1.1875 3.171875 -3.765625 3.171875l-0.40625 -0.03125l-0.8125 -0.15625l0 -1.765625l0.59375 0.046875q1.09375 0 1.703125 -0.453125q0.625 -0.4375 1.015625 -1.609375l0.484375 -1.296875l-4.515625 -12.546875l2.359375 0l3.171875 9.515625zm10.136719 -12.578125l0 3.0625l2.375 0l0 1.6875l-2.375 0l0 7.859375q0 0.765625 0.3125 1.140625q0.328125 0.375 1.09375 0.375q0.375 0 1.03125 -0.140625l0 1.765625q-0.859375 0.234375 -1.671875 0.234375q-1.453125 0 -2.1875 -0.875q-0.734375 -0.890625 -0.734375 -2.5l0 -7.859375l-2.3125 0l0 -1.6875l2.3125 0l0 -3.0625l2.15625 0zm7.0742188 4.609375q1.4375 -1.78125 3.75 -1.78125q4.015625 0 4.046875 4.546875l0 8.375l-2.15625 0l0 -8.390625q-0.015625 -1.375 -0.640625 -2.03125q-0.609375 -0.65625 -1.90625 -0.65625q-1.0625 0 -1.859375 0.5625q-0.796875 0.5625 -1.234375 1.484375l0 9.03125l-2.171875 0l0 -18.0l2.171875 0l0 6.859375zm10.46875 4.6875q0 -1.875 0.734375 -3.359375q0.734375 -1.484375 2.03125 -2.296875q1.3125 -0.8125 3.0 -0.8125q2.578125 0 4.171875 1.796875q1.609375 1.796875 1.609375 4.765625l0 0.15625q0 1.859375 -0.71875 3.328125q-0.703125 1.46875 -2.015625 2.296875q-1.3125 0.8125 -3.03125 0.8125q-2.578125 0 -4.1875 -1.796875q-1.59375 -1.796875 -1.59375 -4.75l0 -0.140625zm2.1875 0.25q0 2.109375 0.96875 3.390625q0.984375 1.28125 2.625 1.28125q1.65625 0 2.625 -1.296875q0.96875 -1.296875 0.96875 -3.625q0 -2.09375 -0.984375 -3.390625q-0.984375 -1.296875 -2.625 -1.296875q-1.609375 0 -2.59375 1.28125q-0.984375 1.28125 -0.984375 3.65625zm14.125 -6.484375l0.078125 1.59375q1.453125 -1.828125 3.796875 -1.828125q4.015625 0 4.046875 4.546875l0 8.375l-2.15625 0l0 -8.390625q-0.015625 -1.375 -0.640625 -2.03125q-0.609375 -0.65625 -1.90625 -0.65625q-1.0625 0 -1.859375 0.5625q-0.796875 0.5625 -1.234375 1.484375l0 9.03125l-2.171875 0l0 -12.6875l2.046875 0z" fill-rule="nonzero"></path><path fill="#000000" fill-opacity="0.0" d="m435.79004 175.22728l84.69287 0l0 41.259842l-84.69287 0z" fill-rule="evenodd"></path><path fill="#000000" d="m461.7732 190.20477l2.265625 0l0 12.078125q0 2.453125 -1.46875 3.84375q-1.46875 1.375 -3.921875 1.375q-2.546875 0 -3.96875 -1.296875q-1.40625 -1.3125 -1.40625 -3.65625l2.25 0q0 1.46875 0.796875 2.296875q0.8125 0.8125 2.328125 0.8125q1.390625 0 2.25 -0.875q0.875 -0.875 0.875 -2.46875l0 -12.109375zm13.5859375 17.0625q-0.1875 -0.375 -0.296875 -1.34375q-1.515625 1.578125 -3.609375 1.578125q-1.875 0 -3.078125 -1.0625q-1.203125 -1.0625 -1.203125 -2.6875q0 -1.984375 1.5 -3.078125q1.515625 -1.09375 4.234375 -1.09375l2.109375 0l0 -1.0q0 -1.140625 -0.6875 -1.8125q-0.671875 -0.671875 -1.984375 -0.671875q-1.171875 0 -1.953125 0.59375q-0.78125 0.578125 -0.78125 1.40625l-2.1875 0q0 -0.9375 0.671875 -1.828125q0.6875 -0.890625 1.828125 -1.40625q1.15625 -0.515625 2.546875 -0.515625q2.1875 0 3.421875 1.109375q1.25 1.09375 1.296875 3.015625l0 5.828125q0 1.75 0.453125 2.78125l0 0.1875l-2.28125 0zm-3.59375 -1.65625q1.015625 0 1.921875 -0.515625q0.921875 -0.53125 1.328125 -1.375l0 -2.609375l-1.6875 0q-3.984375 0 -3.984375 2.328125q0 1.03125 0.671875 1.609375q0.6875 0.5625 1.75 0.5625zm13.0078125 -1.28125l3.140625 -9.75l2.21875 0l-4.546875 12.6875l-1.65625 0l-4.59375 -12.6875l2.21875 0l3.21875 9.75zm15.265625 2.9375q-0.1875 -0.375 -0.296875 -1.34375q-1.515625 1.578125 -3.609375 1.578125q-1.875 0 -3.078125 -1.0625q-1.203125 -1.0625 -1.203125 -2.6875q0 -1.984375 1.5 -3.078125q1.515625 -1.09375 4.234375 -1.09375l2.109375 0l0 -1.0q0 -1.140625 -0.6875 -1.8125q-0.671875 -0.671875 -1.984375 -0.671875q-1.171875 0 -1.953125 0.59375q-0.78125 0.578125 -0.78125 1.40625l-2.1875 0q0 -0.9375 0.671875 -1.828125q0.6875 -0.890625 1.828125 -1.40625q1.15625 -0.515625 2.546875 -0.515625q2.1875 0 3.421875 1.109375q1.25 1.09375 1.296875 3.015625l0 5.828125q0 1.75 0.453125 2.78125l0 0.1875l-2.28125 0zm-3.59375 -1.65625q1.015625 0 1.921875 -0.515625q0.921875 -0.53125 1.328125 -1.375l0 -2.609375l-1.6875 0q-3.984375 0 -3.984375 2.328125q0 1.03125 0.671875 1.609375q0.6875 0.5625 1.75 0.5625z" fill-rule="nonzero"></path><path fill="#9fc5e8" d="m498.6509 123.147224l0 0c0 -20.343216 16.491425 -36.83465 36.834625 -36.83465l0 0c9.769165 0 19.138245 3.880783 26.046082 10.78862c6.907837 6.907837 10.788574 16.27687 10.788574 26.046028l0 0c0 20.343208 -16.491394 36.83465 -36.834656 36.83465l0 0c-20.3432 0 -36.834625 -16.49144 -36.834625 -36.83465z" fill-rule="evenodd"></path><path stroke="#000000" stroke-width="1.0" stroke-linejoin="round" stroke-linecap="butt" d="m498.6509 123.147224l0 0c0 -20.343216 16.491425 -36.83465 36.834625 -36.83465l0 0c9.769165 0 19.138245 3.880783 26.046082 10.78862c6.907837 6.907837 10.788574 16.27687 10.788574 26.046028l0 0c0 20.343208 -16.491394 36.83465 -36.834656 36.83465l0 0c-20.3432 0 -36.834625 -16.49144 -36.834625 -36.83465z" fill-rule="evenodd"></path><path fill="#000000" fill-opacity="0.0" d="m490.60367 93.17872l89.76376 0l0 59.937004l-89.76376 0z" fill-rule="evenodd"></path><path fill="#000000" d="m522.05963 120.09872l-1.796875 0l0 -6.25l-6.8125 0l0 6.25l-1.78125 0l0 -13.515625l1.78125 0l0 5.8125l6.8125 0l0 -5.8125l1.796875 0l0 13.515625zm12.252991 -12.046875l-4.34375 0l0 12.046875l-1.78125 0l0 -12.046875l-4.328125 0l0 -1.46875l10.453125 0l0 1.46875zm4.100525 -1.46875l4.40625 11.03125l4.421875 -11.03125l2.3125 0l0 13.515625l-1.78125 0l0 -5.265625l0.15625 -5.671875l-4.421875 10.9375l-1.375 0l-4.421875 -10.90625l0.171875 5.640625l0 5.265625l-1.78125 0l0 -13.515625l2.3125 0zm15.772156 12.0625l6.40625 0l0 1.453125l-8.203125 0l0 -13.515625l1.796875 0l0 12.0625z" fill-rule="nonzero"></path><path fill="#000000" d="m511.1761 138.47372q0 -0.984375 0.53125 -1.796875q0.546875 -0.8125 2.078125 -1.890625q-0.890625 -1.109375 -1.203125 -1.765625q-0.296875 -0.671875 -0.296875 -1.328125q0 -1.546875 0.90625 -2.40625q0.90625 -0.875 2.46875 -0.875q1.390625 0 2.296875 0.8125q0.90625 0.8125 0.90625 2.03125q0 0.828125 -0.421875 1.515625q-0.40625 0.6875 -1.4375 1.453125l-0.984375 0.734375l3.0 3.59375q0.640625 -1.21875 0.640625 -2.6875l1.546875 0q0 2.359375 -1.140625 3.921875l1.921875 2.3125l-2.0625 0l-0.890625 -1.0625q-0.6875 0.609375 -1.609375 0.9375q-0.921875 0.3125 -1.875 0.3125q-1.984375 0 -3.1875 -1.046875q-1.1875 -1.046875 -1.1875 -2.765625zm4.375 2.40625q1.359375 0 2.484375 -1.03125l-3.28125 -3.953125l-0.3125 0.234375q-1.546875 1.140625 -1.546875 2.34375q0 1.09375 0.703125 1.75q0.71875 0.65625 1.953125 0.65625zm-1.5625 -9.25q0 0.890625 1.109375 2.234375l1.09375 -0.78125q0.625 -0.4375 0.859375 -0.84375q0.234375 -0.40625 0.234375 -0.984375q0 -0.609375 -0.46875 -1.015625q-0.46875 -0.421875 -1.171875 -0.421875q-0.765625 0 -1.21875 0.515625q-0.4375 0.515625 -0.4375 1.296875zm23.964905 6.1875q-0.25 2.140625 -1.578125 3.3125q-1.328125 1.15625 -3.53125 1.15625q-2.40625 0 -3.84375 -1.71875q-1.4375 -1.71875 -1.4375 -4.59375l0 -1.296875q0 -1.890625 0.671875 -3.3125q0.671875 -1.421875 1.90625 -2.1875q1.234375 -0.765625 2.859375 -0.765625q2.140625 0 3.4375 1.203125q1.3125 1.1875 1.515625 3.3125l-1.78125 0q-0.234375 -1.609375 -1.015625 -2.328125q-0.765625 -0.734375 -2.15625 -0.734375q-1.71875 0 -2.6875 1.265625q-0.96875 1.265625 -0.96875 3.59375l0 1.3125q0 2.1875 0.921875 3.5q0.921875 1.296875 2.578125 1.296875q1.484375 0 2.265625 -0.671875q0.796875 -0.671875 1.0625 -2.34375l1.78125 0zm6.1898193 -1.734375q-2.296875 -0.671875 -3.34375 -1.625q-1.03125 -0.953125 -1.03125 -2.375q0 -1.59375 1.265625 -2.625q1.28125 -1.046875 3.328125 -1.046875q1.390625 0 2.46875 0.53125q1.09375 0.53125 1.6875 1.484375q0.609375 0.953125 0.609375 2.0625l-1.796875 0q0 -1.21875 -0.78125 -1.921875q-0.765625 -0.703125 -2.1875 -0.703125q-1.328125 0 -2.0625 0.59375q-0.734375 0.578125 -0.734375 1.609375q0 0.8125 0.703125 1.390625q0.703125 0.5625 2.375 1.046875q1.6875 0.46875 2.640625 1.046875q0.953125 0.5625 1.40625 1.328125q0.46875 0.75 0.46875 1.78125q0 1.640625 -1.28125 2.640625q-1.28125 0.984375 -3.421875 0.984375q-1.390625 0 -2.609375 -0.53125q-1.203125 -0.53125 -1.859375 -1.453125q-0.640625 -0.9375 -0.640625 -2.125l1.78125 0q0 1.234375 0.90625 1.953125q0.90625 0.703125 2.421875 0.703125q1.40625 0 2.15625 -0.578125q0.75 -0.578125 0.75 -1.5625q0 -1.0 -0.703125 -1.546875q-0.6875 -0.546875 -2.515625 -1.0625zm11.068054 0q-2.296875 -0.671875 -3.34375 -1.625q-1.03125 -0.953125 -1.03125 -2.375q0 -1.59375 1.265625 -2.625q1.28125 -1.046875 3.328125 -1.046875q1.390625 0 2.46875 0.53125q1.09375 0.53125 1.6875 1.484375q0.609375 0.953125 0.609375 2.0625l-1.796875 0q0 -1.21875 -0.78125 -1.921875q-0.765625 -0.703125 -2.1875 -0.703125q-1.328125 0 -2.0625 0.59375q-0.734375 0.578125 -0.734375 1.609375q0 0.8125 0.703125 1.390625q0.703125 0.5625 2.375 1.046875q1.6875 0.46875 2.640625 1.046875q0.953125 0.5625 1.40625 1.328125q0.46875 0.75 0.46875 1.78125q0 1.640625 -1.28125 2.640625q-1.28125 0.984375 -3.421875 0.984375q-1.390625 0 -2.609375 -0.53125q-1.203125 -0.53125 -1.859375 -1.453125q-0.640625 -0.9375 -0.640625 -2.125l1.78125 0q0 1.234375 0.90625 1.953125q0.90625 0.703125 2.421875 0.703125q1.40625 0 2.15625 -0.578125q0.75 -0.578125 0.75 -1.5625q0 -1.0 -0.703125 -1.546875q-0.6875 -0.546875 -2.515625 -1.0625z" fill-rule="nonzero"></path><path fill="#9fc5e8" d="m317.1391 120.483185l0 0c0 -15.507462 12.571289 -28.078743 28.078766 -28.078743l0 0c7.44693 0 14.588867 2.95829 19.854645 8.224075c5.265808 5.265785 8.224091 12.407722 8.224091 19.854668l0 0c0 15.507462 -12.571289 28.078735 -28.078735 28.078735l0 0c-15.507477 0 -28.078766 -12.571274 -28.078766 -28.078735z" fill-rule="evenodd"></path><path stroke="#000000" stroke-width="1.0" stroke-linejoin="round" stroke-linecap="butt" d="m317.1391 120.483185l0 0c0 -15.507462 12.571289 -28.078743 28.078766 -28.078743l0 0c7.44693 0 14.588867 2.95829 19.854645 8.224075c5.265808 5.265785 8.224091 12.407722 8.224091 19.854668l0 0c0 15.507462 -12.571289 28.078735 -28.078735 28.078735l0 0c-15.507477 0 -28.078766 -12.571274 -28.078766 -28.078735z" fill-rule="evenodd"></path><path fill="#000000" fill-opacity="0.0" d="m340.48557 160.47531l73.66928 0l0 41.259842l-73.66928 0z" fill-rule="evenodd"></path><path fill="#000000" d="m370.43546 187.09343q-0.3125 2.71875 -2.0 4.1875q-1.671875 1.46875 -4.46875 1.46875q-3.015625 0 -4.84375 -2.171875q-1.828125 -2.171875 -1.828125 -5.796875l0 -1.640625q0 -2.375 0.84375 -4.171875q0.859375 -1.8125 2.421875 -2.78125q1.5625 -0.96875 3.609375 -0.96875q2.71875 0 4.359375 1.515625q1.640625 1.515625 1.90625 4.203125l-2.265625 0q-0.28125 -2.046875 -1.265625 -2.953125q-0.984375 -0.921875 -2.734375 -0.921875q-2.15625 0 -3.390625 1.59375q-1.21875 1.59375 -1.21875 4.546875l0 1.640625q0 2.78125 1.15625 4.421875q1.171875 1.640625 3.25 1.640625q1.875 0 2.875 -0.84375q1.0 -0.859375 1.328125 -2.96875l2.265625 0zm8.949219 -3.734375l4.75 0l0 2.046875l-4.75 0l0 5.390625l-2.1875 0l0 -5.390625l-4.75 0l0 -2.046875l4.75 0l0 -4.984375l2.1875 0l0 4.984375zm13.605469 0l4.75 0l0 2.046875l-4.75 0l0 5.390625l-2.1875 0l0 -5.390625l-4.75 0l0 -2.046875l4.75 0l0 -4.984375l2.1875 0l0 4.984375z" fill-rule="nonzero"></path><path fill="#000000" fill-opacity="0.0" d="m317.1391 95.974l56.1575 0l0 41.259842l-56.1575 0z" fill-rule="evenodd"></path><path fill="#000000" d="m340.6026 110.9515l2.265625 0l0 12.078125q0 2.453125 -1.46875 3.84375q-1.46875 1.3749924 -3.921875 1.3749924q-2.546875 0 -3.96875 -1.2968674q-1.40625 -1.3125 -1.40625 -3.65625l2.25 0q0 1.46875 0.796875 2.296875q0.8125 0.8125 2.328125 0.8125q1.390625 0 2.25 -0.875q0.875 -0.875 0.875 -2.46875l0 -12.109375zm11.132843 9.453125q-2.9062805 -0.828125 -4.2187805 -2.03125q-1.3125 -1.21875 -1.3125 -3.0q0 -2.015625 1.609375 -3.328125q1.6094055 -1.328125 4.1875305 -1.328125q1.75 0 3.125 0.6875q1.390625 0.671875 2.140625 1.875q0.75 1.1875 0.75 2.609375l-2.25 0q0 -1.546875 -0.984375 -2.4375q-0.984375 -0.890625 -2.78125 -0.890625q-1.671875 0 -2.609375 0.734375q-0.9219055 0.734375 -0.9219055 2.03125q0 1.046875 0.8750305 1.765625q0.890625 0.71875 3.015625 1.328125q2.140625 0.59375 3.328125 1.3125q1.203125 0.71875 1.78125 1.6875q0.59375 0.953125 0.59375 2.25q0 2.078125 -1.625 3.328125q-1.609375 1.2499924 -4.328125 1.2499924q-1.75 0 -3.2812805 -0.6718674q-1.515625 -0.671875 -2.34375 -1.84375q-0.828125 -1.171875 -0.828125 -2.671875l2.265625 0q0 1.546875 1.140625 2.453125q1.1406555 0.890625 3.0469055 0.890625q1.78125 0 2.734375 -0.71875q0.953125 -0.734375 0.953125 -1.984375q0 -1.25 -0.890625 -1.9375q-0.875 -0.6875 -3.171875 -1.359375z" fill-rule="nonzero"></path><path fill="#000000" fill-opacity="0.0" d="m345.99893 97.808105l180.06302 0l0 73.6693l-180.06302 0z" fill-rule="evenodd"></path><path fill="#000000" d="m369.17105 146.36275l0 -22.749992l7.0 0q3.0 0 5.359375 1.359375q2.375 1.34375 3.703125 3.8437424q1.328125 2.484375 1.328125 5.65625l0 1.046875q0 3.171875 -1.3125 5.640625q-1.296875 2.46875 -3.671875 3.828125q-2.375 1.359375 -5.359375 1.375l-7.046875 0zm4.6875 -18.953117l0 15.187492l2.265625 0q2.75 0 4.203125 -1.796875q1.453125 -1.796875 1.484375 -5.140625l0 -1.203125q0 -3.46875 -1.4375 -5.25q-1.4375 -1.7968674 -4.203125 -1.7968674l-2.3125 0zm29.796875 9.093742l-9.0 0l0 6.09375l10.5625 0l0 3.765625l-15.25 0l0 -22.749992l15.21875 0l0 3.796875l-10.53125 0l0 5.4218674l9.0 0l0 3.671875zm12.71875 4.21875l5.15625 -17.109367l5.21875 0l-7.921875 22.749992l-4.890625 0l-7.890625 -22.749992l5.203125 0l5.125 17.109367zm26.203125 -4.21875l-9.0 0l0 6.09375l10.5625 0l0 3.765625l-15.25 0l0 -22.749992l15.21875 0l0 3.796875l-10.53125 0l0 5.4218674l9.0 0l0 3.671875zm9.0 6.09375l9.953125 0l0 3.765625l-14.640625 0l0 -22.749992l4.6875 0l0 18.984367zm31.328125 -7.09375q0 3.359375 -1.1875 5.890625q-1.1875 2.53125 -3.40625 3.90625q-2.203125 1.375 -5.0625 1.375q-2.828125 0 -5.046875 -1.359375q-2.21875 -1.359375 -3.4375 -3.875q-1.21875 -2.53125 -1.234375 -5.8125l0 -1.125q0 -3.359375 1.203125 -5.90625q1.21875 -2.5624924 3.421875 -3.9218674q2.21875 -1.375 5.0625 -1.375q2.84375 0 5.046875 1.375q2.21875 1.359375 3.421875 3.9218674q1.21875 2.546875 1.21875 5.890625l0 1.015625zm-4.75 -1.03125q0 -3.578125 -1.28125 -5.4375q-1.28125 -1.8593674 -3.65625 -1.8593674q-2.359375 0 -3.640625 1.8437424q-1.28125 1.828125 -1.296875 5.375l0 1.109375q0 3.484375 1.28125 5.40625q1.28125 1.921875 3.6875 1.921875q2.359375 0 3.625 -1.84375q1.265625 -1.859375 1.28125 -5.40625l0 -1.109375zm12.84375 3.875l0 8.015625l-4.6875 0l0 -22.749992l8.875 0q2.5625 0 4.5 0.9375q1.953125 0.9375 3.0 2.671875q1.046875 1.7187424 1.046875 3.9218674q0 3.34375 -2.296875 5.28125q-2.28125 1.921875 -6.328125 1.921875l-4.109375 0zm0 -3.796875l4.1875 0q1.859375 0 2.828125 -0.875q0.984375 -0.875 0.984375 -2.5q0 -1.671875 -0.984375 -2.703125q-0.984375 -1.0312424 -2.71875 -1.0624924l-4.296875 0l0 7.1406174z" fill-rule="nonzero"></path><path fill="#000000" fill-opacity="0.0" d="m345.12073 96.92991l180.06299 0l0 73.66929l-180.06299 0z" fill-rule="evenodd"></path><path fill="#ffffff" d="m368.29285 145.48456l0 -22.75l7.0 0q3.0 0 5.359375 1.359375q2.375 1.34375 3.703125 3.84375q1.328125 2.484375 1.328125 5.65625l0 1.046875q0 3.171875 -1.3125 5.640625q-1.296875 2.46875 -3.671875 3.828125q-2.375 1.359375 -5.359375 1.375l-7.046875 0zm4.6875 -18.953125l0 15.1875l2.265625 0q2.75 0 4.203125 -1.796875q1.453125 -1.796875 1.484375 -5.140625l0 -1.203125q0 -3.46875 -1.4375 -5.25q-1.4375 -1.796875 -4.203125 -1.796875l-2.3125 0zm29.796875 9.09375l-9.0 0l0 6.09375l10.5625 0l0 3.765625l-15.25 0l0 -22.75l15.21875 0l0 3.796875l-10.53125 0l0 5.421875l9.0 0l0 3.671875zm12.71875 4.21875l5.15625 -17.109375l5.21875 0l-7.921875 22.75l-4.890625 0l-7.890625 -22.75l5.203125 0l5.125 17.109375zm26.203125 -4.21875l-9.0 0l0 6.09375l10.5625 0l0 3.765625l-15.25 0l0 -22.75l15.21875 0l0 3.796875l-10.53125 0l0 5.421875l9.0 0l0 3.671875zm9.0 6.09375l9.953125 0l0 3.765625l-14.640625 0l0 -22.75l4.6875 0l0 18.984375zm31.328125 -7.09375q0 3.359375 -1.1875 5.890625q-1.1875 2.53125 -3.40625 3.90625q-2.203125 1.375 -5.0625 1.375q-2.828125 0 -5.046875 -1.359375q-2.21875 -1.359375 -3.4375 -3.875q-1.21875 -2.53125 -1.234375 -5.8125l0 -1.125q0 -3.359375 1.203125 -5.90625q1.21875 -2.5625 3.421875 -3.921875q2.21875 -1.375 5.0625 -1.375q2.84375 0 5.046875 1.375q2.21875 1.359375 3.421875 3.921875q1.21875 2.546875 1.21875 5.890625l0 1.015625zm-4.75 -1.03125q0 -3.578125 -1.28125 -5.4375q-1.28125 -1.859375 -3.65625 -1.859375q-2.359375 0 -3.640625 1.84375q-1.28125 1.828125 -1.296875 5.375l0 1.109375q0 3.484375 1.28125 5.40625q1.28125 1.921875 3.6875 1.921875q2.359375 0 3.625 -1.84375q1.265625 -1.859375 1.28125 -5.40625l0 -1.109375zm12.84375 3.875l0 8.015625l-4.6875 0l0 -22.75l8.875 0q2.5625 0 4.5 0.9375q1.953125 0.9375 3.0 2.671875q1.046875 1.71875 1.046875 3.921875q0 3.34375 -2.296875 5.28125q-2.28125 1.921875 -6.328125 1.921875l-4.109375 0zm0 -3.796875l4.1875 0q1.859375 0 2.828125 -0.875q0.984375 -0.875 0.984375 -2.5q0 -1.671875 -0.984375 -2.703125q-0.984375 -1.03125 -2.71875 -1.0625l-4.296875 0l0 7.140625z" fill-rule="nonzero"></path><path fill="#f4cccc" d="m1.7563906 435.12573l0 0c0 -67.58746 54.790478 -122.37793 122.37795 -122.37793l0 0c32.456642 0 63.58396 12.893341 86.53428 35.84366c22.950317 22.950317 35.843674 54.077637 35.843674 86.53427l0 0c0 67.587494 -54.79048 122.37799 -122.37795 122.37799l0 0c-67.58748 0 -122.37795 -54.790497 -122.37795 -122.37799z" fill-rule="evenodd"></path><path stroke="#000000" stroke-width="1.0" stroke-linejoin="round" stroke-linecap="butt" d="m1.7563906 435.12573l0 0c0 -67.58746 54.790478 -122.37793 122.37795 -122.37793l0 0c32.456642 0 63.58396 12.893341 86.53428 35.84366c22.950317 22.950317 35.843674 54.077637 35.843674 86.53427l0 0c0 67.587494 -54.79048 122.37799 -122.37795 122.37799l0 0c-67.58748 0 -122.37795 -54.790497 -122.37795 -122.37799z" fill-rule="evenodd"></path><path fill="#ea9999" d="m27.449305 387.8764l0 0c0 -29.614655 24.007406 -53.62204 53.622047 -53.62204l0 0c14.221451 0 27.860428 5.6494446 37.91651 15.705536c10.056084 10.056061 15.7055435 23.695038 15.7055435 37.916504l0 0c0 29.614624 -24.007416 53.62204 -53.622055 53.62204l0 0c-29.61464 0 -53.622047 -24.007416 -53.622047 -53.62204z" fill-rule="evenodd"></path><path stroke="#000000" stroke-width="1.0" stroke-linejoin="round" stroke-linecap="butt" d="m27.449305 387.8764l0 0c0 -29.614655 24.007406 -53.62204 53.622047 -53.62204l0 0c14.221451 0 27.860428 5.6494446 37.91651 15.705536c10.056084 10.056061 15.7055435 23.695038 15.7055435 37.916504l0 0c0 29.614624 -24.007416 53.62204 -53.622055 53.62204l0 0c-29.61464 0 -53.622047 -24.007416 -53.622047 -53.62204z" fill-rule="evenodd"></path><path fill="#ea9999" d="m134.69603 376.2176l0 0c0 -23.387299 18.959152 -42.346436 42.34645 -42.346436l0 0c11.230972 0 22.001968 4.461487 29.943466 12.402985c7.941498 7.941498 12.402985 18.712494 12.402985 29.94345l0 0c0 23.38733 -18.959152 42.346466 -42.34645 42.346466l0 0c-23.387299 0 -42.34645 -18.959137 -42.34645 -42.346466z" fill-rule="evenodd"></path><path stroke="#000000" stroke-width="1.0" stroke-linejoin="round" stroke-linecap="butt" d="m134.69603 376.2176l0 0c0 -23.387299 18.959152 -42.346436 42.34645 -42.346436l0 0c11.230972 0 22.001968 4.461487 29.943466 12.402985c7.941498 7.941498 12.402985 18.712494 12.402985 29.94345l0 0c0 23.38733 -18.959152 42.346466 -42.34645 42.346466l0 0c-23.387299 0 -42.34645 -18.959137 -42.34645 -42.346466z" fill-rule="evenodd"></path><path fill="#ea9999" d="m87.57004 483.33835l0 0c0 -36.39862 29.506905 -65.90552 65.90552 -65.90552l0 0c17.479218 0 34.242554 6.9436035 46.602234 19.303284c12.35968 12.35968 19.303268 29.122986 19.303268 46.602234l0 0c0 36.39859 -29.506897 65.90549 -65.9055 65.90549l0 0c-36.398613 0 -65.90552 -29.506897 -65.90552 -65.90549z" fill-rule="evenodd"></path><path stroke="#000000" stroke-width="1.0" stroke-linejoin="round" stroke-linecap="butt" d="m87.57004 483.33835l0 0c0 -36.39862 29.506905 -65.90552 65.90552 -65.90552l0 0c17.479218 0 34.242554 6.9436035 46.602234 19.303284c12.35968 12.35968 19.303268 29.122986 19.303268 46.602234l0 0c0 36.39859 -29.506897 65.90549 -65.9055 65.90549l0 0c-36.398613 0 -65.90552 -29.506897 -65.90552 -65.90549z" fill-rule="evenodd"></path><path fill="#000000" fill-opacity="0.0" d="m110.78264 462.7084l85.38582 0l0 41.259857l-85.38582 0z" fill-rule="evenodd"></path><path fill="#000000" d="m129.17282 492.90466l8.078125 0l0 1.84375l-10.343758 0l0 -17.0625l2.2656326 0l0 15.21875zm12.6640625 1.84375l-2.171875 0l0 -12.6875l2.171875 0l0 12.6875zm-2.34375 -16.046875q0 -0.53125 0.3125 -0.890625q0.328125 -0.359375 0.953125 -0.359375q0.640625 0 0.96875 0.359375q0.328125 0.359375 0.328125 0.890625q0 0.53125 -0.328125 0.890625q-0.328125 0.34375 -0.96875 0.34375q-0.625 0 -0.953125 -0.34375q-0.3125 -0.359375 -0.3125 -0.890625zm7.8554688 3.359375l0.078125 1.59375q1.453125 -1.828125 3.796875 -1.828125q4.015625 0 4.046875 4.546875l0 8.375l-2.15625 0l0 -8.390625q-0.015625 -1.375 -0.640625 -2.03125q-0.609375 -0.65625 -1.90625 -0.65625q-1.0625 0 -1.859375 0.5625q-0.796875 0.5625 -1.234375 1.484375l0 9.03125l-2.171875 0l0 -12.6875l2.046875 0zm19.023438 11.4375q-1.265625 1.484375 -3.71875 1.484375q-2.015625 0 -3.078125 -1.171875q-1.0625 -1.1875 -1.078125 -3.5l0 -8.25l2.171875 0l0 8.203125q0 2.875 2.34375 2.875q2.484375 0 3.296875 -1.84375l0 -9.234375l2.171875 0l0 12.6875l-2.0625 0l-0.046875 -1.25zm9.652344 -6.796875l2.8125 -4.640625l2.53125 0l-4.140625 6.28125l4.28125 6.40625l-2.515625 0l-2.921875 -4.75l-2.9375 4.75l-2.515625 0l4.28125 -6.40625l-4.15625 -6.28125l2.515625 0l2.765625 4.640625z" fill-rule="nonzero"></path><path fill="#000000" fill-opacity="0.0" d="m147.21571 352.80936l59.653534 0l0 41.259857l-59.653534 0z" fill-rule="evenodd"></path><path fill="#000000" d="m162.76123 384.84937l-2.171875 0l0 -12.6875l2.171875 0l0 12.6875zm-2.34375 -16.046875q0 -0.53125 0.3125 -0.890625q0.328125 -0.359375 0.953125 -0.359375q0.640625 0 0.96875 0.359375q0.328125 0.359375 0.328125 0.890625q0 0.53125 -0.328125 0.890625q-0.328125 0.34375 -0.96875 0.34375q-0.625 0 -0.953125 -0.34375q-0.3125 -0.359375 -0.3125 -0.890625zm19.277344 8.0625q0 2.515625 -0.84375 4.390625q-0.84375 1.859375 -2.390625 2.84375q-1.546875 0.984375 -3.609375 0.984375q-2.015625 0 -3.578125 -0.984375q-1.5625 -1.0 -2.421875 -2.828125q-0.859375 -1.84375 -0.875 -4.25l0 -1.234375q0 -2.453125 0.84375 -4.34375q0.859375 -1.890625 2.421875 -2.890625q1.5625 -1.0 3.578125 -1.0q2.0625 0 3.625 1.0q1.5625 0.984375 2.40625 2.859375q0.84375 1.875 0.84375 4.375l0 1.078125zm-2.234375 -1.09375q0 -3.046875 -1.21875 -4.65625q-1.21875 -1.625 -3.421875 -1.625q-2.125 0 -3.359375 1.625q-1.21875 1.609375 -1.25 4.5l0 1.25q0 2.9375 1.234375 4.625q1.234375 1.6875 3.40625 1.6875q2.171875 0 3.359375 -1.59375q1.203125 -1.59375 1.25 -4.546875l0 -1.265625zm10.640625 1.46875q-2.90625 -0.828125 -4.21875 -2.03125q-1.3125 -1.21875 -1.3125 -3.0q0 -2.015625 1.609375 -3.328125q1.609375 -1.328125 4.1875 -1.328125q1.75 0 3.125 0.6875q1.390625 0.671875 2.140625 1.875q0.75 1.1875 0.75 2.609375l-2.25 0q0 -1.546875 -0.984375 -2.4375q-0.984375 -0.890625 -2.78125 -0.890625q-1.671875 0 -2.609375 0.734375q-0.921875 0.734375 -0.921875 2.03125q0 1.046875 0.875 1.765625q0.890625 0.71875 3.015625 1.328125q2.140625 0.59375 3.328125 1.3125q1.203125 0.71875 1.78125 1.6875q0.59375 0.953125 0.59375 2.25q0 2.078125 -1.625 3.328125q-1.609375 1.25 -4.328125 1.25q-1.75 0 -3.28125 -0.671875q-1.515625 -0.671875 -2.34375 -1.84375q-0.828125 -1.171875 -0.828125 -2.671875l2.265625 0q0 1.546875 1.140625 2.453125q1.140625 0.890625 3.046875 0.890625q1.78125 0 2.734375 -0.71875q0.953125 -0.734375 0.953125 -1.984375q0 -1.25 -0.890625 -1.9375q-0.875 -0.6875 -3.171875 -1.359375z" fill-rule="nonzero"></path><path fill="#000000" fill-opacity="0.0" d="m26.341692 362.224l107.244095 0l0 38.015747l-107.244095 0z" fill-rule="evenodd"></path><path fill="#000000" d="m49.56921 389.81088l-7.15625 0l-1.59375 4.453125l-2.328125 0l6.515625 -17.0625l1.96875 0l6.53125 17.0625l-2.3125 0l-1.625 -4.453125zm-6.46875 -1.859375l5.796875 0l-2.90625 -7.96875l-2.890625 7.96875zm14.40625 -6.375l0.078125 1.59375q1.453125 -1.828125 3.796875 -1.828125q4.015621 0 4.046871 4.546875l0 8.375l-2.1562462 0l0 -8.390625q-0.015625 -1.375 -0.640625 -2.03125q-0.609375 -0.65625 -1.90625 -0.65625q-1.0625 0 -1.859375 0.5625q-0.796875 0.5625 -1.234375 1.484375l0 9.03125l-2.171875 0l0 -12.6875l2.046875 0zm10.664059 6.234375q0 -2.90625 1.375 -4.6875q1.390625 -1.78125 3.640625 -1.78125q2.21875 0 3.515625 1.53125l0 -6.609375l2.171875 0l0 18.0l-1.984375 0l-0.109375 -1.359375q-1.296875 1.59375 -3.625 1.59375q-2.203125 0 -3.59375 -1.796875q-1.390625 -1.8125 -1.390625 -4.71875l0 -0.171875zm2.171875 0.25q0 2.15625 0.890625 3.375q0.890625 1.21875 2.46875 1.21875q2.0625 0 3.0 -1.84375l0 -5.828125q-0.96875 -1.796875 -2.984375 -1.796875q-1.59375 0 -2.484375 1.234375q-0.890625 1.234375 -0.890625 3.640625zm18.019531 -4.53125q-0.484375 -0.078125 -1.0625 -0.078125q-2.125 0 -2.890625 1.8125l0 9.0l-2.171875 0l0 -12.6875l2.109375 0l0.03125 1.46875q1.078125 -1.703125 3.03125 -1.703125q0.625 0 0.953125 0.171875l0 2.015625zm1.4179688 4.28125q0 -1.875 0.734375 -3.359375q0.734375 -1.484375 2.03125 -2.296875q1.3125 -0.8125 3.0 -0.8125q2.578125 0 4.171875 1.796875q1.609375 1.796875 1.609375 4.765625l0 0.15625q0 1.859375 -0.71875 3.328125q-0.703125 1.46875 -2.015625 2.296875q-1.3125 0.8125 -3.03125 0.8125q-2.578125 0 -4.1875 -1.796875q-1.59375 -1.796875 -1.59375 -4.75l0 -0.140625zm2.1875 0.25q0 2.109375 0.96875 3.390625q0.984375 1.28125 2.625 1.28125q1.65625 0 2.625 -1.296875q0.96875 -1.296875 0.96875 -3.625q0 -2.09375 -0.984375 -3.390625q-0.984375 -1.296875 -2.625 -1.296875q-1.609375 0 -2.59375 1.28125q-0.984375 1.28125 -0.984375 3.65625zm14.4375 6.203125l-2.171875 0l0 -12.6875l2.171875 0l0 12.6875zm-2.34375 -16.046875q0 -0.53125 0.3125 -0.890625q0.328125 -0.359375 0.953125 -0.359375q0.640625 0 0.96875 0.359375q0.328125 0.359375 0.328125 0.890625q0 0.53125 -0.328125 0.890625q-0.328125 0.34375 -0.96875 0.34375q-0.625 0 -0.953125 -0.34375q-0.3125 -0.359375 -0.3125 -0.890625zm5.2773438 9.59375q0 -2.90625 1.375 -4.6875q1.390625 -1.78125 3.640625 -1.78125q2.21875 0 3.515625 1.53125l0 -6.609375l2.171875 0l0 18.0l-1.984375 0l-0.109375 -1.359375q-1.296875 1.59375 -3.625 1.59375q-2.203125 0 -3.59375 -1.796875q-1.390625 -1.8125 -1.390625 -4.71875l0 -0.171875zm2.171875 0.25q0 2.15625 0.890625 3.375q0.890625 1.21875 2.46875 1.21875q2.0625 0 3.0 -1.84375l0 -5.828125q-0.96875 -1.796875 -2.984375 -1.796875q-1.59375 0 -2.484375 1.234375q-0.890625 1.234375 -0.890625 3.640625z" fill-rule="nonzero"></path><path fill="#ea9999" d="m15.055603 474.47482l0 0c0 -19.838776 16.082497 -35.921265 35.92126 -35.921265l0 0c9.526909 0 18.663624 3.784546 25.400166 10.521088c6.7365417 6.7365417 10.521095 15.8732605 10.521095 25.400177l0 0c0 19.838776 -16.082497 35.921265 -35.92126 35.921265l0 0c-19.838764 0 -35.92126 -16.082489 -35.92126 -35.921265z" fill-rule="evenodd"></path><path stroke="#000000" stroke-width="1.0" stroke-linejoin="round" stroke-linecap="butt" d="m15.055603 474.47482l0 0c0 -19.838776 16.082497 -35.921265 35.92126 -35.921265l0 0c9.526909 0 18.663624 3.784546 25.400166 10.521088c6.7365417 6.7365417 10.521095 15.8732605 10.521095 25.400177l0 0c0 19.838776 -16.082497 35.921265 -35.92126 35.921265l0 0c-19.838764 0 -35.92126 -16.082489 -35.92126 -35.921265z" fill-rule="evenodd"></path><path fill="#000000" fill-opacity="0.0" d="m13.947991 450.48795l71.84252 0l0 43.748047l-71.84252 0z" fill-rule="evenodd"></path><path fill="#000000" d="m31.789173 477.15295l0.328125 2.25l0.484375 -2.03125l3.375 -11.90625l1.90625 0l3.28125 11.90625l0.46875 2.0625l0.375 -2.296875l2.640625 -11.671875l2.2656212 0l-4.140621 17.0625l-2.046875 0l-3.515625 -12.4375l-0.265625 -1.296875l-0.28125 1.296875l-3.640625 12.4375l-2.046875 0l-4.125 -17.0625l2.25 0l2.6875 11.6875zm22.542965 5.609375q-2.578125 0 -4.203125 -1.6875q-1.609375 -1.703125 -1.609375 -4.53125l0 -0.40625q0 -1.890625 0.71875 -3.359375q0.71875 -1.484375 2.015625 -2.328125q1.296875 -0.84375 2.8125 -0.84375q2.46875 0 3.828125 1.640625q1.375 1.625 1.375 4.65625l0 0.90625l-8.578125 0q0.046875 1.875 1.09375 3.03125q1.046875 1.15625 2.65625 1.15625q1.15625 0 1.953125 -0.46875q0.796875 -0.46875 1.390625 -1.25l1.328125 1.03125q-1.59375 2.453125 -4.78125 2.453125zm-0.265625 -11.375q-1.3125 0 -2.203125 0.96875q-0.890625 0.953125 -1.109375 2.671875l6.359375 0l0 -0.171875q-0.09375 -1.640625 -0.890625 -2.546875q-0.796875 -0.921875 -2.15625 -0.921875zm18.449219 4.9375q0 2.90625 -1.34375 4.671875q-1.328125 1.765625 -3.578125 1.765625q-2.40625 0 -3.71875 -1.703125l-0.09375 1.46875l-2.0 0l0 -18.0l2.171875 0l0 6.71875q1.3125 -1.640625 3.609375 -1.640625q2.3125 0 3.625 1.75q1.328125 1.75 1.328125 4.78125l0 0.1875zm-2.171875 -0.25q0 -2.203125 -0.859375 -3.40625q-0.84375 -1.21875 -2.453125 -1.21875q-2.140625 0 -3.078125 2.0l0 5.484375q1.0 1.984375 3.109375 1.984375q1.546875 0 2.40625 -1.203125q0.875 -1.203125 0.875 -3.640625z" fill-rule="nonzero"></path><path fill="#000000" fill-opacity="0.0" d="m38.067657 407.65723l173.88977 0l0 56.1575l-173.88977 0z" fill-rule="evenodd"></path><path fill="#000000" d="m67.72348 447.45596l0 -22.75l7.0 0q3.0 0 5.359375 1.359375q2.375 1.34375 3.703125 3.84375q1.328125 2.484375 1.328125 5.65625l0 1.046875q0 3.171875 -1.3125 5.640625q-1.296875 2.46875 -3.671875 3.828125q-2.375 1.359375 -5.359375 1.375l-7.046875 0zm4.6875 -18.953125l0 15.1875l2.265625 0q2.75 0 4.203125 -1.796875q1.453125 -1.796875 1.484375 -5.140625l0 -1.203125q0 -3.46875 -1.4375 -5.25q-1.4375 -1.796875 -4.203125 -1.796875l-2.3125 0zm29.796875 9.09375l-9.0 0l0 6.09375l10.5625 0l0 3.765625l-15.25 0l0 -22.75l15.21875 0l0 3.796875l-10.53125 0l0 5.421875l9.0 0l0 3.671875zm9.0 1.84375l0 8.015625l-4.6875 0l0 -22.75l8.875 0q2.5625 0 4.5 0.9375q1.953125 0.9375 3.0 2.671875q1.046875 1.71875 1.046875 3.921875q0 3.34375 -2.296875 5.28125q-2.28125 1.921875 -6.328125 1.921875l-4.109375 0zm0 -3.796875l4.1875 0q1.859375 0 2.828125 -0.875q0.984375 -0.875 0.984375 -2.5q0 -1.671875 -0.984375 -2.703125q-0.984375 -1.03125 -2.71875 -1.0625l-4.296875 0l0 7.140625zm20.640625 8.046875l9.953125 0l0 3.765625l-14.640625 0l0 -22.75l4.6875 0l0 18.984375zm31.328125 -7.09375q0 3.359375 -1.1875 5.890625q-1.1875 2.53125 -3.40625 3.90625q-2.203125 1.375 -5.0625 1.375q-2.828125 0 -5.046875 -1.359375q-2.21875 -1.359375 -3.4375 -3.875q-1.21875 -2.53125 -1.234375 -5.8125l0 -1.125q0 -3.359375 1.203125 -5.90625q1.21875 -2.5625 3.421875 -3.921875q2.21875 -1.375 5.0625 -1.375q2.84375 0 5.046875 1.375q2.21875 1.359375 3.421875 3.921875q1.21875 2.546875 1.21875 5.890625l0 1.015625zm-4.75 -1.03125q0 -3.578125 -1.28125 -5.4375q-1.28125 -1.859375 -3.65625 -1.859375q-2.359375 0 -3.640625 1.84375q-1.28125 1.828125 -1.296875 5.375l0 1.109375q0 3.484375 1.28125 5.40625q1.28125 1.921875 3.6875 1.921875q2.359375 0 3.625 -1.84375q1.265625 -1.859375 1.28125 -5.40625l0 -1.109375zm16.0 -0.609375l4.734375 -10.25l5.125 0l-7.46875 14.5l0 8.25l-4.765625 0l0 -8.25l-7.46875 -14.5l5.140625 0l4.703125 10.25z" fill-rule="nonzero"></path><path fill="#000000" fill-opacity="0.0" d="m37.18946 406.7772l173.88977 0l0 56.15747l-173.88977 0z" fill-rule="evenodd"></path><path fill="#ffffff" d="m66.84528 446.57593l0 -22.75l7.0 0q3.0 0 5.359375 1.359375q2.375 1.34375 3.703125 3.84375q1.328125 2.484375 1.328125 5.65625l0 1.046875q0 3.171875 -1.3125 5.640625q-1.296875 2.46875 -3.671875 3.828125q-2.375 1.359375 -5.359375 1.375l-7.046875 0zm4.6875 -18.953125l0 15.1875l2.265625 0q2.75 0 4.203125 -1.796875q1.453125 -1.796875 1.484375 -5.140625l0 -1.203125q0 -3.46875 -1.4375 -5.25q-1.4375 -1.796875 -4.203125 -1.796875l-2.3125 0zm29.796875 9.09375l-9.0 0l0 6.09375l10.5625 0l0 3.765625l-15.25 0l0 -22.75l15.21875 0l0 3.796875l-10.53125 0l0 5.421875l9.0 0l0 3.671875zm9.0 1.84375l0 8.015625l-4.6875 0l0 -22.75l8.875 0q2.5625 0 4.5 0.9375q1.953125 0.9375 3.0 2.671875q1.046875 1.71875 1.046875 3.921875q0 3.34375 -2.296875 5.28125q-2.28125 1.921875 -6.328125 1.921875l-4.109375 0zm0 -3.796875l4.1875 0q1.859375 0 2.828125 -0.875q0.984375 -0.875 0.984375 -2.5q0 -1.671875 -0.984375 -2.703125q-0.984375 -1.03125 -2.71875 -1.0625l-4.296875 0l0 7.140625zm20.640633 8.046875l9.953125 0l0 3.765625l-14.640633 0l0 -22.75l4.6875076 0l0 18.984375zm31.328125 -7.09375q0 3.359375 -1.1875 5.890625q-1.1875 2.53125 -3.40625 3.90625q-2.203125 1.375 -5.0625 1.375q-2.828125 0 -5.046875 -1.359375q-2.21875 -1.359375 -3.4375 -3.875q-1.21875 -2.53125 -1.234375 -5.8125l0 -1.125q0 -3.359375 1.203125 -5.90625q1.21875 -2.5625 3.421875 -3.921875q2.21875 -1.375 5.0625 -1.375q2.84375 0 5.046875 1.375q2.21875 1.359375 3.421875 3.921875q1.21875 2.546875 1.21875 5.890625l0 1.015625zm-4.75 -1.03125q0 -3.578125 -1.28125 -5.4375q-1.28125 -1.859375 -3.65625 -1.859375q-2.359375 0 -3.640625 1.84375q-1.28125 1.828125 -1.296875 5.375l0 1.109375q0 3.484375 1.28125 5.40625q1.28125 1.921875 3.6875 1.921875q2.359375 0 3.625 -1.84375q1.265625 -1.859375 1.28125 -5.40625l0 -1.109375zm16.0 -0.609375l4.734375 -10.25l5.125 0l-7.46875 14.5l0 8.25l-4.765625 0l0 -8.25l-7.46875 -14.5l5.140625 0l4.703125 10.25z" fill-rule="nonzero"></path></g></svg>

