<?xml version="1.0" standalone="yes"?>

<svg version="1.1" viewBox="0.0 0.0 680.1207349081365 1078.4120734908136" fill="none" stroke="none" stroke-linecap="square" stroke-miterlimit="10" xmlns="http://www.w3.org/2000/svg" xmlns:xlink="http://www.w3.org/1999/xlink"><clipPath id="p.0"><path d="m0 0l680.1207 0l0 1078.4121l-680.1207 0l0 -1078.4121z" clip-rule="nonzero"></path></clipPath><g clip-path="url(#p.0)"><path fill="#000000" fill-opacity="0.0" d="m0 0l680.1207 0l0 1078.4121l-680.1207 0z" fill-rule="evenodd"></path><path fill="#000000" fill-opacity="0.0" d="m342.10455 178.6378l0 0c0 -89.56581 72.60742 -162.17323 162.17325 -162.17323l0 0c43.011017 0 84.26041 17.086058 114.6738 47.499435c30.413391 30.413383 47.49939 71.66278 47.49939 114.6738l0 0c0 89.56578 -72.60742 162.17323 -162.17319 162.17323l0 0c-89.56583 0 -162.17325 -72.60745 -162.17325 -162.17323z" fill-rule="evenodd"></path><path stroke="#c9daf8" stroke-width="24.0" stroke-linejoin="round" stroke-linecap="butt" d="m342.10455 178.6378l0 0c0 -89.56581 72.60742 -162.17323 162.17325 -162.17323l0 0c43.011017 0 84.26041 17.086058 114.6738 47.499435c30.413391 30.413383 47.49939 71.66278 47.49939 114.6738l0 0c0 89.56578 -72.60742 162.17323 -162.17319 162.17323l0 0c-89.56583 0 -162.17325 -72.60745 -162.17325 -162.17323z" fill-rule="evenodd"></path><path fill="#000000" fill-opacity="0.0" d="m504.2776 16.465477l0 0c79.94672 0 147.96661 58.262123 160.24817 137.25983c12.281616 78.997696 -34.8396 155.16054 -111.01282 179.43214c-76.17325 24.271576 -158.67087 -10.589935 -194.35626 -82.130325c-35.685364 -71.54039 -13.911133 -158.41423 51.297974 -204.6662l93.82294 132.2778z" fill-rule="evenodd"></path><path fill="#000000" fill-opacity="0.0" d="m504.2776 16.465477l0 0c79.94672 0 147.96661 58.262123 160.24817 137.25983c12.281616 78.997696 -34.8396 155.16054 -111.01282 179.43214c-76.17325 24.271576 -158.67087 -10.589935 -194.35626 -82.130325c-35.685364 -71.54039 -13.911133 -158.41423 51.297974 -204.6662" fill-rule="evenodd"></path><path stroke="#3c78d8" stroke-width="24.0" stroke-linejoin="round" stroke-linecap="butt" d="m504.2776 16.465477l0 0c79.94672 0 147.96661 58.262123 160.24817 137.25983c12.281616 78.997696 -34.8396 155.16054 -111.01282 179.43214c-76.17325 24.271576 -158.67087 -10.589935 -194.35626 -82.130325c-35.685364 -71.54039 -13.911133 -158.41423 51.297974 -204.6662" fill-rule="evenodd"></path><path fill="#000000" fill-opacity="0.0" d="m342.10455 536.7218l0 0c0 -89.56583 72.60742 -162.17325 162.17325 -162.17325l0 0c43.011017 0 84.26041 17.08606 114.6738 47.49945c30.413391 30.41336 47.49939 71.66278 47.49939 114.6738l0 0c0 89.565796 -72.60742 162.17322 -162.17319 162.17322l0 0c-89.56583 0 -162.17325 -72.60742 -162.17325 -162.17322z" fill-rule="evenodd"></path><path stroke="#fff2cc" stroke-width="24.0" stroke-linejoin="round" stroke-linecap="butt" d="m342.10455 536.7218l0 0c0 -89.56583 72.60742 -162.17325 162.17325 -162.17325l0 0c43.011017 0 84.26041 17.08606 114.6738 47.49945c30.413391 30.41336 47.49939 71.66278 47.49939 114.6738l0 0c0 89.565796 -72.60742 162.17322 -162.17319 162.17322l0 0c-89.56583 0 -162.17325 -72.60742 -162.17325 -162.17322z" fill-rule="evenodd"></path><path fill="#000000" fill-opacity="0.0" d="m504.2776 374.54947l0 0c68.465454 0 129.55536 42.996582 152.65991 107.44574c23.104614 64.44913 3.2458496 136.46524 -49.625732 179.96371c-52.87152 43.498413 -127.364655 49.10742 -186.15363 14.0164795c-58.78897 -35.090942 -89.20761 -103.32135 -76.01428 -170.5036l159.13373 31.250916z" fill-rule="evenodd"></path><path fill="#000000" fill-opacity="0.0" d="m504.2776 374.54947l0 0c68.465454 0 129.55536 42.996582 152.65991 107.44574c23.104614 64.44913 3.2458496 136.46524 -49.625732 179.96371c-52.87152 43.498413 -127.364655 49.10742 -186.15363 14.0164795c-58.78897 -35.090942 -89.20761 -103.32135 -76.01428 -170.5036" fill-rule="evenodd"></path><path stroke="#f1c232" stroke-width="24.0" stroke-linejoin="round" stroke-linecap="butt" d="m504.2776 374.54947l0 0c68.465454 0 129.55536 42.996582 152.65991 107.44574c23.104614 64.44913 3.2458496 136.46524 -49.625732 179.96371c-52.87152 43.498413 -127.364655 49.10742 -186.15363 14.0164795c-58.78897 -35.090942 -89.20761 -103.32135 -76.01428 -170.5036" fill-rule="evenodd"></path><path fill="#000000" fill-opacity="0.0" d="m342.10455 899.77167l0 0c0 -89.565796 72.60742 -162.17322 162.17325 -162.17322l0 0c43.011017 0 84.26041 17.08606 114.6738 47.49939c30.413391 30.413391 47.49939 71.66278 47.49939 114.67383l0 0c0 89.565796 -72.60742 162.17316 -162.17319 162.17316l0 0c-89.56583 0 -162.17325 -72.60736 -162.17325 -162.17316z" fill-rule="evenodd"></path><path stroke="#d9d2e9" stroke-width="24.0" stroke-linejoin="round" stroke-linecap="butt" d="m342.10455 899.77167l0 0c0 -89.565796 72.60742 -162.17322 162.17325 -162.17322l0 0c43.011017 0 84.26041 17.08606 114.6738 47.49939c30.413391 30.413391 47.49939 71.66278 47.49939 114.67383l0 0c0 89.565796 -72.60742 162.17316 -162.17319 162.17316l0 0c-89.56583 0 -162.17325 -72.60736 -162.17325 -162.17316z" fill-rule="evenodd"></path><path fill="#000000" fill-opacity="0.0" d="m504.2776 737.59937l0 0c88.41333 0 160.53448 70.818115 162.1463 159.2168c1.6117554 88.39862 -67.87988 161.79883 -156.23444 165.02185c-88.35458 3.2230225 -163.0094 -64.918945 -167.84259 -153.20013l161.93073 -8.865295z" fill-rule="evenodd"></path><path fill="#000000" fill-opacity="0.0" d="m504.2776 737.59937l0 0c88.41333 0 160.53448 70.818115 162.1463 159.2168c1.6117554 88.39862 -67.87988 161.79883 -156.23444 165.02185c-88.35458 3.2230225 -163.0094 -64.918945 -167.84259 -153.20013" fill-rule="evenodd"></path><path stroke="#674ea7" stroke-width="24.0" stroke-linejoin="round" stroke-linecap="butt" d="m504.2776 737.59937l0 0c88.41333 0 160.53448 70.818115 162.1463 159.2168c1.6117554 88.39862 -67.87988 161.79883 -156.23444 165.02185c-88.35458 3.2230225 -163.0094 -64.918945 -167.84259 -153.20013" fill-rule="evenodd"></path><path fill="#000000" fill-opacity="0.0" d="m17.758106 357.67978l0 0c0 -89.565796 72.60742 -162.17322 162.17323 -162.17322l0 0c43.011017 0 84.26041 17.08606 114.6738 47.499435c30.41336 30.413376 47.49942 71.662766 47.49942 114.67378l0 0c0 89.56583 -72.60742 162.17325 -162.17322 162.17325l0 0c-89.5658 0 -162.17323 -72.60742 -162.17323 -162.17325z" fill-rule="evenodd"></path><path stroke="#d9ead3" stroke-width="24.0" stroke-linejoin="round" stroke-linecap="butt" d="m17.758106 357.67978l0 0c0 -89.565796 72.60742 -162.17322 162.17323 -162.17322l0 0c43.011017 0 84.26041 17.08606 114.6738 47.499435c30.41336 30.413376 47.49942 71.662766 47.49942 114.67378l0 0c0 89.56583 -72.60742 162.17325 -162.17322 162.17325l0 0c-89.5658 0 -162.17323 -72.60742 -162.17323 -162.17325z" fill-rule="evenodd"></path><path fill="#000000" fill-opacity="0.0" d="m179.93112 195.50748l0 0c77.70535 0 144.49054 55.11827 159.22931 131.41306c14.738739 76.29477 -26.711517 152.32214 -98.82573 181.26453c-72.11421 28.942383 -154.62354 2.6650696 -196.7188 -62.65039c-42.095257 -65.31549 -31.944893 -151.31116 24.200504 -205.03096l112.11471 117.17699z" fill-rule="evenodd"></path><path fill="#000000" fill-opacity="0.0" d="m179.93112 195.50748l0 0c77.70535 0 144.49054 55.11827 159.22931 131.41306c14.738739 76.29477 -26.711517 152.32214 -98.82573 181.26453c-72.11421 28.942383 -154.62354 2.6650696 -196.7188 -62.65039c-42.095257 -65.31549 -31.944893 -151.31116 24.200504 -205.03096" fill-rule="evenodd"></path><path stroke="#6aa84f" stroke-width="24.0" stroke-linejoin="round" stroke-linecap="butt" d="m179.93112 195.50748l0 0c77.70535 0 144.49054 55.11827 159.22931 131.41306c14.738739 76.29477 -26.711517 152.32214 -98.82573 181.26453c-72.11421 28.942383 -154.62354 2.6650696 -196.7188 -62.65039c-42.095257 -65.31549 -31.944893 -151.31116 24.200504 -205.03096" fill-rule="evenodd"></path><path fill="#000000" fill-opacity="0.0" d="m17.758106 717.0855l0 0c0 -89.565796 72.60742 -162.17322 162.17323 -162.17322l0 0c43.011017 0 84.26041 17.08606 114.6738 47.49945c30.41336 30.413391 47.49942 71.66278 47.49942 114.67377l0 0c0 89.565796 -72.60742 162.17322 -162.17322 162.17322l0 0c-89.5658 0 -162.17323 -72.60742 -162.17323 -162.17322z" fill-rule="evenodd"></path><path stroke="#f4cccc" stroke-width="24.0" stroke-linejoin="round" stroke-linecap="butt" d="m17.758106 717.0855l0 0c0 -89.565796 72.60742 -162.17322 162.17323 -162.17322l0 0c43.011017 0 84.26041 17.08606 114.6738 47.49945c30.41336 30.413391 47.49942 71.66278 47.49942 114.67377l0 0c0 89.565796 -72.60742 162.17322 -162.17322 162.17322l0 0c-89.5658 0 -162.17323 -72.60742 -162.17323 -162.17322z" fill-rule="evenodd"></path><path fill="#000000" fill-opacity="0.0" d="m179.93112 554.9132l0 0c66.41785 0 126.12219 40.49872 150.6802 102.209595c24.558014 61.710938 9.005066 132.15851 -39.252106 177.79376c-48.257187 45.635193 -119.46294 57.232483 -179.70717 29.26886c-60.244225 -27.963562 -97.34797 -89.83496 -93.641426 -156.14929l161.9205 9.050293z" fill-rule="evenodd"></path><path fill="#000000" fill-opacity="0.0" d="m179.93112 554.9132l0 0c66.41785 0 126.12219 40.49872 150.6802 102.209595c24.558014 61.710938 9.005066 132.15851 -39.252106 177.79376c-48.257187 45.635193 -119.46294 57.232483 -179.70717 29.26886c-60.244225 -27.963562 -97.34797 -89.83496 -93.641426 -156.14929" fill-rule="evenodd"></path><path stroke="#cc0000" stroke-width="24.0" stroke-linejoin="round" stroke-linecap="butt" d="m179.93112 554.9132l0 0c66.41785 0 126.12219 40.49872 150.6802 102.209595c24.558014 61.710938 9.005066 132.15851 -39.252106 177.79376c-48.257187 45.635193 -119.46294 57.232483 -179.70717 29.26886c-60.244225 -27.963562 -97.34797 -89.83496 -93.641426 -156.14929" fill-rule="evenodd"></path><path fill="#000000" fill-opacity="0.0" d="m329.5853 119.25044l349.38583 0l0 123.433075l-349.38583 0z" fill-rule="evenodd"></path><path fill="#000000" d="m368.95795 169.21045l0 -30.78125l13.65625 0q4.109375 0 6.25 0.828125q2.140625 0.828125 3.421875 2.9375q1.28125 2.09375 1.28125 4.640625q0 3.265625 -2.125 5.515625q-2.109375 2.25 -6.546875 2.859375q1.625 0.765625 2.453125 1.53125q1.796875 1.640625 3.390625 4.09375l5.34375 8.375l-5.109375 0l-4.078125 -6.40625q-1.78125 -2.765625 -2.9375 -4.234375q-1.15625 -1.46875 -2.078125 -2.0625q-0.90625 -0.59375 -1.84375 -0.8125q-0.703125 -0.15625 -2.28125 -0.15625l-4.71875 0l0 13.671875l-4.078125 0zm4.078125 -17.203125l8.75 0q2.796875 0 4.375 -0.5625q1.578125 -0.578125 2.390625 -1.84375q0.8125 -1.28125 0.8125 -2.765625q0 -2.1875 -1.578125 -3.59375q-1.578125 -1.40625 -5.0 -1.40625l-9.75 0l0 10.171875zm41.445587 10.015625l3.90625 0.484375q-0.921875 3.421875 -3.421875 5.3125q-2.5 1.890625 -6.375 1.890625q-4.890625 0 -7.765625 -3.0q-2.859375 -3.015625 -2.859375 -8.453125q0 -5.640625 2.890625 -8.734375q2.90625 -3.109375 7.515625 -3.109375q4.484375 0 7.3125 3.046875q2.828125 3.03125 2.828125 8.5625q0 0.328125 -0.015625 1.0l-16.625 0q0.203125 3.671875 2.0625 5.625q1.875 1.953125 4.671875 1.953125q2.078125 0 3.546875 -1.078125q1.46875 -1.09375 2.328125 -3.5zm-12.40625 -6.109375l12.453125 0q-0.25 -2.8125 -1.421875 -4.21875q-1.8125 -2.171875 -4.6875 -2.171875q-2.609375 0 -4.390625 1.75q-1.765625 1.734375 -1.953125 4.640625zm20.895264 -13.140625l0 -4.34375l3.78125 0l0 4.34375l-3.78125 0zm0 26.4375l0 -22.296875l3.78125 0l0 22.296875l-3.78125 0zm9.445587 0l0 -22.296875l3.40625 0l0 3.171875q2.453125 -3.671875 7.09375 -3.671875q2.015625 0 3.703125 0.71875q1.703125 0.71875 2.53125 1.90625q0.84375 1.171875 1.1875 2.78125q0.203125 1.0625 0.203125 3.6875l0 13.703125l-3.78125 0l0 -13.5625q0 -2.3125 -0.4375 -3.453125q-0.4375 -1.140625 -1.5625 -1.828125q-1.125 -0.6875 -2.640625 -0.6875q-2.40625 0 -4.171875 1.53125q-1.75 1.53125 -1.75 5.828125l0 12.171875l-3.78125 0zm24.629639 0l0 -19.359375l-3.328125 0l0 -2.9375l3.328125 0l0 -2.375q0 -2.25 0.40625 -3.34375q0.546875 -1.46875 1.921875 -2.375q1.375 -0.921875 3.84375 -0.921875q1.59375 0 3.53125 0.390625l-0.5625 3.296875q-1.1875 -0.21875 -2.234375 -0.21875q-1.71875 0 -2.4375 0.734375q-0.703125 0.734375 -0.703125 2.75l0 2.0625l4.34375 0l0 2.9375l-4.34375 0l0 19.359375l-3.765625 0zm9.538757 -11.15625q0 -6.1875 3.453125 -9.171875q2.875 -2.46875 7.015625 -2.46875q4.59375 0 7.5 3.015625q2.921875 3.0 2.921875 8.3125q0 4.3125 -1.296875 6.78125q-1.28125 2.46875 -3.75 3.828125q-2.46875 1.359375 -5.375 1.359375q-4.6875 0 -7.578125 -3.0q-2.890625 -3.0 -2.890625 -8.65625zm3.890625 0q0 4.296875 1.859375 6.421875q1.875 2.125 4.71875 2.125q2.8125 0 4.671875 -2.140625q1.875 -2.140625 1.875 -6.53125q0 -4.125 -1.890625 -6.25q-1.875 -2.140625 -4.65625 -2.140625q-2.84375 0 -4.71875 2.125q-1.859375 2.109375 -1.859375 6.390625zm21.207764 11.15625l0 -22.296875l3.390625 0l0 3.375q1.3125 -2.375 2.40625 -3.125q1.109375 -0.75 2.421875 -0.75q1.921875 0 3.890625 1.21875l-1.296875 3.5q-1.390625 -0.8125 -2.78125 -0.8125q-1.234375 0 -2.21875 0.75q-0.984375 0.734375 -1.40625 2.0625q-0.625 2.015625 -0.625 4.40625l0 11.671875l-3.78125 0zm28.798584 -8.171875l3.703125 0.484375q-0.59375 3.84375 -3.109375 6.015625q-2.515625 2.171875 -6.15625 2.171875q-4.5780945 0 -7.3593445 -2.984375q-2.78125 -3.0 -2.78125 -8.578125q0 -3.609375 1.1875 -6.3125q1.203125 -2.71875 3.640625 -4.0625q2.4530945 -1.359375 5.3280945 -1.359375q3.625 0 5.9375 1.84375q2.3125 1.828125 2.96875 5.203125l-3.6875 0.5625q-0.515625 -2.234375 -1.859375 -3.359375q-1.328125 -1.140625 -3.21875 -1.140625q-2.84375 0 -4.6405945 2.046875q-1.78125 2.046875 -1.78125 6.46875q0 4.5 1.71875 6.53125q1.7187195 2.03125 4.4999695 2.03125q2.21875 0 3.703125 -1.359375q1.5 -1.359375 1.90625 -4.203125zm22.03125 0.984375l3.90625 0.484375q-0.921875 3.421875 -3.421875 5.3125q-2.5 1.890625 -6.375 1.890625q-4.890625 0 -7.765625 -3.0q-2.859375 -3.015625 -2.859375 -8.453125q0 -5.640625 2.890625 -8.734375q2.90625 -3.109375 7.515625 -3.109375q4.484375 0 7.3125 3.046875q2.828125 3.03125 2.828125 8.5625q0 0.328125 -0.015625 1.0l-16.625 0q0.203125 3.671875 2.0625 5.625q1.875 1.953125 4.671875 1.953125q2.078125 0 3.546875 -1.078125q1.46875 -1.09375 2.328125 -3.5zm-12.40625 -6.109375l12.453125 0q-0.25 -2.8125 -1.421875 -4.21875q-1.8125 -2.171875 -4.6875 -2.171875q-2.609375 0 -4.390625 1.75q-1.765625 1.734375 -1.953125 4.640625zm20.864014 13.296875l0 -22.296875l3.390625 0l0 3.125q1.046875 -1.640625 2.78125 -2.625q1.75 -1.0 3.96875 -1.0q2.484375 0 4.0625 1.03125q1.59375 1.015625 2.25 2.875q2.640625 -3.90625 6.875 -3.90625q3.328125 0 5.109375 1.84375q1.78125 1.828125 1.78125 5.640625l0 15.3125l-3.75 0l0 -14.046875q0 -2.265625 -0.375 -3.265625q-0.359375 -1.0 -1.328125 -1.609375q-0.96875 -0.609375 -2.265625 -0.609375q-2.359375 0 -3.921875 1.578125q-1.546875 1.5625 -1.546875 5.0l0 12.953125l-3.78125 0l0 -14.484375q0 -2.515625 -0.921875 -3.78125q-0.921875 -1.265625 -3.015625 -1.265625q-1.59375 0 -2.953125 0.84375q-1.359375 0.84375 -1.96875 2.46875q-0.609375 1.609375 -0.609375 4.65625l0 11.5625l-3.78125 0zm50.798645 -7.1875l3.90625 0.484375q-0.921875 3.421875 -3.421875 5.3125q-2.5 1.890625 -6.375 1.890625q-4.890625 0 -7.765625 -3.0q-2.859375 -3.015625 -2.859375 -8.453125q0 -5.640625 2.890625 -8.734375q2.90625 -3.109375 7.515625 -3.109375q4.484375 0 7.3125 3.046875q2.828125 3.03125 2.828125 8.5625q0 0.328125 -0.015625 1.0l-16.625 0q0.203125 3.671875 2.0625 5.625q1.875 1.953125 4.671875 1.953125q2.078125 0 3.546875 -1.078125q1.46875 -1.09375 2.328125 -3.5zm-12.40625 -6.109375l12.453125 0q-0.25 -2.8125 -1.421875 -4.21875q-1.8125 -2.171875 -4.6875 -2.171875q-2.609375 0 -4.390625 1.75q-1.765625 1.734375 -1.953125 4.640625zm20.864014 13.296875l0 -22.296875l3.40625 0l0 3.171875q2.453125 -3.671875 7.09375 -3.671875q2.015625 0 3.703125 0.71875q1.703125 0.71875 2.53125 1.90625q0.84375 1.171875 1.1875 2.78125q0.203125 1.0625 0.203125 3.6875l0 13.703125l-3.78125 0l0 -13.5625q0 -2.3125 -0.4375 -3.453125q-0.4375 -1.140625 -1.5625 -1.828125q-1.125 -0.6875 -2.640625 -0.6875q-2.40625 0 -4.171875 1.53125q-1.75 1.53125 -1.75 5.828125l0 12.171875l-3.78125 0zm31.988953 -3.375l0.53125 3.328125q-1.59375 0.34375 -2.84375 0.34375q-2.0625 0 -3.203125 -0.65625q-1.125 -0.65625 -1.59375 -1.703125q-0.453125 -1.0625 -0.453125 -4.46875l0 -12.828125l-2.78125 0l0 -2.9375l2.78125 0l0 -5.515625l3.75 -2.28125l0 7.796875l3.8125 0l0 2.9375l-3.8125 0l0 13.046875q0 1.609375 0.203125 2.078125q0.203125 0.453125 0.65625 0.734375q0.453125 0.265625 1.28125 0.265625q0.640625 0 1.671875 -0.140625z" fill-rule="nonzero"></path><path fill="#000000" d="m424.4235 220.21045l0 -30.78125l4.0625 0l0 27.15625l15.15625 0l0 3.625l-19.21875 0zm38.66086 -7.1875l3.90625 0.484375q-0.921875 3.421875 -3.421875 5.3125q-2.5 1.890625 -6.375 1.890625q-4.890625 0 -7.765625 -3.0q-2.859375 -3.015625 -2.859375 -8.453125q0 -5.640625 2.890625 -8.734375q2.90625 -3.109375 7.515625 -3.109375q4.484375 0 7.3125 3.046875q2.828125 3.03125 2.828125 8.5625q0 0.328125 -0.015625 1.0l-16.625 0q0.203125 3.671875 2.0625 5.625q1.875 1.953125 4.671875 1.953125q2.078125 0 3.546875 -1.078125q1.46875 -1.09375 2.328125 -3.5zm-12.40625 -6.109375l12.453125 0q-0.25 -2.8125 -1.421875 -4.21875q-1.8125 -2.171875 -4.6875 -2.171875q-2.609375 0 -4.390625 1.75q-1.765625 1.734375 -1.953125 4.640625zm35.426514 10.546875q-2.109375 1.78125 -4.046875 2.515625q-1.9375 0.734375 -4.171875 0.734375q-3.671875 0 -5.65625 -1.796875q-1.96875 -1.796875 -1.96875 -4.578125q0 -1.640625 0.75 -2.984375q0.75 -1.359375 1.953125 -2.171875q1.203125 -0.828125 2.71875 -1.25q1.109375 -0.296875 3.359375 -0.5625q4.578125 -0.546875 6.734375 -1.3125q0.03125 -0.765625 0.03125 -0.984375q0 -2.3125 -1.078125 -3.25q-1.4375 -1.28125 -4.296875 -1.28125q-2.671875 0 -3.9375 0.9375q-1.265625 0.921875 -1.875 3.296875l-3.703125 -0.5q0.5 -2.375 1.65625 -3.828125q1.15625 -1.46875 3.34375 -2.25q2.1875 -0.78125 5.0625 -0.78125q2.859375 0 4.640625 0.671875q1.78125 0.671875 2.609375 1.6875q0.84375 1.015625 1.1875 2.5625q0.1875 0.96875 0.1875 3.5l0 5.03125q0 5.265625 0.234375 6.671875q0.25 1.390625 0.96875 2.671875l-3.953125 0q-0.59375 -1.171875 -0.75 -2.75zm-0.328125 -8.4375q-2.046875 0.84375 -6.171875 1.421875q-2.328125 0.34375 -3.296875 0.765625q-0.953125 0.40625 -1.484375 1.21875q-0.53125 0.8125 -0.53125 1.796875q0 1.515625 1.140625 2.53125q1.15625 1.0 3.359375 1.0q2.1875 0 3.875 -0.953125q1.703125 -0.96875 2.515625 -2.625q0.59375 -1.28125 0.59375 -3.78125l0 -1.375zm9.457733 11.1875l0 -22.296875l3.390625 0l0 3.375q1.3125 -2.375 2.40625 -3.125q1.109375 -0.75 2.421875 -0.75q1.921875 0 3.890625 1.21875l-1.296875 3.5q-1.390625 -0.8125 -2.78125 -0.8125q-1.234375 0 -2.21875 0.75q-0.984375 0.734375 -1.40625 2.0625q-0.625 2.015625 -0.625 4.40625l0 11.671875l-3.78125 0zm14.2361145 0l0 -22.296875l3.40625 0l0 3.171875q2.453125 -3.671875 7.09375 -3.671875q2.015625 0 3.703125 0.71875q1.703125 0.71875 2.53125 1.90625q0.84375 1.171875 1.1875 2.78125q0.203125 1.0625 0.203125 3.6875l0 13.703125l-3.78125 0l0 -13.5625q0 -2.3125 -0.4375 -3.453125q-0.4375 -1.140625 -1.5625 -1.828125q-1.125 -0.6875 -2.640625 -0.6875q-2.40625 0 -4.171875 1.53125q-1.75 1.53125 -1.75 5.828125l0 12.171875l-3.78125 0zm23.754639 -26.4375l0 -4.34375l3.78125 0l0 4.34375l-3.78125 0zm0 26.4375l0 -22.296875l3.78125 0l0 22.296875l-3.78125 0zm9.445618 0l0 -22.296875l3.40625 0l0 3.171875q2.453125 -3.671875 7.09375 -3.671875q2.015625 0 3.703125 0.71875q1.703125 0.71875 2.53125 1.90625q0.84375 1.171875 1.1875 2.78125q0.203125 1.0625 0.203125 3.6875l0 13.703125l-3.78125 0l0 -13.5625q0 -2.3125 -0.4375 -3.453125q-0.4375 -1.140625 -1.5625 -1.828125q-1.125 -0.6875 -2.640625 -0.6875q-2.40625 0 -4.171875 1.53125q-1.75 1.53125 -1.75 5.828125l0 12.171875l-3.78125 0zm23.035889 1.84375l3.671875 0.546875q0.234375 1.703125 1.28125 2.484375q1.40625 1.046875 3.84375 1.046875q2.625 0 4.046875 -1.046875q1.4375 -1.046875 1.9375 -2.9375q0.296875 -1.15625 0.28125 -4.859375q-2.484375 2.921875 -6.1875 2.921875q-4.59375 0 -7.109375 -3.3125q-2.515625 -3.328125 -2.515625 -7.96875q0 -3.1875 1.15625 -5.875q1.15625 -2.703125 3.34375 -4.171875q2.1875 -1.46875 5.15625 -1.46875q3.9375 0 6.5 3.1875l0 -2.6875l3.484375 0l0 19.265625q0 5.21875 -1.0625 7.390625q-1.046875 2.171875 -3.359375 3.421875q-2.296875 1.265625 -5.65625 1.265625q-3.984375 0 -6.4375 -1.796875q-2.453125 -1.796875 -2.375 -5.40625zm3.125 -13.390625q0 4.390625 1.734375 6.40625q1.75 2.015625 4.375 2.015625q2.609375 0 4.375 -2.0q1.765625 -2.015625 1.765625 -6.296875q0 -4.09375 -1.828125 -6.171875q-1.8125 -2.078125 -4.375 -2.078125q-2.515625 0 -4.28125 2.046875q-1.765625 2.046875 -1.765625 6.078125z" fill-rule="nonzero"></path><path fill="#000000" fill-opacity="0.0" d="m329.5853 475.00525l349.38583 0l0 123.433044l-349.38583 0z" fill-rule="evenodd"></path><path fill="#000000" d="m408.01086 524.9653l0 -30.78128l11.609375 0q3.078125 0 4.6875 0.296875q2.265625 0.375 3.796875 1.4375q1.53125 1.0625 2.46875 2.96875q0.9375 1.90625 0.9375 4.203125q0 3.921875 -2.5 6.640625q-2.5 2.7187805 -9.03125 2.7187805l-7.890625 0l0 12.515625l-4.078125 0zm4.078125 -16.140656l7.953125 0q3.953125 0 5.609375 -1.46875q1.65625 -1.46875 1.65625 -4.140625q0 -1.9375 -0.984375 -3.3125q-0.96875 -1.375 -2.5625 -1.8125q-1.03125 -0.265625 -3.796875 -0.265625l-7.875 0l0 11.0zm23.857635 16.140656l0 -22.296906l3.390625 0l0 3.375q1.3125 -2.375 2.40625 -3.125q1.109375 -0.75 2.421875 -0.75q1.921875 0 3.890625 1.21875l-1.296875 3.5q-1.390625 -0.8125 -2.78125 -0.8125q-1.234375 0 -2.21875 0.75q-0.984375 0.734375 -1.40625 2.0625q-0.625 2.015625 -0.625 4.4062805l0 11.671875l-3.78125 0zm12.8298645 -11.15625q0 -6.1875305 3.453125 -9.1719055q2.875 -2.46875 7.015625 -2.46875q4.59375 0 7.5 3.015625q2.921875 3.0 2.921875 8.3125305q0 4.3125 -1.296875 6.78125q-1.28125 2.46875 -3.75 3.828125q-2.46875 1.359375 -5.375 1.359375q-4.6875 0 -7.578125 -3.0q-2.890625 -3.0 -2.890625 -8.65625zm3.890625 0q0 4.296875 1.859375 6.421875q1.875 2.125 4.71875 2.125q2.8125 0 4.671875 -2.140625q1.875 -2.140625 1.875 -6.53125q0 -4.1250305 -1.890625 -6.2500305q-1.875 -2.140625 -4.65625 -2.140625q-2.84375 0 -4.71875 2.125q-1.859375 2.109375 -1.859375 6.3906555zm24.723389 11.15625l-3.5 0l0 -30.78128l3.78125 0l0 10.984375q2.390625 -3.0 6.109375 -3.0q2.0625 0 3.890625 0.828125q1.84375 0.828125 3.03125 2.328125q1.1875 1.5 1.859375 3.625q0.671875 2.109375 0.671875 4.5312805q0 5.734375 -2.84375 8.859375q-2.828125 3.125 -6.796875 3.125q-3.953125 0 -6.203125 -3.296875l0 2.796875zm-0.03125 -11.3125q0 4.0 1.09375 5.796875q1.78125 2.90625 4.828125 2.90625q2.46875 0 4.265625 -2.140625q1.8125 -2.15625 1.8125 -6.421875q0 -4.3594055 -1.734375 -6.4375305q-1.71875 -2.078125 -4.1875 -2.078125q-2.46875 0 -4.28125 2.15625q-1.796875 2.140625 -1.796875 6.2187805zm34.832764 8.5625q-2.1094055 1.78125 -4.0469055 2.515625q-1.9375 0.734375 -4.171875 0.734375q-3.671875 0 -5.65625 -1.796875q-1.96875 -1.796875 -1.96875 -4.578125q0 -1.640625 0.75 -2.984375q0.75 -1.359375 1.953125 -2.171875q1.203125 -0.828125 2.71875 -1.25q1.109375 -0.296875 3.359375 -0.5625q4.578125 -0.5469055 6.734375 -1.3125305q0.03125 -0.765625 0.03125 -0.984375q0 -2.3125 -1.078125 -3.25q-1.4375 -1.28125 -4.296875 -1.28125q-2.671875 0 -3.9375 0.9375q-1.265625 0.921875 -1.875 3.296875l-3.703125 -0.5q0.5 -2.375 1.65625 -3.828125q1.15625 -1.46875 3.34375 -2.25q2.1875 -0.78125 5.0625 -0.78125q2.859375 0 4.640625 0.671875q1.7812805 0.671875 2.6094055 1.6875q0.84375 1.015625 1.1875 2.5625q0.1875 0.96875 0.1875 3.5l0 5.0312805q0 5.265625 0.234375 6.671875q0.25 1.390625 0.96875 2.671875l-3.953125 0q-0.59375 -1.171875 -0.75 -2.75zm-0.32815552 -8.4375q-2.046875 0.84375 -6.171875 1.421875q-2.328125 0.34375 -3.296875 0.765625q-0.953125 0.40625 -1.484375 1.21875q-0.53125 0.8125 -0.53125 1.796875q0 1.515625 1.140625 2.53125q1.15625 1.0 3.359375 1.0q2.1875 0 3.875 -0.953125q1.703125 -0.96875 2.515625 -2.625q0.59375 -1.28125 0.59375 -3.78125l0 -1.375zm12.973358 11.1875l-3.5 0l0 -30.78128l3.78125 0l0 10.984375q2.390625 -3.0 6.109375 -3.0q2.0625 0 3.890625 0.828125q1.84375 0.828125 3.03125 2.328125q1.1875 1.5 1.859375 3.625q0.671875 2.109375 0.671875 4.5312805q0 5.734375 -2.84375 8.859375q-2.828125 3.125 -6.796875 3.125q-3.953125 0 -6.203125 -3.296875l0 2.796875zm-0.03125 -11.3125q0 4.0 1.09375 5.796875q1.78125 2.90625 4.828125 2.90625q2.46875 0 4.265625 -2.140625q1.8125 -2.15625 1.8125 -6.421875q0 -4.3594055 -1.734375 -6.4375305q-1.71875 -2.078125 -4.1875 -2.078125q-2.46875 0 -4.28125 2.15625q-1.796875 2.140625 -1.796875 6.2187805zm20.301514 -15.1250305l0 -4.34375l3.78125 0l0 4.34375l-3.78125 0zm0 26.43753l0 -22.296906l3.78125 0l0 22.296906l-3.78125 0zm9.367493 0l0 -30.78128l3.78125 0l0 30.78128l-3.78125 0zm9.586243 -26.43753l0 -4.34375l3.78125 0l0 4.34375l-3.78125 0zm0 26.43753l0 -22.296906l3.78125 0l0 22.296906l-3.78125 0zm17.711182 -3.375l0.53125 3.328125q-1.59375 0.34375 -2.84375 0.34375q-2.0625 0 -3.203125 -0.65625q-1.125 -0.65625 -1.59375 -1.703125q-0.453125 -1.0625 -0.453125 -4.46875l0 -12.8281555l-2.78125 0l0 -2.9375l2.78125 0l0 -5.515625l3.75 -2.28125l0 7.796875l3.8125 0l0 2.9375l-3.8125 0l0 13.0469055q0 1.609375 0.203125 2.078125q0.203125 0.453125 0.65625 0.734375q0.453125 0.265625 1.28125 0.265625q0.640625 0 1.671875 -0.140625zm3.4294434 11.96875l-0.421875 -3.546875q1.234375 0.328125 2.15625 0.328125q1.265625 0 2.015625 -0.421875q0.765625 -0.421875 1.234375 -1.171875q0.359375 -0.5625 1.15625 -2.8125q0.109375 -0.3125 0.34375 -0.921875l-8.46875 -22.34378l4.078125 0l4.640625 12.9062805q0.90625 2.46875 1.609375 5.171875q0.65625 -2.609375 1.5625 -5.078125l4.765625 -13.0000305l3.78125 0l-8.484375 22.671906q-1.359375 3.671875 -2.125 5.0625q-1.0 1.875 -2.3125 2.734375q-1.296875 0.875 -3.09375 0.875q-1.09375 0 -2.4375 -0.453125z" fill-rule="nonzero"></path><path fill="#000000" d="m419.21542 572.3403q-1.859375 2.078125 -4.0625 3.125q-2.203125 1.03125 -4.765625 1.03125q-4.734375 0 -7.5 -3.203125q-2.25 -2.59375 -2.25 -5.8125q0 -2.859375 1.828125 -5.15625q1.84375 -2.296875 5.5 -4.03125q-2.078125 -2.40625 -2.765625 -3.890625q-0.6875 -1.484375 -0.6875 -2.875q0 -2.78125 2.171875 -4.828125q2.171875 -2.046875 5.46875 -2.046875q3.140625 0 5.140625 1.9375q2.015625 1.9375 2.015625 4.640625q0 4.390625 -5.8125 7.5l5.515625 7.03125q0.953125 -1.84375 1.46875 -4.28125l3.921875 0.84375q-1.0 4.03125 -2.71875 6.625q2.109375 2.8125 4.796875 4.734375l-2.53125 3.0q-2.296875 -1.46875 -4.734375 -4.34375zm-7.671875 -16.046875q2.453125 -1.453125 3.171875 -2.546875q0.734375 -1.09375 0.734375 -2.40625q0 -1.578125 -1.0 -2.578125q-1.0 -1.0 -2.484375 -1.0q-1.546875 0 -2.5625 1.0q-1.015625 0.984375 -1.015625 2.40625q0 0.71875 0.359375 1.5q0.375 0.78125 1.109375 1.671875l1.6875 1.953125zm5.3125 13.0625l-6.9375 -8.59375q-3.0625 1.828125 -4.140625 3.390625q-1.0625 1.5625 -1.0625 3.09375q0 1.875 1.484375 3.890625q1.5 2.015625 4.21875 2.015625q1.703125 0 3.515625 -1.0625q1.828125 -1.0625 2.921875 -2.734375zm24.177673 -3.28125l3.84375 -0.328125q0.265625 2.296875 1.265625 3.78125q1.0 1.484375 3.09375 2.40625q2.09375 0.90625 4.71875 0.90625q2.34375 0 4.125 -0.6875q1.78125 -0.703125 2.65625 -1.90625q0.875 -1.203125 0.875 -2.640625q0 -1.453125 -0.84375 -2.53125q-0.84375 -1.078125 -2.78125 -1.8125q-1.234375 -0.484375 -5.484375 -1.5q-4.234375 -1.015625 -5.9375 -1.921875q-2.203125 -1.15625 -3.28125 -2.859375q-1.078125 -1.71875 -1.078125 -3.84375q0 -2.328125 1.3125 -4.34375q1.328125 -2.03125 3.859375 -3.078125q2.546875 -1.0625 5.65625 -1.0625q3.421875 0 6.03125 1.109375q2.625 1.109375 4.03125 3.25q1.40625 2.140625 1.515625 4.84375l-3.90625 0.296875q-0.3125 -2.921875 -2.140625 -4.40625q-1.8125 -1.5 -5.359375 -1.5q-3.6875 0 -5.390625 1.359375q-1.6875 1.359375 -1.6875 3.265625q0 1.65625 1.203125 2.734375q1.171875 1.0625 6.140625 2.1875q4.96875 1.125 6.8125 1.96875q2.6875 1.234375 3.96875 3.140625q1.28125 1.890625 1.28125 4.375q0 2.453125 -1.40625 4.625q-1.40625 2.171875 -4.046875 3.390625q-2.640625 1.203125 -5.9375 1.203125q-4.171875 0 -7.0 -1.21875q-2.8125 -1.21875 -4.421875 -3.65625q-1.609375 -2.453125 -1.6875 -5.546875zm37.607635 6.515625l0.53125 3.328125q-1.59375 0.34375 -2.84375 0.34375q-2.0625 0 -3.203125 -0.65625q-1.125 -0.65625 -1.59375 -1.703125q-0.453125 -1.0625 -0.453125 -4.46875l0 -12.828125l-2.78125 0l0 -2.9375l2.78125 0l0 -5.515625l3.75 -2.28125l0 7.796875l3.8125 0l0 2.9375l-3.8125 0l0 13.046875q0 1.609375 0.203125 2.078125q0.203125 0.453125 0.65625 0.734375q0.453125 0.265625 1.28125 0.265625q0.640625 0 1.671875 -0.140625zm18.148132 0.625q-2.109375 1.78125 -4.046875 2.515625q-1.9375 0.734375 -4.171875 0.734375q-3.671875 0 -5.65625 -1.796875q-1.96875 -1.796875 -1.96875 -4.578125q0 -1.640625 0.75 -2.984375q0.75 -1.359375 1.953125 -2.171875q1.203125 -0.828125 2.71875 -1.25q1.109375 -0.296875 3.359375 -0.5625q4.578125 -0.546875 6.734375 -1.3125q0.03125 -0.765625 0.03125 -0.984375q0 -2.3125 -1.078125 -3.25q-1.4375 -1.28125 -4.296875 -1.28125q-2.671875 0 -3.9375 0.9375q-1.265625 0.921875 -1.875 3.296875l-3.703125 -0.5q0.5 -2.375 1.65625 -3.828125q1.15625 -1.46875 3.34375 -2.25q2.1875 -0.78125 5.0625 -0.78125q2.859375 0 4.640625 0.671875q1.78125 0.671875 2.609375 1.6875q0.84375 1.015625 1.1875 2.5625q0.1875 0.96875 0.1875 3.5l0 5.03125q0 5.265625 0.234375 6.671875q0.25 1.390625 0.96875 2.671875l-3.953125 0q-0.59375 -1.171875 -0.75 -2.75zm-0.328125 -8.4375q-2.046875 0.84375 -6.171875 1.421875q-2.328125 0.34375 -3.296875 0.765625q-0.953125 0.40625 -1.484375 1.21875q-0.53125 0.8125 -0.53125 1.796875q0 1.515625 1.140625 2.53125q1.15625 1.0 3.359375 1.0q2.1875 0 3.875 -0.953125q1.703125 -0.96875 2.515625 -2.625q0.59375 -1.28125 0.59375 -3.78125l0 -1.375zm17.754639 7.8125l0.53125 3.328125q-1.59375 0.34375 -2.84375 0.34375q-2.0625 0 -3.203125 -0.65625q-1.125 -0.65625 -1.59375 -1.703125q-0.453125 -1.0625 -0.453125 -4.46875l0 -12.828125l-2.78125 0l0 -2.9375l2.78125 0l0 -5.515625l3.75 -2.28125l0 7.796875l3.8125 0l0 2.9375l-3.8125 0l0 13.046875q0 1.609375 0.203125 2.078125q0.203125 0.453125 0.65625 0.734375q0.453125 0.265625 1.28125 0.265625q0.640625 0 1.671875 -0.140625zm3.6168823 -23.0625l0 -4.34375l3.78125 0l0 4.34375l-3.78125 0zm0 26.4375l0 -22.296875l3.78125 0l0 22.296875l-3.78125 0zm7.9456177 -6.65625l3.734375 -0.59375q0.3125 2.25 1.75 3.453125q1.4375 1.1875 4.015625 1.1875q2.609375 0 3.859375 -1.046875q1.265625 -1.0625 1.265625 -2.5q0 -1.28125 -1.109375 -2.015625q-0.78125 -0.5 -3.859375 -1.28125q-4.15625 -1.046875 -5.765625 -1.8125q-1.609375 -0.765625 -2.4375 -2.109375q-0.828125 -1.359375 -0.828125 -3.0q0 -1.5 0.671875 -2.765625q0.6875 -1.265625 1.875 -2.109375q0.875 -0.65625 2.390625 -1.09375q1.53125 -0.453125 3.265625 -0.453125q2.625 0 4.609375 0.75q1.984375 0.75 2.921875 2.046875q0.953125 1.296875 1.3125 3.453125l-3.6875 0.5q-0.265625 -1.71875 -1.46875 -2.671875q-1.203125 -0.96875 -3.40625 -0.96875q-2.609375 0 -3.71875 0.859375q-1.109375 0.859375 -1.109375 2.015625q0 0.734375 0.453125 1.3125q0.46875 0.609375 1.453125 1.015625q0.5625 0.203125 3.34375 0.96875q4.0 1.0625 5.578125 1.75q1.59375 0.671875 2.5 1.984375q0.90625 1.296875 0.90625 3.234375q0 1.890625 -1.109375 3.5625q-1.09375 1.65625 -3.171875 2.578125q-2.078125 0.90625 -4.703125 0.90625q-4.34375 0 -6.625 -1.796875q-2.28125 -1.8125 -2.90625 -5.359375zm31.09375 3.28125l0.53125 3.328125q-1.59375 0.34375 -2.84375 0.34375q-2.0625 0 -3.203125 -0.65625q-1.125 -0.65625 -1.59375 -1.703125q-0.453125 -1.0625 -0.453125 -4.46875l0 -12.828125l-2.78125 0l0 -2.9375l2.78125 0l0 -5.515625l3.75 -2.28125l0 7.796875l3.8125 0l0 2.9375l-3.8125 0l0 13.046875q0 1.609375 0.203125 2.078125q0.203125 0.453125 0.65625 0.734375q0.453125 0.265625 1.28125 0.265625q0.640625 0 1.671875 -0.140625zm3.6168823 -23.0625l0 -4.34375l3.78125 0l0 4.34375l-3.78125 0zm0 26.4375l0 -22.296875l3.78125 0l0 22.296875l-3.78125 0zm24.008118 -8.171875l3.703125 0.484375q-0.59375 3.84375 -3.109375 6.015625q-2.515625 2.171875 -6.15625 2.171875q-4.578125 0 -7.359375 -2.984375q-2.78125 -3.0 -2.78125 -8.578125q0 -3.609375 1.1875 -6.3125q1.203125 -2.71875 3.640625 -4.0625q2.453125 -1.359375 5.328125 -1.359375q3.625 0 5.9375 1.84375q2.3125 1.828125 2.96875 5.203125l-3.6875 0.5625q-0.515625 -2.234375 -1.859375 -3.359375q-1.328125 -1.140625 -3.21875 -1.140625q-2.84375 0 -4.640625 2.046875q-1.78125 2.046875 -1.78125 6.46875q0 4.5 1.71875 6.53125q1.71875 2.03125 4.5 2.03125q2.21875 0 3.703125 -1.359375q1.5 -1.359375 1.90625 -4.203125zm5.265625 1.515625l3.734375 -0.59375q0.3125 2.25 1.75 3.453125q1.4375 1.1875 4.015625 1.1875q2.609375 0 3.859375 -1.046875q1.265625 -1.0625 1.265625 -2.5q0 -1.28125 -1.109375 -2.015625q-0.78125 -0.5 -3.859375 -1.28125q-4.15625 -1.046875 -5.765625 -1.8125q-1.609375 -0.765625 -2.4375 -2.109375q-0.828125 -1.359375 -0.828125 -3.0q0 -1.5 0.671875 -2.765625q0.6875 -1.265625 1.875 -2.109375q0.875 -0.65625 2.390625 -1.09375q1.53125 -0.453125 3.265625 -0.453125q2.625 0 4.609375 0.75q1.984375 0.75 2.921875 2.046875q0.953125 1.296875 1.3125 3.453125l-3.6875 0.5q-0.265625 -1.71875 -1.46875 -2.671875q-1.203125 -0.96875 -3.40625 -0.96875q-2.609375 0 -3.71875 0.859375q-1.109375 0.859375 -1.109375 2.015625q0 0.734375 0.453125 1.3125q0.46875 0.609375 1.453125 1.015625q0.5625 0.203125 3.34375 0.96875q4.0 1.0625 5.578125 1.75q1.59375 0.671875 2.5 1.984375q0.90625 1.296875 0.90625 3.234375q0 1.890625 -1.109375 3.5625q-1.09375 1.65625 -3.171875 2.578125q-2.078125 0.90625 -4.703125 0.90625q-4.34375 0 -6.625 -1.796875q-2.28125 -1.8125 -2.90625 -5.359375z" fill-rule="nonzero"></path><path fill="#000000" fill-opacity="0.0" d="m329.5853 840.3843l349.38583 0l0 123.433105l-349.38583 0z" fill-rule="evenodd"></path><path fill="#000000" d="m424.4235 890.3443l0 -30.78125l4.0625 0l0 27.15625l15.15625 0l0 3.625l-19.21875 0zm38.66086 -7.1875l3.90625 0.484375q-0.921875 3.421875 -3.421875 5.3125q-2.5 1.890625 -6.375 1.890625q-4.890625 0 -7.765625 -3.0q-2.859375 -3.015625 -2.859375 -8.453125q0 -5.640625 2.890625 -8.734375q2.90625 -3.109375 7.515625 -3.109375q4.484375 0 7.3125 3.046875q2.828125 3.03125 2.828125 8.5625q0 0.328125 -0.015625 1.0l-16.625 0q0.203125 3.671875 2.0625 5.625q1.875 1.953125 4.671875 1.953125q2.078125 0 3.546875 -1.078125q1.46875 -1.09375 2.328125 -3.5zm-12.40625 -6.109375l12.453125 0q-0.25 -2.8125 -1.421875 -4.21875q-1.8125 -2.171875 -4.6875 -2.171875q-2.609375 0 -4.390625 1.75q-1.765625 1.734375 -1.953125 4.640625zm35.426514 10.546875q-2.109375 1.78125 -4.046875 2.515625q-1.9375 0.734375 -4.171875 0.734375q-3.671875 0 -5.65625 -1.796875q-1.96875 -1.796875 -1.96875 -4.578125q0 -1.640625 0.75 -2.984375q0.75 -1.359375 1.953125 -2.171875q1.203125 -0.828125 2.71875 -1.25q1.109375 -0.296875 3.359375 -0.5625q4.578125 -0.546875 6.734375 -1.3125q0.03125 -0.765625 0.03125 -0.984375q0 -2.3125 -1.078125 -3.25q-1.4375 -1.28125 -4.296875 -1.28125q-2.671875 0 -3.9375 0.9375q-1.265625 0.921875 -1.875 3.296875l-3.703125 -0.5q0.5 -2.375 1.65625 -3.828125q1.15625 -1.46875 3.34375 -2.25q2.1875 -0.78125 5.0625 -0.78125q2.859375 0 4.640625 0.671875q1.78125 0.671875 2.609375 1.6875q0.84375 1.015625 1.1875 2.5625q0.1875 0.96875 0.1875 3.5l0 5.03125q0 5.265625 0.234375 6.671875q0.25 1.390625 0.96875 2.671875l-3.953125 0q-0.59375 -1.171875 -0.75 -2.75zm-0.328125 -8.4375q-2.046875 0.84375 -6.171875 1.421875q-2.328125 0.34375 -3.296875 0.765625q-0.953125 0.40625 -1.484375 1.21875q-0.53125 0.8125 -0.53125 1.796875q0 1.515625 1.140625 2.53125q1.15625 1.0 3.359375 1.0q2.1875 0 3.875 -0.953125q1.703125 -0.96875 2.515625 -2.625q0.59375 -1.28125 0.59375 -3.78125l0 -1.375zm9.457733 11.1875l0 -22.296875l3.390625 0l0 3.375q1.3125 -2.375 2.40625 -3.125q1.109375 -0.75 2.421875 -0.75q1.921875 0 3.890625 1.21875l-1.296875 3.5q-1.390625 -0.8125 -2.78125 -0.8125q-1.234375 0 -2.21875 0.75q-0.984375 0.734375 -1.40625 2.0625q-0.625 2.015625 -0.625 4.40625l0 11.671875l-3.78125 0zm14.2361145 0l0 -22.296875l3.40625 0l0 3.171875q2.453125 -3.671875 7.09375 -3.671875q2.015625 0 3.703125 0.71875q1.703125 0.71875 2.53125 1.90625q0.84375 1.171875 1.1875 2.78125q0.203125 1.0625 0.203125 3.6875l0 13.703125l-3.78125 0l0 -13.5625q0 -2.3125 -0.4375 -3.453125q-0.4375 -1.140625 -1.5625 -1.828125q-1.125 -0.6875 -2.640625 -0.6875q-2.40625 0 -4.171875 1.53125q-1.75 1.53125 -1.75 5.828125l0 12.171875l-3.78125 0zm23.754639 -26.4375l0 -4.34375l3.78125 0l0 4.34375l-3.78125 0zm0 26.4375l0 -22.296875l3.78125 0l0 22.296875l-3.78125 0zm9.445618 0l0 -22.296875l3.40625 0l0 3.171875q2.453125 -3.671875 7.09375 -3.671875q2.015625 0 3.703125 0.71875q1.703125 0.71875 2.53125 1.90625q0.84375 1.171875 1.1875 2.78125q0.203125 1.0625 0.203125 3.6875l0 13.703125l-3.78125 0l0 -13.5625q0 -2.3125 -0.4375 -3.453125q-0.4375 -1.140625 -1.5625 -1.828125q-1.125 -0.6875 -2.640625 -0.6875q-2.40625 0 -4.171875 1.53125q-1.75 1.53125 -1.75 5.828125l0 12.171875l-3.78125 0zm23.035889 1.84375l3.671875 0.546875q0.234375 1.703125 1.28125 2.484375q1.40625 1.046875 3.84375 1.046875q2.625 0 4.046875 -1.046875q1.4375 -1.046875 1.9375 -2.9375q0.296875 -1.15625 0.28125 -4.859375q-2.484375 2.921875 -6.1875 2.921875q-4.59375 0 -7.109375 -3.3125q-2.515625 -3.328125 -2.515625 -7.96875q0 -3.1875 1.15625 -5.875q1.15625 -2.703125 3.34375 -4.171875q2.1875 -1.46875 5.15625 -1.46875q3.9375 0 6.5 3.1875l0 -2.6875l3.484375 0l0 19.265625q0 5.21875 -1.0625 7.390625q-1.046875 2.171875 -3.359375 3.421875q-2.296875 1.265625 -5.65625 1.265625q-3.984375 0 -6.4375 -1.796875q-2.453125 -1.796875 -2.375 -5.40625zm3.125 -13.390625q0 4.390625 1.734375 6.40625q1.75 2.015625 4.375 2.015625q2.609375 0 4.375 -2.0q1.765625 -2.015625 1.765625 -6.296875q0 -4.09375 -1.828125 -6.171875q-1.8125 -2.078125 -4.375 -2.078125q-2.515625 0 -4.28125 2.046875q-1.765625 2.046875 -1.765625 6.078125z" fill-rule="nonzero"></path><path fill="#000000" d="m449.05484 941.3443l0 -27.140625l-10.140625 0l0 -3.640625l24.390625 0l0 3.640625l-10.1875 0l0 27.140625l-4.0625 0zm17.728027 0l0 -30.78125l3.78125 0l0 11.046875q2.65625 -3.0625 6.6875 -3.0625q2.46875 0 4.296875 0.984375q1.828125 0.96875 2.609375 2.6875q0.796875 1.71875 0.796875 5.0l0 14.125l-3.78125 0l0 -14.125q0 -2.84375 -1.234375 -4.125q-1.21875 -1.296875 -3.46875 -1.296875q-1.6875 0 -3.171875 0.875q-1.46875 0.859375 -2.109375 2.359375q-0.625 1.484375 -0.625 4.109375l0 12.203125l-3.78125 0zm38.988983 -7.1875l3.90625 0.484375q-0.921875 3.421875 -3.421875 5.3125q-2.5 1.890625 -6.375 1.890625q-4.890625 0 -7.765625 -3.0q-2.859375 -3.015625 -2.859375 -8.453125q0 -5.640625 2.890625 -8.734375q2.90625 -3.109375 7.515625 -3.109375q4.484375 0 7.3125 3.046875q2.828125 3.03125 2.828125 8.5625q0 0.328125 -0.015625 1.0l-16.625 0q0.203125 3.671875 2.0625 5.625q1.875 1.953125 4.671875 1.953125q2.078125 0 3.546875 -1.078125q1.46875 -1.09375 2.328125 -3.5zm-12.40625 -6.109375l12.453125 0q-0.25 -2.8125 -1.421875 -4.21875q-1.8125 -2.171875 -4.6875 -2.171875q-2.609375 0 -4.390625 1.75q-1.765625 1.734375 -1.953125 4.640625zm19.457764 2.140625q0 -6.1875 3.453125 -9.171875q2.875 -2.46875 7.015625 -2.46875q4.59375 0 7.5 3.015625q2.921875 3.0 2.921875 8.3125q0 4.3125 -1.296875 6.78125q-1.28125 2.46875 -3.75 3.828125q-2.46875 1.359375 -5.375 1.359375q-4.6875 0 -7.578125 -3.0q-2.890625 -3.0 -2.890625 -8.65625zm3.890625 0q0 4.296875 1.859375 6.421875q1.875 2.125 4.71875 2.125q2.8125 0 4.671875 -2.140625q1.875 -2.140625 1.875 -6.53125q0 -4.125 -1.890625 -6.25q-1.875 -2.140625 -4.65625 -2.140625q-2.84375 0 -4.71875 2.125q-1.859375 2.109375 -1.859375 6.390625zm21.207764 11.15625l0 -22.296875l3.390625 0l0 3.375q1.3125 -2.375 2.40625 -3.125q1.109375 -0.75 2.421875 -0.75q1.921875 0 3.890625 1.21875l-1.296875 3.5q-1.390625 -0.8125 -2.78125 -0.8125q-1.234375 0 -2.21875 0.75q-0.984375 0.734375 -1.40625 2.0625q-0.625 2.015625 -0.625 4.40625l0 11.671875l-3.78125 0zm14.079834 8.59375l-0.421875 -3.546875q1.234375 0.328125 2.15625 0.328125q1.265625 0 2.015625 -0.421875q0.765625 -0.421875 1.234375 -1.171875q0.359375 -0.5625 1.15625 -2.8125q0.109375 -0.3125 0.34375 -0.921875l-8.46875 -22.34375l4.078125 0l4.640625 12.90625q0.90625 2.46875 1.609375 5.171875q0.65625 -2.609375 1.5625 -5.078125l4.765625 -13.0l3.78125 0l-8.484375 22.671875q-1.359375 3.671875 -2.125 5.0625q-1.0 1.875 -2.3125 2.734375q-1.296875 0.875 -3.09375 0.875q-1.09375 0 -2.4375 -0.453125z" fill-rule="nonzero"></path><path fill="#000000" fill-opacity="0.0" d="m5.2388453 319.5525l349.38583 0l0 78.58267l-349.38583 0z" fill-rule="evenodd"></path><path fill="#000000" d="m63.476334 354.5281q0 -7.671875 4.109375 -12.0q4.125 -4.34375 10.625 -4.34375q4.265625 0 7.6875 2.046875q3.421875 2.03125 5.21875 5.671875q1.796875 3.640625 1.796875 8.265625q0 4.671875 -1.890625 8.375q-1.890625 3.6875 -5.359375 5.59375q-3.453125 1.90625 -7.46875 1.90625q-4.34375 0 -7.765625 -2.09375q-3.421875 -2.109375 -5.1875 -5.734375q-1.765625 -3.640625 -1.765625 -7.6875zm4.203125 0.0625q0 5.5625 2.984375 8.765625q3.0 3.203125 7.515625 3.203125q4.59375 0 7.5625 -3.234375q2.96875 -3.234375 2.96875 -9.1875q0 -3.75 -1.265625 -6.546875q-1.265625 -2.8125 -3.71875 -4.34375q-2.4375 -1.546875 -5.484375 -1.546875q-4.328125 0 -7.453125 2.96875q-3.109375 2.96875 -3.109375 9.921875zm29.726273 23.46875l0 -30.84375l3.453125 0l0 2.890625q1.21875 -1.6875 2.75 -2.53125q1.53125 -0.859375 3.71875 -0.859375q2.84375 0 5.03125 1.46875q2.1875 1.46875 3.296875 4.140625q1.109375 2.671875 1.109375 5.875q0 3.421875 -1.234375 6.15625q-1.21875 2.734375 -3.5625 4.203125q-2.34375 1.453125 -4.921875 1.453125q-1.890625 0 -3.390625 -0.796875q-1.5 -0.796875 -2.46875 -2.015625l0 10.859375l-3.78125 0zm3.421875 -19.5625q0 4.296875 1.75 6.359375q1.75 2.046875 4.21875 2.046875q2.515625 0 4.3125 -2.125q1.796875 -2.125 1.796875 -6.609375q0 -4.25 -1.75 -6.375q-1.75 -2.125 -4.1875 -2.125q-2.421875 0 -4.28125 2.265625q-1.859375 2.25 -1.859375 6.5625zm28.567123 7.640625l0.53125 3.328125q-1.59375 0.34375 -2.84375 0.34375q-2.0625 0 -3.203125 -0.65625q-1.125 -0.65625 -1.59375 -1.703125q-0.453125 -1.0625 -0.453125 -4.46875l0 -12.828125l-2.78125 0l0 -2.9375l2.78125 0l0 -5.515625l3.75 -2.28125l0 7.796875l3.8125 0l0 2.9375l-3.8125 0l0 13.046875q0 1.609375 0.203125 2.078125q0.203125 0.453125 0.65625 0.734375q0.453125 0.265625 1.28125 0.265625q0.640625 0 1.671875 -0.140625zm3.6168976 -23.0625l0 -4.34375l3.78125 0l0 4.34375l-3.78125 0zm0 26.4375l0 -22.296875l3.78125 0l0 22.296875l-3.78125 0zm9.445602 0l0 -22.296875l3.390625 0l0 3.125q1.046875 -1.640625 2.78125 -2.625q1.75 -1.0 3.96875 -1.0q2.484375 0 4.0625 1.03125q1.59375 1.015625 2.25 2.875q2.640625 -3.90625 6.875 -3.90625q3.328125 0 5.109375 1.84375q1.78125 1.828125 1.78125 5.640625l0 15.3125l-3.75 0l0 -14.046875q0 -2.265625 -0.375 -3.265625q-0.359375 -1.0 -1.328125 -1.609375q-0.96875 -0.609375 -2.265625 -0.609375q-2.359375 0 -3.921875 1.578125q-1.546875 1.5625 -1.546875 5.0l0 12.953125l-3.78125 0l0 -14.484375q0 -2.515625 -0.921875 -3.78125q-0.921875 -1.265625 -3.015625 -1.265625q-1.59375 0 -2.953125 0.84375q-1.359375 0.84375 -1.96875 2.46875q-0.609375 1.609375 -0.609375 4.65625l0 11.5625l-3.78125 0zm35.56424 -26.4375l0 -4.34375l3.78125 0l0 4.34375l-3.78125 0zm0 26.4375l0 -22.296875l3.78125 0l0 22.296875l-3.78125 0zm7.4612274 0l0 -3.0625l14.1875 -16.296875q-2.40625 0.125 -4.265625 0.125l-9.078125 0l0 -3.0625l18.21875 0l0 2.5l-12.078125 14.15625l-2.328125 2.578125q2.546875 -0.1875 4.765625 -0.1875l10.3125 0l0 3.25l-19.734375 0zm37.875 -2.75q-2.109375 1.78125 -4.046875 2.515625q-1.9375 0.734375 -4.171875 0.734375q-3.671875 0 -5.65625 -1.796875q-1.96875 -1.796875 -1.96875 -4.578125q0 -1.640625 0.75 -2.984375q0.75 -1.359375 1.953125 -2.171875q1.203125 -0.828125 2.71875 -1.25q1.109375 -0.296875 3.359375 -0.5625q4.578125 -0.546875 6.734375 -1.3125q0.03125 -0.765625 0.03125 -0.984375q0 -2.3125 -1.078125 -3.25q-1.4375 -1.28125 -4.296875 -1.28125q-2.671875 0 -3.9375 0.9375q-1.265625 0.921875 -1.875 3.296875l-3.703125 -0.5q0.5 -2.375 1.65625 -3.828125q1.15625 -1.46875 3.34375 -2.25q2.1875 -0.78125 5.0625 -0.78125q2.859375 0 4.640625 0.671875q1.78125 0.671875 2.609375 1.6875q0.84375 1.015625 1.1875 2.5625q0.1875 0.96875 0.1875 3.5l0 5.03125q0 5.265625 0.234375 6.671875q0.25 1.390625 0.96875 2.671875l-3.953125 0q-0.59375 -1.171875 -0.75 -2.75zm-0.328125 -8.4375q-2.046875 0.84375 -6.171875 1.421875q-2.328125 0.34375 -3.296875 0.765625q-0.953125 0.40625 -1.484375 1.21875q-0.53125 0.8125 -0.53125 1.796875q0 1.515625 1.140625 2.53125q1.15625 1.0 3.359375 1.0q2.1875 0 3.875 -0.953125q1.703125 -0.96875 2.515625 -2.625q0.59375 -1.28125 0.59375 -3.78125l0 -1.375zm17.754623 7.8125l0.53125 3.328125q-1.59375 0.34375 -2.84375 0.34375q-2.0625 0 -3.203125 -0.65625q-1.125 -0.65625 -1.59375 -1.703125q-0.453125 -1.0625 -0.453125 -4.46875l0 -12.828125l-2.78125 0l0 -2.9375l2.78125 0l0 -5.515625l3.75 -2.28125l0 7.796875l3.8125 0l0 2.9375l-3.8125 0l0 13.046875q0 1.609375 0.203125 2.078125q0.203125 0.453125 0.65625 0.734375q0.453125 0.265625 1.28125 0.265625q0.640625 0 1.671875 -0.140625zm3.6168976 -23.0625l0 -4.34375l3.78125 0l0 4.34375l-3.78125 0zm0 26.4375l0 -22.296875l3.78125 0l0 22.296875l-3.78125 0zm8.039352 -11.15625q0 -6.1875 3.453125 -9.171875q2.8749847 -2.46875 7.0156097 -2.46875q4.59375 0 7.5 3.015625q2.921875 3.0 2.921875 8.3125q0 4.3125 -1.296875 6.78125q-1.28125 2.46875 -3.75 3.828125q-2.46875 1.359375 -5.375 1.359375q-4.6875 0 -7.5781097 -3.0q-2.890625 -3.0 -2.890625 -8.65625zm3.8906097 0q0 4.296875 1.859375 6.421875q1.875 2.125 4.71875 2.125q2.8125 0 4.671875 -2.140625q1.875 -2.140625 1.875 -6.53125q0 -4.125 -1.890625 -6.25q-1.875 -2.140625 -4.65625 -2.140625q-2.84375 0 -4.71875 2.125q-1.859375 2.109375 -1.859375 6.390625zm21.239014 11.15625l0 -22.296875l3.40625 0l0 3.171875q2.453125 -3.671875 7.09375 -3.671875q2.015625 0 3.703125 0.71875q1.703125 0.71875 2.53125 1.90625q0.84375 1.171875 1.1875 2.78125q0.203125 1.0625 0.203125 3.6875l0 13.703125l-3.78125 0l0 -13.5625q0 -2.3125 -0.4375 -3.453125q-0.4375 -1.140625 -1.5625 -1.828125q-1.125 -0.6875 -2.640625 -0.6875q-2.40625 0 -4.171875 1.53125q-1.75 1.53125 -1.75 5.828125l0 12.171875l-3.78125 0z" fill-rule="nonzero"></path><path fill="#000000" fill-opacity="0.0" d="m5.2388453 656.5302l349.38583 0l0 123.433044l-349.38583 0z" fill-rule="evenodd"></path><path fill="#000000" d="m132.25671 706.4902l0 -30.78125l10.609375 0q3.59375 0 5.484375 0.4375q2.640625 0.609375 4.515625 2.203125q2.421875 2.0625 3.625 5.265625q1.21875 3.203125 1.21875 7.3125q0 3.515625 -0.828125 6.21875q-0.8125 2.703125 -2.09375 4.484375q-1.28125 1.765625 -2.8125 2.796875q-1.515625 1.015625 -3.671875 1.546875q-2.140625 0.515625 -4.9375 0.515625l-11.109375 0zm4.078125 -3.625l6.578125 0q3.03125 0 4.765625 -0.5625q1.734375 -0.578125 2.765625 -1.609375q1.453125 -1.453125 2.25 -3.890625q0.8125 -2.453125 0.8125 -5.9375q0 -4.828125 -1.59375 -7.421875q-1.578125 -2.59375 -3.84375 -3.46875q-1.640625 -0.625 -5.265625 -0.625l-6.46875 0l0 23.515625zm41.508102 -3.5625l3.90625 0.484375q-0.921875 3.421875 -3.421875 5.3125q-2.5 1.890625 -6.375 1.890625q-4.890625 0 -7.765625 -3.0q-2.859375 -3.015625 -2.859375 -8.453125q0 -5.640625 2.890625 -8.734375q2.90625 -3.109375 7.515625 -3.109375q4.484375 0 7.3125 3.046875q2.828125 3.03125 2.828125 8.5625q0 0.328125 -0.015625 1.0l-16.625 0q0.203125 3.671875 2.0625 5.625q1.875 1.953125 4.671875 1.953125q2.078125 0 3.546875 -1.078125q1.46875 -1.09375 2.328125 -3.5zm-12.40625 -6.109375l12.453125 0q-0.25 -2.8125 -1.421875 -4.21875q-1.8125 -2.171875 -4.6875 -2.171875q-2.609375 0 -4.390625 1.75q-1.765625 1.734375 -1.953125 4.640625zm36.129623 6.109375l3.90625 0.484375q-0.921875 3.421875 -3.421875 5.3125q-2.5 1.890625 -6.375 1.890625q-4.890625 0 -7.765625 -3.0q-2.859375 -3.015625 -2.859375 -8.453125q0 -5.640625 2.890625 -8.734375q2.90625 -3.109375 7.515625 -3.109375q4.484375 0 7.3125 3.046875q2.828125 3.03125 2.828125 8.5625q0 0.328125 -0.015625 1.0l-16.625 0q0.203125 3.671875 2.0625 5.625q1.875 1.953125 4.671875 1.953125q2.078125 0 3.546875 -1.078125q1.46875 -1.09375 2.328125 -3.5zm-12.40625 -6.109375l12.453125 0q-0.25 -2.8125 -1.421875 -4.21875q-1.8125 -2.171875 -4.6875 -2.171875q-2.609375 0 -4.390625 1.75q-1.765625 1.734375 -1.953125 4.640625zm20.863998 21.84375l0 -30.84375l3.453125 0l0 2.890625q1.21875 -1.6875 2.75 -2.53125q1.53125 -0.859375 3.71875 -0.859375q2.84375 0 5.03125 1.46875q2.1875 1.46875 3.296875 4.140625q1.109375 2.671875 1.109375 5.875q0 3.421875 -1.234375 6.15625q-1.21875 2.734375 -3.5625 4.203125q-2.34375 1.453125 -4.921875 1.453125q-1.890625 0 -3.390625 -0.796875q-1.5 -0.796875 -2.46875 -2.015625l0 10.859375l-3.78125 0zm3.421875 -19.5625q0 4.296875 1.75 6.359375q1.75 2.046875 4.21875 2.046875q2.515625 0 4.3125 -2.125q1.796875 -2.125 1.796875 -6.609375q0 -4.25 -1.75 -6.375q-1.75 -2.125 -4.1875 -2.125q-2.421875 0 -4.28125 2.265625q-1.859375 2.25 -1.859375 6.5625z" fill-rule="nonzero"></path><path fill="#000000" d="m100.077034 757.4902l0 -30.78125l4.0625 0l0 27.15625l15.15625 0l0 3.625l-19.21875 0zm38.660866 -7.1875l3.90625 0.484375q-0.921875 3.421875 -3.421875 5.3125q-2.5 1.890625 -6.375 1.890625q-4.8906174 0 -7.7656174 -3.0q-2.859375 -3.015625 -2.859375 -8.453125q0 -5.640625 2.890625 -8.734375q2.9062424 -3.109375 7.5156174 -3.109375q4.484375 0 7.3125 3.046875q2.828125 3.03125 2.828125 8.5625q0 0.328125 -0.015625 1.0l-16.624992 0q0.203125 3.671875 2.0624924 5.625q1.875 1.953125 4.671875 1.953125q2.078125 0 3.546875 -1.078125q1.46875 -1.09375 2.328125 -3.5zm-12.406242 -6.109375l12.453117 0q-0.25 -2.8125 -1.421875 -4.21875q-1.8125 -2.171875 -4.6875 -2.171875q-2.609375 0 -4.390625 1.75q-1.7656174 1.734375 -1.9531174 4.640625zm35.426506 10.546875q-2.109375 1.78125 -4.046875 2.515625q-1.9375 0.734375 -4.171875 0.734375q-3.671875 0 -5.65625 -1.796875q-1.96875 -1.796875 -1.96875 -4.578125q0 -1.640625 0.75 -2.984375q0.75 -1.359375 1.953125 -2.171875q1.203125 -0.828125 2.71875 -1.25q1.109375 -0.296875 3.359375 -0.5625q4.578125 -0.546875 6.734375 -1.3125q0.03125 -0.765625 0.03125 -0.984375q0 -2.3125 -1.078125 -3.25q-1.4375 -1.28125 -4.296875 -1.28125q-2.671875 0 -3.9375 0.9375q-1.265625 0.921875 -1.875 3.296875l-3.703125 -0.5q0.5 -2.375 1.65625 -3.828125q1.15625 -1.46875 3.34375 -2.25q2.1875 -0.78125 5.0625 -0.78125q2.859375 0 4.640625 0.671875q1.78125 0.671875 2.609375 1.6875q0.84375 1.015625 1.1875 2.5625q0.1875 0.96875 0.1875 3.5l0 5.03125q0 5.265625 0.234375 6.671875q0.25 1.390625 0.96875 2.671875l-3.953125 0q-0.59375 -1.171875 -0.75 -2.75zm-0.328125 -8.4375q-2.046875 0.84375 -6.171875 1.421875q-2.328125 0.34375 -3.296875 0.765625q-0.953125 0.40625 -1.484375 1.21875q-0.53125 0.8125 -0.53125 1.796875q0 1.515625 1.140625 2.53125q1.15625 1.0 3.359375 1.0q2.1875 0 3.875 -0.953125q1.703125 -0.96875 2.515625 -2.625q0.59375 -1.28125 0.59375 -3.78125l0 -1.375zm9.457733 11.1875l0 -22.296875l3.390625 0l0 3.375q1.3125 -2.375 2.40625 -3.125q1.109375 -0.75 2.421875 -0.75q1.921875 0 3.890625 1.21875l-1.296875 3.5q-1.390625 -0.8125 -2.78125 -0.8125q-1.234375 0 -2.21875 0.75q-0.984375 0.734375 -1.40625 2.0625q-0.625 2.015625 -0.625 4.40625l0 11.671875l-3.78125 0zm14.2361145 0l0 -22.296875l3.40625 0l0 3.171875q2.453125 -3.671875 7.09375 -3.671875q2.015625 0 3.703125 0.71875q1.703125 0.71875 2.53125 1.90625q0.84375 1.171875 1.1875 2.78125q0.203125 1.0625 0.203125 3.6875l0 13.703125l-3.78125 0l0 -13.5625q0 -2.3125 -0.4375 -3.453125q-0.4375 -1.140625 -1.5625 -1.828125q-1.125 -0.6875 -2.640625 -0.6875q-2.40625 0 -4.171875 1.53125q-1.75 1.53125 -1.75 5.828125l0 12.171875l-3.78125 0zm23.754639 -26.4375l0 -4.34375l3.78125 0l0 4.34375l-3.78125 0zm0 26.4375l0 -22.296875l3.78125 0l0 22.296875l-3.78125 0zm9.445587 0l0 -22.296875l3.40625 0l0 3.171875q2.453125 -3.671875 7.09375 -3.671875q2.015625 0 3.703125 0.71875q1.703125 0.71875 2.53125 1.90625q0.84375 1.171875 1.1875 2.78125q0.203125 1.0625 0.203125 3.6875l0 13.703125l-3.78125 0l0 -13.5625q0 -2.3125 -0.4375 -3.453125q-0.4375 -1.140625 -1.5625 -1.828125q-1.125 -0.6875 -2.640625 -0.6875q-2.40625 0 -4.171875 1.53125q-1.75 1.53125 -1.75 5.828125l0 12.171875l-3.78125 0zm23.035889 1.84375l3.671875 0.546875q0.234375 1.703125 1.28125 2.484375q1.40625 1.046875 3.84375 1.046875q2.625 0 4.046875 -1.046875q1.4375 -1.046875 1.9374847 -2.9375q0.296875 -1.15625 0.28125 -4.859375q-2.4843597 2.921875 -6.1874847 2.921875q-4.59375 0 -7.109375 -3.3125q-2.515625 -3.328125 -2.515625 -7.96875q0 -3.1875 1.15625 -5.875q1.15625 -2.703125 3.34375 -4.171875q2.1875 -1.46875 5.15625 -1.46875q3.9375 0 6.4999847 3.1875l0 -2.6875l3.484375 0l0 19.265625q0 5.21875 -1.0625 7.390625q-1.046875 2.171875 -3.3593597 3.421875q-2.296875 1.265625 -5.65625 1.265625q-3.984375 0 -6.4375 -1.796875q-2.453125 -1.796875 -2.375 -5.40625zm3.125 -13.390625q0 4.390625 1.734375 6.40625q1.75 2.015625 4.375 2.015625q2.609375 0 4.375 -2.0q1.7656097 -2.015625 1.7656097 -6.296875q0 -4.09375 -1.8281097 -6.171875q-1.8125 -2.078125 -4.375 -2.078125q-2.515625 0 -4.28125 2.046875q-1.765625 2.046875 -1.765625 6.078125z" fill-rule="nonzero"></path></g></svg>

