<?xml version="1.0" standalone="yes"?>

<svg version="1.1" viewBox="0.0 0.0 460.90288713910763 335.1653543307087" fill="none" stroke="none" stroke-linecap="square" stroke-miterlimit="10" xmlns="http://www.w3.org/2000/svg" xmlns:xlink="http://www.w3.org/1999/xlink"><clipPath id="p.0"><path d="m0 0l460.9029 0l0 335.16534l-460.9029 0l0 -335.16534z" clip-rule="nonzero"></path></clipPath><g clip-path="url(#p.0)"><path fill="#000000" fill-opacity="0.0" d="m0 0l460.9029 0l0 335.16534l-460.9029 0z" fill-rule="evenodd"></path><path fill="#f1c232" d="m80.86504 286.79282l0 0c0 -24.904907 20.189415 -45.094315 45.094315 -45.094315l0 0c11.959755 0 23.42968 4.750992 31.886497 13.207809c8.456833 8.456818 13.207825 19.926758 13.207825 31.886505l0 0c0 24.904907 -20.189407 45.09433 -45.094322 45.09433l0 0c-24.9049 0 -45.094315 -20.189423 -45.094315 -45.09433z" fill-rule="evenodd"></path><path stroke="#000000" stroke-width="1.0" stroke-linejoin="round" stroke-linecap="butt" d="m80.86504 286.79282l0 0c0 -24.904907 20.189415 -45.094315 45.094315 -45.094315l0 0c11.959755 0 23.42968 4.750992 31.886497 13.207809c8.456833 8.456818 13.207825 19.926758 13.207825 31.886505l0 0c0 24.904907 -20.189407 45.09433 -45.094322 45.09433l0 0c-24.9049 0 -45.094315 -20.189423 -45.094315 -45.09433z" fill-rule="evenodd"></path><path fill="#000000" fill-opacity="0.0" d="m96.36151 262.72476l59.19435 0l0 48.13626l-59.19435 0z" fill-rule="evenodd"></path><path fill="#ffffff" d="m112.79674 286.88974q0 -1.890625 0.53125 -3.40625q0.546875 -1.515625 1.515625 -2.5625q0.96875 -1.0625 2.28125 -1.625q1.328125 -0.5625 2.921875 -0.5625q1.625 0 2.71875 0.609375q1.09375 0.609375 1.796875 1.328125l-1.140625 1.28125q-0.59375 -0.625 -1.375 -1.046875q-0.78125 -0.421875 -1.984375 -0.421875q-1.203125 0 -2.15625 0.453125q-0.953125 0.4375 -1.625 1.265625q-0.671875 0.828125 -1.046875 2.0q-0.375 1.171875 -0.375 2.640625q0 1.484375 0.34375 2.671875q0.359375 1.1875 1.015625 2.03125q0.65625 0.84375 1.625 1.296875q0.96875 0.453125 2.25 0.453125q0.84375 0 1.59375 -0.25q0.75 -0.25 1.234375 -0.6875l0 -4.09375l-3.328125 0l0 -1.65625l5.15625 0l0 6.625q-0.765625 0.78125 -2.03125 1.296875q-1.265625 0.515625 -2.84375 0.515625q-1.5625 0 -2.859375 -0.546875q-1.296875 -0.546875 -2.234375 -1.59375q-0.9375 -1.046875 -1.46875 -2.5625q-0.515625 -1.53125 -0.515625 -3.453125zm16.526703 -6.1875q-0.5625 0 -0.96875 -0.359375q-0.390625 -0.359375 -0.390625 -0.921875q0 -0.5625 0.390625 -0.90625q0.40625 -0.359375 0.96875 -0.359375q0.578125 0 0.96875 0.359375q0.40625 0.34375 0.40625 0.90625q0 0.5625 -0.40625 0.921875q-0.390625 0.359375 -0.96875 0.359375zm-1.0 2.40625l1.96875 0l0 11.65625l-1.96875 0l0 -11.65625zm6.2321014 1.59375l-1.71875 0l0 -1.484375l1.828125 -0.109375l0.234375 -3.265625l1.65625 0l0 3.265625l3.140625 0l0 1.59375l-3.140625 0l0 6.484375q0 1.078125 0.390625 1.671875q0.40625 0.59375 1.40625 0.59375q0.3125 0 0.671875 -0.09375q0.359375 -0.109375 0.65625 -0.21875l0.375 1.484375q-0.484375 0.171875 -1.046875 0.296875q-0.5625 0.125 -1.109375 0.125q-0.9375 0 -1.578125 -0.28125q-0.625 -0.28125 -1.03125 -0.78125q-0.390625 -0.515625 -0.5625 -1.234375q-0.171875 -0.71875 -0.171875 -1.578125l0 -6.46875z" fill-rule="nonzero"></path><path fill="#f1c232" d="m10.755152 288.19885l0 0c0 -19.040497 15.5142765 -34.47589 34.652107 -34.47589l0 0c9.190311 0 18.004208 3.6322632 24.502739 10.097748c6.4985275 6.4654846 10.149368 15.234589 10.149368 24.378143l0 0c0 19.040527 -15.514275 34.47592 -34.652107 34.47592l0 0c-19.137829 0 -34.652107 -15.435394 -34.652107 -34.47592z" fill-rule="evenodd"></path><path stroke="#000000" stroke-width="1.0" stroke-linejoin="round" stroke-linecap="butt" d="m10.755152 288.19885l0 0c0 -19.040497 15.5142765 -34.47589 34.652107 -34.47589l0 0c9.190311 0 18.004208 3.6322632 24.502739 10.097748c6.4985275 6.4654846 10.149368 15.234589 10.149368 24.378143l0 0c0 19.040527 -15.514275 34.47592 -34.652107 34.47592l0 0c-19.137829 0 -34.652107 -15.435394 -34.652107 -34.47592z" fill-rule="evenodd"></path><path fill="#000000" fill-opacity="0.0" d="m12.570483 262.90033l65.67019 0l0 50.59903l-65.67019 0z" fill-rule="evenodd"></path><path fill="#ffffff" d="m27.400753 291.50284q0.84375 0.890625 1.984375 1.4375q1.140625 0.53125 2.359375 0.53125q1.5625 0 2.421875 -0.703125q0.875 -0.703125 0.875 -1.859375q0 -0.59375 -0.203125 -1.015625q-0.203125 -0.421875 -0.5625 -0.71875q-0.34375 -0.3125 -0.828125 -0.546875q-0.46875 -0.234375 -1.03125 -0.5l-2.25 -0.984375q-0.546875 -0.25 -1.125 -0.578125q-0.578125 -0.34375 -1.03125 -0.8125q-0.453125 -0.484375 -0.75 -1.140625q-0.28125 -0.65625 -0.28125 -1.53125q0 -0.890625 0.359375 -1.65625q0.375 -0.765625 1.03125 -1.328125q0.671875 -0.5625 1.5625 -0.875q0.90625 -0.3125 1.984375 -0.3125q1.421875 0 2.609375 0.546875q1.203125 0.53125 2.046875 1.390625l-1.078125 1.296875q-0.71875 -0.6875 -1.59375 -1.078125q-0.875 -0.40625 -1.984375 -0.40625q-1.3125 0 -2.125 0.609375q-0.796875 0.609375 -0.796875 1.703125q0 0.5625 0.21875 0.96875q0.234375 0.390625 0.609375 0.6875q0.390625 0.296875 0.84375 0.53125q0.453125 0.234375 0.9375 0.421875l2.234375 0.953125q0.671875 0.296875 1.265625 0.671875q0.609375 0.359375 1.03125 0.859375q0.4375 0.484375 0.6875 1.15625q0.25 0.65625 0.25 1.515625q0 0.9375 -0.375 1.765625q-0.359375 0.8125 -1.0625 1.421875q-0.6875 0.609375 -1.671875 0.953125q-0.984375 0.34375 -2.234375 0.34375q-1.65625 0 -3.078125 -0.609375q-1.40625 -0.625 -2.4375 -1.71875l1.1875 -1.390625zm13.925339 -4.5q0 1.5 0.328125 2.71875q0.34375 1.203125 0.953125 2.078125q0.609375 0.859375 1.453125 1.3125q0.859375 0.453125 1.921875 0.453125q1.0625 0 1.90625 -0.453125q0.859375 -0.453125 1.46875 -1.3125q0.609375 -0.875 0.9375 -2.078125q0.34375 -1.21875 0.34375 -2.71875q0 -1.46875 -0.34375 -2.640625q-0.328125 -1.1875 -0.9375 -2.0q-0.609375 -0.8125 -1.46875 -1.25q-0.84375 -0.453125 -1.90625 -0.453125q-1.0625 0 -1.921875 0.453125q-0.84375 0.4375 -1.453125 1.25q-0.609375 0.8125 -0.953125 2.0q-0.328125 1.171875 -0.328125 2.640625zm11.734375 11.515625q-0.359375 0.125 -0.96875 0.234375q-0.59375 0.125 -1.28125 0.125q-2.1875 0 -3.65625 -1.046875q-1.453125 -1.046875 -2.15625 -2.671875q-1.296875 -0.171875 -2.359375 -0.8125q-1.046875 -0.65625 -1.8125 -1.703125q-0.75 -1.0625 -1.15625 -2.484375q-0.40625 -1.4375 -0.40625 -3.15625q0 -1.90625 0.484375 -3.40625q0.5 -1.5 1.390625 -2.53125q0.890625 -1.046875 2.125 -1.59375q1.234375 -0.5625 2.71875 -0.5625q1.484375 0 2.71875 0.5625q1.234375 0.5625 2.140625 1.609375q0.90625 1.046875 1.390625 2.546875q0.5 1.5 0.5 3.375q0 1.703125 -0.40625 3.109375q-0.390625 1.390625 -1.125 2.4375q-0.734375 1.046875 -1.765625 1.703125q-1.03125 0.65625 -2.28125 0.875q0.5625 1.0625 1.5625 1.5625q1.015625 0.5 2.3125 0.5q0.515625 0 0.90625 -0.078125q0.40625 -0.0625 0.734375 -0.15625l0.390625 1.5625zm3.0453339 -19.328125l2.0 0l0 14.046875l6.890621 0l0 1.703125l-8.890621 0l0 -15.75z" fill-rule="nonzero"></path><path fill="#f1c232" d="m163.59332 246.41917l0 0c0 -21.813675 17.713425 -39.49716 39.564026 -39.49716l0 0c10.493027 0 20.55629 4.1613007 27.975983 11.568451c7.419693 7.4071503 11.588028 17.453415 11.588028 27.92871l0 0c0 21.813705 -17.71341 39.497177 -39.56401 39.497177l0 0c-21.850601 0 -39.564026 -17.683472 -39.564026 -39.497177z" fill-rule="evenodd"></path><path stroke="#000000" stroke-width="1.0" stroke-linejoin="round" stroke-linecap="butt" d="m163.59332 246.41917l0 0c0 -21.813675 17.713425 -39.49716 39.564026 -39.49716l0 0c10.493027 0 20.55629 4.1613007 27.975983 11.568451c7.419693 7.4071503 11.588028 17.453415 11.588028 27.92871l0 0c0 21.813705 -17.71341 39.497177 -39.56401 39.497177l0 0c-21.850601 0 -39.564026 -17.683472 -39.564026 -39.497177z" fill-rule="evenodd"></path><path fill="#000000" fill-opacity="0.0" d="m155.92075 223.25688l94.47345 0l0 47.33928l-94.47345 0z" fill-rule="evenodd"></path><path fill="#ffffff" d="m170.83781 239.54688l2.0625 0l5.6875 9.890625l1.703125 3.265625l0.109375 0q-0.078125 -1.203125 -0.171875 -2.484375q-0.078125 -1.28125 -0.078125 -2.53125l0 -8.140625l1.90625 0l0 15.75l-2.078125 0l-5.703125 -9.90625l-1.703125 -3.25l-0.09375 0q0.09375 1.203125 0.171875 2.4375q0.09375 1.234375 0.09375 2.484375l0 8.234375l-1.90625 0l0 -15.75zm14.481079 9.9375q0 -1.453125 0.4375 -2.59375q0.4375 -1.140625 1.1875 -1.9375q0.75 -0.796875 1.71875 -1.203125q0.96875 -0.40625 2.046875 -0.40625q1.078125 0 2.046875 0.40625q0.984375 0.40625 1.71875 1.203125q0.75 0.796875 1.1875 1.9375q0.453125 1.140625 0.453125 2.59375q0 1.4375 -0.453125 2.578125q-0.4375 1.140625 -1.1875 1.921875q-0.734375 0.78125 -1.71875 1.1875q-0.96875 0.40625 -2.046875 0.40625q-1.078125 0 -2.046875 -0.40625q-0.96875 -0.40625 -1.71875 -1.1875q-0.75 -0.78125 -1.1875 -1.921875q-0.4375 -1.140625 -0.4375 -2.578125zm2.03125 0q0 1.015625 0.234375 1.828125q0.25 0.8125 0.6875 1.40625q0.453125 0.59375 1.078125 0.921875q0.625 0.3125 1.359375 0.3125q0.75 0 1.375 -0.3125q0.625 -0.328125 1.0625 -0.921875q0.453125 -0.59375 0.6875 -1.40625q0.234375 -0.8125 0.234375 -1.828125q0 -1.0 -0.234375 -1.828125q-0.234375 -0.828125 -0.6875 -1.421875q-0.4375 -0.609375 -1.0625 -0.921875q-0.625 -0.328125 -1.375 -0.328125q-0.734375 0 -1.359375 0.328125q-0.625 0.3125 -1.078125 0.921875q-0.4375 0.59375 -0.6875 1.421875q-0.234375 0.828125 -0.234375 1.828125zm12.070465 2.375q0.84375 0.890625 1.984375 1.4375q1.140625 0.53125 2.359375 0.53125q1.5625 0 2.421875 -0.703125q0.875 -0.703125 0.875 -1.859375q0 -0.59375 -0.203125 -1.015625q-0.203125 -0.421875 -0.5625 -0.71875q-0.34375 -0.3125 -0.828125 -0.546875q-0.46875 -0.234375 -1.03125 -0.5l-2.25 -0.984375q-0.546875 -0.25 -1.125 -0.578125q-0.578125 -0.34375 -1.03125 -0.8125q-0.453125 -0.484375 -0.75 -1.140625q-0.28125 -0.65625 -0.28125 -1.53125q0 -0.890625 0.359375 -1.65625q0.375 -0.765625 1.03125 -1.328125q0.671875 -0.5625 1.5625 -0.875q0.90625 -0.3125 1.984375 -0.3125q1.421875 0 2.609375 0.546875q1.203125 0.53125 2.046875 1.390625l-1.078125 1.296875q-0.71875 -0.6875 -1.59375 -1.078125q-0.875 -0.40625 -1.984375 -0.40625q-1.3125 0 -2.125 0.609375q-0.796875 0.609375 -0.796875 1.703125q0 0.5625 0.21875 0.96875q0.234375 0.390625 0.609375 0.6875q0.390625 0.296875 0.84375 0.53125q0.453125 0.234375 0.9375 0.421875l2.234375 0.953125q0.671875 0.296875 1.265625 0.671875q0.609375 0.359375 1.03125 0.859375q0.4375 0.484375 0.6875 1.15625q0.25 0.65625 0.25 1.515625q0 0.9375 -0.375 1.765625q-0.359375 0.8125 -1.0625 1.421875q-0.6875 0.609375 -1.671875 0.953125q-0.984375 0.34375 -2.234375 0.34375q-1.65625 0 -3.078125 -0.609375q-1.40625 -0.625 -2.4375 -1.71875l1.1875 -1.390625zm13.925339 -4.5q0 1.5 0.328125 2.71875q0.34375 1.203125 0.953125 2.078125q0.609375 0.859375 1.453125 1.3125q0.859375 0.453125 1.921875 0.453125q1.0625 0 1.90625 -0.453125q0.859375 -0.453125 1.46875 -1.3125q0.609375 -0.875 0.9375 -2.078125q0.34375 -1.21875 0.34375 -2.71875q0 -1.46875 -0.34375 -2.640625q-0.328125 -1.1875 -0.9375 -2.0q-0.609375 -0.8125 -1.46875 -1.25q-0.84375 -0.453125 -1.90625 -0.453125q-1.0625 0 -1.921875 0.453125q-0.84375 0.4375 -1.453125 1.25q-0.609375 0.8125 -0.953125 2.0q-0.328125 1.171875 -0.328125 2.640625zm11.734375 11.515625q-0.359375 0.125 -0.96875 0.234375q-0.59375 0.125 -1.28125 0.125q-2.1875 0 -3.65625 -1.046875q-1.453125 -1.046875 -2.15625 -2.671875q-1.296875 -0.171875 -2.359375 -0.8125q-1.046875 -0.65625 -1.8125 -1.703125q-0.75 -1.0625 -1.15625 -2.484375q-0.40625 -1.4375 -0.40625 -3.15625q0 -1.90625 0.484375 -3.40625q0.5 -1.5 1.390625 -2.53125q0.890625 -1.046875 2.125 -1.59375q1.234375 -0.5625 2.71875 -0.5625q1.484375 0 2.71875 0.5625q1.234375 0.5625 2.140625 1.609375q0.90625 1.046875 1.390625 2.546875q0.5 1.5 0.5 3.375q0 1.703125 -0.40625 3.109375q-0.390625 1.390625 -1.125 2.4375q-0.734375 1.046875 -1.765625 1.703125q-1.03125 0.65625 -2.28125 0.875q0.5625 1.0625 1.5625 1.5625q1.015625 0.5 2.3125 0.5q0.515625 0 0.90625 -0.078125q0.40625 -0.0625 0.734375 -0.15625l0.390625 1.5625zm3.0453339 -19.328125l2.0 0l0 14.046875l6.890625 0l0 1.703125l-8.890625 0l0 -15.75z" fill-rule="nonzero"></path><path fill="#6aa84f" d="m2.38086 198.74135l0 0c0 -30.30452 24.566666 -54.87117 54.87118 -54.87117l0 0c14.552746 0 28.509441 5.7810516 38.799786 16.071396c10.290344 10.290344 16.071396 24.24704 16.071396 38.799774l0 0c0 30.30452 -24.566666 54.871185 -54.87118 54.871185l0 0c-30.304516 0 -54.87118 -24.566666 -54.87118 -54.871185z" fill-rule="evenodd"></path><path stroke="#000000" stroke-width="1.0" stroke-linejoin="round" stroke-linecap="butt" d="m2.38086 198.74135l0 0c0 -30.30452 24.566666 -54.87117 54.87118 -54.87117l0 0c14.552746 0 28.509441 5.7810516 38.799786 16.071396c10.290344 10.290344 16.071396 24.24704 16.071396 38.799774l0 0c0 30.30452 -24.566666 54.871185 -54.87118 54.871185l0 0c-30.304516 0 -54.87118 -24.566666 -54.87118 -54.871185z" fill-rule="evenodd"></path><path fill="#000000" fill-opacity="0.0" d="m13.527881 161.59195l87.45095 0l0 75.588425l-87.45095 0z" fill-rule="evenodd"></path><path fill="#ffffff" d="m31.67657 190.19446q0.84375 0.890625 1.984375 1.4375q1.140625 0.53125 2.359375 0.53125q1.5625 0 2.421875 -0.703125q0.875 -0.703125 0.875 -1.859375q0 -0.59375 -0.203125 -1.015625q-0.203125 -0.421875 -0.5625 -0.71875q-0.34375 -0.3125 -0.828125 -0.546875q-0.46875 -0.234375 -1.03125 -0.5l-2.25 -0.984375q-0.546875 -0.25 -1.125 -0.578125q-0.578125 -0.34375 -1.03125 -0.8125q-0.453125 -0.484375 -0.75 -1.140625q-0.28125 -0.65625 -0.28125 -1.53125q0 -0.890625 0.359375 -1.65625q0.375 -0.765625 1.03125 -1.328125q0.671875 -0.5625 1.5625 -0.875q0.90625 -0.3125 1.984375 -0.3125q1.421875 0 2.609375 0.546875q1.203125 0.53125 2.046875 1.390625l-1.078125 1.296875q-0.71875 -0.6875 -1.59375 -1.078125q-0.875 -0.40625 -1.984375 -0.40625q-1.3125 0 -2.125 0.609375q-0.796875 0.609375 -0.796875 1.703125q0 0.5625 0.21875 0.96875q0.234375 0.390625 0.609375 0.6875q0.390625 0.296875 0.84375 0.53125q0.453125 0.234375 0.9375 0.421875l2.234375 0.953125q0.671875 0.296875 1.265625 0.671875q0.609375 0.359375 1.03125 0.859375q0.4375 0.484375 0.6875 1.15625q0.25 0.65625 0.25 1.515625q0 0.9375 -0.375 1.765625q-0.359375 0.8125 -1.0625 1.421875q-0.6875 0.609375 -1.671875 0.953125q-0.984375 0.34375 -2.234375 0.34375q-1.65625 0 -3.078125 -0.609375q-1.40625 -0.625 -2.4375 -1.71875l1.1875 -1.390625zm11.722214 -2.375q0 -1.453125 0.453125 -2.59375q0.453125 -1.140625 1.21875 -1.9375q0.765625 -0.796875 1.78125 -1.203125q1.03125 -0.40625 2.15625 -0.40625q1.15625 0 1.984375 0.421875q0.828125 0.421875 1.421875 0.96875l-0.984375 1.28125q-0.53125 -0.46875 -1.09375 -0.75q-0.5625 -0.28125 -1.25 -0.28125q-0.796875 0 -1.46875 0.328125q-0.671875 0.3125 -1.15625 0.921875q-0.46875 0.59375 -0.75 1.421875q-0.28125 0.828125 -0.28125 1.828125q0 1.015625 0.265625 1.828125q0.265625 0.8125 0.734375 1.40625q0.46875 0.59375 1.140625 0.921875q0.671875 0.3125 1.46875 0.3125q0.828125 0 1.515625 -0.34375q0.6875 -0.359375 1.21875 -0.828125l0.890625 1.296875q-0.796875 0.6875 -1.78125 1.09375q-0.96875 0.40625 -2.015625 0.40625q-1.15625 0 -2.171875 -0.40625q-1.0 -0.40625 -1.734375 -1.1875q-0.734375 -0.78125 -1.15625 -1.921875q-0.40625 -1.140625 -0.40625 -2.578125zm12.803345 -8.25q-0.5625 0 -0.96875 -0.359375q-0.390625 -0.359375 -0.390625 -0.921875q0 -0.5625 0.390625 -0.90625q0.40625 -0.359375 0.96875 -0.359375q0.578125 0 0.96875 0.359375q0.40625 0.34375 0.40625 0.90625q0 0.5625 -0.40625 0.921875q-0.390625 0.359375 -0.96875 0.359375zm-1.0 2.40625l1.96875 0l0 11.65625l-1.96875 0l0 -11.65625zm5.9039764 -5.4375l1.9375 0l0 11.578125l0.078125 0l4.968746 -6.140625l2.1875 0l-3.921875 4.671875l4.4375 6.984375l-2.15625 0l-3.40625 -5.609375l-2.1874962 2.53125l0 3.078125l-1.9375 0l0 -17.09375zm12.879955 3.03125q-0.5625 0 -0.96875 -0.359375q-0.390625 -0.359375 -0.390625 -0.921875q0 -0.5625 0.390625 -0.90625q0.40625 -0.359375 0.96875 -0.359375q0.578125 0 0.96875 0.359375q0.40625 0.34375 0.40625 0.90625q0 0.5625 -0.40625 0.921875q-0.390625 0.359375 -0.96875 0.359375zm-1.0 2.40625l1.96875 0l0 11.65625l-1.96875 0l0 -11.65625zm6.2321014 1.59375l-1.71875 0l0 -1.484375l1.828125 -0.109375l0.234375 -3.265625l1.65625 0l0 3.265625l3.140625 0l0 1.59375l-3.140625 0l0 6.484375q0 1.078125 0.390625 1.671875q0.40625 0.59375 1.40625 0.59375q0.3125 0 0.671875 -0.09375q0.359375 -0.109375 0.65625 -0.21875l0.375 1.484375q-0.484375 0.171875 -1.046875 0.296875q-0.5625 0.125 -1.109375 0.125q-0.9375 0 -1.578125 -0.28125q-0.625 -0.28125 -1.03125 -0.78125q-0.390625 -0.515625 -0.5625 -1.234375q-0.171875 -0.71875 -0.171875 -1.578125l0 -6.46875z" fill-rule="nonzero"></path><path fill="#ffffff" d="m30.753689 206.88196l2.0 0l0 14.046875l6.890625 0l0 1.703125l-8.890625 0l0 -15.75zm10.617096 9.9375q0 -1.4375 0.4375 -2.578125q0.4375 -1.140625 1.171875 -1.921875q0.734375 -0.796875 1.671875 -1.21875q0.9375 -0.421875 1.953125 -0.421875q1.09375 0 1.96875 0.390625q0.875 0.375 1.46875 1.09375q0.59375 0.71875 0.890625 1.734375q0.3125 1.0 0.3125 2.25q0 0.65625 -0.0625 1.078125l-7.875 0q0.125 1.90625 1.15625 3.015625q1.046875 1.09375 2.734375 1.09375q0.84375 0 1.546875 -0.25q0.703125 -0.25 1.359375 -0.65625l0.6875 1.296875q-0.765625 0.46875 -1.703125 0.828125q-0.9375 0.359375 -2.125 0.359375q-1.1875 0 -2.203125 -0.40625q-1.015625 -0.421875 -1.78125 -1.203125q-0.75 -0.78125 -1.1875 -1.90625q-0.421875 -1.140625 -0.421875 -2.578125zm8.15625 -0.890625q0 -1.796875 -0.765625 -2.734375q-0.75 -0.953125 -2.109375 -0.953125q-0.625 0 -1.203125 0.25q-0.5625 0.25 -1.015625 0.71875q-0.453125 0.46875 -0.75 1.15625q-0.296875 0.6875 -0.390625 1.5625l6.234375 0zm4.028961 3.671875q0 -1.90625 1.71875 -2.921875q1.71875 -1.03125 5.453125 -1.4375q0 -0.546875 -0.109375 -1.078125q-0.09375 -0.53125 -0.375 -0.9375q-0.28125 -0.40625 -0.734375 -0.65625q-0.453125 -0.25 -1.171875 -0.25q-1.03125 0 -1.90625 0.390625q-0.875 0.375 -1.578125 0.84375l-0.796875 -1.359375q0.828125 -0.53125 2.0 -1.015625q1.171875 -0.5 2.59375 -0.5q2.125 0 3.078125 1.3125q0.96875 1.296875 0.96875 3.484375l0 7.15625l-1.625 0l-0.171875 -1.390625l-0.046875 0q-0.84375 0.6875 -1.8125 1.1875q-0.96875 0.484375 -2.046875 0.484375q-1.484375 0 -2.46875 -0.859375q-0.96875 -0.859375 -0.96875 -2.453125zm1.953125 -0.140625q0 1.015625 0.578125 1.453125q0.59375 0.421875 1.453125 0.421875q0.84375 0 1.59375 -0.390625q0.765625 -0.40625 1.59375 -1.171875l0 -3.234375q-1.453125 0.1875 -2.46875 0.453125q-1.0 0.265625 -1.625 0.625q-0.609375 0.359375 -0.875 0.828125q-0.25 0.46875 -0.25 1.015625zm10.91296 -8.484375l1.625 0l0.171875 2.109375l0.078125 0q0.59375 -1.109375 1.4375 -1.75q0.859375 -0.65625 1.875 -0.65625q0.6875 0 1.25 0.234375l-0.390625 1.734375q-0.28125 -0.09375 -0.53125 -0.140625q-0.234375 -0.046875 -0.59375 -0.046875q-0.75 0 -1.5625 0.609375q-0.796875 0.59375 -1.390625 2.078125l0 7.484375l-1.96875 0l0 -11.65625zm8.327972 0l1.625 0l0.171875 1.671875l0.078125 0q0.84375 -0.84375 1.765625 -1.40625q0.921875 -0.5625 2.140625 -0.5625q1.84375 0 2.6875 1.15625q0.859375 1.15625 0.859375 3.40625l0 7.390625l-1.953125 0l0 -7.125q0 -1.65625 -0.53125 -2.390625q-0.53125 -0.734375 -1.6875 -0.734375q-0.90625 0 -1.609375 0.453125q-0.6875 0.453125 -1.578125 1.34375l0 8.453125l-1.96875 0l0 -11.65625z" fill-rule="nonzero"></path><path fill="#6aa84f" d="m146.72708 51.330734l0 0c0 -27.397924 22.210403 -49.60833 49.608322 -49.60833l0 0c13.156952 0 25.775024 5.226577 35.078384 14.529943c9.303375 9.303366 14.529953 21.921438 14.529953 35.078384l0 0c0 27.397926 -22.210419 49.60833 -49.608337 49.60833l0 0c-27.397919 0 -49.608322 -22.210403 -49.608322 -49.60833z" fill-rule="evenodd"></path><path stroke="#000000" stroke-width="1.0" stroke-linejoin="round" stroke-linecap="butt" d="m146.72708 51.330734l0 0c0 -27.397924 22.210403 -49.60833 49.608322 -49.60833l0 0c13.156952 0 25.775024 5.226577 35.078384 14.529943c9.303375 9.303366 14.529953 21.921438 14.529953 35.078384l0 0c0 27.397926 -22.210419 49.60833 -49.608337 49.60833l0 0c-27.397919 0 -49.608322 -22.210403 -49.608322 -49.60833z" fill-rule="evenodd"></path><path fill="#000000" fill-opacity="0.0" d="m145.25002 27.043528l102.17195 0l0 48.57399l-102.17195 0z" fill-rule="evenodd"></path><path fill="#ffffff" d="m163.63397 45.02103l-4.75 0l0 -1.6875l11.515625 0l0 1.6875l-4.75 0l0 14.0625l-2.015625 0l0 -14.0625zm9.410843 -3.03125l1.96875 0l0 4.65625l-0.078125 2.40625q0.84375 -0.796875 1.75 -1.359375q0.921875 -0.5625 2.140625 -0.5625q1.84375 0 2.6875 1.15625q0.859375 1.15625 0.859375 3.40625l0 7.390625l-1.953125 0l0 -7.125q0 -1.65625 -0.53125 -2.390625q-0.53125 -0.734375 -1.6875 -0.734375q-0.90625 0 -1.609375 0.453125q-0.6875 0.453125 -1.578125 1.34375l0 8.453125l-1.96875 0l0 -17.09375zm12.196594 11.28125q0 -1.4375 0.4375 -2.578125q0.4375 -1.140625 1.171875 -1.921875q0.734375 -0.796875 1.671875 -1.21875q0.9375 -0.421875 1.953125 -0.421875q1.09375 0 1.96875 0.390625q0.875 0.375 1.46875 1.09375q0.59375 0.71875 0.890625 1.734375q0.3125 1.0 0.3125 2.25q0 0.65625 -0.0625 1.078125l-7.875 0q0.125 1.90625 1.15625 3.015625q1.046875 1.09375 2.734375 1.09375q0.84375 0 1.546875 -0.25q0.703125 -0.25 1.359375 -0.65625l0.6875 1.296875q-0.765625 0.46875 -1.703125 0.828125q-0.9375 0.359375 -2.125 0.359375q-1.1875 0 -2.203125 -0.40625q-1.015625 -0.421875 -1.78125 -1.203125q-0.75 -0.78125 -1.1875 -1.90625q-0.421875 -1.140625 -0.421875 -2.578125zm8.15625 -0.890625q0 -1.796875 -0.765625 -2.734375q-0.75 -0.953125 -2.109375 -0.953125q-0.625 0 -1.203125 0.25q-0.5625 0.25 -1.015625 0.71875q-0.453125 0.46875 -0.75 1.15625q-0.296875 0.6875 -0.390625 1.5625l6.234375 0zm4.028961 3.671875q0 -1.90625 1.71875 -2.921875q1.71875 -1.03125 5.453125 -1.4375q0 -0.546875 -0.109375 -1.078125q-0.09375 -0.53125 -0.375 -0.9375q-0.28125 -0.40625 -0.734375 -0.65625q-0.453125 -0.25 -1.171875 -0.25q-1.03125 0 -1.90625 0.390625q-0.875 0.375 -1.578125 0.84375l-0.796875 -1.359375q0.828125 -0.53125 2.0 -1.015625q1.171875 -0.5 2.59375 -0.5q2.125 0 3.078125 1.3125q0.96875 1.296875 0.96875 3.484375l0 7.15625l-1.625 0l-0.171875 -1.390625l-0.046875 0q-0.84375 0.6875 -1.8125 1.1875q-0.96875 0.484375 -2.046875 0.484375q-1.484375 0 -2.46875 -0.859375q-0.96875 -0.859375 -0.96875 -2.453125zm1.953125 -0.140625q0 1.015625 0.578125 1.453125q0.59375 0.421875 1.453125 0.421875q0.84375 0 1.59375 -0.390625q0.765625 -0.40625 1.59375 -1.171875l0 -3.234375q-1.453125 0.1875 -2.46875 0.453125q-1.0 0.265625 -1.625 0.625q-0.609375 0.359375 -0.875 0.828125q-0.25 0.46875 -0.25 1.015625zm10.912964 -8.484375l1.625 0l0.171875 1.671875l0.078125 0q0.84375 -0.84375 1.765625 -1.40625q0.921875 -0.5625 2.140625 -0.5625q1.84375 0 2.6875 1.15625q0.859375 1.15625 0.859375 3.40625l0 7.390625l-1.953125 0l0 -7.125q0 -1.65625 -0.53125 -2.390625q-0.53125 -0.734375 -1.6875 -0.734375q-0.90625 0 -1.609375 0.453125q-0.6875 0.453125 -1.578125 1.34375l0 8.453125l-1.96875 0l0 -11.65625zm12.268585 5.84375q0 -1.453125 0.4375 -2.59375q0.4375 -1.140625 1.1875 -1.9375q0.75 -0.796875 1.71875 -1.203125q0.96875 -0.40625 2.046875 -0.40625q1.078125 0 2.046875 0.40625q0.984375 0.40625 1.71875 1.203125q0.75 0.796875 1.1875 1.9375q0.453125 1.140625 0.453125 2.59375q0 1.4375 -0.453125 2.578125q-0.4375 1.140625 -1.1875 1.921875q-0.734375 0.78125 -1.71875 1.1875q-0.96875 0.40625 -2.046875 0.40625q-1.078125 0 -2.046875 -0.40625q-0.96875 -0.40625 -1.71875 -1.1875q-0.75 -0.78125 -1.1875 -1.921875q-0.4375 -1.140625 -0.4375 -2.578125zm2.03125 0q0 1.015625 0.234375 1.828125q0.25 0.8125 0.6875 1.40625q0.453125 0.59375 1.078125 0.921875q0.625 0.3125 1.359375 0.3125q0.75 0 1.375 -0.3125q0.625 -0.328125 1.0625 -0.921875q0.453125 -0.59375 0.6875 -1.40625q0.234375 -0.8125 0.234375 -1.828125q0 -1.0 -0.234375 -1.828125q-0.234375 -0.828125 -0.6875 -1.421875q-0.4375 -0.609375 -1.0625 -0.921875q-0.625 -0.328125 -1.375 -0.328125q-0.734375 0 -1.359375 0.328125q-0.625 0.3125 -1.078125 0.921875q-0.4375 0.59375 -0.6875 1.421875q-0.234375 0.828125 -0.234375 1.828125z" fill-rule="nonzero"></path><path fill="#6aa84f" d="m4.554407 72.987274l0 0c0 -39.58186 32.087433 -71.6693 71.6693 -71.6693l0 0c19.007874 0 37.237236 7.55085 50.67784 20.99145c13.44059 13.440598 20.991447 31.669964 20.991447 50.677845l0 0c0 39.581856 -32.087433 71.66928 -71.66929 71.66928l0 0c-39.58186 0 -71.6693 -32.087425 -71.6693 -71.66928z" fill-rule="evenodd"></path><path stroke="#000000" stroke-width="1.0" stroke-linejoin="round" stroke-linecap="butt" d="m4.554407 72.987274l0 0c0 -39.58186 32.087433 -71.6693 71.6693 -71.6693l0 0c19.007874 0 37.237236 7.55085 50.67784 20.99145c13.44059 13.440598 20.991447 31.669964 20.991447 50.677845l0 0c0 39.581856 -32.087433 71.66928 -71.66929 71.66928l0 0c-39.58186 0 -71.6693 -32.087425 -71.6693 -71.66928z" fill-rule="evenodd"></path><path fill="#000000" fill-opacity="0.0" d="m20.318186 30.642939l111.81103 0l0 84.69292l-111.81103 0z" fill-rule="evenodd"></path><path fill="#ffffff" d="m41.624058 46.932938l2.0625 0l5.6875 9.890625l1.703125 3.265625l0.109375 0q-0.078125 -1.203125 -0.171875 -2.484375q-0.078125 -1.28125 -0.078125 -2.53125l0 -8.140625l1.90625 0l0 15.75l-2.078125 0l-5.703125 -9.90625l-1.703125 -3.25l-0.09375 0q0.09375 1.203125 0.171875 2.4375q0.09375 1.234375 0.09375 2.484375l0 8.234375l-1.90625 0l0 -15.75zm15.168579 4.09375l2.0 0l0 7.125q0 1.65625 0.515625 2.390625q0.515625 0.71875 1.65625 0.71875q0.921875 0 1.609375 -0.46875q0.703125 -0.46875 1.5468712 -1.5l0 -8.265625l1.96875 0l0 11.65625l-1.640625 0l-0.171875 -1.828125l-0.0625 0q-0.8124962 0.96875 -1.7187462 1.546875q-0.90625 0.5625 -2.125 0.5625q-1.875 0 -2.734375 -1.140625q-0.84375 -1.15625 -0.84375 -3.40625l0 -7.390625zm13.22784 0l1.625 0l0.171875 1.671875l0.078125 0q0.765625 -0.84375 1.65625 -1.40625q0.90625 -0.5625 1.96875 -0.5625q1.34375 0 2.09375 0.59375q0.75 0.578125 1.125 1.640625q0.90625 -1.015625 1.828125 -1.625q0.921875 -0.609375 2.0 -0.609375q1.796875 0 2.671875 1.15625q0.890625 1.15625 0.890625 3.40625l0 7.390625l-1.96875 0l0 -7.125q0 -1.65625 -0.53125 -2.390625q-0.53125 -0.734375 -1.640625 -0.734375q-1.3125 0 -2.921875 1.796875l0 8.453125l-1.96875 0l0 -7.125q0 -1.65625 -0.53125 -2.390625q-0.53125 -0.734375 -1.65625 -0.734375q-1.3125 0 -2.921875 1.796875l0 8.453125l-1.96875 0l0 -11.65625zm20.083435 -4.09375l4.828125 0q1.296875 0 2.375 0.25q1.078125 0.234375 1.828125 0.78125q0.765625 0.53125 1.1875 1.421875q0.421875 0.890625 0.421875 2.1875q0 1.25 -0.421875 2.15625q-0.421875 0.90625 -1.1875 1.515625q-0.765625 0.59375 -1.84375 0.90625q-1.0625 0.296875 -2.359375 0.296875l-2.828125 0l0 6.234375l-2.0 0l0 -15.75zm4.59375 7.875q2.0625 0 3.046875 -0.78125q1.0 -0.78125 1.0 -2.453125q0 -1.703125 -1.015625 -2.359375q-1.0 -0.671875 -3.03125 -0.671875l-2.59375 0l0 6.265625l2.59375 0zm8.245834 11.09375q0.203125 0.046875 0.4375 0.109375q0.234375 0.0625 0.453125 0.0625q1.015625 0 1.640625 -0.71875q0.640625 -0.703125 1.0 -1.78125l0.265625 -0.859375l-4.6875 -11.6875l2.046875 0l2.375 6.453125q0.265625 0.765625 0.5625 1.625q0.296875 0.84375 0.5625 1.65625l0.09375 0q0.265625 -0.796875 0.5 -1.65625q0.25 -0.859375 0.484375 -1.625l2.09375 -6.453125l1.921875 0l-4.390625 12.609375q-0.3125 0.875 -0.703125 1.609375q-0.375 0.75 -0.90625 1.28125q-0.53125 0.546875 -1.203125 0.859375q-0.671875 0.3125 -1.5625 0.3125q-0.40625 0 -0.75 -0.0625q-0.328125 -0.0625 -0.609375 -0.171875l0.375 -1.5625l0 0z" fill-rule="nonzero"></path><path fill="#ffffff" d="m41.83131 87.47981q0 0.65625 0.234375 1.203125q0.25 0.53125 0.671875 0.921875q0.421875 0.375 0.984375 0.578125q0.5625 0.203125 1.203125 0.203125q0.8125 0 1.5625 -0.328125q0.75 -0.34375 1.4375 -0.9375q-1.15625 -1.015625 -2.21875 -2.203125q-1.0625 -1.203125 -1.90625 -2.484375q-0.84375 0.671875 -1.40625 1.40625q-0.5625 0.734375 -0.5625 1.640625zm1.84375 -8.140625q0 0.65625 0.203125 1.359375q0.203125 0.6875 0.546875 1.40625q0.53125 -0.359375 1.015625 -0.734375q0.5 -0.375 0.859375 -0.765625q0.375 -0.390625 0.59375 -0.828125q0.21875 -0.453125 0.21875 -0.984375q0 -0.6875 -0.359375 -1.203125q-0.34375 -0.515625 -1.125 -0.515625q-0.890625 0 -1.421875 0.65625q-0.53125 0.640625 -0.53125 1.609375zm9.203125 12.625q-0.84375 -0.234375 -1.765625 -0.671875q-0.90625 -0.453125 -1.859375 -1.125q-0.921875 0.8125 -2.046875 1.3125q-1.109375 0.484375 -2.5 0.484375q-1.078125 0 -1.953125 -0.3125q-0.875 -0.328125 -1.515625 -0.90625q-0.625 -0.578125 -0.984375 -1.375q-0.34375 -0.8125 -0.34375 -1.765625q0 -0.796875 0.25 -1.4375q0.25 -0.65625 0.6875 -1.203125q0.4375 -0.546875 1.0 -1.015625q0.5625 -0.46875 1.15625 -0.875q-0.46875 -0.984375 -0.75 -1.90625q-0.28125 -0.9375 -0.28125 -1.796875q0 -0.796875 0.265625 -1.46875q0.265625 -0.671875 0.734375 -1.171875q0.484375 -0.5 1.15625 -0.78125q0.671875 -0.296875 1.5 -0.296875q1.453125 0 2.265625 0.875q0.828125 0.859375 0.828125 2.25q0 0.765625 -0.3125 1.421875q-0.3125 0.640625 -0.828125 1.203125q-0.5 0.5625 -1.140625 1.0625q-0.625 0.484375 -1.265625 0.96875q0.765625 1.21875 1.796875 2.34375q1.046875 1.125 2.1875 2.0625q0.71875 -0.984375 1.28125 -2.125q0.5625 -1.15625 0.921875 -2.53125l1.84375 0q-0.484375 1.5625 -1.15625 2.984375q-0.671875 1.40625 -1.609375 2.65625q0.828125 0.5625 1.5625 0.953125q0.75 0.375 1.390625 0.5625l-0.515625 1.625zm7.9326935 -3.71875q0.84375 0.890625 1.984375 1.4375q1.140625 0.53125 2.3593712 0.53125q1.5625 0 2.421875 -0.703125q0.875 -0.703125 0.875 -1.859375q0 -0.59375 -0.203125 -1.015625q-0.203125 -0.421875 -0.5625 -0.71875q-0.34375 -0.3125 -0.828125 -0.546875q-0.46875 -0.234375 -1.03125 -0.5l-2.2499962 -0.984375q-0.546875 -0.25 -1.125 -0.578125q-0.578125 -0.34375 -1.03125 -0.8125q-0.453125 -0.484375 -0.75 -1.140625q-0.28125 -0.65625 -0.28125 -1.53125q0 -0.890625 0.359375 -1.65625q0.375 -0.765625 1.03125 -1.328125q0.671875 -0.5625 1.5625 -0.875q0.9062462 -0.3125 1.9843712 -0.3125q1.421875 0 2.609375 0.546875q1.203125 0.53125 2.046875 1.390625l-1.078125 1.296875q-0.71875 -0.6875 -1.59375 -1.078125q-0.875 -0.40625 -1.984375 -0.40625q-1.3125 0 -2.1249962 0.609375q-0.796875 0.609375 -0.796875 1.703125q0 0.5625 0.21875 0.96875q0.234375 0.390625 0.609375 0.6875q0.390625 0.296875 0.8437462 0.53125q0.453125 0.234375 0.9375 0.421875l2.234375 0.953125q0.671875 0.296875 1.265625 0.671875q0.609375 0.359375 1.03125 0.859375q0.4375 0.484375 0.6875 1.15625q0.25 0.65625 0.25 1.515625q0 0.9375 -0.375 1.765625q-0.359375 0.8125 -1.0625 1.421875q-0.6875 0.609375 -1.671875 0.953125q-0.984375 0.34375 -2.234375 0.34375q-1.6562462 0 -3.0781212 -0.609375q-1.40625 -0.625 -2.4375 -1.71875l1.1875 -1.390625zm11.72221 -2.375q0 -1.453125 0.453125 -2.59375q0.453125 -1.140625 1.21875 -1.9375q0.765625 -0.796875 1.78125 -1.203125q1.03125 -0.40625 2.15625 -0.40625q1.15625 0 1.984375 0.421875q0.828125 0.421875 1.421875 0.96875l-0.984375 1.28125q-0.53125 -0.46875 -1.09375 -0.75q-0.5625 -0.28125 -1.25 -0.28125q-0.796875 0 -1.46875 0.328125q-0.671875 0.3125 -1.15625 0.921875q-0.46875 0.59375 -0.75 1.421875q-0.28125 0.828125 -0.28125 1.828125q0 1.015625 0.265625 1.828125q0.265625 0.8125 0.734375 1.40625q0.46875 0.59375 1.140625 0.921875q0.671875 0.3125 1.46875 0.3125q0.828125 0 1.515625 -0.34375q0.6875 -0.359375 1.21875 -0.828125l0.890625 1.296875q-0.796875 0.6875 -1.78125 1.09375q-0.96875 0.40625 -2.015625 0.40625q-1.15625 0 -2.171875 -0.40625q-1.0 -0.40625 -1.734375 -1.1875q-0.734375 -0.78125 -1.15625 -1.921875q-0.40625 -1.140625 -0.40625 -2.578125zm12.803345 -8.25q-0.5625 0 -0.96875 -0.359375q-0.390625 -0.359375 -0.390625 -0.921875q0 -0.5625 0.390625 -0.90625q0.40625 -0.359375 0.96875 -0.359375q0.578125 0 0.96875 0.359375q0.40625 0.34375 0.40625 0.90625q0 0.5625 -0.40625 0.921875q-0.390625 0.359375 -0.96875 0.359375zm-1.0 2.40625l1.96875 0l0 11.65625l-1.96875 0l0 -11.65625zm6.0914764 -4.09375l4.828125 0q1.296875 0 2.375 0.25q1.078125 0.234375 1.828125 0.78125q0.765625 0.53125 1.1875 1.421875q0.421875 0.890625 0.421875 2.1875q0 1.25 -0.421875 2.15625q-0.421875 0.90625 -1.1875 1.515625q-0.765625 0.59375 -1.84375 0.90625q-1.0625 0.296875 -2.359375 0.296875l-2.828125 0l0 6.234375l-2.0 0l0 -15.75zm4.59375 7.875q2.0625 0 3.046875 -0.78125q1.0 -0.78125 1.0 -2.453125q0 -1.703125 -1.015625 -2.359375q-1.0 -0.671875 -3.03125 -0.671875l-2.59375 0l0 6.265625l2.59375 0zm8.245834 11.09375q0.203125 0.046875 0.4375 0.109375q0.234375 0.0625 0.453125 0.0625q1.015625 0 1.640625 -0.71875q0.640625 -0.703125 1.0 -1.78125l0.265625 -0.859375l-4.6875 -11.6875l2.046875 0l2.375 6.453125q0.265625 0.765625 0.5625 1.625q0.296875 0.84375 0.5625 1.65625l0.09375 0q0.265625 -0.796875 0.5 -1.65625q0.25 -0.859375 0.484375 -1.625l2.09375 -6.453125l1.921875 0l-4.390625 12.609375q-0.3125 0.875 -0.703125 1.609375q-0.375 0.75 -0.90625 1.28125q-0.53125 0.546875 -1.203125 0.859375q-0.671875 0.3125 -1.5625 0.3125q-0.40625 0 -0.75 -0.0625q-0.328125 -0.0625 -0.609375 -0.171875l0.375 -1.5625l0 0z" fill-rule="nonzero"></path><path fill="#6aa84f" d="m111.5776 212.6434l0 0c0 -16.47287 13.353897 -29.826767 29.826775 -29.826767l0 0c7.910553 0 15.497101 3.1424408 21.090714 8.736053c5.5935974 5.5935974 8.736053 13.1801605 8.736053 21.090714l0 0c0 16.47287 -13.353897 29.826767 -29.826767 29.826767l0 0c-16.472878 0 -29.826775 -13.353897 -29.826775 -29.826767z" fill-rule="evenodd"></path><path stroke="#000000" stroke-width="1.0" stroke-linejoin="round" stroke-linecap="butt" d="m111.5776 212.6434l0 0c0 -16.47287 13.353897 -29.826767 29.826775 -29.826767l0 0c7.910553 0 15.497101 3.1424408 21.090714 8.736053c5.5935974 5.5935974 8.736053 13.1801605 8.736053 21.090714l0 0c0 16.47287 -13.353897 29.826767 -29.826767 29.826767l0 0c-16.472878 0 -29.826775 -13.353897 -29.826775 -29.826767z" fill-rule="evenodd"></path><path fill="#000000" fill-opacity="0.0" d="m99.89239 188.23326l85.385826 0l0 48.818893l-85.385826 0z" fill-rule="evenodd"></path><path fill="#ffffff" d="m129.07674 213.86702l-0.75 -2.40625q-0.42186737 -1.3125 -0.8124924 -2.625q-0.390625 -1.3125 -0.765625 -2.671875l-0.09375 0q-0.359375 1.359375 -0.75 2.671875q-0.390625 1.3125 -0.8125 2.625l-0.75 2.40625l4.7343674 0zm0.5 1.609375l-5.7343674 0l-1.515625 4.796875l-2.03125 0l5.328125 -15.75l2.25 0l5.3281174 15.75l-2.140625 0l-1.484375 -4.796875zm4.243469 -10.953125l2.0625 0l1.65625 8.578125q0.21875 1.296875 0.453125 2.546875q0.25 1.234375 0.46875 2.53125l0.09375 0q0.265625 -1.296875 0.546875 -2.546875q0.296875 -1.265625 0.5625 -2.53125l2.171875 -8.578125l1.828125 0l2.1875 8.578125q0.28125 1.25 0.5625 2.515625q0.296875 1.265625 0.59375 2.5625l0.09375 0q0.21875 -1.296875 0.421875 -2.546875q0.21875 -1.265625 0.46875 -2.53125l1.65625 -8.578125l1.90625 0l-3.25 15.75l-2.40625 0l-2.375 -9.484375q-0.21875 -0.90625 -0.40625 -1.78125q-0.171875 -0.875 -0.359375 -1.796875l-0.09375 0q-0.203125 0.921875 -0.40625 1.796875q-0.203125 0.875 -0.390625 1.78125l-2.328125 9.484375l-2.375 0l-3.34375 -15.75zm20.520187 12.3125q0.84375 0.890625 1.984375 1.4375q1.140625 0.53125 2.359375 0.53125q1.5625 0 2.421875 -0.703125q0.875 -0.703125 0.875 -1.859375q0 -0.59375 -0.203125 -1.015625q-0.203125 -0.421875 -0.5625 -0.71875q-0.34375 -0.3125 -0.828125 -0.546875q-0.46875 -0.234375 -1.03125 -0.5l-2.25 -0.984375q-0.546875 -0.25 -1.125 -0.578125q-0.578125 -0.34375 -1.03125 -0.8125q-0.453125 -0.484375 -0.75 -1.140625q-0.28125 -0.65625 -0.28125 -1.53125q0 -0.890625 0.359375 -1.65625q0.375 -0.765625 1.03125 -1.328125q0.671875 -0.5625 1.5625 -0.875q0.90625 -0.3125 1.984375 -0.3125q1.421875 0 2.609375 0.546875q1.203125 0.53125 2.046875 1.390625l-1.078125 1.296875q-0.71875 -0.6875 -1.59375 -1.078125q-0.875 -0.40625 -1.984375 -0.40625q-1.3125 0 -2.125 0.609375q-0.796875 0.609375 -0.796875 1.703125q0 0.5625 0.21875 0.96875q0.234375 0.390625 0.609375 0.6875q0.390625 0.296875 0.84375 0.53125q0.453125 0.234375 0.9375 0.421875l2.234375 0.953125q0.671875 0.296875 1.265625 0.671875q0.609375 0.359375 1.03125 0.859375q0.4375 0.484375 0.6875 1.15625q0.25001526 0.65625 0.25001526 1.515625q0 0.9375 -0.37501526 1.765625q-0.359375 0.8125 -1.0625 1.421875q-0.6875 0.609375 -1.671875 0.953125q-0.984375 0.34375 -2.234375 0.34375q-1.65625 0 -3.078125 -0.609375q-1.40625 -0.625 -2.4375 -1.71875l1.1875 -1.390625z" fill-rule="nonzero"></path><path fill="#6aa84f" d="m125.45592 142.93317l0 0c0 -24.788208 20.094818 -44.883026 44.883026 -44.883026l0 0c11.903717 0 23.3199 4.7287292 31.737091 13.145935c8.417206 8.417198 13.145935 19.833374 13.145935 31.737091l0 0c0 24.788223 -20.094803 44.88304 -44.883026 44.88304l0 0c-24.788208 0 -44.883026 -20.094818 -44.883026 -44.88304z" fill-rule="evenodd"></path><path stroke="#000000" stroke-width="1.0" stroke-linejoin="round" stroke-linecap="butt" d="m125.45592 142.93317l0 0c0 -24.788208 20.094818 -44.883026 44.883026 -44.883026l0 0c11.903717 0 23.3199 4.7287292 31.737091 13.145935c8.417206 8.417198 13.145935 19.833374 13.145935 31.737091l0 0c0 24.788223 -20.094803 44.88304 -44.883026 44.88304l0 0c-24.788208 0 -44.883026 -20.094818 -44.883026 -44.88304z" fill-rule="evenodd"></path><path fill="#000000" fill-opacity="0.0" d="m118.098564 118.21791l104.48182 0l0 48.107117l-104.48182 0z" fill-rule="evenodd"></path><path fill="#ffffff" d="m135.04384 134.50792l4.828125 0q1.296875 0 2.375 0.25q1.078125 0.234375 1.828125 0.78125q0.765625 0.53125 1.1875 1.421875q0.421875 0.890625 0.421875 2.1875q0 1.25 -0.421875 2.15625q-0.421875 0.90625 -1.1875 1.515625q-0.765625 0.59375 -1.84375 0.90625q-1.0625 0.296875 -2.359375 0.296875l-2.828125 0l0 6.234375l-2.0 0l0 -15.75zm4.59375 7.875q2.0625 0 3.046875 -0.78125q1.0 -0.78125 1.0 -2.453125q0 -1.703125 -1.015625 -2.359375q-1.0 -0.671875 -3.03125 -0.671875l-2.59375 0l0 6.265625l2.59375 0zm8.464584 4.84375q0 -1.90625 1.71875 -2.921875q1.71875 -1.03125 5.453125 -1.4375q0 -0.546875 -0.109375 -1.078125q-0.09375 -0.53125 -0.375 -0.9375q-0.28125 -0.40625 -0.734375 -0.65625q-0.453125 -0.25 -1.171875 -0.25q-1.03125 0 -1.90625 0.390625q-0.875 0.375 -1.578125 0.84375l-0.796875 -1.359375q0.828125 -0.53125 2.0 -1.015625q1.171875 -0.5 2.59375 -0.5q2.125 0 3.078125 1.3125q0.96875 1.296875 0.96875 3.484375l0 7.15625l-1.625 0l-0.171875 -1.390625l-0.046875 0q-0.84375 0.6875 -1.8125 1.1875q-0.96875 0.484375 -2.046875 0.484375q-1.484375 0 -2.46875 -0.859375q-0.96875 -0.859375 -0.96875 -2.453125zm1.953125 -0.140625q0 1.015625 0.578125 1.453125q0.59375 0.421875 1.453125 0.421875q0.84375 0 1.59375 -0.390625q0.765625 -0.40625 1.59375 -1.171875l0 -3.234375q-1.453125 0.1875 -2.46875 0.453125q-1.0 0.265625 -1.625 0.625q-0.609375 0.359375 -0.875 0.828125q-0.25 0.46875 -0.25 1.015625zm10.912964 -8.484375l1.625 0l0.171875 1.671875l0.078125 0q0.84375 -0.84375 1.765625 -1.40625q0.921875 -0.5625 2.140625 -0.5625q1.84375 0 2.6875 1.15625q0.859375 1.15625 0.859375 3.40625l0 7.390625l-1.953125 0l0 -7.125q0 -1.65625 -0.53125 -2.390625q-0.53125 -0.734375 -1.6875 -0.734375q-0.90625 0 -1.609375 0.453125q-0.6875 0.453125 -1.578125 1.34375l0 8.453125l-1.96875 0l0 -11.65625zm12.28421 5.84375q0 -1.40625 0.421875 -2.546875q0.421875 -1.140625 1.109375 -1.9375q0.703125 -0.796875 1.609375 -1.21875q0.921875 -0.4375 1.921875 -0.4375q1.015625 0 1.75 0.359375q0.75 0.359375 1.515625 0.984375l-0.09375 -1.984375l0 -4.5l2.0 0l0 17.09375l-1.640625 0l-0.171875 -1.375l-0.0625 0q-0.703125 0.671875 -1.609375 1.171875q-0.890625 0.484375 -1.921875 0.484375q-2.203125 0 -3.515625 -1.578125q-1.3125 -1.578125 -1.3125 -4.515625zm2.046875 -0.015625q0 2.109375 0.828125 3.28125q0.84375 1.171875 2.390625 1.171875q0.8125 0 1.53125 -0.390625q0.71875 -0.390625 1.4375 -1.203125l0 -6.109375q-0.75 -0.671875 -1.4375 -0.9375q-0.671875 -0.28125 -1.390625 -0.28125q-0.703125 0 -1.3125 0.328125q-0.609375 0.328125 -1.0625 0.921875q-0.453125 0.578125 -0.71875 1.390625q-0.265625 0.8125 -0.265625 1.828125zm11.538712 2.796875q0 -1.90625 1.71875 -2.921875q1.71875 -1.03125 5.453125 -1.4375q0 -0.546875 -0.109375 -1.078125q-0.09375 -0.53125 -0.375 -0.9375q-0.28125 -0.40625 -0.734375 -0.65625q-0.453125 -0.25 -1.171875 -0.25q-1.03125 0 -1.90625 0.390625q-0.875 0.375 -1.578125 0.84375l-0.796875 -1.359375q0.828125 -0.53125 2.0 -1.015625q1.171875 -0.5 2.59375 -0.5q2.125 0 3.078125 1.3125q0.96875 1.296875 0.96875 3.484375l0 7.15625l-1.625 0l-0.171875 -1.390625l-0.046875 0q-0.84375 0.6875 -1.8125 1.1875q-0.96875 0.484375 -2.046875 0.484375q-1.484375 0 -2.46875 -0.859375q-0.96875 -0.859375 -0.96875 -2.453125zm1.953125 -0.140625q0 1.015625 0.578125 1.453125q0.59375 0.421875 1.453125 0.421875q0.84375 0 1.59375 -0.390625q0.765625 -0.40625 1.59375 -1.171875l0 -3.234375q-1.453125 0.1875 -2.46875 0.453125q-1.0 0.265625 -1.625 0.625q-0.609375 0.359375 -0.875 0.828125q-0.25 0.46875 -0.25 1.015625zm10.600464 0.53125q0.765625 0.625 1.5625 1.015625q0.8125 0.375 1.875 0.375q1.140625 0 1.71875 -0.515625q0.578125 -0.53125 0.578125 -1.3125q0 -0.453125 -0.25 -0.78125q-0.234375 -0.34375 -0.609375 -0.59375q-0.359375 -0.25 -0.84375 -0.4375q-0.484375 -0.203125 -0.953125 -0.390625q-0.625 -0.21875 -1.25 -0.484375q-0.625 -0.28125 -1.125 -0.671875q-0.484375 -0.40625 -0.796875 -0.921875q-0.3125 -0.53125 -0.3125 -1.28125q0 -0.703125 0.265625 -1.3125q0.28125 -0.609375 0.796875 -1.046875q0.515625 -0.453125 1.25 -0.703125q0.75 -0.25 1.6875 -0.25q1.109375 0 2.03125 0.390625q0.921875 0.375 1.59375 0.9375l-0.9375 1.234375q-0.59375 -0.453125 -1.25 -0.734375q-0.640625 -0.296875 -1.40625 -0.296875q-1.109375 0 -1.625 0.515625q-0.515625 0.5 -0.515625 1.171875q0 0.40625 0.21875 0.703125q0.21875 0.296875 0.578125 0.53125q0.359375 0.234375 0.828125 0.421875q0.46875 0.171875 0.96875 0.359375q0.625 0.234375 1.25 0.5q0.640625 0.265625 1.140625 0.671875q0.515625 0.390625 0.828125 0.96875q0.328125 0.5625 0.328125 1.390625q0 0.71875 -0.28125 1.34375q-0.265625 0.625 -0.8125 1.109375q-0.53125 0.46875 -1.34375 0.734375q-0.796875 0.28125 -1.828125 0.28125q-1.25 0 -2.375 -0.453125q-1.125 -0.453125 -1.96875 -1.140625l0.984375 -1.328125z" fill-rule="nonzero"></path><path fill="#e06666" d="m345.20956 263.76797l0 0c0 -28.540146 23.136353 -51.6765 51.676514 -51.6765l0 0c13.705444 0 26.849579 5.4444733 36.540802 15.135696c9.691223 9.691223 15.135712 22.835342 15.135712 36.540802l0 0c0 28.540161 -23.136383 51.676514 -51.676514 51.676514l0 0c-28.540161 0 -51.676514 -23.136353 -51.676514 -51.676514z" fill-rule="evenodd"></path><path stroke="#000000" stroke-width="1.0" stroke-linejoin="round" stroke-linecap="butt" d="m345.20956 263.76797l0 0c0 -28.540146 23.136353 -51.6765 51.676514 -51.6765l0 0c13.705444 0 26.849579 5.4444733 36.540802 15.135696c9.691223 9.691223 15.135712 22.835342 15.135712 36.540802l0 0c0 28.540161 -23.136383 51.676514 -51.676514 51.676514l0 0c-28.540161 0 -51.676514 -23.136353 -51.676514 -51.676514z" fill-rule="evenodd"></path><path fill="#000000" fill-opacity="0.0" d="m358.27457 241.44312l77.22458 0l0 44.650482l-77.22458 0z" fill-rule="evenodd"></path><path fill="#ffffff" d="m371.8152 257.73312l2.0 0l0 14.046875l6.890625 0l0 1.703125l-8.890625 0l0 -15.75zm12.476471 1.6875q-0.5625 0 -0.96875 -0.359375q-0.390625 -0.359375 -0.390625 -0.921875q0 -0.5625 0.390625 -0.90625q0.40625 -0.359375 0.96875 -0.359375q0.578125 0 0.96875 0.359375q0.40625 0.34375 0.40625 0.90625q0 0.5625 -0.40625 0.921875q-0.390625 0.359375 -0.96875 0.359375zm-1.0 2.40625l1.96875 0l0 11.65625l-1.96875 0l0 -11.65625zm5.9039917 0l1.625 0l0.171875 1.671875l0.078125 0q0.84375 -0.84375 1.765625 -1.40625q0.921875 -0.5625 2.140625 -0.5625q1.84375 0 2.6875 1.15625q0.859375 1.15625 0.859375 3.40625l0 7.390625l-1.953125 0l0 -7.125q0 -1.65625 -0.53125 -2.390625q-0.53125 -0.734375 -1.6875 -0.734375q-0.90625 0 -1.609375 0.453125q-0.6875 0.453125 -1.578125 1.34375l0 8.453125l-1.96875 0l0 -11.65625zm12.956085 0l2.0 0l0 7.125q0 1.65625 0.515625 2.390625q0.515625 0.71875 1.65625 0.71875q0.921875 0 1.609375 -0.46875q0.703125 -0.46875 1.546875 -1.5l0 -8.265625l1.96875 0l0 11.65625l-1.640625 0l-0.171875 -1.828125l-0.0625 0q-0.8125 0.96875 -1.71875 1.546875q-0.90625 0.5625 -2.125 0.5625q-1.875 0 -2.734375 -1.140625q-0.84375 -1.15625 -0.84375 -3.40625l0 -7.390625zm15.415344 5.5625l-3.53125 -5.5625l2.140625 0l1.546875 2.5625q0.265625 0.484375 0.546875 0.984375q0.296875 0.484375 0.609375 0.953125l0.09375 0q0.265625 -0.46875 0.53125 -0.953125q0.265625 -0.5 0.53125 -0.984375l1.421875 -2.5625l2.0625 0l-3.53125 5.78125l3.796875 5.875l-2.140625 0l-1.703125 -2.71875q-0.3125 -0.515625 -0.625 -1.046875q-0.3125 -0.53125 -0.65625 -1.03125l-0.09375 0q-0.3125 0.5 -0.609375 1.015625q-0.28125 0.515625 -0.5625 1.0625l-1.578125 2.71875l-2.0625 0l3.8125 -6.09375z" fill-rule="nonzero"></path><path fill="#e06666" d="m378.7232 178.44357l0 0c0 -18.868866 15.296234 -34.165115 34.16513 -34.165115l0 0c9.061157 0 17.75119 3.599533 24.158386 10.006729c6.407196 6.4072113 10.006714 15.097244 10.006714 24.158386l0 0c0 18.868881 -15.296234 34.16513 -34.1651 34.16513l0 0c-18.868896 0 -34.16513 -15.296249 -34.16513 -34.16513z" fill-rule="evenodd"></path><path stroke="#000000" stroke-width="1.0" stroke-linejoin="round" stroke-linecap="butt" d="m378.7232 178.44357l0 0c0 -18.868866 15.296234 -34.165115 34.16513 -34.165115l0 0c9.061157 0 17.75119 3.599533 24.158386 10.006729c6.407196 6.4072113 10.006714 15.097244 10.006714 24.158386l0 0c0 18.868881 -15.296234 34.16513 -34.1651 34.16513l0 0c-18.868896 0 -34.16513 -15.296249 -34.16513 -34.16513z" fill-rule="evenodd"></path><path fill="#000000" fill-opacity="0.0" d="m383.76807 156.5641l58.242065 0l0 43.757782l-58.242065 0z" fill-rule="evenodd"></path><path fill="#ffffff" d="m398.5299 174.5416q-0.5625 0 -0.96875 -0.359375q-0.390625 -0.359375 -0.390625 -0.921875q0 -0.5625 0.390625 -0.90625q0.40625 -0.359375 0.96875 -0.359375q0.578125 0 0.96875 0.359375q0.40625 0.34375 0.40625 0.90625q0 0.5625 -0.40625 0.921875q-0.390625 0.359375 -0.96875 0.359375zm-1.0 2.40625l1.96875 0l0 11.65625l-1.96875 0l0 -11.65625zm11.903961 11.9375q-1.484375 0 -2.71875 -0.5625q-1.234375 -0.578125 -2.125 -1.640625q-0.890625 -1.078125 -1.390625 -2.59375q-0.484375 -1.53125 -0.484375 -3.421875q0 -1.90625 0.484375 -3.40625q0.5 -1.5 1.390625 -2.53125q0.890625 -1.046875 2.125 -1.59375q1.234375 -0.5625 2.71875 -0.5625q1.484375 0 2.71875 0.5625q1.234375 0.5625 2.140625 1.609375q0.90625 1.046875 1.390625 2.546875q0.5 1.5 0.5 3.375q0 1.890625 -0.5 3.421875q-0.484375 1.515625 -1.390625 2.59375q-0.90625 1.0625 -2.140625 1.640625q-1.234375 0.5625 -2.71875 0.5625zm0 -1.75q1.0625 0 1.90625 -0.453125q0.859375 -0.453125 1.46875 -1.296875q0.609375 -0.859375 0.9375 -2.046875q0.34375 -1.1875 0.34375 -2.671875q0 -1.46875 -0.34375 -2.640625q-0.328125 -1.1875 -0.9375 -2.0q-0.609375 -0.8125 -1.46875 -1.25q-0.84375 -0.453125 -1.90625 -0.453125q-1.0625 0 -1.921875 0.453125q-0.84375 0.4375 -1.453125 1.25q-0.609375 0.8125 -0.953125 2.0q-0.328125 1.171875 -0.328125 2.640625q0 1.484375 0.328125 2.671875q0.34375 1.1875 0.953125 2.046875q0.609375 0.84375 1.453125 1.296875q0.859375 0.453125 1.921875 0.453125zm10.170349 -1.96875q0.84375 0.890625 1.984375 1.4375q1.140625 0.53125 2.359375 0.53125q1.5625 0 2.421875 -0.703125q0.875 -0.703125 0.875 -1.859375q0 -0.59375 -0.203125 -1.015625q-0.203125 -0.421875 -0.5625 -0.71875q-0.34375 -0.3125 -0.828125 -0.546875q-0.46875 -0.234375 -1.03125 -0.5l-2.25 -0.984375q-0.546875 -0.25 -1.125 -0.578125q-0.578125 -0.34375 -1.03125 -0.8125q-0.453125 -0.484375 -0.75 -1.140625q-0.28125 -0.65625 -0.28125 -1.53125q0 -0.890625 0.359375 -1.65625q0.375 -0.765625 1.03125 -1.328125q0.671875 -0.5625 1.5625 -0.875q0.90625 -0.3125 1.984375 -0.3125q1.421875 0 2.609375 0.546875q1.203125 0.53125 2.046875 1.390625l-1.078125 1.296875q-0.71875 -0.6875 -1.59375 -1.078125q-0.875 -0.40625 -1.984375 -0.40625q-1.3125 0 -2.125 0.609375q-0.796875 0.609375 -0.796875 1.703125q0 0.5625 0.21875 0.96875q0.234375 0.390625 0.609375 0.6875q0.390625 0.296875 0.84375 0.53125q0.453125 0.234375 0.9375 0.421875l2.234375 0.953125q0.671875 0.296875 1.265625 0.671875q0.609375 0.359375 1.03125 0.859375q0.4375 0.484375 0.6875 1.15625q0.25 0.65625 0.25 1.515625q0 0.9375 -0.375 1.765625q-0.359375 0.8125 -1.0625 1.421875q-0.6875 0.609375 -1.671875 0.953125q-0.984375 0.34375 -2.234375 0.34375q-1.65625 0 -3.078125 -0.609375q-1.40625 -0.625 -2.4375 -1.71875l1.1875 -1.390625z" fill-rule="nonzero"></path><path fill="#e06666" d="m257.61542 284.9626l0 0c0 -24.689728 20.012573 -44.704697 44.69934 -44.704697l0 0c11.855011 0 23.224457 4.709961 31.607208 13.093704c8.382751 8.383759 13.092133 19.754578 13.092133 31.610992l0 0c0 24.689728 -20.012573 44.704712 -44.69934 44.704712l0 0c-24.686768 0 -44.69934 -20.014984 -44.69934 -44.704712z" fill-rule="evenodd"></path><path stroke="#000000" stroke-width="1.0" stroke-linejoin="round" stroke-linecap="butt" d="m257.61542 284.9626l0 0c0 -24.689728 20.012573 -44.704697 44.69934 -44.704697l0 0c11.855011 0 23.224457 4.709961 31.607208 13.093704c8.382751 8.383759 13.092133 19.754578 13.092133 31.610992l0 0c0 24.689728 -20.012573 44.704712 -44.69934 44.704712l0 0c-24.686768 0 -44.69934 -20.014984 -44.69934 -44.704712z" fill-rule="evenodd"></path><path fill="#000000" fill-opacity="0.0" d="m247.67842 261.3322l109.27379 0l0 41.80316l-109.27379 0z" fill-rule="evenodd"></path><path fill="#ffffff" d="m271.14282 286.96594l-0.75 -2.40625q-0.421875 -1.3125 -0.8125 -2.625q-0.390625 -1.3125 -0.765625 -2.671875l-0.09375 0q-0.359375 1.359375 -0.75 2.671875q-0.390625 1.3125 -0.8125 2.625l-0.75 2.40625l4.734375 0zm0.5 1.609375l-5.734375 0l-1.515625 4.796875l-2.03125 0l5.328125 -15.75l2.25 0l5.328125 15.75l-2.140625 0l-1.484375 -4.796875zm5.665344 -6.859375l1.625 0l0.171875 1.671875l0.078125 0q0.84375 -0.84375 1.765625 -1.40625q0.921875 -0.5625 2.140625 -0.5625q1.84375 0 2.6875 1.15625q0.859375 1.15625 0.859375 3.40625l0 7.390625l-1.953125 0l0 -7.125q0 -1.65625 -0.53125 -2.390625q-0.53125 -0.734375 -1.6875 -0.734375q-0.90625 0 -1.609375 0.453125q-0.6875 0.453125 -1.578125 1.34375l0 8.453125l-1.96875 0l0 -11.65625zm12.28421 5.84375q0 -1.40625 0.421875 -2.546875q0.421875 -1.140625 1.109375 -1.9375q0.703125 -0.796875 1.609375 -1.21875q0.921875 -0.4375 1.921875 -0.4375q1.015625 0 1.75 0.359375q0.75 0.359375 1.515625 0.984375l-0.09375 -1.984375l0 -4.5l2.0 0l0 17.09375l-1.640625 0l-0.171875 -1.375l-0.0625 0q-0.703125 0.671875 -1.609375 1.171875q-0.890625 0.484375 -1.921875 0.484375q-2.203125 0 -3.515625 -1.578125q-1.3125 -1.578125 -1.3125 -4.515625zm2.046875 -0.015625q0 2.109375 0.828125 3.28125q0.84375 1.171875 2.390625 1.171875q0.8125 0 1.53125 -0.390625q0.71875 -0.390625 1.4375 -1.203125l0 -6.109375q-0.75 -0.671875 -1.4375 -0.9375q-0.671875 -0.28125 -1.390625 -0.28125q-0.703125 0 -1.3125 0.328125q-0.609375 0.328125 -1.0625 0.921875q-0.453125 0.578125 -0.71875 1.390625q-0.265625 0.8125 -0.265625 1.828125zm12.116821 -5.828125l1.625 0l0.171875 2.109375l0.078125 0q0.59375 -1.109375 1.4375 -1.75q0.859375 -0.65625 1.875 -0.65625q0.6875 0 1.25 0.234375l-0.390625 1.734375q-0.28125 -0.09375 -0.53125 -0.140625q-0.234375 -0.046875 -0.59375 -0.046875q-0.75 0 -1.5625 0.609375q-0.796875 0.59375 -1.390625 2.078125l0 7.484375l-1.96875 0l0 -11.65625zm7.4685974 5.84375q0 -1.453125 0.4375 -2.59375q0.4375 -1.140625 1.1875 -1.9375q0.75 -0.796875 1.71875 -1.203125q0.96875 -0.40625 2.046875 -0.40625q1.078125 0 2.046875 0.40625q0.984375 0.40625 1.71875 1.203125q0.75 0.796875 1.1875 1.9375q0.453125 1.140625 0.453125 2.59375q0 1.4375 -0.453125 2.578125q-0.4375 1.140625 -1.1875 1.921875q-0.734375 0.78125 -1.71875 1.1875q-0.96875 0.40625 -2.046875 0.40625q-1.078125 0 -2.046875 -0.40625q-0.96875 -0.40625 -1.71875 -1.1875q-0.75 -0.78125 -1.1875 -1.921875q-0.4375 -1.140625 -0.4375 -2.578125zm2.03125 0q0 1.015625 0.234375 1.828125q0.25 0.8125 0.6875 1.40625q0.453125 0.59375 1.078125 0.921875q0.625 0.3125 1.359375 0.3125q0.75 0 1.375 -0.3125q0.625 -0.328125 1.0625 -0.921875q0.453125 -0.59375 0.6875 -1.40625q0.234375 -0.8125 0.234375 -1.828125q0 -1.0 -0.234375 -1.828125q-0.234375 -0.828125 -0.6875 -1.421875q-0.4375 -0.609375 -1.0625 -0.921875q-0.625 -0.328125 -1.375 -0.328125q-0.734375 0 -1.359375 0.328125q-0.625 0.3125 -1.078125 0.921875q-0.4375 0.59375 -0.6875 1.421875q-0.234375 0.828125 -0.234375 1.828125zm12.83609 -8.25q-0.5625 0 -0.96875 -0.359375q-0.390625 -0.359375 -0.390625 -0.921875q0 -0.5625 0.390625 -0.90625q0.40625 -0.359375 0.96875 -0.359375q0.578125 0 0.96875 0.359375q0.40625 0.34375 0.40625 0.90625q0 0.5625 -0.40625 0.921875q-0.390625 0.359375 -0.96875 0.359375zm-1.0 2.40625l1.96875 0l0 11.65625l-1.96875 0l0 -11.65625zm5.0602417 5.84375q0 -1.40625 0.421875 -2.546875q0.421875 -1.140625 1.109375 -1.9375q0.703125 -0.796875 1.609375 -1.21875q0.921875 -0.4375 1.921875 -0.4375q1.015625 0 1.75 0.359375q0.75 0.359375 1.515625 0.984375l-0.09375 -1.984375l0 -4.5l2.0 0l0 17.09375l-1.640625 0l-0.171875 -1.375l-0.0625 0q-0.703125 0.671875 -1.609375 1.171875q-0.890625 0.484375 -1.921875 0.484375q-2.203125 0 -3.515625 -1.578125q-1.3125 -1.578125 -1.3125 -4.515625zm2.046875 -0.015625q0 2.109375 0.828125 3.28125q0.84375 1.171875 2.390625 1.171875q0.8125 0 1.53125 -0.390625q0.71875 -0.390625 1.4375 -1.203125l0 -6.109375q-0.75 -0.671875 -1.4375 -0.9375q-0.671875 -0.28125 -1.390625 -0.28125q-0.703125 0 -1.3125 0.328125q-0.609375 0.328125 -1.0625 0.921875q-0.453125 0.578125 -0.71875 1.390625q-0.265625 0.8125 -0.265625 1.828125z" fill-rule="nonzero"></path><path fill="#6fa8dc" d="m315.62106 74.9573l0 0c0 -39.581856 32.087433 -71.66929 71.66928 -71.66929l0 0c19.007874 0 37.237244 7.55085 50.677856 20.99145c13.440582 13.440598 20.991425 31.669964 20.991425 50.67784l0 0c0 39.581856 -32.087433 71.66929 -71.66928 71.66929l0 0c-39.58185 0 -71.66928 -32.087433 -71.66928 -71.66929z" fill-rule="evenodd"></path><path stroke="#000000" stroke-width="1.0" stroke-linejoin="round" stroke-linecap="butt" d="m315.62106 74.9573l0 0c0 -39.581856 32.087433 -71.66929 71.66928 -71.66929l0 0c19.007874 0 37.237244 7.55085 50.677856 20.99145c13.440582 13.440598 20.991425 31.669964 20.991425 50.67784l0 0c0 39.581856 -32.087433 71.66929 -71.66928 71.66929l0 0c-39.58185 0 -71.66928 -32.087433 -71.66928 -71.66929z" fill-rule="evenodd"></path><path fill="#000000" fill-opacity="0.0" d="m331.3837 49.556973l111.811035 0l0 50.80315l-111.811035 0z" fill-rule="evenodd"></path><path fill="#ffffff" d="m353.2776 65.84697l4.828125 0q1.296875 0 2.375 0.25q1.078125 0.234375 1.828125 0.78125q0.765625 0.53125 1.1875 1.421875q0.421875 0.890625 0.421875 2.1875q0 1.25 -0.421875 2.15625q-0.421875 0.90625 -1.1875 1.515625q-0.765625 0.59375 -1.84375 0.90625q-1.0625 0.296875 -2.359375 0.296875l-2.828125 0l0 6.234375l-2.0 0l0 -15.75zm4.59375 7.875q2.0625 0 3.046875 -0.78125q1.0 -0.78125 1.0 -2.453125q0 -1.703125 -1.015625 -2.359375q-1.0 -0.671875 -3.03125 -0.671875l-2.59375 0l0 6.265625l2.59375 0zm8.245819 11.09375q0.203125 0.046875 0.4375 0.109375q0.234375 0.0625 0.453125 0.0625q1.015625 0 1.640625 -0.71875q0.640625 -0.703125 1.0 -1.78125l0.265625 -0.859375l-4.6875 -11.6875l2.046875 0l2.375 6.453125q0.265625 0.765625 0.5625 1.625q0.296875 0.84375 0.5625 1.65625l0.09375 0q0.265625 -0.796875 0.5 -1.65625q0.25 -0.859375 0.484375 -1.625l2.09375 -6.453125l1.921875 0l-4.390625 12.609375q-0.3125 0.875 -0.703125 1.609375q-0.375 0.75 -0.90625 1.28125q-0.53125 0.546875 -1.203125 0.859375q-0.671875 0.3125 -1.5625 0.3125q-0.40625 0 -0.75 -0.0625q-0.328125 -0.0625 -0.609375 -0.171875l0.375 -1.5625l0 0zm12.332977 -13.28125l-1.71875 0l0 -1.484375l1.828125 -0.109375l0.234375 -3.265625l1.65625 0l0 3.265625l3.140625 0l0 1.59375l-3.140625 0l0 6.484375q0 1.078125 0.390625 1.671875q0.40625 0.59375 1.40625 0.59375q0.3125 0 0.671875 -0.09375q0.359375 -0.109375 0.65625 -0.21875l0.375 1.484375q-0.484375 0.171875 -1.046875 0.296875q-0.5625 0.125 -1.109375 0.125q-0.9375 0 -1.578125 -0.28125q-0.625 -0.28125 -1.03125 -0.78125q-0.390625 -0.515625 -0.5625 -1.234375q-0.171875 -0.71875 -0.171875 -1.578125l0 -6.46875zm7.783844 -7.03125l1.96875 0l0 4.65625l-0.078125 2.40625q0.84375 -0.796875 1.75 -1.359375q0.921875 -0.5625 2.140625 -0.5625q1.84375 0 2.6875 1.15625q0.859375 1.15625 0.859375 3.40625l0 7.390625l-1.953125 0l0 -7.125q0 -1.65625 -0.53125 -2.390625q-0.53125 -0.734375 -1.6875 -0.734375q-0.90625 0 -1.609375 0.453125q-0.6875 0.453125 -1.578125 1.34375l0 8.453125l-1.96875 0l0 -17.09375zm12.196594 11.28125q0 -1.453125 0.4375 -2.59375q0.4375 -1.140625 1.1875 -1.9375q0.75 -0.796875 1.71875 -1.203125q0.96875 -0.40625 2.046875 -0.40625q1.078125 0 2.046875 0.40625q0.984375 0.40625 1.71875 1.203125q0.75 0.796875 1.1875 1.9375q0.453125 1.140625 0.453125 2.59375q0 1.4375 -0.453125 2.578125q-0.4375 1.140625 -1.1875 1.921875q-0.734375 0.78125 -1.71875 1.1875q-0.96875 0.40625 -2.046875 0.40625q-1.078125 0 -2.046875 -0.40625q-0.96875 -0.40625 -1.71875 -1.1875q-0.75 -0.78125 -1.1875 -1.921875q-0.4375 -1.140625 -0.4375 -2.578125zm2.03125 0q0 1.015625 0.234375 1.828125q0.25 0.8125 0.6875 1.40625q0.453125 0.59375 1.078125 0.921875q0.625 0.3125 1.359375 0.3125q0.75 0 1.375 -0.3125q0.625 -0.328125 1.0625 -0.921875q0.453125 -0.59375 0.6875 -1.40625q0.234375 -0.8125 0.234375 -1.828125q0 -1.0 -0.234375 -1.828125q-0.234375 -0.828125 -0.6875 -1.421875q-0.4375 -0.609375 -1.0625 -0.921875q-0.625 -0.328125 -1.375 -0.328125q-0.734375 0 -1.359375 0.328125q-0.625 0.3125 -1.078125 0.921875q-0.4375 0.59375 -0.6875 1.421875q-0.234375 0.828125 -0.234375 1.828125zm11.83609 -5.84375l1.625 0l0.171875 1.671875l0.078125 0q0.84375 -0.84375 1.765625 -1.40625q0.921875 -0.5625 2.140625 -0.5625q1.84375 0 2.6875 1.15625q0.859375 1.15625 0.859375 3.40625l0 7.390625l-1.953125 0l0 -7.125q0 -1.65625 -0.53125 -2.390625q-0.53125 -0.734375 -1.6875 -0.734375q-0.90625 0 -1.609375 0.453125q-0.6875 0.453125 -1.578125 1.34375l0 8.453125l-1.96875 0l0 -11.65625z" fill-rule="nonzero"></path><path fill="#6fa8dc" d="m266.1948 185.34503l0 0c0 -30.875763 25.029724 -55.905518 55.905487 -55.905518l0 0c14.827087 0 29.046844 5.89003 39.53119 16.374344c10.484314 10.484329 16.374329 24.704102 16.374329 39.531174l0 0c0 30.875763 -25.029755 55.905502 -55.905518 55.905502l0 0c-30.875763 0 -55.905487 -25.02974 -55.905487 -55.905502z" fill-rule="evenodd"></path><path stroke="#000000" stroke-width="1.0" stroke-linejoin="round" stroke-linecap="butt" d="m266.1948 185.34503l0 0c0 -30.875763 25.029724 -55.905518 55.905487 -55.905518l0 0c14.827087 0 29.046844 5.89003 39.53119 16.374344c10.484314 10.484329 16.374329 24.704102 16.374329 39.531174l0 0c0 30.875763 -25.029755 55.905502 -55.905518 55.905502l0 0c-30.875763 0 -55.905487 -25.02974 -55.905487 -55.905502z" fill-rule="evenodd"></path><path fill="#000000" fill-opacity="0.0" d="m279.75385 162.13374l84.6929 0l0 41.259842l-84.6929 0z" fill-rule="evenodd"></path><path fill="#ffffff" d="m300.63586 190.93936q0.53125 0.9375 1.203125 1.359375q0.671875 0.40625 1.5 0.40625q1.28125 0 1.90625 -0.78125q0.625 -0.78125 0.625 -2.578125l0 -10.921875l2.015625 0l0 11.125q0 1.0 -0.265625 1.90625q-0.25 0.890625 -0.765625 1.5625q-0.515625 0.671875 -1.34375 1.0625q-0.828125 0.375 -1.96875 0.375q-2.953125 0 -4.34375 -2.515625l1.4375 -1.0zm10.7230835 0.203125q0 -1.90625 1.71875 -2.921875q1.71875 -1.03125 5.453125 -1.4375q0 -0.546875 -0.109375 -1.078125q-0.09375 -0.53125 -0.375 -0.9375q-0.28125 -0.40625 -0.734375 -0.65625q-0.453125 -0.25 -1.171875 -0.25q-1.03125 0 -1.90625 0.390625q-0.875 0.375 -1.578125 0.84375l-0.796875 -1.359375q0.828125 -0.53125 2.0 -1.015625q1.171875 -0.5 2.59375 -0.5q2.125 0 3.078125 1.3125q0.96875 1.296875 0.96875 3.484375l0 7.15625l-1.625 0l-0.171875 -1.390625l-0.046875 0q-0.84375 0.6875 -1.8125 1.1875q-0.96875 0.484375 -2.046875 0.484375q-1.484375 0 -2.46875 -0.859375q-0.96875 -0.859375 -0.96875 -2.453125zm1.953125 -0.140625q0 1.015625 0.578125 1.453125q0.59375 0.421875 1.453125 0.421875q0.84375 0 1.59375 -0.390625q0.765625 -0.40625 1.59375 -1.171875l0 -3.234375q-1.453125 0.1875 -2.46875 0.453125q-1.0 0.265625 -1.625 0.625q-0.609375 0.359375 -0.875 0.828125q-0.25 0.46875 -0.25 1.015625zm9.225464 -8.484375l2.046875 0l2.203125 6.609375q0.265625 0.875 0.546875 1.734375q0.28125 0.859375 0.53125 1.703125l0.109375 0q0.25 -0.84375 0.515625 -1.703125q0.265625 -0.859375 0.53125 -1.734375l2.203125 -6.609375l1.953125 0l-4.125 11.65625l-2.3125 0l-4.203125 -11.65625zm12.317352 8.625q0 -1.90625 1.71875 -2.921875q1.71875 -1.03125 5.453125 -1.4375q0 -0.546875 -0.109375 -1.078125q-0.09375 -0.53125 -0.375 -0.9375q-0.28125 -0.40625 -0.734375 -0.65625q-0.453125 -0.25 -1.171875 -0.25q-1.03125 0 -1.90625 0.390625q-0.875 0.375 -1.578125 0.84375l-0.796875 -1.359375q0.828125 -0.53125 2.0 -1.015625q1.171875 -0.5 2.59375 -0.5q2.125 0 3.078125 1.3125q0.96875 1.296875 0.96875 3.484375l0 7.15625l-1.625 0l-0.171875 -1.390625l-0.046875 0q-0.84375 0.6875 -1.8125 1.1875q-0.96875 0.484375 -2.046875 0.484375q-1.484375 0 -2.46875 -0.859375q-0.96875 -0.859375 -0.96875 -2.453125zm1.953125 -0.140625q0 1.015625 0.578125 1.453125q0.59375 0.421875 1.453125 0.421875q0.84375 0 1.59375 -0.390625q0.765625 -0.40625 1.59375 -1.171875l0 -3.234375q-1.453125 0.1875 -2.46875 0.453125q-1.0 0.265625 -1.625 0.625q-0.609375 0.359375 -0.875 0.828125q-0.25 0.46875 -0.25 1.015625z" fill-rule="nonzero"></path><path fill="#6fa8dc" d="m246.43335 53.388695l0 0c0 -19.48066 15.792206 -35.272858 35.272858 -35.272858l0 0c9.35495 0 18.326721 3.716236 24.94168 10.331181c6.614929 6.6149426 10.331177 15.586733 10.331177 24.941675l0 0c0 19.48066 -15.792206 35.272858 -35.272858 35.272858l0 0c-19.480652 0 -35.272858 -15.792198 -35.272858 -35.272858z" fill-rule="evenodd"></path><path stroke="#000000" stroke-width="1.0" stroke-linejoin="round" stroke-linecap="butt" d="m246.43335 53.388695l0 0c0 -19.48066 15.792206 -35.272858 35.272858 -35.272858l0 0c9.35495 0 18.326721 3.716236 24.94168 10.331181c6.614929 6.6149426 10.331177 15.586733 10.331177 24.941675l0 0c0 19.48066 -15.792206 35.272858 -35.272858 35.272858l0 0c-19.480652 0 -35.272858 -15.792198 -35.272858 -35.272858z" fill-rule="evenodd"></path><path fill="#000000" fill-opacity="0.0" d="m239.13095 21.639942l85.957794 0l0 61.075275l-85.957794 0z" fill-rule="evenodd"></path><path fill="#ffffff" d="m261.41614 36.09119l1.578125 0l0 5.234375l5.796875 0l0 -5.234375l1.59375 0l0 12.46875l-1.59375 0l0 -5.875l-5.796875 0l0 5.875l-1.578125 0l0 -12.46875zm14.757629 1.328125l-3.765625 0l0 -1.328125l9.125 0l0 1.328125l-3.765625 0l0 11.140625l-1.59375 0l0 -11.140625zm7.406006 -1.328125l1.875 0l2.40625 6.6875l0.90625 2.546875l0.078125 0l0.875 -2.546875l2.390625 -6.6875l1.875 0l0 12.46875l-1.5 0l0 -6.859375q0 -0.828125 0.0625 -1.828125q0.0625 -1.015625 0.140625 -1.859375l-0.078125 0l-1.0 2.78125l-2.40625 6.515625l-0.890625 0l-2.40625 -6.515625l-0.984375 -2.78125l-0.078125 0q0.046875 0.84375 0.125 1.859375q0.078125 1.0 0.078125 1.828125l0 6.859375l-1.46875 0l0 -12.46875zm13.56308 0l1.578125 0l0 11.125l5.453125 0l0 1.34375l-7.03125 0l0 -12.46875z" fill-rule="nonzero"></path><path fill="#ffffff" d="m261.38092 67.23181q0 0.515625 0.1875 0.953125q0.203125 0.421875 0.53125 0.734375q0.328125 0.296875 0.765625 0.453125q0.453125 0.15625 0.96875 0.15625q0.640625 0 1.234375 -0.265625q0.59375 -0.265625 1.140625 -0.734375q-0.90625 -0.796875 -1.765625 -1.75q-0.84375 -0.953125 -1.5 -1.953125q-0.671875 0.53125 -1.125 1.109375q-0.4375 0.578125 -0.4375 1.296875zm1.46875 -6.437496q0 0.515625 0.15625 1.0625q0.15625 0.546875 0.4375 1.125q0.40625 -0.28125 0.796875 -0.578125q0.390625 -0.296875 0.6875 -0.609375q0.296875 -0.3125 0.46875 -0.65625q0.171875 -0.359375 0.171875 -0.78125q0 -0.546875 -0.28125 -0.953125q-0.28125 -0.421875 -0.90625 -0.421875q-0.703125 0 -1.125 0.515625q-0.40625 0.515625 -0.40625 1.296875zm7.28125 9.999996q-0.671875 -0.203125 -1.390625 -0.546875q-0.71875 -0.359375 -1.484375 -0.890625q-0.71875 0.65625 -1.609375 1.046875q-0.875 0.390625 -1.984375 0.390625q-0.859375 0 -1.546875 -0.25q-0.6875 -0.265625 -1.203125 -0.71875q-0.5 -0.46875 -0.78125 -1.09375q-0.265625 -0.640625 -0.265625 -1.40625q0 -0.625 0.1875 -1.140625q0.203125 -0.515625 0.546875 -0.9375q0.34375 -0.4375 0.78125 -0.8125q0.453125 -0.375 0.9375 -0.7031212q-0.390625 -0.765625 -0.609375 -1.5q-0.21875 -0.734375 -0.21875 -1.421875q0 -0.625 0.203125 -1.15625q0.21875 -0.53125 0.59375 -0.921875q0.390625 -0.40625 0.921875 -0.625q0.53125 -0.234375 1.171875 -0.234375q1.15625 0 1.796875 0.6875q0.65625 0.671875 0.65625 1.78125q0 0.609375 -0.25 1.125q-0.234375 0.5 -0.640625 0.953125q-0.40625 0.453125 -0.90625 0.84375q-0.5 0.375 -1.015625 0.7656212q0.609375 0.96875 1.4375 1.859375q0.828125 0.890625 1.71875 1.625q0.578125 -0.765625 1.015625 -1.671875q0.453125 -0.921875 0.734375 -1.9999962l1.46875 0q-0.390625 1.2343712 -0.921875 2.3593712q-0.53125 1.109375 -1.265625 2.09375q0.640625 0.4375 1.21875 0.75q0.59375 0.296875 1.109375 0.453125l-0.40625 1.296875zm5.239624 -6.46875q0 -1.4999962 0.421875 -2.6874962q0.421875 -1.203125 1.15625 -2.03125q0.75 -0.84375 1.765625 -1.28125q1.015625 -0.453125 2.203125 -0.453125q1.140625 0 2.0 0.46875q0.859375 0.453125 1.40625 1.0625l-0.890625 1.015625q-0.5 -0.53125 -1.09375 -0.84375q-0.59375 -0.328125 -1.390625 -0.328125q-0.90625 0 -1.625 0.359375q-0.71875 0.34375 -1.234375 1.0q-0.515625 0.65625 -0.796875 1.59375q-0.28125 0.9375 -0.28125 2.0937462q0 1.171875 0.265625 2.109375q0.28125 0.9375 0.765625 1.609375q0.5 0.671875 1.21875 1.03125q0.71875 0.359375 1.609375 0.359375q0.90625 0 1.578125 -0.359375q0.671875 -0.359375 1.28125 -1.03125l0.890625 0.96875q-0.734375 0.859375 -1.671875 1.34375q-0.921875 0.46875 -2.125 0.46875q-1.171875 0 -2.171875 -0.4375q-1.0 -0.4375 -1.734375 -1.265625q-0.71875 -0.828125 -1.140625 -2.03125q-0.40625 -1.21875 -0.40625 -2.734375zm11.418335 3.515625q0.65625 0.703125 1.5625 1.140625q0.90625 0.421875 1.875 0.421875q1.234375 0 1.921875 -0.5625q0.6875 -0.5625 0.6875 -1.46875q0 -0.484375 -0.171875 -0.8125q-0.15625 -0.328125 -0.4375 -0.5625q-0.265625 -0.25 -0.65625 -0.4375q-0.375 -0.1875 -0.8125 -0.390625l-1.78125 -0.78125q-0.4375 -0.1875 -0.90625 -0.4531212q-0.453125 -0.265625 -0.8125 -0.640625q-0.359375 -0.390625 -0.59375 -0.90625q-0.21875 -0.53125 -0.21875 -1.21875q0 -0.703125 0.296875 -1.3125q0.296875 -0.609375 0.8125 -1.046875q0.53125 -0.453125 1.234375 -0.6875q0.71875 -0.25 1.5625 -0.25q1.125 0 2.078125 0.421875q0.953125 0.421875 1.609375 1.109375l-0.84375 1.03125q-0.578125 -0.546875 -1.28125 -0.859375q-0.6875 -0.328125 -1.5625 -0.328125q-1.03125 0 -1.671875 0.484375q-0.640625 0.484375 -0.640625 1.34375q0 0.453125 0.171875 0.78125q0.1875 0.3125 0.484375 0.546875q0.3125 0.234375 0.671875 0.421875q0.359375 0.171875 0.75 0.328125l1.765625 0.75q0.53125 0.23437119 1.0 0.5312462q0.484375 0.296875 0.8125 0.6875q0.34375 0.390625 0.546875 0.90625q0.203125 0.515625 0.203125 1.203125q0 0.75 -0.296875 1.390625q-0.296875 0.640625 -0.84375 1.125q-0.546875 0.484375 -1.328125 0.765625q-0.78125 0.28125 -1.765625 0.28125q-1.3125 0 -2.4375 -0.5q-1.125 -0.5 -1.9375 -1.34375l0.953125 -1.109375zm9.962433 0q0.65625 0.703125 1.5625 1.140625q0.90625 0.421875 1.875 0.421875q1.234375 0 1.921875 -0.5625q0.6875 -0.5625 0.6875 -1.46875q0 -0.484375 -0.171875 -0.8125q-0.15625 -0.328125 -0.4375 -0.5625q-0.265625 -0.25 -0.65625 -0.4375q-0.375 -0.1875 -0.8125 -0.390625l-1.78125 -0.78125q-0.4375 -0.1875 -0.90625 -0.4531212q-0.453125 -0.265625 -0.8125 -0.640625q-0.359375 -0.390625 -0.59375 -0.90625q-0.21875 -0.53125 -0.21875 -1.21875q0 -0.703125 0.296875 -1.3125q0.296875 -0.609375 0.8125 -1.046875q0.53125 -0.453125 1.234375 -0.6875q0.71875 -0.25 1.5625 -0.25q1.125 0 2.078125 0.421875q0.953125 0.421875 1.609375 1.109375l-0.84375 1.03125q-0.578125 -0.546875 -1.28125 -0.859375q-0.6875 -0.328125 -1.5625 -0.328125q-1.03125 0 -1.671875 0.484375q-0.640625 0.484375 -0.640625 1.34375q0 0.453125 0.171875 0.78125q0.1875 0.3125 0.484375 0.546875q0.3125 0.234375 0.671875 0.421875q0.359375 0.171875 0.75 0.328125l1.765625 0.75q0.53125 0.23437119 1.0 0.5312462q0.484375 0.296875 0.8125 0.6875q0.34375 0.390625 0.546875 0.90625q0.203125 0.515625 0.203125 1.203125q0 0.75 -0.296875 1.390625q-0.296875 0.640625 -0.84375 1.125q-0.546875 0.484375 -1.328125 0.765625q-0.78125 0.28125 -1.765625 0.28125q-1.3125 0 -2.4375 -0.5q-1.125 -0.5 -1.9375 -1.34375l0.953125 -1.109375z" fill-rule="nonzero"></path><path fill="#6fa8dc" d="m213.10086 121.44l0 0c0 -21.305664 17.271652 -38.577316 38.577316 -38.577316l0 0c10.2313385 0 20.043625 4.0643845 27.278275 11.299034c7.2346497 7.2346497 11.299042 17.046944 11.299042 27.278282l0 0c0 21.305664 -17.271637 38.577316 -38.577316 38.577316l0 0c-21.305664 0 -38.577316 -17.271652 -38.577316 -38.577316z" fill-rule="evenodd"></path><path stroke="#000000" stroke-width="1.0" stroke-linejoin="round" stroke-linecap="butt" d="m213.10086 121.44l0 0c0 -21.305664 17.271652 -38.577316 38.577316 -38.577316l0 0c10.2313385 0 20.043625 4.0643845 27.278275 11.299034c7.2346497 7.2346497 11.299042 17.046944 11.299042 27.278282l0 0c0 21.305664 -17.271637 38.577316 -38.577316 38.577316l0 0c-21.305664 0 -38.577316 -17.271652 -38.577316 -38.577316z" fill-rule="evenodd"></path><path fill="#000000" fill-opacity="0.0" d="m218.39384 96.481804l66.56758 0l0 49.918556l-66.56758 0z" fill-rule="evenodd"></path><path fill="#ffffff" d="m234.14769 120.646805q0 -1.890625 0.515625 -3.40625q0.53125 -1.515625 1.46875 -2.5625q0.9375 -1.0625 2.21875 -1.625q1.296875 -0.5625 2.796875 -0.5625q1.453125 0 2.53125 0.59375q1.078125 0.578125 1.765625 1.34375l-1.125 1.28125q-0.625 -0.671875 -1.390625 -1.0625q-0.75 -0.40625 -1.75 -0.40625q-1.125 0 -2.046875 0.453125q-0.90625 0.4375 -1.5625 1.265625q-0.640625 0.828125 -1.0 2.0q-0.359375 1.171875 -0.359375 2.640625q0 1.484375 0.34375 2.671875q0.359375 1.1875 0.96875 2.03125q0.625 0.84375 1.53125 1.296875q0.90625 0.453125 2.03125 0.453125q1.15625 0 2.0 -0.453125q0.859375 -0.453125 1.625 -1.296875l1.125 1.234375q-0.9375 1.078125 -2.125 1.671875q-1.171875 0.59375 -2.671875 0.59375q-1.5 0 -2.765625 -0.546875q-1.25 -0.546875 -2.171875 -1.59375q-0.921875 -1.046875 -1.4375 -2.5625q-0.515625 -1.53125 -0.515625 -3.453125zm17.641464 0.703125l-4.375 0l0 -1.484375l4.375 0l0 -4.6875l1.5625 0l0 4.6875l4.359375 0l0 1.484375l-4.359375 0l0 4.671875l-1.5625 0l0 -4.671875zm11.9279785 0l-4.375 0l0 -1.484375l4.375 0l0 -4.6875l1.5625 0l0 4.6875l4.359375 0l0 1.484375l-4.359375 0l0 4.671875l-1.5625 0l0 -4.671875z" fill-rule="nonzero"></path><path fill="#6fa8dc" d="m209.71127 187.21642l0 0c0 -15.507462 12.571289 -28.07875 28.078735 -28.07875l0 0c7.446945 0 14.588882 2.9582977 19.854675 8.224075c5.2657776 5.265793 8.22406 12.40773 8.22406 19.854675l0 0c0 15.507446 -12.571274 28.078735 -28.078735 28.078735l0 0c-15.507446 0 -28.078735 -12.571289 -28.078735 -28.078735z" fill-rule="evenodd"></path><path stroke="#000000" stroke-width="1.0" stroke-linejoin="round" stroke-linecap="butt" d="m209.71127 187.21642l0 0c0 -15.507462 12.571289 -28.07875 28.078735 -28.07875l0 0c7.446945 0 14.588882 2.9582977 19.854675 8.224075c5.2657776 5.265793 8.22406 12.40773 8.22406 19.854675l0 0c0 15.507446 -12.571274 28.078735 -28.078735 28.078735l0 0c-15.507446 0 -28.078735 -12.571289 -28.078735 -28.078735z" fill-rule="evenodd"></path><path fill="#000000" fill-opacity="0.0" d="m208.51398 164.13985l56.15747 0l0 41.259842l-56.15747 0z" fill-rule="evenodd"></path><path fill="#ffffff" d="m226.61226 192.94548q0.53125 0.9375 1.203125 1.359375q0.671875 0.40625 1.5 0.40625q1.28125 0 1.90625 -0.78125q0.625 -0.78125 0.625 -2.578125l0 -10.921875l2.015625 0l0 11.125q0 1.0 -0.265625 1.90625q-0.25 0.890625 -0.765625 1.5625q-0.515625 0.671875 -1.34375 1.0625q-0.828125 0.375 -1.96875 0.375q-2.953125 0 -4.34375 -2.515625l1.4375 -1.0zm11.535599 -0.203125q0.84375 0.890625 1.984375 1.4375q1.140625 0.53125 2.359375 0.53125q1.5625 0 2.421875 -0.703125q0.875 -0.703125 0.875 -1.859375q0 -0.59375 -0.203125 -1.015625q-0.203125 -0.421875 -0.5625 -0.71875q-0.34375 -0.3125 -0.828125 -0.546875q-0.46875 -0.234375 -1.03125 -0.5l-2.25 -0.984375q-0.546875 -0.25 -1.125 -0.578125q-0.578125 -0.34375 -1.03125 -0.8125q-0.453125 -0.484375 -0.75 -1.140625q-0.28125 -0.65625 -0.28125 -1.53125q0 -0.890625 0.359375 -1.65625q0.375 -0.765625 1.03125 -1.328125q0.671875 -0.5625 1.5625 -0.875q0.90625 -0.3125 1.984375 -0.3125q1.421875 0 2.609375 0.546875q1.203125 0.53125 2.046875 1.390625l-1.078125 1.296875q-0.71875 -0.6875 -1.59375 -1.078125q-0.875 -0.40625 -1.984375 -0.40625q-1.3125 0 -2.125 0.609375q-0.796875 0.609375 -0.796875 1.703125q0 0.5625 0.21875 0.96875q0.234375 0.390625 0.609375 0.6875q0.390625 0.296875 0.84375 0.53125q0.453125 0.234375 0.9375 0.421875l2.234375 0.953125q0.671875 0.296875 1.265625 0.671875q0.609375 0.359375 1.03125 0.859375q0.4375 0.484375 0.6875 1.15625q0.25 0.65625 0.25 1.515625q0 0.9375 -0.375 1.765625q-0.359375 0.8125 -1.0625 1.421875q-0.6875 0.609375 -1.671875 0.953125q-0.984375 0.34375 -2.234375 0.34375q-1.65625 0 -3.078125 -0.609375q-1.40625 -0.625 -2.4375 -1.71875l1.1875 -1.390625z" fill-rule="nonzero"></path><path fill="#e06666" d="m206.6881 306.49713l0 0c0 -14.777893 11.979843 -26.757751 26.757751 -26.757751l0 0c7.096588 0 13.902527 2.8191223 18.920578 7.837158c5.018036 5.0180664 7.837158 11.824005 7.837158 18.920593l0 0c0 14.777893 -11.979843 26.757751 -26.757736 26.757751l0 0c-14.777908 0 -26.757751 -11.979858 -26.757751 -26.757751z" fill-rule="evenodd"></path><path stroke="#000000" stroke-width="1.0" stroke-linejoin="round" stroke-linecap="butt" d="m206.6881 306.49713l0 0c0 -14.777893 11.979843 -26.757751 26.757751 -26.757751l0 0c7.096588 0 13.902527 2.8191223 18.920578 7.837158c5.018036 5.0180664 7.837158 11.824005 7.837158 18.920593l0 0c0 14.777893 -11.979843 26.757751 -26.757736 26.757751l0 0c-14.777908 0 -26.757751 -11.979858 -26.757751 -26.757751z" fill-rule="evenodd"></path><path fill="#000000" fill-opacity="0.0" d="m199.80717 283.15933l69.30504 0l0 40.283234l-69.30504 0z" fill-rule="evenodd"></path><path fill="#ffffff" d="m209.35405 299.44934l2.0625 0l1.65625 8.578125q0.21875 1.296875 0.453125 2.546875q0.25 1.234375 0.46875 2.53125l0.09375 0q0.265625 -1.296875 0.546875 -2.546875q0.296875 -1.265625 0.5625 -2.53125l2.171875 -8.578125l1.828125 0l2.1875 8.578125q0.28125 1.25 0.5625 2.515625q0.296875 1.265625 0.59375 2.5625l0.09375 0q0.21875 -1.296875 0.421875 -2.546875q0.21875 -1.265625 0.46875 -2.53125l1.65625 -8.578125l1.90625 0l-3.25 15.75l-2.40625 0l-2.375 -9.484375q-0.21875 -0.90625 -0.40625 -1.78125q-0.171875 -0.875 -0.359375 -1.796875l-0.09375 0q-0.203125 0.921875 -0.40625 1.796875q-0.203125 0.875 -0.390625 1.78125l-2.328125 9.484375l-2.375 0l-3.34375 -15.75zm19.426437 9.9375q0 -1.4375 0.4375 -2.578125q0.4375 -1.140625 1.171875 -1.921875q0.734375 -0.796875 1.671875 -1.21875q0.9375 -0.421875 1.953125 -0.421875q1.09375 0 1.96875 0.390625q0.875 0.375 1.46875 1.09375q0.59375 0.71875 0.890625 1.734375q0.3125 1.0 0.3125 2.25q0 0.65625 -0.0625 1.078125l-7.875 0q0.125 1.90625 1.15625 3.015625q1.046875 1.09375 2.734375 1.09375q0.84375 0 1.546875 -0.25q0.703125 -0.25 1.359375 -0.65625l0.6875 1.296875q-0.765625 0.46875 -1.703125 0.828125q-0.9375 0.359375 -2.125 0.359375q-1.1875 0 -2.203125 -0.40625q-1.015625 -0.421875 -1.78125 -1.203125q-0.75 -0.78125 -1.1875 -1.90625q-0.421875 -1.140625 -0.421875 -2.578125zm8.15625 -0.890625q0 -1.796875 -0.765625 -2.734375q-0.75 -0.953125 -2.109375 -0.953125q-0.625 0 -1.203125 0.25q-0.5625 0.25 -1.015625 0.71875q-0.453125 0.46875 -0.75 1.15625q-0.296875 0.6875 -0.390625 1.5625l6.234375 0zm4.607086 -10.390625l1.96875 0l0 4.65625l-0.046875 2.125q0.796875 -0.703125 1.71875 -1.171875q0.9375 -0.46875 1.921875 -0.46875q1.125 0 1.984375 0.421875q0.875 0.421875 1.453125 1.203125q0.59375 0.78125 0.890625 1.875q0.3125 1.078125 0.3125 2.421875q0 1.5 -0.40625 2.671875q-0.40625 1.171875 -1.109375 2.0q-0.703125 0.8125 -1.609375 1.234375q-0.90625 0.40625 -1.921875 0.40625q-0.8125 0 -1.6875 -0.359375q-0.875 -0.375 -1.640625 -1.078125l-0.078125 0l-0.171875 1.15625l-1.578125 0l0 -17.09375zm1.96875 14.5q0.765625 0.671875 1.515625 0.953125q0.765625 0.265625 1.34375 0.265625q0.71875 0 1.328125 -0.3125q0.609375 -0.328125 1.046875 -0.90625q0.453125 -0.59375 0.703125 -1.453125q0.25 -0.875 0.25 -1.953125q0 -0.953125 -0.171875 -1.75q-0.15625 -0.796875 -0.53125 -1.359375q-0.375 -0.5625 -0.96875 -0.875q-0.578125 -0.3125 -1.390625 -0.3125q-1.421875 0 -3.125 1.578125l0 6.125z" fill-rule="nonzero"></path></g></svg>

